<?xml version="1.0" encoding="utf-8"?>
<!-- Generator: Adobe Illustrator 19.2.1, SVG Export Plug-In . SVG Version: 6.00 Build 0)  -->
<svg version="1.1" id="Ebene_1" xmlns="http://www.w3.org/2000/svg" xmlns:xlink="http://www.w3.org/1999/xlink" x="0px" y="0px"
	 viewBox="0 0 256 256" style="enable-background:new 0 0 256 256;" xml:space="preserve">
<style type="text/css">
	.st0{fill:none;stroke:#FF0000;stroke-miterlimit:10;}
	.st1{stroke:url(#SVGID_1_);stroke-miterlimit:10;}
</style>
<g>
	<path d="M173.1,80H82.9c-1.7,0-3.3,1.1-3.8,2.7l-5.3,16c-0.9,2.6,1.1,5.3,3.8,5.3h100.9c2.7,0,4.7-2.7,3.8-5.3l-5.3-16
		C176.4,81.1,174.8,80,173.1,80z"/>
	<path d="M183.1,161.7l-21.3-3.6c-1.2-0.2-2.3-0.2-3.5,0l-30.2,5l-30.5,5c-1.2,0.2-2.3,0.2-3.5,0l-17.6-3
		c-6.5-1.1-12.4,3.9-12.4,10.5v3.4c0,1.5,0.2,2.9,0.4,4.4c1.5,12.9,7.2,22.5,17.3,29.2c11,7.3,27,11.2,46.3,11.2s35.2-3.9,46.3-11.2
		c10.1-6.7,15.8-16.3,17.3-29.2c0.3-1.4,0.4-2.9,0.4-4.4v-7C192,167,188.2,162.6,183.1,161.7z"/>
	<path d="M65,60c10.4,0,16.5,9.5,18.8,13.8c0.6,1.2,1.8,2,3.2,2.1l0,0h0.4h77.8l23.2-37.3C190.1,36,188,32,185,32L84.5,39.7
		c-2.3,0.2-4.6,1.6-4.2,4l0.1,0.3h-3c-1.3,0-2.6,0.7-3.3,1.8C74,45.9,74,46,73.9,46.1c-0.7,1.2-2,1.9-3.4,1.9H65c-3.3,0-2.7-8-11-8
		c-8.3,0-13,15.3-13,27c0,11.6,0,29.8,0,46c0,16.1-13.9,31-5,31c7.7,0,12-15.6,17-29C58,101.6,51.8,60,65,60z"/>
	<path d="M174.7,108H173h-9.6H92.6H85h-3.7C63.1,126.9,48,152.5,48,176c0,48.2,39.7,64,80,64c40.3,0,80-15.8,80-64
		C208,152.5,192.9,126.9,174.7,108z M178.7,219.4c-12.3,8.2-29.9,12.6-50.7,12.6s-38.4-4.3-50.7-12.6C63.2,210,56,195.4,56,176
		c0-17.7,10.5-39.8,28-59.2c0.3-0.3,0.5-0.5,0.8-0.8c0.1,0,0.2,0,0.2,0h86.3c0.2,0.3,0.5,0.5,0.7,0.8c17.5,19.4,28,41.5,28,59.2
		C200,195.4,192.8,210,178.7,219.4z"/>
</g>
</svg>
