<?xml version="1.0" encoding="utf-8"?>
<!-- Generator: Adobe Illustrator 19.2.1, SVG Export Plug-In . SVG Version: 6.00 Build 0)  -->
<svg version="1.1" id="Ebene_1" xmlns="http://www.w3.org/2000/svg" xmlns:xlink="http://www.w3.org/1999/xlink" x="0px" y="0px"
	 viewBox="0 0 256 256" style="enable-background:new 0 0 256 256;" xml:space="preserve">
<style type="text/css">
	.st0{fill:none;stroke:#FF0000;stroke-miterlimit:10;}
	.st1{stroke:url(#SVGID_1_);stroke-miterlimit:10;}
</style>
<g>
	<path d="M171.8,208H84.2c-3.2,0-5.1,3.6-3.3,6.3C92.8,231.6,108.3,240,128,240s35.2-8.4,47.1-25.7C177,211.6,175.1,208,171.8,208z"
		/>
	<path d="M188.9,160H67.1c-2.6,0-4.5,2.5-3.9,5c2.1,8,4.7,16.2,8.1,23.9c1.4,3.2,2.9,6.2,4.4,9c0.7,1.3,2,2,3.5,2h97.5
		c1.4,0,2.8-0.8,3.5-2c1.5-2.8,3-5.8,4.4-9c3.4-7.8,6.1-16,8.1-23.9C193.4,162.5,191.5,160,188.9,160z M190.8,164.5
		c-2.2,8.6-4.9,16.6-8,23.6c-1.4,3.1-2.8,6.1-4.3,8.9c-0.3,0.6-1,1-1.7,1H79.3c-0.7,0-1.4-0.4-1.7-1c-1.5-2.8-3-5.8-4.3-8.9
		c-3.1-7.1-5.8-15-8-23.6c-0.2-0.6,0-1.2,0.4-1.7c0.4-0.5,1-0.8,1.6-0.8h121.8c0.6,0,1.2,0.3,1.6,0.8
		C190.9,163.3,191,163.9,190.8,164.5z"/>
	<path d="M140.5,168.2c-0.5-0.3-1.1-0.2-1.4,0.3l-14,22c-0.3,0.5-0.2,1.1,0.3,1.4c0.2,0.1,0.4,0.2,0.5,0.2c0.3,0,0.7-0.2,0.8-0.5
		l14-22C141.1,169.1,141,168.5,140.5,168.2z"/>
	<path d="M145.5,168.2c-0.5-0.3-1.1-0.2-1.4,0.3l-14,22c-0.3,0.5-0.2,1.1,0.3,1.4c0.2,0.1,0.4,0.2,0.5,0.2c0.3,0,0.7-0.2,0.8-0.5
		l14-22C146.1,169.1,146,168.5,145.5,168.2z"/>
	<path d="M130.5,168.2c-0.5-0.3-1.1-0.2-1.4,0.3l-14,22c-0.3,0.5-0.2,1.1,0.3,1.4c0.2,0.1,0.4,0.2,0.5,0.2c0.3,0,0.7-0.2,0.8-0.5
		l14-22C131.1,169.1,131,168.5,130.5,168.2z"/>
	<path d="M135.5,168.2c-0.5-0.3-1.1-0.2-1.4,0.3l-14,22c-0.3,0.5-0.2,1.1,0.3,1.4c0.2,0.1,0.4,0.2,0.5,0.2c0.3,0,0.7-0.2,0.8-0.5
		l14-22C136.1,169.1,136,168.5,135.5,168.2z"/>
	<path d="M120.5,168.2c-0.5-0.3-1.1-0.2-1.4,0.3l-14,22c-0.3,0.5-0.2,1.1,0.3,1.4c0.2,0.1,0.4,0.2,0.5,0.2c0.3,0,0.7-0.2,0.8-0.5
		l14-22C121.1,169.1,121,168.5,120.5,168.2z"/>
	<path d="M125.5,168.2c-0.5-0.3-1.1-0.2-1.4,0.3l-14,22c-0.3,0.5-0.2,1.1,0.3,1.4c0.2,0.1,0.4,0.2,0.5,0.2c0.3,0,0.7-0.2,0.8-0.5
		l14-22C126.1,169.1,126,168.5,125.5,168.2z"/>
	<path d="M110.5,168.2c-0.5-0.3-1.1-0.2-1.4,0.3l-14,22c-0.3,0.5-0.2,1.1,0.3,1.4c0.2,0.1,0.4,0.2,0.5,0.2c0.3,0,0.7-0.2,0.8-0.5
		l14-22C111.1,169.1,111,168.5,110.5,168.2z"/>
	<path d="M115.5,168.2c-0.5-0.3-1.1-0.2-1.4,0.3l-14,22c-0.3,0.5-0.2,1.1,0.3,1.4c0.2,0.1,0.4,0.2,0.5,0.2c0.3,0,0.7-0.2,0.8-0.5
		l14-22C116.1,169.1,116,168.5,115.5,168.2z"/>
	<path d="M105.5,168.2c-0.5-0.3-1.1-0.2-1.4,0.3l-14,22c-0.3,0.5-0.2,1.1,0.3,1.4c0.2,0.1,0.4,0.2,0.5,0.2c0.3,0,0.7-0.2,0.8-0.5
		l14-22C106.1,169.1,106,168.5,105.5,168.2z"/>
	<path d="M95.5,168.2c-0.5-0.3-1.1-0.2-1.4,0.3l-13.6,21.3c0.3,0.7,0.7,1.4,1,2c0.1-0.1,0.2-0.2,0.3-0.3l14-22
		C96.1,169.1,96,168.5,95.5,168.2z"/>
	<path d="M100.5,168.2c-0.5-0.3-1.1-0.2-1.4,0.3l-14,22c-0.3,0.5-0.2,1.1,0.3,1.4c0.2,0.1,0.4,0.2,0.5,0.2c0.3,0,0.7-0.2,0.8-0.5
		l14-22C101.1,169.1,101,168.5,100.5,168.2z"/>
	<path d="M90.5,168.2c-0.5-0.3-1.1-0.2-1.4,0.3l-10.7,16.8c0.1,0.2,0.1,0.3,0.2,0.5c0.3,0.6,0.5,1.1,0.8,1.7l11.4-17.9
		C91.1,169.1,91,168.5,90.5,168.2z"/>
	<path d="M80.5,168.2c-0.5-0.3-1.1-0.2-1.4,0.3l-4.4,7c0.3,0.8,0.6,1.6,0.8,2.4l5.3-8.3C81.1,169.1,81,168.5,80.5,168.2z"/>
	<path d="M75.5,168.2c-0.5-0.3-1.1-0.2-1.4,0.3l-1.1,1.8c0.3,0.8,0.5,1.7,0.8,2.5l2-3.2C76.1,169.1,76,168.5,75.5,168.2z"/>
	<path d="M85.5,168.2c-0.5-0.3-1.1-0.2-1.4,0.3l-7.6,12c0.3,0.8,0.6,1.5,0.9,2.3l8.4-13.2C86.1,169.1,86,168.5,85.5,168.2z"/>
	<path d="M150.5,168.2c-0.5-0.3-1.1-0.2-1.4,0.3l-14,22c-0.3,0.5-0.2,1.1,0.3,1.4c0.2,0.1,0.4,0.2,0.5,0.2c0.3,0,0.7-0.2,0.8-0.5
		l14-22C151.1,169.1,151,168.5,150.5,168.2z"/>
	<path d="M155.5,168.2c-0.5-0.3-1.1-0.2-1.4,0.3l-14,22c-0.3,0.5-0.2,1.1,0.3,1.4c0.2,0.1,0.4,0.2,0.5,0.2c0.3,0,0.7-0.2,0.8-0.5
		l14-22C156.1,169.1,156,168.5,155.5,168.2z"/>
	<path d="M160.5,168.2c-0.5-0.3-1.1-0.2-1.4,0.3l-14,22c-0.3,0.5-0.2,1.1,0.3,1.4c0.2,0.1,0.4,0.2,0.5,0.2c0.3,0,0.7-0.2,0.8-0.5
		l14-22C161.1,169.1,161,168.5,160.5,168.2z"/>
	<path d="M165.5,168.2c-0.5-0.3-1.1-0.2-1.4,0.3l-14,22c-0.3,0.5-0.2,1.1,0.3,1.4c0.2,0.1,0.4,0.2,0.5,0.2c0.3,0,0.7-0.2,0.8-0.5
		l14-22C166.1,169.1,166,168.5,165.5,168.2z"/>
	<path d="M170.5,168.2c-0.5-0.3-1.1-0.2-1.4,0.3l-14,22c-0.3,0.5-0.2,1.1,0.3,1.4c0.2,0.1,0.4,0.2,0.5,0.2c0.3,0,0.7-0.2,0.8-0.5
		l14-22C171.1,169.1,171,168.5,170.5,168.2z"/>
	<path d="M175.5,168.2c-0.5-0.3-1.1-0.2-1.4,0.3l-14,22c-0.3,0.5-0.2,1.1,0.3,1.4c0.2,0.1,0.4,0.2,0.5,0.2c0.3,0,0.7-0.2,0.8-0.5
		l14-22C176.1,169.1,176,168.5,175.5,168.2z"/>
	<path d="M180.5,168.2c-0.5-0.3-1.1-0.2-1.4,0.3l-14,22c-0.3,0.5-0.2,1.1,0.3,1.4c0.2,0.1,0.4,0.2,0.5,0.2c0.3,0,0.7-0.2,0.8-0.5
		l14-22C181.1,169.1,181,168.5,180.5,168.2z"/>
	<path d="M185.5,168.2c-0.5-0.3-1.1-0.2-1.4,0.3l-14,22c-0.3,0.5-0.2,1.1,0.3,1.4c0.2,0.1,0.4,0.2,0.5,0.2c0.3,0,0.7-0.2,0.8-0.5
		l14-22C186.1,169.1,186,168.5,185.5,168.2z"/>
	<path d="M194.7,118H61.3c-2.4,0-4.2,2.1-4,4.4c0.8,7.5,2.2,16.7,4.4,26.4c0.4,1.8,2,3.1,3.9,3.1h124.7c1.9,0,3.5-1.3,3.9-3.1
		c2.2-9.8,3.6-19,4.4-26.4C198.9,120.1,197,118,194.7,118z M196.7,122.2c-1,9-2.5,17.9-4.4,26.2c-0.2,0.9-1,1.6-2,1.6H65.7
		c-0.9,0-1.7-0.6-2-1.6c-1.9-8.4-3.4-17.2-4.4-26.2c-0.1-0.6,0.1-1.1,0.5-1.5c0.4-0.4,0.9-0.7,1.5-0.7h133.3c0.6,0,1.1,0.2,1.5,0.7
		C196.5,121.1,196.7,121.6,196.7,122.2z"/>
	<path d="M80,132c2.2,0,4-1.8,4-4s-1.8-4-4-4c-2.2,0-4,1.8-4,4S77.8,132,80,132z M80,126c1.1,0,2,0.9,2,2s-0.9,2-2,2s-2-0.9-2-2
		S78.9,126,80,126z"/>
	<circle cx="176" cy="135" r="2"/>
	<circle cx="144" cy="135" r="2"/>
	<circle cx="160" cy="135" r="2"/>
	<circle cx="112" cy="135" r="2"/>
	<circle cx="128" cy="135" r="2"/>
	<circle cx="80" cy="135" r="2"/>
	<circle cx="96" cy="135" r="2"/>
	<path d="M96,132c2.2,0,4-1.8,4-4s-1.8-4-4-4c-2.2,0-4,1.8-4,4S93.8,132,96,132z M96,126c1.1,0,2,0.9,2,2s-0.9,2-2,2s-2-0.9-2-2
		S94.9,126,96,126z"/>
	<path d="M112,132c2.2,0,4-1.8,4-4s-1.8-4-4-4c-2.2,0-4,1.8-4,4S109.8,132,112,132z M112,126c1.1,0,2,0.9,2,2s-0.9,2-2,2s-2-0.9-2-2
		S110.9,126,112,126z"/>
	<path d="M128,132c2.2,0,4-1.8,4-4s-1.8-4-4-4c-2.2,0-4,1.8-4,4S125.8,132,128,132z M128,126c1.1,0,2,0.9,2,2s-0.9,2-2,2s-2-0.9-2-2
		S126.9,126,128,126z"/>
	<path d="M144,132c2.2,0,4-1.8,4-4s-1.8-4-4-4c-2.2,0-4,1.8-4,4S141.8,132,144,132z M144,126c1.1,0,2,0.9,2,2s-0.9,2-2,2s-2-0.9-2-2
		S142.9,126,144,126z"/>
	<path d="M160,132c2.2,0,4-1.8,4-4s-1.8-4-4-4c-2.2,0-4,1.8-4,4S157.8,132,160,132z M160,126c1.1,0,2,0.9,2,2s-0.9,2-2,2s-2-0.9-2-2
		S158.9,126,160,126z"/>
	<path d="M176,132c2.2,0,4-1.8,4-4s-1.8-4-4-4c-2.2,0-4,1.8-4,4S173.8,132,176,132z M176,126c1.1,0,2,0.9,2,2s-0.9,2-2,2s-2-0.9-2-2
		S174.9,126,176,126z"/>
	<path d="M72,130c-2.2,0-4,1.8-4,4s1.8,4,4,4c2.2,0,4-1.8,4-4S74.2,130,72,130z M72,136c-1.1,0-2-0.9-2-2s0.9-2,2-2s2,0.9,2,2
		S73.1,136,72,136z"/>
	<path d="M88,130c-2.2,0-4,1.8-4,4s1.8,4,4,4c2.2,0,4-1.8,4-4S90.2,130,88,130z M88,136c-1.1,0-2-0.9-2-2s0.9-2,2-2s2,0.9,2,2
		S89.1,136,88,136z"/>
	<path d="M104,130c-2.2,0-4,1.8-4,4s1.8,4,4,4c2.2,0,4-1.8,4-4S106.2,130,104,130z M104,136c-1.1,0-2-0.9-2-2s0.9-2,2-2s2,0.9,2,2
		S105.1,136,104,136z"/>
	<path d="M120,130c-2.2,0-4,1.8-4,4s1.8,4,4,4c2.2,0,4-1.8,4-4S122.2,130,120,130z M120,136c-1.1,0-2-0.9-2-2s0.9-2,2-2s2,0.9,2,2
		S121.1,136,120,136z"/>
	<path d="M136,130c-2.2,0-4,1.8-4,4s1.8,4,4,4c2.2,0,4-1.8,4-4S138.2,130,136,130z M136,136c-1.1,0-2-0.9-2-2s0.9-2,2-2s2,0.9,2,2
		S137.1,136,136,136z"/>
	<path d="M152,130c-2.2,0-4,1.8-4,4s1.8,4,4,4c2.2,0,4-1.8,4-4S154.2,130,152,130z M152,136c-1.1,0-2-0.9-2-2s0.9-2,2-2s2,0.9,2,2
		S153.1,136,152,136z"/>
	<path d="M168,130c-2.2,0-4,1.8-4,4s1.8,4,4,4c2.2,0,4-1.8,4-4S170.2,130,168,130z M168,136c-1.1,0-2-0.9-2-2s0.9-2,2-2s2,0.9,2,2
		S169.1,136,168,136z"/>
	<path d="M184,130c-2.2,0-4,1.8-4,4s1.8,4,4,4c2.2,0,4-1.8,4-4S186.2,130,184,130z M184,136c-1.1,0-2-0.9-2-2s0.9-2,2-2s2,0.9,2,2
		S185.1,136,184,136z"/>
	<path d="M80,138c-2.2,0-4,1.8-4,4s1.8,4,4,4c2.2,0,4-1.8,4-4S82.2,138,80,138z M80,144c-1.1,0-2-0.9-2-2s0.9-2,2-2s2,0.9,2,2
		S81.1,144,80,144z"/>
	<circle cx="72" cy="141" r="2"/>
	<circle cx="88" cy="141" r="2"/>
	<circle cx="104" cy="141" r="2"/>
	<circle cx="120" cy="141" r="2"/>
	<circle cx="136" cy="141" r="2"/>
	<circle cx="152" cy="141" r="2"/>
	<circle cx="168" cy="141" r="2"/>
	<circle cx="184" cy="141" r="2"/>
	<circle cx="72" cy="127" r="2"/>
	<circle cx="88" cy="127" r="2"/>
	<circle cx="104" cy="127" r="2"/>
	<circle cx="120" cy="127" r="2"/>
	<circle cx="136" cy="127" r="2"/>
	<circle cx="152" cy="127" r="2"/>
	<circle cx="168" cy="127" r="2"/>
	<circle cx="184" cy="127" r="2"/>
	<path d="M96,138c-2.2,0-4,1.8-4,4s1.8,4,4,4c2.2,0,4-1.8,4-4S98.2,138,96,138z M96,144c-1.1,0-2-0.9-2-2s0.9-2,2-2s2,0.9,2,2
		S97.1,144,96,144z"/>
	<path d="M112,138c-2.2,0-4,1.8-4,4s1.8,4,4,4c2.2,0,4-1.8,4-4S114.2,138,112,138z M112,144c-1.1,0-2-0.9-2-2s0.9-2,2-2s2,0.9,2,2
		S113.1,144,112,144z"/>
	<path d="M128,138c-2.2,0-4,1.8-4,4s1.8,4,4,4c2.2,0,4-1.8,4-4S130.2,138,128,138z M128,144c-1.1,0-2-0.9-2-2s0.9-2,2-2s2,0.9,2,2
		S129.1,144,128,144z"/>
	<path d="M144,138c-2.2,0-4,1.8-4,4s1.8,4,4,4c2.2,0,4-1.8,4-4S146.2,138,144,138z M144,144c-1.1,0-2-0.9-2-2s0.9-2,2-2s2,0.9,2,2
		S145.1,144,144,144z"/>
	<path d="M160,138c-2.2,0-4,1.8-4,4s1.8,4,4,4c2.2,0,4-1.8,4-4S162.2,138,160,138z M160,144c-1.1,0-2-0.9-2-2s0.9-2,2-2s2,0.9,2,2
		S161.1,144,160,144z"/>
	<path d="M176,138c-2.2,0-4,1.8-4,4s1.8,4,4,4c2.2,0,4-1.8,4-4S178.2,138,176,138z M176,144c-1.1,0-2-0.9-2-2s0.9-2,2-2s2,0.9,2,2
		S177.1,144,176,144z"/>
</g>
</svg>
