<svg xmlns="http://www.w3.org/2000/svg" xmlns:xlink="http://www.w3.org/1999/xlink" version="1.1" x="0px" y="0px" viewBox="0 0 100 100" enable-background="new 0 0 100 100" xml:space="preserve"><g><path d="M60.621,82.58C57.049,81.385,53,80.029,53,76V58.25c0-4.139,2.598-6.771,4.889-9.093   c0.705-0.715,1.377-1.399,1.947-2.096c1.012-1.013,1.913-2.209,2.684-3.597c5.768-10.382,3.427-28.509,0.014-33.993   C62.352,9.179,62.03,9,61.685,9h-23.37c-0.346,0-0.667,0.179-0.849,0.472c-3.413,5.485-5.752,23.612,0.016,33.994   c0.771,1.386,1.671,2.582,2.682,3.595c0.569,0.695,1.242,1.382,1.949,2.097C44.403,51.479,47,54.111,47,58.25V76   c0,4.029-4.049,5.385-7.621,6.58C36.613,83.507,34,84.381,34,86.625C34,90,39.347,90,50,90c10.652,0,16,0,16-3.375   C66,84.381,63.387,83.507,60.621,82.58z M46.048,50.491C47.287,50.827,48.606,51,50,51s2.713-0.173,3.951-0.509   c-0.8,0.996-1.529,2.105-2.064,3.372c-1.227,0.163-2.546,0.163-3.773,0C47.579,52.597,46.849,51.487,46.048,50.491z M38.892,11   h22.215c2.967,5.548,4.851,22.158-0.336,31.494C60.171,43.575,57.562,49,50,49s-10.17-5.425-10.771-6.506   C34.042,33.159,35.926,16.549,38.892,11z M50,88c-6.562,0-14,0-14-1.375c0-0.805,2.132-1.519,4.014-2.148   C43.806,83.207,49,81.469,49,76V58.25c0-0.818-0.089-1.581-0.238-2.303C49.17,55.979,49.581,56,50,56   c0.418,0,0.83-0.021,1.238-0.053C51.09,56.669,51,57.432,51,58.25V76c0,5.469,5.193,7.207,8.986,8.477   C61.867,85.106,64,85.82,64,86.625C64,88,56.562,88,50,88z"></path></g></svg>