<?xml version="1.0" encoding="utf-8"?>
<!-- Generator: Adobe Illustrator 19.2.1, SVG Export Plug-In . SVG Version: 6.00 Build 0)  -->
<svg version="1.1" id="Ebene_1" xmlns="http://www.w3.org/2000/svg" xmlns:xlink="http://www.w3.org/1999/xlink" x="0px" y="0px"
	 viewBox="0 0 256 256" style="enable-background:new 0 0 256 256;" xml:space="preserve">
<style type="text/css">
	.st0{fill:none;stroke:#FF0000;stroke-miterlimit:10;}
	.st1{stroke:url(#SVGID_1_);stroke-miterlimit:10;}
</style>
<g>
	<path d="M184,54H72c0,0-12,8-12,32s0,114,0,114c0,22.1,17.9,40,40,40h56c22.1,0,40-17.9,40-40c0,0,0-90.4,0-114S184,54,184,54z
		 M188,200c0,17.6-14.4,32-32,32h-56c-17.6,0-32-14.4-32-32V86c0-14.1,4.6-21.2,7.1-24h105.7c2.5,2.9,7.2,10.1,7.2,24V200z"/>
	<path d="M72,50h112c2.2,0,4-1.8,4-4V28c0-6.6-5.4-12-12-12H80c-6.6,0-12,5.4-12,12v18C68,48.2,69.8,50,72,50z"/>
	<circle cx="84" cy="198" r="2"/>
	<circle cx="80" cy="198" r="2"/>
	<circle cx="76" cy="198" r="2"/>
	<circle cx="72" cy="198" r="2"/>
	<circle cx="88" cy="198" r="2"/>
	<circle cx="96" cy="198" r="2"/>
	<circle cx="92" cy="198" r="2"/>
	<circle cx="100" cy="198" r="2"/>
	<circle cx="108" cy="198" r="2"/>
	<circle cx="104" cy="198" r="2"/>
	<circle cx="112" cy="198" r="2"/>
	<circle cx="120" cy="198" r="2"/>
	<circle cx="116" cy="198" r="2"/>
	<circle cx="124" cy="198" r="2"/>
	<circle cx="86" cy="194" r="2"/>
	<circle cx="82" cy="194" r="2"/>
	<circle cx="78" cy="194" r="2"/>
	<circle cx="74" cy="194" r="2"/>
	<circle cx="90" cy="194" r="2"/>
	<circle cx="98" cy="194" r="2"/>
	<circle cx="94" cy="194" r="2"/>
	<circle cx="102" cy="194" r="2"/>
	<circle cx="110" cy="194" r="2"/>
	<circle cx="106" cy="194" r="2"/>
	<circle cx="114" cy="194" r="2"/>
	<circle cx="122" cy="194" r="2"/>
	<circle cx="118" cy="194" r="2"/>
	<circle cx="126" cy="194" r="2"/>
	<circle cx="84" cy="206" r="2"/>
	<circle cx="80" cy="206" r="2"/>
	<circle cx="76" cy="206" r="2"/>
	<circle cx="72" cy="206" r="2"/>
	<circle cx="88" cy="206" r="2"/>
	<circle cx="96" cy="206" r="2"/>
	<circle cx="92" cy="206" r="2"/>
	<circle cx="100" cy="206" r="2"/>
	<circle cx="108" cy="206" r="2"/>
	<circle cx="104" cy="206" r="2"/>
	<circle cx="112" cy="206" r="2"/>
	<circle cx="120" cy="206" r="2"/>
	<circle cx="116" cy="206" r="2"/>
	<circle cx="124" cy="206" r="2"/>
	<circle cx="86" cy="202" r="2"/>
	<circle cx="82" cy="202" r="2"/>
	<circle cx="78" cy="202" r="2"/>
	<circle cx="74" cy="202" r="2"/>
	<circle cx="90" cy="202" r="2"/>
	<circle cx="98" cy="202" r="2"/>
	<circle cx="94" cy="202" r="2"/>
	<circle cx="102" cy="202" r="2"/>
	<circle cx="110" cy="202" r="2"/>
	<circle cx="106" cy="202" r="2"/>
	<circle cx="114" cy="202" r="2"/>
	<circle cx="122" cy="202" r="2"/>
	<circle cx="118" cy="202" r="2"/>
	<circle cx="126" cy="202" r="2"/>
	<circle cx="144" cy="198" r="2"/>
	<circle cx="140" cy="198" r="2"/>
	<circle cx="136" cy="198" r="2"/>
	<circle cx="132" cy="198" r="2"/>
	<circle cx="128" cy="198" r="2"/>
	<circle cx="148" cy="198" r="2"/>
	<circle cx="156" cy="198" r="2"/>
	<circle cx="152" cy="198" r="2"/>
	<circle cx="160" cy="198" r="2"/>
	<circle cx="168" cy="198" r="2"/>
	<circle cx="164" cy="198" r="2"/>
	<circle cx="172" cy="198" r="2"/>
	<circle cx="180" cy="198" r="2"/>
	<circle cx="176" cy="198" r="2"/>
	<circle cx="184" cy="198" r="2"/>
	<circle cx="146" cy="194" r="2"/>
	<circle cx="142" cy="194" r="2"/>
	<circle cx="138" cy="194" r="2"/>
	<circle cx="134" cy="194" r="2"/>
	<circle cx="130" cy="194" r="2"/>
	<circle cx="150" cy="194" r="2"/>
	<circle cx="158" cy="194" r="2"/>
	<circle cx="154" cy="194" r="2"/>
	<circle cx="162" cy="194" r="2"/>
	<circle cx="170" cy="194" r="2"/>
	<circle cx="166" cy="194" r="2"/>
	<circle cx="174" cy="194" r="2"/>
	<circle cx="182" cy="194" r="2"/>
	<circle cx="178" cy="194" r="2"/>
	<circle cx="144" cy="206" r="2"/>
	<circle cx="140" cy="206" r="2"/>
	<circle cx="136" cy="206" r="2"/>
	<circle cx="132" cy="206" r="2"/>
	<circle cx="128" cy="206" r="2"/>
	<circle cx="148" cy="206" r="2"/>
	<circle cx="156" cy="206" r="2"/>
	<circle cx="152" cy="206" r="2"/>
	<circle cx="160" cy="206" r="2"/>
	<circle cx="168" cy="206" r="2"/>
	<circle cx="164" cy="206" r="2"/>
	<circle cx="172" cy="206" r="2"/>
	<circle cx="180" cy="206" r="2"/>
	<circle cx="176" cy="206" r="2"/>
	<circle cx="184" cy="206" r="2"/>
	<circle cx="146" cy="202" r="2"/>
	<circle cx="142" cy="202" r="2"/>
	<circle cx="138" cy="202" r="2"/>
	<circle cx="134" cy="202" r="2"/>
	<circle cx="130" cy="202" r="2"/>
	<circle cx="150" cy="202" r="2"/>
	<circle cx="158" cy="202" r="2"/>
	<circle cx="154" cy="202" r="2"/>
	<circle cx="162" cy="202" r="2"/>
	<circle cx="170" cy="202" r="2"/>
	<circle cx="166" cy="202" r="2"/>
	<circle cx="174" cy="202" r="2"/>
	<circle cx="182" cy="202" r="2"/>
	<circle cx="178" cy="202" r="2"/>
	<circle cx="84" cy="182" r="2"/>
	<circle cx="80" cy="182" r="2"/>
	<circle cx="76" cy="182" r="2"/>
	<circle cx="72" cy="182" r="2"/>
	<circle cx="88" cy="182" r="2"/>
	<circle cx="96" cy="182" r="2"/>
	<circle cx="92" cy="182" r="2"/>
	<circle cx="100" cy="182" r="2"/>
	<circle cx="108" cy="182" r="2"/>
	<circle cx="104" cy="182" r="2"/>
	<circle cx="112" cy="182" r="2"/>
	<circle cx="120" cy="182" r="2"/>
	<circle cx="116" cy="182" r="2"/>
	<circle cx="124" cy="182" r="2"/>
	<circle cx="86" cy="178" r="2"/>
	<circle cx="82" cy="178" r="2"/>
	<circle cx="78" cy="178" r="2"/>
	<circle cx="74" cy="178" r="2"/>
	<circle cx="90" cy="178" r="2"/>
	<circle cx="98" cy="178" r="2"/>
	<circle cx="94" cy="178" r="2"/>
	<circle cx="102" cy="178" r="2"/>
	<circle cx="110" cy="178" r="2"/>
	<circle cx="106" cy="178" r="2"/>
	<circle cx="114" cy="178" r="2"/>
	<circle cx="122" cy="178" r="2"/>
	<circle cx="118" cy="178" r="2"/>
	<circle cx="126" cy="178" r="2"/>
	<circle cx="84" cy="190" r="2"/>
	<circle cx="80" cy="190" r="2"/>
	<circle cx="76" cy="190" r="2"/>
	<circle cx="72" cy="190" r="2"/>
	<circle cx="88" cy="190" r="2"/>
	<circle cx="96" cy="190" r="2"/>
	<circle cx="92" cy="190" r="2"/>
	<circle cx="100" cy="190" r="2"/>
	<circle cx="108" cy="190" r="2"/>
	<circle cx="104" cy="190" r="2"/>
	<circle cx="112" cy="190" r="2"/>
	<circle cx="120" cy="190" r="2"/>
	<circle cx="116" cy="190" r="2"/>
	<circle cx="124" cy="190" r="2"/>
	<circle cx="86" cy="186" r="2"/>
	<circle cx="82" cy="186" r="2"/>
	<circle cx="78" cy="186" r="2"/>
	<circle cx="74" cy="186" r="2"/>
	<circle cx="90" cy="186" r="2"/>
	<circle cx="98" cy="186" r="2"/>
	<circle cx="94" cy="186" r="2"/>
	<circle cx="102" cy="186" r="2"/>
	<circle cx="110" cy="186" r="2"/>
	<circle cx="106" cy="186" r="2"/>
	<circle cx="114" cy="186" r="2"/>
	<circle cx="122" cy="186" r="2"/>
	<circle cx="118" cy="186" r="2"/>
	<circle cx="126" cy="186" r="2"/>
	<circle cx="144" cy="182" r="2"/>
	<circle cx="140" cy="182" r="2"/>
	<circle cx="136" cy="182" r="2"/>
	<circle cx="132" cy="182" r="2"/>
	<circle cx="128" cy="182" r="2"/>
	<circle cx="148" cy="182" r="2"/>
	<circle cx="156" cy="182" r="2"/>
	<circle cx="152" cy="182" r="2"/>
	<circle cx="160" cy="182" r="2"/>
	<circle cx="168" cy="182" r="2"/>
	<circle cx="164" cy="182" r="2"/>
	<circle cx="172" cy="182" r="2"/>
	<circle cx="180" cy="182" r="2"/>
	<circle cx="176" cy="182" r="2"/>
	<circle cx="184" cy="182" r="2"/>
	<circle cx="146" cy="178" r="2"/>
	<circle cx="142" cy="178" r="2"/>
	<circle cx="138" cy="178" r="2"/>
	<circle cx="134" cy="178" r="2"/>
	<circle cx="130" cy="178" r="2"/>
	<circle cx="150" cy="178" r="2"/>
	<circle cx="158" cy="178" r="2"/>
	<circle cx="154" cy="178" r="2"/>
	<circle cx="162" cy="178" r="2"/>
	<circle cx="170" cy="178" r="2"/>
	<circle cx="166" cy="178" r="2"/>
	<circle cx="174" cy="178" r="2"/>
	<circle cx="182" cy="178" r="2"/>
	<circle cx="178" cy="178" r="2"/>
	<circle cx="144" cy="190" r="2"/>
	<circle cx="140" cy="190" r="2"/>
	<circle cx="136" cy="190" r="2"/>
	<circle cx="132" cy="190" r="2"/>
	<circle cx="128" cy="190" r="2"/>
	<circle cx="148" cy="190" r="2"/>
	<circle cx="156" cy="190" r="2"/>
	<circle cx="152" cy="190" r="2"/>
	<circle cx="160" cy="190" r="2"/>
	<circle cx="168" cy="190" r="2"/>
	<circle cx="164" cy="190" r="2"/>
	<circle cx="172" cy="190" r="2"/>
	<circle cx="180" cy="190" r="2"/>
	<circle cx="176" cy="190" r="2"/>
	<circle cx="184" cy="190" r="2"/>
	<circle cx="146" cy="186" r="2"/>
	<circle cx="142" cy="186" r="2"/>
	<circle cx="138" cy="186" r="2"/>
	<circle cx="134" cy="186" r="2"/>
	<circle cx="130" cy="186" r="2"/>
	<circle cx="150" cy="186" r="2"/>
	<circle cx="158" cy="186" r="2"/>
	<circle cx="154" cy="186" r="2"/>
	<circle cx="162" cy="186" r="2"/>
	<circle cx="170" cy="186" r="2"/>
	<circle cx="166" cy="186" r="2"/>
	<circle cx="174" cy="186" r="2"/>
	<circle cx="182" cy="186" r="2"/>
	<circle cx="178" cy="186" r="2"/>
	<circle cx="84" cy="166" r="2"/>
	<circle cx="80" cy="166" r="2"/>
	<circle cx="76" cy="166" r="2"/>
	<circle cx="72" cy="166" r="2"/>
	<circle cx="88" cy="166" r="2"/>
	<circle cx="96" cy="166" r="2"/>
	<circle cx="92" cy="166" r="2"/>
	<circle cx="100" cy="166" r="2"/>
	<circle cx="108" cy="166" r="2"/>
	<circle cx="104" cy="166" r="2"/>
	<circle cx="112" cy="166" r="2"/>
	<circle cx="120" cy="166" r="2"/>
	<circle cx="116" cy="166" r="2"/>
	<circle cx="124" cy="166" r="2"/>
	<circle cx="86" cy="162" r="2"/>
	<circle cx="82" cy="162" r="2"/>
	<circle cx="78" cy="162" r="2"/>
	<circle cx="74" cy="162" r="2"/>
	<circle cx="90" cy="162" r="2"/>
	<circle cx="98" cy="162" r="2"/>
	<circle cx="94" cy="162" r="2"/>
	<circle cx="102" cy="162" r="2"/>
	<circle cx="110" cy="162" r="2"/>
	<circle cx="106" cy="162" r="2"/>
	<circle cx="114" cy="162" r="2"/>
	<circle cx="122" cy="162" r="2"/>
	<circle cx="118" cy="162" r="2"/>
	<circle cx="126" cy="162" r="2"/>
	<circle cx="84" cy="174" r="2"/>
	<circle cx="80" cy="174" r="2"/>
	<circle cx="76" cy="174" r="2"/>
	<circle cx="72" cy="174" r="2"/>
	<circle cx="88" cy="174" r="2"/>
	<circle cx="96" cy="174" r="2"/>
	<circle cx="92" cy="174" r="2"/>
	<circle cx="100" cy="174" r="2"/>
	<circle cx="108" cy="174" r="2"/>
	<circle cx="104" cy="174" r="2"/>
	<circle cx="112" cy="174" r="2"/>
	<circle cx="120" cy="174" r="2"/>
	<circle cx="116" cy="174" r="2"/>
	<circle cx="124" cy="174" r="2"/>
	<circle cx="86" cy="170" r="2"/>
	<circle cx="82" cy="170" r="2"/>
	<circle cx="78" cy="170" r="2"/>
	<circle cx="74" cy="170" r="2"/>
	<circle cx="90" cy="170" r="2"/>
	<circle cx="98" cy="170" r="2"/>
	<circle cx="94" cy="170" r="2"/>
	<circle cx="102" cy="170" r="2"/>
	<circle cx="110" cy="170" r="2"/>
	<circle cx="106" cy="170" r="2"/>
	<circle cx="114" cy="170" r="2"/>
	<circle cx="122" cy="170" r="2"/>
	<circle cx="118" cy="170" r="2"/>
	<circle cx="126" cy="170" r="2"/>
	<circle cx="144" cy="166" r="2"/>
	<circle cx="140" cy="166" r="2"/>
	<circle cx="136" cy="166" r="2"/>
	<circle cx="132" cy="166" r="2"/>
	<circle cx="128" cy="166" r="2"/>
	<circle cx="148" cy="166" r="2"/>
	<circle cx="156" cy="166" r="2"/>
	<circle cx="152" cy="166" r="2"/>
	<circle cx="160" cy="166" r="2"/>
	<circle cx="168" cy="166" r="2"/>
	<circle cx="164" cy="166" r="2"/>
	<circle cx="172" cy="166" r="2"/>
	<circle cx="180" cy="166" r="2"/>
	<circle cx="176" cy="166" r="2"/>
	<circle cx="184" cy="166" r="2"/>
	<circle cx="146" cy="162" r="2"/>
	<circle cx="142" cy="162" r="2"/>
	<circle cx="138" cy="162" r="2"/>
	<circle cx="134" cy="162" r="2"/>
	<circle cx="130" cy="162" r="2"/>
	<circle cx="150" cy="162" r="2"/>
	<circle cx="158" cy="162" r="2"/>
	<circle cx="154" cy="162" r="2"/>
	<circle cx="162" cy="162" r="2"/>
	<circle cx="170" cy="162" r="2"/>
	<circle cx="166" cy="162" r="2"/>
	<circle cx="174" cy="162" r="2"/>
	<circle cx="182" cy="162" r="2"/>
	<circle cx="178" cy="162" r="2"/>
	<circle cx="144" cy="174" r="2"/>
	<circle cx="140" cy="174" r="2"/>
	<circle cx="136" cy="174" r="2"/>
	<circle cx="132" cy="174" r="2"/>
	<circle cx="128" cy="174" r="2"/>
	<circle cx="148" cy="174" r="2"/>
	<circle cx="156" cy="174" r="2"/>
	<circle cx="152" cy="174" r="2"/>
	<circle cx="160" cy="174" r="2"/>
	<circle cx="168" cy="174" r="2"/>
	<circle cx="164" cy="174" r="2"/>
	<circle cx="172" cy="174" r="2"/>
	<circle cx="180" cy="174" r="2"/>
	<circle cx="176" cy="174" r="2"/>
	<circle cx="184" cy="174" r="2"/>
	<circle cx="146" cy="170" r="2"/>
	<circle cx="142" cy="170" r="2"/>
	<circle cx="138" cy="170" r="2"/>
	<circle cx="134" cy="170" r="2"/>
	<circle cx="130" cy="170" r="2"/>
	<circle cx="150" cy="170" r="2"/>
	<circle cx="158" cy="170" r="2"/>
	<circle cx="154" cy="170" r="2"/>
	<circle cx="162" cy="170" r="2"/>
	<circle cx="170" cy="170" r="2"/>
	<circle cx="166" cy="170" r="2"/>
	<circle cx="174" cy="170" r="2"/>
	<circle cx="182" cy="170" r="2"/>
	<circle cx="178" cy="170" r="2"/>
	<circle cx="84" cy="150" r="2"/>
	<circle cx="80" cy="150" r="2"/>
	<circle cx="76" cy="150" r="2"/>
	<circle cx="72" cy="150" r="2"/>
	<circle cx="88" cy="150" r="2"/>
	<circle cx="96" cy="150" r="2"/>
	<circle cx="92" cy="150" r="2"/>
	<circle cx="100" cy="150" r="2"/>
	<circle cx="108" cy="150" r="2"/>
	<circle cx="104" cy="150" r="2"/>
	<circle cx="112" cy="150" r="2"/>
	<circle cx="120" cy="150" r="2"/>
	<circle cx="116" cy="150" r="2"/>
	<circle cx="124" cy="150" r="2"/>
	<circle cx="86" cy="146" r="2"/>
	<circle cx="82" cy="146" r="2"/>
	<circle cx="78" cy="146" r="2"/>
	<circle cx="74" cy="146" r="2"/>
	<circle cx="90" cy="146" r="2"/>
	<circle cx="98" cy="146" r="2"/>
	<circle cx="94" cy="146" r="2"/>
	<circle cx="102" cy="146" r="2"/>
	<circle cx="110" cy="146" r="2"/>
	<circle cx="106" cy="146" r="2"/>
	<circle cx="114" cy="146" r="2"/>
	<circle cx="122" cy="146" r="2"/>
	<circle cx="118" cy="146" r="2"/>
	<circle cx="126" cy="146" r="2"/>
	<circle cx="84" cy="158" r="2"/>
	<circle cx="80" cy="158" r="2"/>
	<circle cx="76" cy="158" r="2"/>
	<circle cx="72" cy="158" r="2"/>
	<circle cx="88" cy="158" r="2"/>
	<circle cx="96" cy="158" r="2"/>
	<circle cx="92" cy="158" r="2"/>
	<circle cx="100" cy="158" r="2"/>
	<circle cx="108" cy="158" r="2"/>
	<circle cx="104" cy="158" r="2"/>
	<circle cx="112" cy="158" r="2"/>
	<circle cx="120" cy="158" r="2"/>
	<circle cx="116" cy="158" r="2"/>
	<circle cx="124" cy="158" r="2"/>
	<circle cx="86" cy="154" r="2"/>
	<circle cx="82" cy="154" r="2"/>
	<circle cx="78" cy="154" r="2"/>
	<circle cx="74" cy="154" r="2"/>
	<circle cx="90" cy="154" r="2"/>
	<circle cx="98" cy="154" r="2"/>
	<circle cx="94" cy="154" r="2"/>
	<circle cx="102" cy="154" r="2"/>
	<circle cx="110" cy="154" r="2"/>
	<circle cx="106" cy="154" r="2"/>
	<circle cx="114" cy="154" r="2"/>
	<circle cx="122" cy="154" r="2"/>
	<circle cx="118" cy="154" r="2"/>
	<circle cx="126" cy="154" r="2"/>
	<circle cx="144" cy="150" r="2"/>
	<circle cx="140" cy="150" r="2"/>
	<circle cx="136" cy="150" r="2"/>
	<circle cx="132" cy="150" r="2"/>
	<circle cx="128" cy="150" r="2"/>
	<circle cx="148" cy="150" r="2"/>
	<circle cx="156" cy="150" r="2"/>
	<circle cx="152" cy="150" r="2"/>
	<circle cx="160" cy="150" r="2"/>
	<circle cx="168" cy="150" r="2"/>
	<circle cx="164" cy="150" r="2"/>
	<circle cx="172" cy="150" r="2"/>
	<circle cx="180" cy="150" r="2"/>
	<circle cx="176" cy="150" r="2"/>
	<circle cx="184" cy="150" r="2"/>
	<circle cx="146" cy="146" r="2"/>
	<circle cx="142" cy="146" r="2"/>
	<circle cx="138" cy="146" r="2"/>
	<circle cx="134" cy="146" r="2"/>
	<circle cx="130" cy="146" r="2"/>
	<circle cx="150" cy="146" r="2"/>
	<circle cx="158" cy="146" r="2"/>
	<circle cx="154" cy="146" r="2"/>
	<circle cx="162" cy="146" r="2"/>
	<circle cx="170" cy="146" r="2"/>
	<circle cx="166" cy="146" r="2"/>
	<circle cx="174" cy="146" r="2"/>
	<circle cx="182" cy="146" r="2"/>
	<circle cx="178" cy="146" r="2"/>
	<circle cx="144" cy="158" r="2"/>
	<circle cx="140" cy="158" r="2"/>
	<circle cx="136" cy="158" r="2"/>
	<circle cx="132" cy="158" r="2"/>
	<circle cx="128" cy="158" r="2"/>
	<circle cx="148" cy="158" r="2"/>
	<circle cx="156" cy="158" r="2"/>
	<circle cx="152" cy="158" r="2"/>
	<circle cx="160" cy="158" r="2"/>
	<circle cx="168" cy="158" r="2"/>
	<circle cx="164" cy="158" r="2"/>
	<circle cx="172" cy="158" r="2"/>
	<circle cx="180" cy="158" r="2"/>
	<circle cx="176" cy="158" r="2"/>
	<circle cx="184" cy="158" r="2"/>
	<circle cx="146" cy="154" r="2"/>
	<circle cx="142" cy="154" r="2"/>
	<circle cx="138" cy="154" r="2"/>
	<circle cx="134" cy="154" r="2"/>
	<circle cx="130" cy="154" r="2"/>
	<circle cx="150" cy="154" r="2"/>
	<circle cx="158" cy="154" r="2"/>
	<circle cx="154" cy="154" r="2"/>
	<circle cx="162" cy="154" r="2"/>
	<circle cx="170" cy="154" r="2"/>
	<circle cx="166" cy="154" r="2"/>
	<circle cx="174" cy="154" r="2"/>
	<circle cx="182" cy="154" r="2"/>
	<circle cx="178" cy="154" r="2"/>
	<circle cx="84" cy="134" r="2"/>
	<circle cx="80" cy="134" r="2"/>
	<circle cx="76" cy="134" r="2"/>
	<circle cx="72" cy="134" r="2"/>
	<circle cx="88" cy="134" r="2"/>
	<circle cx="96" cy="134" r="2"/>
	<circle cx="92" cy="134" r="2"/>
	<circle cx="100" cy="134" r="2"/>
	<circle cx="108" cy="134" r="2"/>
	<circle cx="104" cy="134" r="2"/>
	<circle cx="112" cy="134" r="2"/>
	<circle cx="120" cy="134" r="2"/>
	<circle cx="116" cy="134" r="2"/>
	<circle cx="124" cy="134" r="2"/>
	<circle cx="86" cy="130" r="2"/>
	<circle cx="82" cy="130" r="2"/>
	<circle cx="78" cy="130" r="2"/>
	<circle cx="74" cy="130" r="2"/>
	<circle cx="90" cy="130" r="2"/>
	<circle cx="98" cy="130" r="2"/>
	<circle cx="94" cy="130" r="2"/>
	<circle cx="102" cy="130" r="2"/>
	<circle cx="110" cy="130" r="2"/>
	<circle cx="106" cy="130" r="2"/>
	<circle cx="114" cy="130" r="2"/>
	<circle cx="122" cy="130" r="2"/>
	<circle cx="118" cy="130" r="2"/>
	<circle cx="126" cy="130" r="2"/>
	<circle cx="84" cy="142" r="2"/>
	<circle cx="80" cy="142" r="2"/>
	<circle cx="76" cy="142" r="2"/>
	<circle cx="72" cy="142" r="2"/>
	<circle cx="88" cy="142" r="2"/>
	<circle cx="96" cy="142" r="2"/>
	<circle cx="92" cy="142" r="2"/>
	<circle cx="100" cy="142" r="2"/>
	<circle cx="108" cy="142" r="2"/>
	<circle cx="104" cy="142" r="2"/>
	<circle cx="112" cy="142" r="2"/>
	<circle cx="120" cy="142" r="2"/>
	<circle cx="116" cy="142" r="2"/>
	<circle cx="124" cy="142" r="2"/>
	<circle cx="86" cy="138" r="2"/>
	<circle cx="82" cy="138" r="2"/>
	<circle cx="78" cy="138" r="2"/>
	<circle cx="74" cy="138" r="2"/>
	<circle cx="90" cy="138" r="2"/>
	<circle cx="98" cy="138" r="2"/>
	<circle cx="94" cy="138" r="2"/>
	<circle cx="102" cy="138" r="2"/>
	<circle cx="110" cy="138" r="2"/>
	<circle cx="106" cy="138" r="2"/>
	<circle cx="114" cy="138" r="2"/>
	<circle cx="122" cy="138" r="2"/>
	<circle cx="118" cy="138" r="2"/>
	<circle cx="126" cy="138" r="2"/>
	<circle cx="144" cy="134" r="2"/>
	<circle cx="140" cy="134" r="2"/>
	<circle cx="136" cy="134" r="2"/>
	<circle cx="132" cy="134" r="2"/>
	<circle cx="128" cy="134" r="2"/>
	<circle cx="148" cy="134" r="2"/>
	<circle cx="156" cy="134" r="2"/>
	<circle cx="152" cy="134" r="2"/>
	<circle cx="160" cy="134" r="2"/>
	<circle cx="168" cy="134" r="2"/>
	<circle cx="164" cy="134" r="2"/>
	<circle cx="172" cy="134" r="2"/>
	<circle cx="180" cy="134" r="2"/>
	<circle cx="176" cy="134" r="2"/>
	<circle cx="184" cy="134" r="2"/>
	<circle cx="146" cy="130" r="2"/>
	<circle cx="142" cy="130" r="2"/>
	<circle cx="138" cy="130" r="2"/>
	<circle cx="134" cy="130" r="2"/>
	<circle cx="130" cy="130" r="2"/>
	<circle cx="150" cy="130" r="2"/>
	<circle cx="158" cy="130" r="2"/>
	<circle cx="154" cy="130" r="2"/>
	<circle cx="162" cy="130" r="2"/>
	<circle cx="170" cy="130" r="2"/>
	<circle cx="166" cy="130" r="2"/>
	<circle cx="174" cy="130" r="2"/>
	<circle cx="182" cy="130" r="2"/>
	<circle cx="178" cy="130" r="2"/>
	<circle cx="144" cy="142" r="2"/>
	<circle cx="140" cy="142" r="2"/>
	<circle cx="136" cy="142" r="2"/>
	<circle cx="132" cy="142" r="2"/>
	<circle cx="128" cy="142" r="2"/>
	<circle cx="148" cy="142" r="2"/>
	<circle cx="156" cy="142" r="2"/>
	<circle cx="152" cy="142" r="2"/>
	<circle cx="160" cy="142" r="2"/>
	<circle cx="168" cy="142" r="2"/>
	<circle cx="164" cy="142" r="2"/>
	<circle cx="172" cy="142" r="2"/>
	<circle cx="180" cy="142" r="2"/>
	<circle cx="176" cy="142" r="2"/>
	<circle cx="184" cy="142" r="2"/>
	<circle cx="146" cy="138" r="2"/>
	<circle cx="142" cy="138" r="2"/>
	<circle cx="138" cy="138" r="2"/>
	<circle cx="134" cy="138" r="2"/>
	<circle cx="130" cy="138" r="2"/>
	<circle cx="150" cy="138" r="2"/>
	<circle cx="158" cy="138" r="2"/>
	<circle cx="154" cy="138" r="2"/>
	<circle cx="162" cy="138" r="2"/>
	<circle cx="170" cy="138" r="2"/>
	<circle cx="166" cy="138" r="2"/>
	<circle cx="174" cy="138" r="2"/>
	<circle cx="182" cy="138" r="2"/>
	<circle cx="178" cy="138" r="2"/>
	<circle cx="84" cy="118" r="2"/>
	<circle cx="80" cy="118" r="2"/>
	<circle cx="76" cy="118" r="2"/>
	<circle cx="72" cy="118" r="2"/>
	<circle cx="88" cy="118" r="2"/>
	<circle cx="96" cy="118" r="2"/>
	<circle cx="92" cy="118" r="2"/>
	<circle cx="100" cy="118" r="2"/>
	<circle cx="108" cy="118" r="2"/>
	<circle cx="104" cy="118" r="2"/>
	<circle cx="112" cy="118" r="2"/>
	<circle cx="120" cy="118" r="2"/>
	<circle cx="116" cy="118" r="2"/>
	<circle cx="124" cy="118" r="2"/>
	<circle cx="86" cy="114" r="2"/>
	<circle cx="82" cy="114" r="2"/>
	<circle cx="78" cy="114" r="2"/>
	<circle cx="74" cy="114" r="2"/>
	<circle cx="90" cy="114" r="2"/>
	<circle cx="98" cy="114" r="2"/>
	<circle cx="94" cy="114" r="2"/>
	<circle cx="102" cy="114" r="2"/>
	<circle cx="110" cy="114" r="2"/>
	<circle cx="106" cy="114" r="2"/>
	<circle cx="114" cy="114" r="2"/>
	<circle cx="122" cy="114" r="2"/>
	<circle cx="118" cy="114" r="2"/>
	<circle cx="126" cy="114" r="2"/>
	<circle cx="84" cy="126" r="2"/>
	<circle cx="80" cy="126" r="2"/>
	<circle cx="76" cy="126" r="2"/>
	<circle cx="72" cy="126" r="2"/>
	<circle cx="88" cy="126" r="2"/>
	<circle cx="96" cy="126" r="2"/>
	<circle cx="92" cy="126" r="2"/>
	<circle cx="100" cy="126" r="2"/>
	<circle cx="108" cy="126" r="2"/>
	<circle cx="104" cy="126" r="2"/>
	<circle cx="112" cy="126" r="2"/>
	<circle cx="120" cy="126" r="2"/>
	<circle cx="116" cy="126" r="2"/>
	<circle cx="124" cy="126" r="2"/>
	<circle cx="86" cy="122" r="2"/>
	<circle cx="82" cy="122" r="2"/>
	<circle cx="78" cy="122" r="2"/>
	<circle cx="74" cy="122" r="2"/>
	<circle cx="90" cy="122" r="2"/>
	<circle cx="98" cy="122" r="2"/>
	<circle cx="94" cy="122" r="2"/>
	<circle cx="102" cy="122" r="2"/>
	<circle cx="110" cy="122" r="2"/>
	<circle cx="106" cy="122" r="2"/>
	<circle cx="114" cy="122" r="2"/>
	<circle cx="122" cy="122" r="2"/>
	<circle cx="118" cy="122" r="2"/>
	<circle cx="126" cy="122" r="2"/>
	<circle cx="144" cy="118" r="2"/>
	<circle cx="140" cy="118" r="2"/>
	<circle cx="136" cy="118" r="2"/>
	<circle cx="132" cy="118" r="2"/>
	<circle cx="128" cy="118" r="2"/>
	<circle cx="148" cy="118" r="2"/>
	<circle cx="156" cy="118" r="2"/>
	<circle cx="152" cy="118" r="2"/>
	<circle cx="160" cy="118" r="2"/>
	<circle cx="168" cy="118" r="2"/>
	<circle cx="164" cy="118" r="2"/>
	<circle cx="172" cy="118" r="2"/>
	<circle cx="180" cy="118" r="2"/>
	<circle cx="176" cy="118" r="2"/>
	<circle cx="184" cy="118" r="2"/>
	<circle cx="146" cy="114" r="2"/>
	<circle cx="142" cy="114" r="2"/>
	<circle cx="138" cy="114" r="2"/>
	<circle cx="134" cy="114" r="2"/>
	<circle cx="130" cy="114" r="2"/>
	<circle cx="150" cy="114" r="2"/>
	<circle cx="158" cy="114" r="2"/>
	<circle cx="154" cy="114" r="2"/>
	<circle cx="162" cy="114" r="2"/>
	<circle cx="170" cy="114" r="2"/>
	<circle cx="166" cy="114" r="2"/>
	<circle cx="174" cy="114" r="2"/>
	<circle cx="182" cy="114" r="2"/>
	<circle cx="178" cy="114" r="2"/>
	<circle cx="84" cy="110" r="2"/>
	<circle cx="80" cy="110" r="2"/>
	<circle cx="76" cy="110" r="2"/>
	<circle cx="88" cy="110" r="2"/>
	<circle cx="96" cy="110" r="2"/>
	<circle cx="92" cy="110" r="2"/>
	<circle cx="100" cy="110" r="2"/>
	<circle cx="108" cy="110" r="2"/>
	<circle cx="104" cy="110" r="2"/>
	<circle cx="112" cy="110" r="2"/>
	<circle cx="120" cy="110" r="2"/>
	<circle cx="116" cy="110" r="2"/>
	<circle cx="124" cy="110" r="2"/>
	<circle cx="86" cy="106" r="2"/>
	<circle cx="82" cy="106" r="2"/>
	<circle cx="78" cy="106" r="2"/>
	<circle cx="90" cy="106" r="2"/>
	<circle cx="98" cy="106" r="2"/>
	<circle cx="94" cy="106" r="2"/>
	<circle cx="102" cy="106" r="2"/>
	<circle cx="110" cy="106" r="2"/>
	<circle cx="106" cy="106" r="2"/>
	<circle cx="114" cy="106" r="2"/>
	<circle cx="122" cy="106" r="2"/>
	<circle cx="118" cy="106" r="2"/>
	<circle cx="126" cy="106" r="2"/>
	<circle cx="144" cy="110" r="2"/>
	<circle cx="140" cy="110" r="2"/>
	<circle cx="136" cy="110" r="2"/>
	<circle cx="132" cy="110" r="2"/>
	<circle cx="128" cy="110" r="2"/>
	<circle cx="148" cy="110" r="2"/>
	<circle cx="156" cy="110" r="2"/>
	<circle cx="152" cy="110" r="2"/>
	<circle cx="160" cy="110" r="2"/>
	<circle cx="168" cy="110" r="2"/>
	<circle cx="164" cy="110" r="2"/>
	<circle cx="172" cy="110" r="2"/>
	<circle cx="180" cy="110" r="2"/>
	<circle cx="176" cy="110" r="2"/>
	<circle cx="146" cy="106" r="2"/>
	<circle cx="142" cy="106" r="2"/>
	<circle cx="138" cy="106" r="2"/>
	<circle cx="134" cy="106" r="2"/>
	<circle cx="130" cy="106" r="2"/>
	<circle cx="150" cy="106" r="2"/>
	<circle cx="158" cy="106" r="2"/>
	<circle cx="154" cy="106" r="2"/>
	<circle cx="162" cy="106" r="2"/>
	<circle cx="170" cy="106" r="2"/>
	<circle cx="166" cy="106" r="2"/>
	<circle cx="174" cy="106" r="2"/>
	<circle cx="178" cy="106" r="2"/>
	<circle cx="84" cy="102" r="2"/>
	<circle cx="80" cy="102" r="2"/>
	<circle cx="88" cy="102" r="2"/>
	<circle cx="96" cy="102" r="2"/>
	<circle cx="92" cy="102" r="2"/>
	<circle cx="100" cy="102" r="2"/>
	<circle cx="108" cy="102" r="2"/>
	<circle cx="104" cy="102" r="2"/>
	<circle cx="112" cy="102" r="2"/>
	<circle cx="120" cy="102" r="2"/>
	<circle cx="116" cy="102" r="2"/>
	<circle cx="124" cy="102" r="2"/>
	<circle cx="86" cy="98" r="2"/>
	<circle cx="90" cy="98" r="2"/>
	<circle cx="98" cy="98" r="2"/>
	<circle cx="94" cy="98" r="2"/>
	<circle cx="102" cy="98" r="2"/>
	<circle cx="110" cy="98" r="2"/>
	<circle cx="106" cy="98" r="2"/>
	<circle cx="114" cy="98" r="2"/>
	<circle cx="122" cy="98" r="2"/>
	<circle cx="118" cy="98" r="2"/>
	<circle cx="126" cy="98" r="2"/>
	<circle cx="144" cy="102" r="2"/>
	<circle cx="140" cy="102" r="2"/>
	<circle cx="136" cy="102" r="2"/>
	<circle cx="132" cy="102" r="2"/>
	<circle cx="128" cy="102" r="2"/>
	<circle cx="148" cy="102" r="2"/>
	<circle cx="156" cy="102" r="2"/>
	<circle cx="152" cy="102" r="2"/>
	<circle cx="160" cy="102" r="2"/>
	<circle cx="168" cy="102" r="2"/>
	<circle cx="164" cy="102" r="2"/>
	<circle cx="172" cy="102" r="2"/>
	<circle cx="176" cy="102" r="2"/>
	<circle cx="146" cy="98" r="2"/>
	<circle cx="142" cy="98" r="2"/>
	<circle cx="138" cy="98" r="2"/>
	<circle cx="134" cy="98" r="2"/>
	<circle cx="130" cy="98" r="2"/>
	<circle cx="150" cy="98" r="2"/>
	<circle cx="158" cy="98" r="2"/>
	<circle cx="154" cy="98" r="2"/>
	<circle cx="162" cy="98" r="2"/>
	<circle cx="170" cy="98" r="2"/>
	<circle cx="166" cy="98" r="2"/>
	<circle cx="144" cy="126" r="2"/>
	<circle cx="140" cy="126" r="2"/>
	<circle cx="136" cy="126" r="2"/>
	<circle cx="132" cy="126" r="2"/>
	<circle cx="128" cy="126" r="2"/>
	<circle cx="148" cy="126" r="2"/>
	<circle cx="156" cy="126" r="2"/>
	<circle cx="152" cy="126" r="2"/>
	<circle cx="160" cy="126" r="2"/>
	<circle cx="168" cy="126" r="2"/>
	<circle cx="164" cy="126" r="2"/>
	<circle cx="172" cy="126" r="2"/>
	<circle cx="180" cy="126" r="2"/>
	<circle cx="176" cy="126" r="2"/>
	<circle cx="184" cy="126" r="2"/>
	<circle cx="146" cy="122" r="2"/>
	<circle cx="142" cy="122" r="2"/>
	<circle cx="138" cy="122" r="2"/>
	<circle cx="134" cy="122" r="2"/>
	<circle cx="130" cy="122" r="2"/>
	<circle cx="150" cy="122" r="2"/>
	<circle cx="158" cy="122" r="2"/>
	<circle cx="154" cy="122" r="2"/>
	<circle cx="162" cy="122" r="2"/>
	<circle cx="170" cy="122" r="2"/>
	<circle cx="166" cy="122" r="2"/>
	<circle cx="174" cy="122" r="2"/>
	<circle cx="182" cy="122" r="2"/>
	<circle cx="178" cy="122" r="2"/>
	<circle cx="86" cy="210" r="2"/>
	<circle cx="82" cy="210" r="2"/>
	<circle cx="78" cy="210" r="2"/>
	<circle cx="74" cy="210" r="2"/>
	<circle cx="90" cy="210" r="2"/>
	<circle cx="98" cy="210" r="2"/>
	<circle cx="94" cy="210" r="2"/>
	<circle cx="102" cy="210" r="2"/>
	<circle cx="110" cy="210" r="2"/>
	<circle cx="106" cy="210" r="2"/>
	<circle cx="114" cy="210" r="2"/>
	<circle cx="122" cy="210" r="2"/>
	<circle cx="118" cy="210" r="2"/>
	<circle cx="126" cy="210" r="2"/>
	<circle cx="146" cy="210" r="2"/>
	<circle cx="142" cy="210" r="2"/>
	<circle cx="138" cy="210" r="2"/>
	<circle cx="134" cy="210" r="2"/>
	<circle cx="130" cy="210" r="2"/>
	<circle cx="150" cy="210" r="2"/>
	<circle cx="158" cy="210" r="2"/>
	<circle cx="154" cy="210" r="2"/>
	<circle cx="162" cy="210" r="2"/>
	<circle cx="170" cy="210" r="2"/>
	<circle cx="166" cy="210" r="2"/>
	<circle cx="174" cy="210" r="2"/>
	<circle cx="182" cy="210" r="2"/>
	<circle cx="178" cy="210" r="2"/>
	<circle cx="84" cy="214" r="2"/>
	<circle cx="80" cy="214" r="2"/>
	<circle cx="76" cy="214" r="2"/>
	<circle cx="88" cy="214" r="2"/>
	<circle cx="96" cy="214" r="2"/>
	<circle cx="92" cy="214" r="2"/>
	<circle cx="100" cy="214" r="2"/>
	<circle cx="108" cy="214" r="2"/>
	<circle cx="104" cy="214" r="2"/>
	<circle cx="112" cy="214" r="2"/>
	<circle cx="120" cy="214" r="2"/>
	<circle cx="116" cy="214" r="2"/>
	<circle cx="124" cy="214" r="2"/>
	<circle cx="84" cy="222" r="2"/>
	<circle cx="88" cy="222" r="2"/>
	<circle cx="96" cy="222" r="2"/>
	<circle cx="92" cy="222" r="2"/>
	<circle cx="100" cy="222" r="2"/>
	<circle cx="108" cy="222" r="2"/>
	<circle cx="104" cy="222" r="2"/>
	<circle cx="112" cy="222" r="2"/>
	<circle cx="120" cy="222" r="2"/>
	<circle cx="116" cy="222" r="2"/>
	<circle cx="124" cy="222" r="2"/>
	<circle cx="86" cy="218" r="2"/>
	<circle cx="82" cy="218" r="2"/>
	<circle cx="78" cy="218" r="2"/>
	<circle cx="90" cy="218" r="2"/>
	<circle cx="98" cy="218" r="2"/>
	<circle cx="94" cy="218" r="2"/>
	<circle cx="102" cy="218" r="2"/>
	<circle cx="110" cy="218" r="2"/>
	<circle cx="106" cy="218" r="2"/>
	<circle cx="114" cy="218" r="2"/>
	<circle cx="122" cy="218" r="2"/>
	<circle cx="118" cy="218" r="2"/>
	<circle cx="126" cy="218" r="2"/>
	<circle cx="144" cy="214" r="2"/>
	<circle cx="140" cy="214" r="2"/>
	<circle cx="136" cy="214" r="2"/>
	<circle cx="132" cy="214" r="2"/>
	<circle cx="128" cy="214" r="2"/>
	<circle cx="148" cy="214" r="2"/>
	<circle cx="156" cy="214" r="2"/>
	<circle cx="152" cy="214" r="2"/>
	<circle cx="160" cy="214" r="2"/>
	<circle cx="168" cy="214" r="2"/>
	<circle cx="164" cy="214" r="2"/>
	<circle cx="172" cy="214" r="2"/>
	<circle cx="180" cy="214" r="2"/>
	<circle cx="176" cy="214" r="2"/>
	<circle cx="144" cy="222" r="2"/>
	<circle cx="140" cy="222" r="2"/>
	<circle cx="136" cy="222" r="2"/>
	<circle cx="132" cy="222" r="2"/>
	<circle cx="128" cy="222" r="2"/>
	<circle cx="148" cy="222" r="2"/>
	<circle cx="156" cy="222" r="2"/>
	<circle cx="152" cy="222" r="2"/>
	<circle cx="160" cy="222" r="2"/>
	<circle cx="168" cy="222" r="2"/>
	<circle cx="164" cy="222" r="2"/>
	<circle cx="172" cy="222" r="2"/>
	<circle cx="146" cy="218" r="2"/>
	<circle cx="142" cy="218" r="2"/>
	<circle cx="138" cy="218" r="2"/>
	<circle cx="134" cy="218" r="2"/>
	<circle cx="130" cy="218" r="2"/>
	<circle cx="150" cy="218" r="2"/>
	<circle cx="158" cy="218" r="2"/>
	<circle cx="154" cy="218" r="2"/>
	<circle cx="162" cy="218" r="2"/>
	<circle cx="170" cy="218" r="2"/>
	<circle cx="166" cy="218" r="2"/>
	<circle cx="174" cy="218" r="2"/>
	<circle cx="178" cy="218" r="2"/>
	<circle cx="90" cy="226" r="2"/>
	<circle cx="98" cy="226" r="2"/>
	<circle cx="94" cy="226" r="2"/>
	<circle cx="102" cy="226" r="2"/>
	<circle cx="110" cy="226" r="2"/>
	<circle cx="106" cy="226" r="2"/>
	<circle cx="114" cy="226" r="2"/>
	<circle cx="122" cy="226" r="2"/>
	<circle cx="118" cy="226" r="2"/>
	<circle cx="126" cy="226" r="2"/>
	<circle cx="146" cy="226" r="2"/>
	<circle cx="142" cy="226" r="2"/>
	<circle cx="138" cy="226" r="2"/>
	<circle cx="134" cy="226" r="2"/>
	<circle cx="130" cy="226" r="2"/>
	<circle cx="150" cy="226" r="2"/>
	<circle cx="158" cy="226" r="2"/>
	<circle cx="154" cy="226" r="2"/>
	<circle cx="162" cy="226" r="2"/>
	<circle cx="166" cy="226" r="2"/>
</g>
</svg>
