<?xml version="1.0" encoding="utf-8"?>
<!-- Generator: Adobe Illustrator 19.2.1, SVG Export Plug-In . SVG Version: 6.00 Build 0)  -->
<svg version="1.1" id="Ebene_1" xmlns="http://www.w3.org/2000/svg" xmlns:xlink="http://www.w3.org/1999/xlink" x="0px" y="0px"
	 viewBox="0 0 256 256" style="enable-background:new 0 0 256 256;" xml:space="preserve">
<style type="text/css">
	.st0{fill:none;stroke:#FF0000;stroke-miterlimit:10;}
	.st1{stroke:url(#SVGID_1_);stroke-miterlimit:10;}
</style>
<g>
	<path d="M128,32c4.4,0,8-3.6,8-8s-3.6-8-8-8s-8,3.6-8,8S123.6,32,128,32z M128,20c2.2,0,4,1.8,4,4c0,2.2-1.8,4-4,4s-4-1.8-4-4
		C124,21.8,125.8,20,128,20z"/>
	<path d="M84,96h88c2.2,0,4-1.8,4-4v0c0-26.3-32.5-31-44-31.8V35.3c-1.3,0.4-2.6,0.7-4,0.7s-2.7-0.3-4-0.7v25
		c-11.5,1.1-44,6.6-44,31.7v0C80,94.2,81.8,96,84,96z M106.3,72.2c10.1-3.6,20.5-4.2,21.8-4.2c1.3,0,11.6,0.3,21.6,3.7
		c13.5,4.6,17,11.6,17.9,16.3H88.4C89.4,83.5,93,76.9,106.3,72.2z"/>
	<path d="M187.6,98H84.5c-2.5,0-4.5,2-4.5,4.5v11.1c0,2.5,2,4.5,4.5,4.5h89.8c0,0,0,0,0.1,0c0.6,0,1.2-0.2,1.7-0.8l13.3-14.7
		C190.8,100.8,189.7,98,187.6,98z"/>
	<path d="M172,120H88h-3.4H84c-0.1,0-0.1,0-0.2,0C70.6,120.4,60,131.3,60,144.6v46.8c0,12,8.6,22,20,24.2v8.4c0,4.4,3.6,8,8,8v3.2
		c0,4.2,5.6,6.4,8.8,3.4l7.2-6.6h48l7.2,6.6c3.3,3,8.8,0.9,8.8-3.4V232c4.4,0,8-3.6,8-8V124C176,121.8,174.2,120,172,120z M68,191.4
		v-46.8c0-7.6,5.1-13.9,12-15.9v78.7C73.1,205.4,68,199,68,191.4z M168,224H88v-8v-88h36v22.9l-9.8-2.5c-1.3-0.3-2.6-0.3-3.9,0
		l-8.2,2c-3.6,0.9-6.1,4.1-6.1,7.8V212c0,2.2,1.8,4,4,4h56c2.2,0,4-1.8,4-4v-49.7c0-5.2-4.9-9-10-7.8l-4,1c-1.3,0.3-2.6,0.3-3.9,0
		L132,153v-25h36V224z"/>
</g>
</svg>
