<?xml version="1.0" encoding="utf-8"?>
<!-- Generator: Adobe Illustrator 19.2.1, SVG Export Plug-In . SVG Version: 6.00 Build 0)  -->
<svg version="1.1" id="Ebene_1" xmlns="http://www.w3.org/2000/svg" xmlns:xlink="http://www.w3.org/1999/xlink" x="0px" y="0px"
	 viewBox="0 0 256 256" style="enable-background:new 0 0 256 256;" xml:space="preserve">
<style type="text/css">
	.st0{fill:none;stroke:#FF0000;stroke-miterlimit:10;}
	.st1{stroke:url(#SVGID_1_);stroke-miterlimit:10;}
</style>
<g>
	<path d="M165.7,118.5L165.7,118.5c-10.8-24.5-10.1-52-3.5-78l3.5-14.5c0.2-0.7,0.2-1.3,0.2-2h2c2.2,0,4-1.8,4-4c0-2.2-1.8-4-4-4
		h-10H98.2H88c-2.2,0-4,1.8-4,4c0,2.2,1.8,4,4,4h2.2c0,0.6,0.1,1.3,0.2,1.9l3.5,14.9c6.4,25.6,7.1,52.5-3.4,76.7l-0.5,1.2
		c-7.2,16.6-10.6,34.7-9.8,52.8L82,217c0.5,12.9,11.1,23,24,23h44c12.9,0,23.4-10.1,24-23l1.9-45.1
		C176.6,153.5,173.1,135.3,165.7,118.5z M167.8,171.5l-1.9,45.1c-0.4,8.6-7.4,15.3-16,15.3h-44c-8.6,0-15.6-6.7-16-15.3l-1.9-45.5
		c-0.7-16.8,2.5-33.8,9.2-49.2l0.5-1.2c10.2-23.5,11.5-51,3.8-81.8l-3.4-14.8l0-0.1l0-0.1h59.7l0,0l0,0.1l0,0.1l-3.4,14.5
		c-8,31.2-6.6,59.2,3.9,83.1C165.3,137.3,168.6,154.5,167.8,171.5z"/>
	<path d="M142.2,91.5c-0.2-2-1.9-3.5-4-3.5h-20.5c-2,0-3.7,1.5-4,3.5c-1.3,11.4-4.2,22.2-8.6,32.4l-0.5,1.2
		c-6.2,14.3-9.2,30.1-8.5,45.7l1.9,45.5c0.2,4.3,3.7,7.7,8,7.7h44c4.3,0,7.8-3.4,8-7.7l1.9-45.1c0.7-15.8-2.4-31.8-8.8-46.2
		C146.5,114.5,143.5,103.3,142.2,91.5z"/>
</g>
</svg>
