<?xml version="1.0" encoding="utf-8"?>
<!-- Generator: Adobe Illustrator 19.2.1, SVG Export Plug-In . SVG Version: 6.00 Build 0)  -->
<svg version="1.1" id="Ebene_1" xmlns="http://www.w3.org/2000/svg" xmlns:xlink="http://www.w3.org/1999/xlink" x="0px" y="0px"
	 viewBox="0 0 256 256" style="enable-background:new 0 0 256 256;" xml:space="preserve">
<style type="text/css">
	.st0{fill:none;stroke:#FF0000;stroke-miterlimit:10;}
	.st1{stroke:url(#SVGID_1_);stroke-miterlimit:10;}
</style>
<g>
	<path d="M148,200h-5c0.4,0.6,0.7,1.4,0.8,2.2c-0.3-0.1-0.6-0.2-0.9-0.2H128h-14.9c-0.3,0-0.6,0.1-0.9,0.2c0.2-0.8,0.4-1.6,0.8-2.2
		h-5c-2.2,0-4,1.8-4,4c0,2.2,1.8,4,4,4h5c-0.4-0.6-0.7-1.4-0.8-2.2c0.3,0.1,0.6,0.2,0.9,0.2H128h14.9c0.3,0,0.6-0.1,0.9-0.2
		c-0.2,0.8-0.4,1.6-0.8,2.2h5c2.2,0,4-1.8,4-4C152,201.8,150.2,200,148,200z"/>
	<path d="M178.9,232h-3.4l-7-112.5c-0.3-4.2-3.8-7.5-8-7.5H148c2.2,0,4-1.8,4-4c0-1.9-1.3-3.4-3-3.9L164.4,80
		c6.4-11.3,10.3-26.5,11.3-40.2l0,0l0,0c0.1-1.2,0.2-2.3,0.2-3.5c0-0.1,0-0.2,0-0.3c0-1.2,0.1-2.3,0.1-3.5v-3.3v0
		c0-0.7-0.2-1.4-0.6-2.1c-0.4-0.6-0.9-1.1-1.5-1.5c-5.3-2.9-20.8-9.8-45.9-9.8s-40.5,6.9-45.9,9.8c-0.7,0.3-1.2,0.9-1.5,1.5
		c-0.4,0.6-0.6,1.3-0.6,2.1v0V32c0,1.2,0,2.4,0.1,3.7c0,0.1,0,0.3,0,0.4c0.6,14.8,4.8,31.6,12.1,43.9l15.6,24
		c-2.1,0.1-3.8,1.8-3.8,4c0,2.2,1.8,4,4,4H95.5c-4.2,0-7.7,3.3-8,7.5l-7,112.5h-3.4c-2.8,0-5.1,1.8-5.1,4c0,2.2,2.3,4,5.1,4H80h96
		h2.9c2.8,0,5.1-1.8,5.1-4C184,233.8,181.7,232,178.9,232z M88.1,35c7.8-3.1,21.2-7,39.9-7c18.8,0,32.2,3.9,40,7
		c-0.4,14.5-4.4,30.2-10.4,40.8L139.6,104h-22.3L99,75.8C92.7,65.1,88.6,49.4,88.1,35z M88.5,232l7-112h65l7,112H88.5z"/>
	<path d="M136,128h-16c-8.8,0-16,7.2-16,16v32c0,4.4,3.6,8,8,8h32c4.4,0,8-3.6,8-8v-32C152,135.2,144.8,128,136,128z M144,160h-12
		v-8c1.1,0,2-0.9,2-2s-0.9-2-2-2h-8c-1.1,0-2,0.9-2,2s0.9,2,2,2v8h-12v-16c0-4.4,3.6-8,8-8h16c4.4,0,8,3.6,8,8V160z"/>
	<circle cx="120" cy="100" r="2"/>
	<circle cx="122" cy="96" r="2"/>
	<circle cx="126" cy="96" r="2"/>
	<circle cx="130" cy="96" r="2"/>
	<circle cx="134" cy="96" r="2"/>
	<circle cx="138" cy="96" r="2"/>
	<circle cx="118" cy="96" r="2"/>
	<circle cx="120" cy="92" r="2"/>
	<circle cx="116" cy="92" r="2"/>
	<circle cx="124" cy="92" r="2"/>
	<circle cx="128" cy="92" r="2"/>
	<circle cx="132" cy="92" r="2"/>
	<circle cx="136" cy="92" r="2"/>
	<circle cx="140" cy="92" r="2"/>
	<circle cx="120" cy="76" r="2"/>
	<circle cx="112" cy="76" r="2"/>
	<circle cx="108" cy="76" r="2"/>
	<circle cx="116" cy="76" r="2"/>
	<circle cx="124" cy="76" r="2"/>
	<circle cx="128" cy="76" r="2"/>
	<circle cx="132" cy="76" r="2"/>
	<circle cx="136" cy="76" r="2"/>
	<circle cx="140" cy="76" r="2"/>
	<circle cx="144" cy="76" r="2"/>
	<circle cx="148" cy="76" r="2"/>
	<circle cx="142" cy="88" r="2"/>
	<circle cx="138" cy="88" r="2"/>
	<circle cx="134" cy="88" r="2"/>
	<circle cx="130" cy="88" r="2"/>
	<circle cx="126" cy="88" r="2"/>
	<circle cx="122" cy="88" r="2"/>
	<circle cx="118" cy="88" r="2"/>
	<circle cx="114" cy="88" r="2"/>
	<circle cx="142" cy="80" r="2"/>
	<circle cx="146" cy="80" r="2"/>
	<circle cx="138" cy="80" r="2"/>
	<circle cx="134" cy="80" r="2"/>
	<circle cx="130" cy="80" r="2"/>
	<circle cx="126" cy="80" r="2"/>
	<circle cx="122" cy="80" r="2"/>
	<circle cx="118" cy="80" r="2"/>
	<circle cx="114" cy="80" r="2"/>
	<circle cx="110" cy="80" r="2"/>
	<circle cx="116" cy="84" r="2"/>
	<circle cx="112" cy="84" r="2"/>
	<circle cx="120" cy="84" r="2"/>
	<circle cx="124" cy="84" r="2"/>
	<circle cx="128" cy="84" r="2"/>
	<circle cx="132" cy="84" r="2"/>
	<circle cx="136" cy="84" r="2"/>
	<circle cx="140" cy="84" r="2"/>
	<circle cx="144" cy="84" r="2"/>
	<circle cx="124" cy="100" r="2"/>
	<circle cx="128" cy="100" r="2"/>
	<circle cx="132" cy="100" r="2"/>
	<circle cx="136" cy="100" r="2"/>
</g>
</svg>
