<?xml version="1.0" encoding="utf-8"?>
<!-- Generator: Adobe Illustrator 19.2.1, SVG Export Plug-In . SVG Version: 6.00 Build 0)  -->
<svg version="1.1" id="Ebene_1" xmlns="http://www.w3.org/2000/svg" xmlns:xlink="http://www.w3.org/1999/xlink" x="0px" y="0px"
	 viewBox="0 0 256 256" style="enable-background:new 0 0 256 256;" xml:space="preserve">
<style type="text/css">
	.st0{fill:none;stroke:#FF0000;stroke-miterlimit:10;}
	.st1{stroke:url(#SVGID_1_);stroke-miterlimit:10;}
</style>
<g>
	<path d="M189.1,127.7c9.3-1.1,24.6-5.4,34.9-15.7c15.9-15.9,22.5-32,8-32h-31l6.8-27.1c0.6-2.5-1.3-4.9-3.9-4.9h-152
		c-2.6,0-4.5,2.4-3.9,5l29,115h-8.7H52.8c-2.2,0-4,1.8-4,4c0,2.2,1.8,4,4,4H64v19.7c0,2.4,1.9,4.3,4.3,4.3h119.4
		c2.4,0,4.3-1.9,4.3-4.3V176h12.8c2.2,0,4-1.8,4-4c0-2.2-1.8-4-4-4h-17H179l10-40L189.1,127.7z M231.7,88
		c-1.1,3.3-4.9,9.9-13.3,18.3c-7.8,7.8-19.3,11.6-27.2,13L199,88H231.7z M184,192H72v-16h10.1h91.7H184V192z M85.3,168L57,56h141.7
		l-6.5,26c0,0.1-0.1,0.1-0.1,0.2L181,127c0,0,0,0,0,0l-10.3,41H85.3z"/>
	<path d="M128,208c0,0-8,7.6-8,12s3.6,8,8,8s8-3.6,8-8S128,208,128,208z"/>
</g>
</svg>
