<?xml version="1.0" encoding="utf-8"?>
<!-- Generator: Adobe Illustrator 19.2.1, SVG Export Plug-In . SVG Version: 6.00 Build 0)  -->
<svg version="1.1" id="Ebene_1" xmlns="http://www.w3.org/2000/svg" xmlns:xlink="http://www.w3.org/1999/xlink" x="0px" y="0px"
	 viewBox="0 0 256 256" style="enable-background:new 0 0 256 256;" xml:space="preserve">
<style type="text/css">
	.st0{fill:none;stroke:#FF0000;stroke-miterlimit:10;}
	.st1{stroke:url(#SVGID_1_);stroke-miterlimit:10;}
</style>
<g>
	<path d="M200.6,43.2C190.2,35.7,177.1,32,163,32c-29,0-61.8,14.8-89,41.9c-41.5,41.5-53.8,97.5-29.3,128.6c0.8,1,2,1.5,3.2,1.5
		c1,0,1.9-0.4,2.7-1.1c0.9-0.8,1.9-1.7,3-2.8c4.7-4.3,11.3-10.4,19.3-17.8c3.9-3.7,8.2-7.7,12.7-11.9c2.3-2.1,4.5-4.3,6.8-6.6
		c1.1-1.1,2.3-2.3,3.5-3.4c1.2-1.1,2.2-2.3,3.4-3.4c0.6-0.6,1.1-1.2,1.7-1.7c0.6-0.6,1.2-1.2,1.8-1.9c0.6-0.6,1.1-1.2,1.7-1.8
		c0-0.1,0.1-0.1,0.1-0.2c0.4-0.5,0.9-1.1,1.3-1.6c0.5-0.6,1-1.2,1.5-1.7c0.5-0.6,0.9-1.2,1.4-1.8l1.3-1.7c0.1-0.1,0.1-0.1,0.1-0.2
		l1.2-1.8c1.7-2.5,3-5.2,4.4-8c1.3-2.9,2.5-5.9,3.8-9.2c2.6-6.6,5.9-14.2,10.8-20.9c0.6-0.8,1.2-1.7,1.8-2.5c0.8-1.1,2-2.3,2.8-3.4
		c0.2-0.2,0.4-0.4,0.5-0.6c0.9-0.9,1.8-1.8,2.7-2.7c0.6-0.6,1.2-1.2,1.9-1.9l0.1-0.1c0.2-0.2,0.3-0.3,0.3-0.3c0,0,0,0,0,0
		c0,0,0,0,0,0l0.1-0.1l0.3-0.2l0.5-0.5l1-0.9c1.4-1.2,2.7-2.4,4-3.5c2.7-2.3,5.4-4.4,8-6.5c2.6-2,5.2-4,7.8-5.9
		c5-3.8,9.9-7.2,14.5-10.3c4.5-3.1,8.7-5.8,12.5-8.2c3.8-2.4,7-4.4,9.8-6.1c0.5-0.3,1-0.6,1.4-0.8C202.9,48.4,203,44.9,200.6,43.2z
		 M184.9,50C184.9,50.1,184.8,50.1,184.9,50l-2.1,1.4c-3.2,2.1-6.8,4.4-10.6,7l-0.4,0.3c-4.4,3-9.3,6.4-14.3,10.2
		c-2.6,1.9-5.1,3.9-7.9,6c0,0-0.1,0.1-0.1,0.1l-0.6,0.5c-2.4,1.9-5,4-7.5,6.1c-1.3,1.1-2.5,2.2-3.7,3.2l-0.5,0.5l-1,0.9l-0.5,0.4
		l-0.1,0.1l0,0c-0.1,0.1-0.2,0.2-0.3,0.3c-0.3,0.2-0.5,0.4-0.6,0.6l-0.1,0.1l-0.7,0.8c-0.4,0.4-0.7,0.7-1.1,1.1
		c-0.3,0.3-0.7,0.7-1,1c-0.6,0.6-1.1,1.1-1.6,1.6c-0.2,0.2-0.4,0.4-0.6,0.7l-0.2,0.2l-0.4,0.4c-0.2,0.2-0.3,0.4-0.4,0.6
		c-0.1,0.2-0.6,0.7-0.9,1c-0.6,0.6-1.2,1.4-1.8,2.2l-1.4,1.8l-0.4,0.6c-5.4,7.3-8.8,15.2-11.8,22.7c0,0,0,0.1,0,0.1
		c-1.3,3.3-2.5,6.2-3.6,8.8c-1.3,2.8-2.5,5-3.8,7c0,0,0,0,0,0.1l-1.1,1.7l-1.2,1.6c-0.2,0.3-0.4,0.5-0.6,0.8
		c-0.2,0.3-0.4,0.5-0.5,0.7l-1.2,1.3l-0.3,0.3c0,0,0,0,0,0l-1,1.2l-0.2,0.3L97,148l-1.7,1.8l0,0l-0.4,0.4l-1.3,1.3
		c-0.5,0.5-1,1-1.5,1.5c-0.6,0.6-1.2,1.3-1.8,1.8c0,0,0,0,0,0l-2.7,2.6l-0.7,0.7c-0.6,0.6-1.2,1.1-1.7,1.7c-1.7,1.7-3.3,3.2-5,4.8
		l-9.2,8.6l-3.5,3.3l-19,17.5C30,165.4,43.1,116.2,79.7,79.6C104.4,54.9,136,40,163,40c10.3,0,19.8,2.3,27.7,6.4
		C188.9,47.5,187,48.7,184.9,50z"/>
	<path d="M211,58.9L211,58.9L211,58.9 M207.7,62c18.5,28.7,5.4,77.9-31.2,114.4c-24.7,24.7-55.9,39.5-83.4,39.5
		c-10.4,0-19.9-2.2-27.8-6.4c7.2-4.5,16-10,18.7-11.9l1.1-0.7c4.1-2.9,8.8-6.1,13.6-9.7c2-1.5,4-3,6-4.5l1.9-1.4
		c0,0,0.1-0.1,0.1-0.1l0.8-0.7c2.4-1.9,4.8-3.9,7.4-6.1l0.9-0.8l1.1-1c0,0,0.1-0.1,0.1-0.1l0.9-0.8l1-0.9l0.9-0.8l1-0.9l0,0l0,0
		c0.1-0.1,0.2-0.2,0.3-0.3l0.1-0.1l0.3-0.3l0.5-0.5c0.1-0.1,0.1-0.1,0.2-0.2l1-1c0.4-0.4,0.8-0.8,1.2-1.2c0.3-0.3,0.6-0.6,0.9-0.9
		c0,0,0.1-0.1,0.1-0.1c0.6-0.6,1.1-1.2,1.6-1.8c0.4-0.5,0.8-0.9,1.1-1.2c0.1-0.1,0.3-0.3,0.4-0.4l0.4-0.5c0.2-0.2,0.3-0.4,0.4-0.6
		l2.4-3.3c1.2-1.6,2.2-3.1,3.1-4.6c0.2-0.3,0.4-0.7,0.6-1c0.6-0.9,1-1.7,1.4-2.4c0.1-0.2,0.2-0.5,0.4-0.7c0-0.1,0.1-0.1,0.1-0.2
		c0.1-0.3,0.3-0.5,0.4-0.8c0.3-0.6,0.7-1.3,1.1-2.1c1.9-3.7,3.4-7.4,4.7-10.6l0.1-0.3c0,0,0-0.1,0-0.1c2.5-6.2,4.6-11.6,7.4-16
		l1.2-1.9c0,0,0.1-0.1,0.1-0.1c0-0.1,0.2-0.3,0.3-0.5c0.2-0.3,0.4-0.6,0.6-0.8l1-1.4l0,0l1.8-2l1.4-1.6l0.4-0.4l0.8-0.9l0.5-0.6
		c0.9-1,1.8-1.9,2.7-2.8c0,0,0.1-0.1,0.1-0.1c4.3-4.4,8.7-8.6,13.5-13.2l5.9-5.6l0.6-0.6c0,0,0,0,0.1,0c1.3-1.3,2.7-2.5,4-3.7
		c0.7-0.7,1.4-1.3,2.1-2l10.9-10L207.7,62 M208.3,52c-1,0-2,0.4-2.7,1.1c-0.9,0.8-1.9,1.7-3,2.8c-2.3,2.2-5.2,4.8-8.4,7.8
		c-3.2,3-6.9,6.4-10.9,10c-2,1.8-4.1,3.7-6.2,5.8c-2.1,2-4.3,4-6.6,6.1c-4.5,4.2-9.1,8.7-13.7,13.4c-1.2,1.2-2.3,2.4-3.4,3.6
		l-0.8,0.9l-0.4,0.5l-0.2,0.2l-0.1,0.1c0,0,0,0,0,0l-0.1,0.1c0,0,0-0.1,0.2-0.2l-0.1,0.1c-1.1,1.3-2.2,2.5-3.3,3.8
		c-0.1,0.1-0.2,0.2-0.2,0.3l-1.1,1.6c-0.4,0.6-0.8,1.1-1.2,1.7l-1.2,1.9c-3.2,5-5.5,10.7-8.1,17.4c-1.4,3.3-2.8,6.9-4.6,10.5
		c-0.4,0.9-1,1.8-1.4,2.7c-0.5,0.9-0.9,1.8-1.5,2.7c-1.1,1.7-2.2,3.5-3.4,5.1c-0.8,1.1-1.7,2.2-2.5,3.3c-0.1,0.2-0.3,0.3-0.4,0.5
		c-1,1-1.9,2.2-2.9,3.2c-0.7,0.7-1.4,1.4-2.1,2.1l-1,1l-0.5,0.5l-0.3,0.3l-0.2,0.2l-0.1,0.1l-0.1,0.1c-0.7,0.6-1.3,1.2-1.9,1.7
		c-0.6,0.6-1.3,1.1-1.9,1.7c-0.7,0.6-1.4,1.2-2,1.7c-2.8,2.4-5.4,4.5-8,6.6c-2.7,2-5.2,4-7.8,5.9c-5,3.8-9.9,7.2-14.5,10.3
		c-3.5,2.4-17.7,11.3-24.7,15.7c-2.1,1.3-0.7,5.2,1.1,6.4c10.4,7.3,23.3,10.9,37.3,10.9c28.5,0,61.9-14.6,89.1-41.8
		c41.5-41.5,53.8-97.5,29.3-128.6C210.7,52.6,209.5,52,208.3,52L208.3,52z"/>
</g>
</svg>
