<?xml version="1.0" encoding="utf-8"?>
<!-- Generator: Adobe Illustrator 19.2.1, SVG Export Plug-In . SVG Version: 6.00 Build 0)  -->
<svg version="1.1" id="Ebene_1" xmlns="http://www.w3.org/2000/svg" xmlns:xlink="http://www.w3.org/1999/xlink" x="0px" y="0px"
	 viewBox="0 0 256 256" style="enable-background:new 0 0 256 256;" xml:space="preserve">
<style type="text/css">
	.st0{fill:none;stroke:#FF0000;stroke-miterlimit:10;}
	.st1{stroke:url(#SVGID_1_);stroke-miterlimit:10;}
</style>
<g>
	<path d="M194,128h-22.9h0H84.9h0c-0.8,0-1.5,0.2-2.1,0.6c-1.4,0.9-2.1,2.5-1.8,4.2l21.6,100.8c0.8,3.7,4.1,6.3,7.8,6.3h35.1
		c3.8,0,7-2.6,7.8-6.3l14.1-65.7c0,0,2.8-4,8.6-4c2.7,0,4.6,0.9,5.9,1.8c1.1,0.8,2.7,0.3,3.1-1l10.9-34.2
		C196.3,129.3,195.3,128,194,128z M147.2,224h-38.5l-18.9-88h76.2L147.2,224z"/>
	<path d="M104.1,164.9l10.5,48c0.4,1.8,2,3.1,3.9,3.1h19.1c1.9,0,3.5-1.3,3.9-3.2l10.3-48c0.5-2.5-1.4-4.8-3.9-4.8H108
		C105.4,160,103.5,162.4,104.1,164.9z"/>
	<path d="M116,110c0,0.2,0,0.5,0.1,0.7c0.1,0.5,0.1,1,0.2,1.5c0.2,0.9,0.4,1.7,0.6,2.5c0.5,1.5,1,2.7,1.4,3.5
		c0.2,0.4,0.4,0.7,0.5,0.9c0.1,0.2,0.2,0.3,0.2,0.3c0.2,0.3,0.6,0.6,1,0.5c0.5-0.1,0.9-0.6,0.8-1.2l0-0.1c0,0-0.1-0.5-0.2-1.3
		c-0.1-0.8-0.3-2-0.5-3.4c-0.1-0.7-0.2-1.4-0.2-2.2c0-0.4,0-0.8,0-1.1c0-0.2,0-0.4,0-0.7l0-0.2c0,0,0-0.1,0-0.1l0-0.2
		c0.1-0.6,0.3-1.1,0.7-1.7c0.4-0.6,1-1.2,1.7-2.2c0.3-0.5,0.7-1,1-1.7c0.1-0.3,0.2-0.6,0.3-1c0.1-0.3,0.2-0.7,0.2-1
		c0-0.2,0.1-0.4,0.1-0.5l0-0.4l0-0.4l0-0.1l0,0l0,0l0-0.1l0-0.2c0-0.5-0.1-1-0.2-1.5c-0.3-2-0.7-3.7-1.1-5.1
		c-0.4-1.5-0.9-2.6-1.2-3.5c-0.3-0.8-0.5-1.3-0.5-1.3l0,0c-0.2-0.4-0.6-0.6-1-0.6c-0.6,0.1-0.9,0.6-0.9,1.1c0,0,0.1,0.5,0.2,1.3
		c0.1,0.8,0.2,2.1,0.4,3.5c0.2,1.4,0.3,3.1,0.4,4.8c0,0.4,0,0.9,0,1.3c0,0.1-0.1,1-0.1,1.1c-0.1,0.2-0.2,0.5-0.3,0.8
		c-0.1,0.3-0.3,0.6-0.5,0.9c-0.5,0.6-1.2,1.4-1.9,2.4c-0.7,1.1-1.1,2.5-1.1,3.7l0,0.5c0,0.1,0,0.1,0,0.3L116,110z"/>
	<path d="M124,109.8l0,0.2c0,0.2,0,0.5,0.1,0.7c0.1,0.5,0.1,1,0.2,1.5c0.2,0.9,0.4,1.7,0.6,2.5c0.5,1.5,1,2.7,1.4,3.5
		c0.2,0.4,0.4,0.7,0.5,0.9c0.1,0.2,0.2,0.3,0.2,0.3c0.2,0.3,0.6,0.6,1,0.5c0.5-0.1,0.9-0.6,0.8-1.2l0-0.1c0,0-0.1-0.5-0.2-1.3
		c-0.1-0.8-0.3-2-0.5-3.4c-0.1-0.7-0.2-1.4-0.2-2.2c0-0.4,0-0.8,0-1.1c0-0.2,0-0.4,0-0.7l0-0.2c0,0,0-0.1,0-0.1l0-0.2
		c0.1-0.6,0.3-1.1,0.7-1.7c0.4-0.6,1-1.2,1.7-2.2c0.3-0.5,0.7-1,1-1.7c0.1-0.3,0.2-0.6,0.3-1c0.1-0.3,0.2-0.7,0.2-1
		c0-0.2,0.1-0.4,0.1-0.5l0-0.4l0-0.4l0-0.1l0,0l0,0l0-0.1l0-0.2c0-0.5-0.1-1-0.2-1.5c-0.3-2-0.7-3.7-1.1-5.1
		c-0.4-1.5-0.9-2.6-1.2-3.5c-0.3-0.8-0.5-1.3-0.5-1.3l0,0c-0.2-0.4-0.6-0.6-1-0.6c-0.6,0.1-0.9,0.6-0.9,1.1c0,0,0.1,0.5,0.2,1.3
		c0.1,0.8,0.2,2.1,0.4,3.5c0.2,1.4,0.3,3.1,0.4,4.8c0,0.4,0,0.9,0,1.3c0,0.1-0.1,1-0.1,1.1c-0.1,0.2-0.2,0.5-0.3,0.8
		c-0.1,0.3-0.3,0.6-0.5,0.9c-0.5,0.6-1.2,1.4-1.9,2.4c-0.7,1.1-1.1,2.5-1.1,3.7l0,0.5C124,109.7,124,109.7,124,109.8z"/>
	<path d="M132,109.8l0,0.2c0,0.2,0,0.5,0.1,0.7c0.1,0.5,0.1,1,0.2,1.5c0.2,0.9,0.4,1.7,0.6,2.5c0.5,1.5,1,2.7,1.4,3.5
		c0.2,0.4,0.4,0.7,0.5,0.9c0.1,0.2,0.2,0.3,0.2,0.3c0.2,0.3,0.6,0.6,1,0.5c0.5-0.1,0.9-0.6,0.8-1.2l0-0.1c0,0-0.1-0.5-0.2-1.3
		c-0.1-0.8-0.3-2-0.5-3.4c-0.1-0.7-0.2-1.4-0.2-2.2c0-0.4,0-0.8,0-1.1c0-0.2,0-0.4,0-0.7l0-0.2c0,0,0-0.1,0-0.1l0-0.2
		c0.1-0.6,0.3-1.1,0.7-1.7c0.4-0.6,1-1.2,1.7-2.2c0.3-0.5,0.7-1,1-1.7c0.1-0.3,0.2-0.6,0.3-1c0.1-0.3,0.2-0.7,0.2-1
		c0-0.2,0.1-0.4,0.1-0.5l0-0.4l0-0.4l0-0.1l0,0l0,0l0-0.1l0-0.2c0-0.5-0.1-1-0.2-1.5c-0.3-2-0.7-3.7-1.1-5.1
		c-0.4-1.5-0.9-2.6-1.2-3.5c-0.3-0.8-0.5-1.3-0.5-1.3l0,0c-0.2-0.4-0.6-0.6-1-0.6c-0.6,0.1-0.9,0.6-0.9,1.1c0,0,0.1,0.5,0.2,1.3
		c0.1,0.8,0.2,2.1,0.4,3.5c0.2,1.4,0.3,3.1,0.4,4.8c0,0.4,0,0.9,0,1.3c0,0.1-0.1,1-0.1,1.1c-0.1,0.2-0.2,0.5-0.3,0.8
		c-0.1,0.3-0.3,0.6-0.5,0.9c-0.5,0.6-1.2,1.4-1.9,2.4c-0.7,1.1-1.1,2.5-1.1,3.7l0,0.5C132,109.7,132,109.7,132,109.8z"/>
</g>
</svg>
