<?xml version="1.0" encoding="utf-8"?>
<!-- Generator: Adobe Illustrator 19.2.1, SVG Export Plug-In . SVG Version: 6.00 Build 0)  -->
<svg version="1.1" id="Ebene_1" xmlns="http://www.w3.org/2000/svg" xmlns:xlink="http://www.w3.org/1999/xlink" x="0px" y="0px"
	 viewBox="0 0 256 256" style="enable-background:new 0 0 256 256;" xml:space="preserve">
<style type="text/css">
	.st0{fill:none;stroke:#FF0000;stroke-miterlimit:10;}
	.st1{stroke:url(#SVGID_1_);stroke-miterlimit:10;}
</style>
<g>
	<path d="M228,108h-64c-2.2,0-4,1.8-4,4v4h-17.8c-1.7-2-4.3-3.2-7.2-2.9l-21.9,3.8c-0.8,0.1-1.5,0.1-2.3,0L96,114.4
		c-21.6-3.4-43.5-3.2-63.4,1l-2.2,0.4c-3.7,0.7-6.4,4-6.4,7.8v9.8c0,3.8,2.7,7.1,6.4,7.8l1.9,0.4c21,4.1,42.5,4.4,63.4,1l15-2.5
		c0.8-0.1,1.5-0.1,2.3,0l21.8,2.7c2.9,0.4,5.5-0.8,7.2-2.9h17.9c0.1,0.3,0.2,0.6,0.3,0.8l6.5,12.9c0.7,1.4,2.1,2.2,3.6,2.2h14.9
		l2,8.7c0.3,1.9,2,3.3,3.9,3.3h9.2c2,0,3.6-1.4,3.9-3.3l2-8.7h14.9c1.5,0,2.9-0.9,3.6-2.2l6.5-12.9c0.3-0.6,0.4-1.2,0.4-1.8V112
		C232,109.8,230.2,108,228,108z M144,124h16v8h-16V124z M197.4,160h-2.9l-0.9-4h4.7L197.4,160z M224,138.1l-4.9,9.9h-46.1l-4.9-9.9
		V116h56V138.1z"/>
	<path d="M196,176c0,0-8,7.6-8,12s3.6,8,8,8s8-3.6,8-8S196,176,196,176z"/>
</g>
</svg>
