<?xml version="1.0" encoding="utf-8"?>
<!-- Generator: Adobe Illustrator 19.2.1, SVG Export Plug-In . SVG Version: 6.00 Build 0)  -->
<svg version="1.1" id="Ebene_1" xmlns="http://www.w3.org/2000/svg" xmlns:xlink="http://www.w3.org/1999/xlink" x="0px" y="0px"
	 viewBox="0 0 256 256" style="enable-background:new 0 0 256 256;" xml:space="preserve">
<style type="text/css">
	.st0{fill:none;stroke:#FF0000;stroke-miterlimit:10;}
	.st1{stroke:url(#SVGID_1_);stroke-miterlimit:10;}
</style>
<g>
	<path d="M120.1,165.2c4.3,2.7,7.4,6.5,7.9,8.1c0.4-1.6,3.8-5.4,7.9-8.2c4.4-3,11.2-5.5,11.1-12.5c-0.1-12.9-14.3-14.9-19-4.3
		c-4.9-11.1-18.9-8.5-19,4.4C108.9,159.8,115.7,162.4,120.1,165.2z"/>
	<path d="M184,92c0-5.4-3.6-10-8.6-11.5c-3.3-21.2-20.5-37.7-41.9-40.2l1.3-13.6l31,16.8c1.9,1.1,4.4,0.3,5.4-1.6s0.3-4.4-1.6-5.4
		l-36.3-19.7c-1.2-0.6-2.6-0.6-3.8,0c-1.2,0.6-2,1.8-2.1,3.2l-1.9,20.1c-22.8,1.2-41.4,18.3-44.9,40.4C75.6,82,72,86.6,72,92
		c0,6,4.4,11,10.2,11.8l-0.1,0L83,112h-0.6c-2.4,0-4.2,2-4,4.4l7.6,80c0.2,2.1,1.9,3.6,4,3.6h2.3l3.9,36.4c0.2,2,1.9,3.6,4,3.6h56.8
		c2.1,0,3.8-1.6,4-3.6l3.6-36.4h1.5c2.1,0,3.8-1.6,4-3.6l7.6-80c0.2-2.3-1.6-4.4-4-4.4h-0.3l0.8-8.2C179.8,102.8,184,97.9,184,92z
		 M124.7,48.1l-2.5,25.7c-0.1,1.2,0.8,2.2,2,2.2h4c1,0,1.9-0.8,2-1.8l2.5-25.9c17.2,2,31.1,15,34.5,31.7H88.8
		C92.3,62.8,106.9,49.6,124.7,48.1z M80,92c0-2.2,1.8-4,4-4h88c2.2,0,4,1.8,4,4s-1.8,4-4,4H84C81.8,96,80,94.2,80,92z M153.3,232
		h-49.6l-3.4-32h56.2L153.3,232z M162.4,192H93.6l-6.8-72h82.4L162.4,192z M91,112l-0.8-8h76l-0.8,8H91z"/>
	<path d="M111.5,228.1c0.1,0,0.3,0,0.4,0c2,0,3.8-1.5,4-3.6l1.8-18.4c0.1-1.2-0.8-2.2-2-2.2h-4c-1,0-1.9,0.8-2,1.8l-1.7,18
		C107.7,226,109.3,227.9,111.5,228.1z"/>
</g>
</svg>
