<?xml version="1.0" encoding="utf-8"?>
<!-- Generator: Adobe Illustrator 19.2.1, SVG Export Plug-In . SVG Version: 6.00 Build 0)  -->
<svg version="1.1" id="Ebene_1" xmlns="http://www.w3.org/2000/svg" xmlns:xlink="http://www.w3.org/1999/xlink" x="0px" y="0px"
	 viewBox="0 0 256 256" style="enable-background:new 0 0 256 256;" xml:space="preserve">
<style type="text/css">
	.st0{fill:none;stroke:#FF0000;stroke-miterlimit:10;}
	.st1{stroke:url(#SVGID_1_);stroke-miterlimit:10;}
</style>
<g>
	<path d="M207.2,48.8C195.9,37.5,180,32,163,32c0,0,0,0,0,0c-28.5,0-61.9,14.7-89.1,41.9c-43.7,43.7-55,103.4-25.1,133.3
		c11.3,11.3,26.9,16.7,44.2,16.7c28.5,0,61.9-14.6,89.1-41.8C225.8,138.3,237.1,78.7,207.2,48.8z M176.4,176.4
		c-24.7,24.7-55.9,39.5-83.4,39.5c-15.8,0-29.2-5-38.6-14.4c-12.5-12.5-17.1-31.8-12.8-54.3c4.4-23.6,17.9-47.6,38-67.7
		C104.3,54.8,135.5,40,163,40c16,0,29.2,5,38.6,14.4c12.5,12.5,17.1,31.8,12.8,54.3C209.9,132.4,196.5,156.4,176.4,176.4z"/>
	<path d="M155,81.8c-4.4,3.1-8.9,6.6-13.5,10.5c-0.6,0.5-1.1,1-1.7,1.5l-0.9,0.8l-0.4,0.4l-0.1,0.1l-0.1,0c-0.1,0.1,0.1-0.1-0.2,0.2
		l-0.2,0.2c-0.5,0.5-1.1,1-1.6,1.5c-0.6,0.6-1.2,1.3-1.8,1.9c-2.3,2.5-4.4,5.2-6.3,8.1c-1.9,2.9-3.5,6-4.9,9.1
		c-1.4,3.1-2.5,6.1-3.5,9c-1,2.9-2,5.6-3,8c-1,2.5-2.1,4.8-3.4,7c-1.3,2.2-2.7,4.3-4.3,6.3c-0.4,0.5-0.8,1-1.2,1.5l-0.6,0.7
		l-0.3,0.4l-0.2,0.2l-0.1,0.1l0,0c0,0,0.2-0.1,0.1,0c-1,1.1-2,2.1-3,3.2c-1,1.1-1.9,1.9-2.8,2.9c-0.5,0.5-0.9,1-1.4,1.4
		c-0.5,0.5-1,0.9-1.4,1.4c-1.9,1.9-3.8,3.7-5.7,5.5c-1.9,1.8-3.7,3.5-5.5,5.1c-1.8,1.7-3.5,3.3-5.2,4.8C68.1,186,59,194.2,59,194.2
		c-0.6,0.6-0.9,1.5-0.5,2.3c0.5,1,1.7,1.5,2.7,1l0,0c0,0,0.7-0.3,2-1c1.3-0.6,3.2-1.6,5.6-2.8c2.4-1.2,5.3-2.8,8.6-4.7
		c3.3-1.9,7-4,10.9-6.5c2-1.2,4-2.6,6.1-3.9c2.1-1.4,4.2-2.9,6.4-4.4c2.2-1.6,4.5-3.2,6.7-4.9c0.6-0.4,1.1-0.9,1.7-1.3
		c0.6-0.5,1.2-0.9,1.7-1.4c1.1-0.9,2.4-1.9,3.5-2.9c1.1-0.9,2.2-1.9,3.3-2.8c0.6-0.6,1.2-1.2,1.9-1.8c0.6-0.6,1.2-1.2,1.7-1.8
		c2.3-2.4,4.5-5.1,6.4-8c3.9-5.8,6.5-12.4,8.6-18.1c1-2.9,2-5.6,3-8.1c1-2.5,2.1-4.8,3.3-7.1c1.2-2.2,2.7-4.3,4.2-6.3l1.1-1.4
		c0.5-0.5,1-1.1,1.5-1.6l0.2-0.2c-0.2,0.2,0,0-0.1,0.1l0,0l0.1-0.1l0.4-0.4l0.7-0.8c0.5-0.5,0.9-1,1.4-1.5c3.8-4,7.6-7.8,11.4-11.3
		c1.9-1.8,3.7-3.5,5.5-5.1c1.8-1.7,3.5-3.3,5.2-4.8c6.8-6.1,12.5-11.2,16.4-14.8c4-3.6,6.3-5.7,6.3-5.7c0.6-0.6,0.9-1.5,0.5-2.3
		c-0.5-1-1.7-1.5-2.7-1l0,0c0,0-2.9,1.3-7.7,3.8c-2.4,1.2-5.3,2.8-8.6,4.7c-3.3,1.9-7,4-10.9,6.5c-2,1.2-4,2.6-6.1,3.9
		C159.4,78.8,157.2,80.3,155,81.8z"/>
</g>
</svg>
