<?xml version="1.0" encoding="utf-8"?>
<!-- Generator: Adobe Illustrator 19.2.1, SVG Export Plug-In . SVG Version: 6.00 Build 0)  -->
<svg version="1.1" id="Ebene_1" xmlns="http://www.w3.org/2000/svg" xmlns:xlink="http://www.w3.org/1999/xlink" x="0px" y="0px"
	 viewBox="0 0 256 256" style="enable-background:new 0 0 256 256;" xml:space="preserve">
<style type="text/css">
	.st0{fill:none;stroke:#FF0000;stroke-miterlimit:10;}
	.st1{stroke:url(#SVGID_1_);stroke-miterlimit:10;}
</style>
<g>
	<path d="M183.2,83.3l-2.1-12.7c-0.6-3.6-3.5-6.2-7-6.6h0l-4.6-18c-0.9-3.5-4.1-6-7.8-6H94.2c-3.7,0-6.9,2.5-7.8,6.1L82,64h0
		c-3.6,0.4-6.5,3-7.1,6.6l-2.1,12.7c-0.4,2.4,1.5,4.7,3.9,4.7h3.7l2.5,24h-0.6c-2.4,0-4.2,2-4,4.4l7.6,80c0.2,2.1,1.9,3.6,4,3.6h2.3
		l3.9,36.4c0.2,2,1.9,3.6,4,3.6h56.8c2.1,0,3.8-1.6,4-3.6l3.6-36.4h1.5c2.1,0,3.8-1.6,4-3.6l7.6-80c0.2-2.3-1.6-4.4-4-4.4h-0.3
		l2.4-24h3.5C181.7,88,183.6,85.8,183.2,83.3z M94.2,48h67.5v0l4.1,16H90.2L94.2,48z M82.8,72h90.4h0l1.3,8H81.4L82.8,72z
		 M153.3,232h-49.6l-3.4-32h56.2L153.3,232z M162.4,192H93.6l-6.8-72h82.4L162.4,192z M165.3,112H91l-2.5-24h79.3L165.3,112z"/>
	<path d="M120.1,165.2c4.3,2.7,7.4,6.5,7.9,8.1c0.4-1.6,3.8-5.4,7.9-8.2c4.4-3,11.2-5.5,11.1-12.5c-0.1-12.9-14.3-14.9-19-4.3
		c-4.9-11.1-18.9-8.5-19,4.4C108.9,159.8,115.7,162.4,120.1,165.2z"/>
</g>
</svg>
