<?xml version="1.0" encoding="utf-8"?>
<!-- Generator: Adobe Illustrator 19.2.1, SVG Export Plug-In . SVG Version: 6.00 Build 0)  -->
<svg version="1.1" id="Ebene_1" xmlns="http://www.w3.org/2000/svg" xmlns:xlink="http://www.w3.org/1999/xlink" x="0px" y="0px"
	 viewBox="0 0 256 256" style="enable-background:new 0 0 256 256;" xml:space="preserve">
<style type="text/css">
	.st0{fill:none;stroke:#FF0000;stroke-miterlimit:10;}
	.st1{stroke:url(#SVGID_1_);stroke-miterlimit:10;}
</style>
<g>
	<path d="M206,136h-6v-8c0-2.7-24-12-72-12s-72,9.3-72,12v8h-6c-1.1,0-2,0.9-2,2s0.9,2,2,2h6h144h6c1.1,0,2-0.9,2-2
		S207.1,136,206,136z M60,136v-6.4c2.2-1.2,8-3.4,18.1-5.4c9.7-1.9,26.2-4.2,49.9-4.2s40.2,2.3,49.9,4.2c10.1,2,15.9,4.2,18.1,5.4
		v6.4H60z"/>
	<path d="M129.8,126c-0.1,0-0.1,0-0.2,0c-0.4,0-0.7,0.2-0.8,0.4l-3.3,4.7c-0.3,0.4,0.1,0.9,0.8,0.9h0.1c0.4,0,0.7-0.2,0.8-0.4
		l3.3-4.7C130.9,126.5,130.5,126.1,129.8,126z"/>
	<path d="M138.2,126.2c-0.3,0-0.7,0-1,0c-0.2,0.1-0.4,0.2-0.5,0.3l-3.3,4.6c-0.3,0.4,0.1,0.9,0.8,0.9h0.1c0.4,0,0.7-0.2,0.8-0.4
		l3.3-4.6C138.8,126.7,138.6,126.3,138.2,126.2z"/>
	<path d="M145.3,126C145.3,126,145.3,126,145.3,126c-0.3,0-0.6,0.3-0.8,0.6c-0.8,1.1-3.1,4.4-3.1,4.4c-0.3,0.4,0.1,1,0.8,1.1h0.1
		c0.4,0,0.7-0.2,0.8-0.4c0,0,1.7-2.5,2.7-4C146.4,127,146,126,145.3,126z"/>
	<path d="M153,127C153,127,152.9,127,153,127c-0.3,0-0.6,0.1-0.8,0.4l-2.7,3.7c-0.3,0.4,0.1,0.9,0.8,0.9h0.1c0.4,0,0.7-0.2,0.8-0.4
		c0,0,1.4-2,2.3-3.3C154,127.8,153.6,127,153,127z"/>
	<path d="M160.5,127.7C160.5,127.7,160.5,127.7,160.5,127.7c-0.3,0-0.7,0.1-0.8,0.4l-2.2,3c-0.3,0.4,0.1,0.9,0.8,0.9h0.1
		c0.4,0,0.7-0.2,0.8-0.4l1.8-2.6C161.5,128.5,161.2,127.7,160.5,127.7z"/>
	<path d="M167.9,128.6C167.9,128.6,167.8,128.6,167.9,128.6c-0.3,0-0.7,0.1-0.9,0.4l-1.5,2.1c-0.3,0.4,0.1,0.9,0.8,0.9h0.1
		c0.4,0,0.7-0.2,0.8-0.4l1.2-1.6C168.8,129.4,168.5,128.7,167.9,128.6z"/>
	<path d="M175.1,129.8C175.1,129.8,175.1,129.7,175.1,129.8c-0.4-0.1-0.7,0.1-0.9,0.4l-0.7,1c-0.3,0.4,0.1,0.9,0.8,0.9h0.1
		c0.4,0,0.7-0.2,0.8-0.4l0.3-0.5C176,130.6,175.7,129.9,175.1,129.8z"/>
	<path d="M122.2,126.2c-0.3,0-0.7,0-1,0c-0.2,0.1-0.4,0.2-0.5,0.3l-3.3,4.6c-0.3,0.4,0.1,0.9,0.8,0.9h0.1c0.4,0,0.7-0.2,0.8-0.4
		l3.3-4.6C122.8,126.7,122.6,126.3,122.2,126.2z"/>
	<path d="M113.8,126C113.8,126,113.8,126,113.8,126c-0.3,0-0.6,0.3-0.8,0.6c-0.8,1.1-3.1,4.4-3.1,4.4c-0.3,0.4,0.1,1,0.8,1.1h0.1
		c0.4,0,0.7-0.2,0.8-0.4c0,0,1.7-2.5,2.7-4C114.9,127,114.5,126,113.8,126z"/>
	<path d="M105.8,127C105.8,127,105.8,127,105.8,127c-0.3,0-0.6,0.1-0.8,0.4l-2.7,3.7c-0.3,0.4,0.1,0.9,0.8,0.9h0.1
		c0.4,0,0.7-0.2,0.8-0.4c0,0,1.4-2,2.3-3.3C106.8,127.8,106.5,127,105.8,127z"/>
	<path d="M97.8,127.7C97.8,127.7,97.8,127.7,97.8,127.7c-0.3,0-0.7,0.1-0.8,0.4l-2.2,3c-0.3,0.4,0.1,0.9,0.8,0.9h0.1
		c0.4,0,0.7-0.2,0.8-0.4l1.8-2.6C98.8,128.5,98.5,127.7,97.8,127.7z"/>
	<path d="M89.9,128.6C89.8,128.6,89.8,128.6,89.9,128.6c-0.3,0-0.7,0.1-0.9,0.4l-1.5,2.1c-0.3,0.4,0.1,0.9,0.8,0.9h0.1
		c0.4,0,0.7-0.2,0.8-0.4l1.2-1.6C90.8,129.4,90.5,128.7,89.9,128.6z"/>
	<path d="M81.9,129.8C81.9,129.8,81.9,129.7,81.9,129.8c-0.4-0.1-0.7,0.1-0.9,0.4l-0.7,1c-0.3,0.4,0.1,0.9,0.8,0.9h0.1
		c0.4,0,0.7-0.2,0.8-0.4l0.3-0.5C82.8,130.6,82.5,129.9,81.9,129.8z"/>
	<path d="M206,168h-6v-8c0-2.7-24-12-72-12s-72,9.3-72,12v8h-6c-1.1,0-2,0.9-2,2s0.9,2,2,2h6h144h6c1.1,0,2-0.9,2-2
		S207.1,168,206,168z M60,168v-6.4c2.2-1.2,8-3.4,18.1-5.4c9.7-1.9,26.2-4.2,49.9-4.2s40.2,2.3,49.9,4.2c10.1,2,15.9,4.2,18.1,5.4
		v6.4H60z"/>
	<path d="M129.8,158c-0.1,0-0.1,0-0.2,0c-0.4,0-0.7,0.2-0.8,0.4l-3.3,4.7c-0.3,0.4,0.1,0.9,0.8,0.9h0.1c0.4,0,0.7-0.2,0.8-0.4
		l3.3-4.7C130.9,158.5,130.5,158.1,129.8,158z"/>
	<path d="M138.2,158.2c-0.3,0-0.7,0-1,0c-0.2,0.1-0.4,0.2-0.5,0.3l-3.3,4.6c-0.3,0.4,0.1,0.9,0.8,0.9h0.1c0.4,0,0.7-0.2,0.8-0.4
		l3.3-4.6C138.8,158.7,138.6,158.3,138.2,158.2z"/>
	<path d="M145.3,158C145.3,158,145.3,158,145.3,158c-0.3,0-0.6,0.3-0.8,0.6c-0.8,1.1-3.1,4.4-3.1,4.4c-0.3,0.4,0.1,1,0.8,1.1h0.1
		c0.4,0,0.7-0.2,0.8-0.4c0,0,1.7-2.5,2.7-4C146.4,159,146,158,145.3,158z"/>
	<path d="M153,159C153,159,152.9,159,153,159c-0.3,0-0.6,0.1-0.8,0.4l-2.7,3.7c-0.3,0.4,0.1,0.9,0.8,0.9h0.1c0.4,0,0.7-0.2,0.8-0.4
		c0,0,1.4-2,2.3-3.3C154,159.8,153.6,159,153,159z"/>
	<path d="M160.5,159.7C160.5,159.7,160.5,159.7,160.5,159.7c-0.3,0-0.7,0.1-0.8,0.4l-2.2,3c-0.3,0.4,0.1,0.9,0.8,0.9h0.1
		c0.4,0,0.7-0.2,0.8-0.4l1.8-2.6C161.5,160.5,161.2,159.7,160.5,159.7z"/>
	<path d="M167.9,160.6C167.9,160.6,167.8,160.6,167.9,160.6c-0.3,0-0.7,0.1-0.9,0.4l-1.5,2.1c-0.3,0.4,0.1,0.9,0.8,0.9h0.1
		c0.4,0,0.7-0.2,0.8-0.4l1.2-1.6C168.8,161.4,168.5,160.7,167.9,160.6z"/>
	<path d="M175.1,161.8C175.1,161.8,175.1,161.7,175.1,161.8c-0.4-0.1-0.7,0.1-0.9,0.4l-0.7,1c-0.3,0.4,0.1,0.9,0.8,0.9h0.1
		c0.4,0,0.7-0.2,0.8-0.4l0.3-0.5C176,162.6,175.7,161.9,175.1,161.8z"/>
	<path d="M122.2,158.2c-0.3,0-0.7,0-1,0c-0.2,0.1-0.4,0.2-0.5,0.3l-3.3,4.6c-0.3,0.4,0.1,0.9,0.8,0.9h0.1c0.4,0,0.7-0.2,0.8-0.4
		l3.3-4.6C122.8,158.7,122.6,158.3,122.2,158.2z"/>
	<path d="M113.8,158C113.8,158,113.8,158,113.8,158c-0.3,0-0.6,0.3-0.8,0.6c-0.8,1.1-3.1,4.4-3.1,4.4c-0.3,0.4,0.1,1,0.8,1.1h0.1
		c0.4,0,0.7-0.2,0.8-0.4c0,0,1.7-2.5,2.7-4C114.9,159,114.5,158,113.8,158z"/>
	<path d="M105.8,159C105.8,159,105.8,159,105.8,159c-0.3,0-0.6,0.1-0.8,0.4l-2.7,3.7c-0.3,0.4,0.1,0.9,0.8,0.9h0.1
		c0.4,0,0.7-0.2,0.8-0.4c0,0,1.4-2,2.3-3.3C106.8,159.8,106.5,159,105.8,159z"/>
	<path d="M97.8,159.7C97.8,159.7,97.8,159.7,97.8,159.7c-0.3,0-0.7,0.1-0.8,0.4l-2.2,3c-0.3,0.4,0.1,0.9,0.8,0.9h0.1
		c0.4,0,0.7-0.2,0.8-0.4l1.8-2.6C98.8,160.5,98.5,159.7,97.8,159.7z"/>
	<path d="M89.9,160.6C89.8,160.6,89.8,160.6,89.9,160.6c-0.3,0-0.7,0.1-0.9,0.4l-1.5,2.1c-0.3,0.4,0.1,0.9,0.8,0.9h0.1
		c0.4,0,0.7-0.2,0.8-0.4l1.2-1.6C90.8,161.4,90.5,160.7,89.9,160.6z"/>
	<path d="M81.9,161.8C81.9,161.8,81.9,161.7,81.9,161.8c-0.4-0.1-0.7,0.1-0.9,0.4l-0.7,1c-0.3,0.4,0.1,0.9,0.8,0.9h0.1
		c0.4,0,0.7-0.2,0.8-0.4l0.3-0.5C82.8,162.6,82.5,161.9,81.9,161.8z"/>
	<path d="M206,200h-6v-8c0-2.7-24-12-72-12s-72,9.3-72,12v8h-6c-1.1,0-2,0.9-2,2s0.9,2,2,2h6h144h6c1.1,0,2-0.9,2-2
		S207.1,200,206,200z M60,200v-6.4c2.2-1.2,8-3.4,18.1-5.4c9.7-1.9,26.2-4.2,49.9-4.2s40.2,2.3,49.9,4.2c10.1,2,15.9,4.2,18.1,5.4
		v6.4H60z"/>
	<path d="M129.8,190c-0.1,0-0.1,0-0.2,0c-0.4,0-0.7,0.2-0.8,0.4l-3.3,4.7c-0.3,0.4,0.1,0.9,0.8,0.9h0.1c0.4,0,0.7-0.2,0.8-0.4
		l3.3-4.7C130.9,190.5,130.5,190.1,129.8,190z"/>
	<path d="M138.2,190.2c-0.3,0-0.7,0-1,0c-0.2,0.1-0.4,0.2-0.5,0.3l-3.3,4.6c-0.3,0.4,0.1,0.9,0.8,0.9h0.1c0.4,0,0.7-0.2,0.8-0.4
		l3.3-4.6C138.8,190.7,138.6,190.3,138.2,190.2z"/>
	<path d="M145.3,190C145.3,190,145.3,190,145.3,190c-0.3,0-0.6,0.3-0.8,0.6c-0.8,1.1-3.1,4.4-3.1,4.4c-0.3,0.4,0.1,1,0.8,1.1h0.1
		c0.4,0,0.7-0.2,0.8-0.4c0,0,1.7-2.5,2.7-4C146.4,191,146,190,145.3,190z"/>
	<path d="M153,191C153,191,152.9,191,153,191c-0.3,0-0.6,0.1-0.8,0.4l-2.7,3.7c-0.3,0.4,0.1,0.9,0.8,0.9h0.1c0.4,0,0.7-0.2,0.8-0.4
		c0,0,1.4-2,2.3-3.3C154,191.8,153.6,191,153,191z"/>
	<path d="M160.5,191.7C160.5,191.7,160.5,191.7,160.5,191.7c-0.3,0-0.7,0.1-0.8,0.4l-2.2,3c-0.3,0.4,0.1,0.9,0.8,0.9h0.1
		c0.4,0,0.7-0.2,0.8-0.4l1.8-2.6C161.5,192.5,161.2,191.7,160.5,191.7z"/>
	<path d="M167.9,192.6C167.9,192.6,167.8,192.6,167.9,192.6c-0.3,0-0.7,0.1-0.9,0.4l-1.5,2.1c-0.3,0.4,0.1,0.9,0.8,0.9h0.1
		c0.4,0,0.7-0.2,0.8-0.4l1.2-1.6C168.8,193.4,168.5,192.7,167.9,192.6z"/>
	<path d="M175.1,193.8C175.1,193.8,175.1,193.7,175.1,193.8c-0.4-0.1-0.7,0.1-0.9,0.4l-0.7,1c-0.3,0.4,0.1,0.9,0.8,0.9h0.1
		c0.4,0,0.7-0.2,0.8-0.4l0.3-0.5C176,194.6,175.7,193.9,175.1,193.8z"/>
	<path d="M122.2,190.2c-0.3,0-0.7,0-1,0c-0.2,0.1-0.4,0.2-0.5,0.3l-3.3,4.6c-0.3,0.4,0.1,0.9,0.8,0.9h0.1c0.4,0,0.7-0.2,0.8-0.4
		l3.3-4.6C122.8,190.7,122.6,190.3,122.2,190.2z"/>
	<path d="M113.8,190C113.8,190,113.8,190,113.8,190c-0.3,0-0.6,0.3-0.8,0.6c-0.8,1.1-3.1,4.4-3.1,4.4c-0.3,0.4,0.1,1,0.8,1.1h0.1
		c0.4,0,0.7-0.2,0.8-0.4c0,0,1.7-2.5,2.7-4C114.9,191,114.5,190,113.8,190z"/>
	<path d="M105.8,191C105.8,191,105.8,191,105.8,191c-0.3,0-0.6,0.1-0.8,0.4l-2.7,3.7c-0.3,0.4,0.1,0.9,0.8,0.9h0.1
		c0.4,0,0.7-0.2,0.8-0.4c0,0,1.4-2,2.3-3.3C106.8,191.8,106.5,191,105.8,191z"/>
	<path d="M97.8,191.7C97.8,191.7,97.8,191.7,97.8,191.7c-0.3,0-0.7,0.1-0.8,0.4l-2.2,3c-0.3,0.4,0.1,0.9,0.8,0.9h0.1
		c0.4,0,0.7-0.2,0.8-0.4l1.8-2.6C98.8,192.5,98.5,191.7,97.8,191.7z"/>
	<path d="M89.9,192.6C89.8,192.6,89.8,192.6,89.9,192.6c-0.3,0-0.7,0.1-0.9,0.4l-1.5,2.1c-0.3,0.4,0.1,0.9,0.8,0.9h0.1
		c0.4,0,0.7-0.2,0.8-0.4l1.2-1.6C90.8,193.4,90.5,192.7,89.9,192.6z"/>
	<path d="M81.9,193.8C81.9,193.8,81.9,193.7,81.9,193.8c-0.4-0.1-0.7,0.1-0.9,0.4l-0.7,1c-0.3,0.4,0.1,0.9,0.8,0.9h0.1
		c0.4,0,0.7-0.2,0.8-0.4l0.3-0.5C82.8,194.6,82.5,193.9,81.9,193.8z"/>
	<path d="M206,232h-6v-8c0-2.7-24-12-72-12s-72,9.3-72,12v8h-6c-1.1,0-2,0.9-2,2s0.9,2,2,2h6h144h6c1.1,0,2-0.9,2-2
		S207.1,232,206,232z M60,232v-6.4c2.2-1.2,8-3.4,18.1-5.4c9.7-1.9,26.2-4.2,49.9-4.2s40.2,2.3,49.9,4.2c10.1,2,15.9,4.2,18.1,5.4
		v6.4H60z"/>
	<path d="M129.8,222c-0.1,0-0.1,0-0.2,0c-0.4,0-0.7,0.2-0.8,0.4l-3.3,4.7c-0.3,0.4,0.1,0.9,0.8,0.9h0.1c0.4,0,0.7-0.2,0.8-0.4
		l3.3-4.7C130.9,222.5,130.5,222.1,129.8,222z"/>
	<path d="M138.2,222.2c-0.3,0-0.7,0-1,0c-0.2,0.1-0.4,0.2-0.5,0.3l-3.3,4.6c-0.3,0.4,0.1,0.9,0.8,0.9h0.1c0.4,0,0.7-0.2,0.8-0.4
		l3.3-4.6C138.8,222.7,138.6,222.3,138.2,222.2z"/>
	<path d="M145.3,222C145.3,222,145.3,222,145.3,222c-0.3,0-0.6,0.3-0.8,0.6c-0.8,1.1-3.1,4.4-3.1,4.4c-0.3,0.4,0.1,1,0.8,1.1h0.1
		c0.4,0,0.7-0.2,0.8-0.4c0,0,1.7-2.5,2.7-4C146.4,223,146,222,145.3,222z"/>
	<path d="M153,223C153,223,152.9,223,153,223c-0.3,0-0.6,0.1-0.8,0.4l-2.7,3.7c-0.3,0.4,0.1,0.9,0.8,0.9h0.1c0.4,0,0.7-0.2,0.8-0.4
		c0,0,1.4-2,2.3-3.3C154,223.8,153.6,223,153,223z"/>
	<path d="M160.5,223.7C160.5,223.7,160.5,223.7,160.5,223.7c-0.3,0-0.7,0.1-0.8,0.4l-2.2,3c-0.3,0.4,0.1,0.9,0.8,0.9h0.1
		c0.4,0,0.7-0.2,0.8-0.4l1.8-2.6C161.5,224.5,161.2,223.7,160.5,223.7z"/>
	<path d="M167.9,224.6C167.9,224.6,167.8,224.6,167.9,224.6c-0.3,0-0.7,0.1-0.9,0.4l-1.5,2.1c-0.3,0.4,0.1,0.9,0.8,0.9h0.1
		c0.4,0,0.7-0.2,0.8-0.4l1.2-1.6C168.8,225.4,168.5,224.7,167.9,224.6z"/>
	<path d="M175.1,225.8C175.1,225.8,175.1,225.7,175.1,225.8c-0.4-0.1-0.7,0.1-0.9,0.4l-0.7,1c-0.3,0.4,0.1,0.9,0.8,0.9h0.1
		c0.4,0,0.7-0.2,0.8-0.4l0.3-0.5C176,226.6,175.7,225.9,175.1,225.8z"/>
	<path d="M122.2,222.2c-0.3,0-0.7,0-1,0c-0.2,0.1-0.4,0.2-0.5,0.3l-3.3,4.6c-0.3,0.4,0.1,0.9,0.8,0.9h0.1c0.4,0,0.7-0.2,0.8-0.4
		l3.3-4.6C122.8,222.7,122.6,222.3,122.2,222.2z"/>
	<path d="M113.8,222C113.8,222,113.8,222,113.8,222c-0.3,0-0.6,0.3-0.8,0.6c-0.8,1.1-3.1,4.4-3.1,4.4c-0.3,0.4,0.1,1,0.8,1.1h0.1
		c0.4,0,0.7-0.2,0.8-0.4c0,0,1.7-2.5,2.7-4C114.9,223,114.5,222,113.8,222z"/>
	<path d="M105.8,223C105.8,223,105.8,223,105.8,223c-0.3,0-0.6,0.1-0.8,0.4l-2.7,3.7c-0.3,0.4,0.1,0.9,0.8,0.9h0.1
		c0.4,0,0.7-0.2,0.8-0.4c0,0,1.4-2,2.3-3.3C106.8,223.8,106.5,223,105.8,223z"/>
	<path d="M97.8,223.7C97.8,223.7,97.8,223.7,97.8,223.7c-0.3,0-0.7,0.1-0.8,0.4l-2.2,3c-0.3,0.4,0.1,0.9,0.8,0.9h0.1
		c0.4,0,0.7-0.2,0.8-0.4l1.8-2.6C98.8,224.5,98.5,223.7,97.8,223.7z"/>
	<path d="M89.9,224.6C89.8,224.6,89.8,224.6,89.9,224.6c-0.3,0-0.7,0.1-0.9,0.4l-1.5,2.1c-0.3,0.4,0.1,0.9,0.8,0.9h0.1
		c0.4,0,0.7-0.2,0.8-0.4l1.2-1.6C90.8,225.4,90.5,224.7,89.9,224.6z"/>
	<path d="M81.9,225.8C81.9,225.8,81.9,225.7,81.9,225.8c-0.4-0.1-0.7,0.1-0.9,0.4l-0.7,1c-0.3,0.4,0.1,0.9,0.8,0.9h0.1
		c0.4,0,0.7-0.2,0.8-0.4l0.3-0.5C82.8,226.6,82.5,225.9,81.9,225.8z"/>
	<path d="M50,44h6h144h6c1.1,0,2-0.9,2-2s-0.9-2-2-2h-6v-8c0-2.7-24-12-72-12s-72,9.3-72,12v8h-6c-1.1,0-2,0.9-2,2S48.9,44,50,44z
		 M60,33.6c2.2-1.2,8-3.4,18.1-5.4c9.7-1.9,26.2-4.2,49.9-4.2s40.2,2.3,49.9,4.2c10.1,2,15.9,4.2,18.1,5.4V40H60V33.6z"/>
	<path d="M129.8,30c-0.1,0-0.1,0-0.2,0c-0.4,0-0.7,0.2-0.8,0.4l-3.3,4.7c-0.3,0.4,0.1,0.9,0.8,0.9h0.1c0.4,0,0.7-0.2,0.8-0.4
		l3.3-4.7C130.9,30.5,130.5,30.1,129.8,30z"/>
	<path d="M138.2,30.2c-0.3,0-0.7,0-1,0c-0.2,0.1-0.4,0.2-0.5,0.3l-3.3,4.6c-0.3,0.4,0.1,0.9,0.8,0.9h0.1c0.4,0,0.7-0.2,0.8-0.4
		l3.3-4.6C138.8,30.7,138.6,30.3,138.2,30.2z"/>
	<path d="M145.3,30C145.3,30,145.3,30,145.3,30c-0.3,0-0.6,0.3-0.8,0.6c-0.8,1.1-3.1,4.4-3.1,4.4c-0.3,0.4,0.1,1,0.8,1.1h0.1
		c0.4,0,0.7-0.2,0.8-0.4c0,0,1.7-2.5,2.7-4C146.4,31,146,30,145.3,30z"/>
	<path d="M153,31C153,31,152.9,31,153,31c-0.3,0-0.6,0.1-0.8,0.4l-2.7,3.7c-0.3,0.4,0.1,0.9,0.8,0.9h0.1c0.4,0,0.7-0.2,0.8-0.4
		c0,0,1.4-2,2.3-3.3C154,31.8,153.6,31,153,31z"/>
	<path d="M160.5,31.7C160.5,31.7,160.5,31.7,160.5,31.7c-0.3,0-0.7,0.1-0.8,0.4l-2.2,3c-0.3,0.4,0.1,0.9,0.8,0.9h0.1
		c0.4,0,0.7-0.2,0.8-0.4l1.8-2.6C161.5,32.5,161.2,31.7,160.5,31.7z"/>
	<path d="M167.9,32.6C167.9,32.6,167.8,32.6,167.9,32.6c-0.3,0-0.7,0.1-0.9,0.4l-1.5,2.1c-0.3,0.4,0.1,0.9,0.8,0.9h0.1
		c0.4,0,0.7-0.2,0.8-0.4l1.2-1.6C168.8,33.4,168.5,32.7,167.9,32.6z"/>
	<path d="M175.1,33.8C175.1,33.8,175.1,33.7,175.1,33.8c-0.4-0.1-0.7,0.1-0.9,0.4l-0.7,1c-0.3,0.4,0.1,0.9,0.8,0.9h0.1
		c0.4,0,0.7-0.2,0.8-0.4l0.3-0.5C176,34.6,175.7,33.9,175.1,33.8z"/>
	<path d="M122.2,30.2c-0.3,0-0.7,0-1,0c-0.2,0.1-0.4,0.2-0.5,0.3l-3.3,4.6c-0.3,0.4,0.1,0.9,0.8,0.9h0.1c0.4,0,0.7-0.2,0.8-0.4
		l3.3-4.6C122.8,30.7,122.6,30.3,122.2,30.2z"/>
	<path d="M113.8,30C113.8,30,113.8,30,113.8,30c-0.3,0-0.6,0.3-0.8,0.6c-0.8,1.1-3.1,4.4-3.1,4.4c-0.3,0.4,0.1,1,0.8,1.1h0.1
		c0.4,0,0.7-0.2,0.8-0.4c0,0,1.7-2.5,2.7-4C114.9,31,114.5,30,113.8,30z"/>
	<path d="M105.8,31C105.8,31,105.8,31,105.8,31c-0.3,0-0.6,0.1-0.8,0.4l-2.7,3.7c-0.3,0.4,0.1,0.9,0.8,0.9h0.1
		c0.4,0,0.7-0.2,0.8-0.4c0,0,1.4-2,2.3-3.3C106.8,31.8,106.5,31,105.8,31z"/>
	<path d="M97.8,31.7C97.8,31.7,97.8,31.7,97.8,31.7c-0.3,0-0.7,0.1-0.8,0.4l-2.2,3C94.5,35.5,95,36,95.7,36h0.1
		c0.4,0,0.7-0.2,0.8-0.4l1.8-2.6C98.8,32.5,98.5,31.7,97.8,31.7z"/>
	<path d="M89.9,32.6C89.8,32.6,89.8,32.6,89.9,32.6c-0.3,0-0.7,0.1-0.9,0.4l-1.5,2.1c-0.3,0.4,0.1,0.9,0.8,0.9h0.1
		c0.4,0,0.7-0.2,0.8-0.4l1.2-1.6C90.8,33.4,90.5,32.7,89.9,32.6z"/>
	<path d="M81.9,33.8C81.9,33.8,81.9,33.7,81.9,33.8c-0.4-0.1-0.7,0.1-0.9,0.4l-0.7,1C80,35.5,80.4,36,81.1,36h0.1
		c0.4,0,0.7-0.2,0.8-0.4l0.3-0.5C82.8,34.6,82.5,33.9,81.9,33.8z"/>
	<path d="M206,72h-6v-8c0-2.7-24-12-72-12s-72,9.3-72,12v8h-6c-1.1,0-2,0.9-2,2s0.9,2,2,2h6h144h6c1.1,0,2-0.9,2-2S207.1,72,206,72z
		 M60,72v-6.4c2.2-1.2,8-3.4,18.1-5.4c9.7-1.9,26.2-4.2,49.9-4.2s40.2,2.3,49.9,4.2c10.1,2,15.9,4.2,18.1,5.4V72H60z"/>
	<path d="M129.8,62c-0.1,0-0.1,0-0.2,0c-0.4,0-0.7,0.2-0.8,0.4l-3.3,4.7c-0.3,0.4,0.1,0.9,0.8,0.9h0.1c0.4,0,0.7-0.2,0.8-0.4
		l3.3-4.7C130.9,62.5,130.5,62.1,129.8,62z"/>
	<path d="M138.2,62.2c-0.3,0-0.7,0-1,0c-0.2,0.1-0.4,0.2-0.5,0.3l-3.3,4.6c-0.3,0.4,0.1,0.9,0.8,0.9h0.1c0.4,0,0.7-0.2,0.8-0.4
		l3.3-4.6C138.8,62.7,138.6,62.3,138.2,62.2z"/>
	<path d="M145.3,62C145.3,62,145.3,62,145.3,62c-0.3,0-0.6,0.3-0.8,0.6c-0.8,1.1-3.1,4.4-3.1,4.4c-0.3,0.4,0.1,1,0.8,1.1h0.1
		c0.4,0,0.7-0.2,0.8-0.4c0,0,1.7-2.5,2.7-4C146.4,63,146,62,145.3,62z"/>
	<path d="M153,63C153,63,152.9,63,153,63c-0.3,0-0.6,0.1-0.8,0.4l-2.7,3.7c-0.3,0.4,0.1,0.9,0.8,0.9h0.1c0.4,0,0.7-0.2,0.8-0.4
		c0,0,1.4-2,2.3-3.3C154,63.8,153.6,63,153,63z"/>
	<path d="M160.5,63.7C160.5,63.7,160.5,63.7,160.5,63.7c-0.3,0-0.7,0.1-0.8,0.4l-2.2,3c-0.3,0.4,0.1,0.9,0.8,0.9h0.1
		c0.4,0,0.7-0.2,0.8-0.4l1.8-2.6C161.5,64.5,161.2,63.7,160.5,63.7z"/>
	<path d="M167.9,64.6C167.9,64.6,167.8,64.6,167.9,64.6c-0.3,0-0.7,0.1-0.9,0.4l-1.5,2.1c-0.3,0.4,0.1,0.9,0.8,0.9h0.1
		c0.4,0,0.7-0.2,0.8-0.4l1.2-1.6C168.8,65.4,168.5,64.7,167.9,64.6z"/>
	<path d="M175.1,65.8C175.1,65.8,175.1,65.7,175.1,65.8c-0.4-0.1-0.7,0.1-0.9,0.4l-0.7,1c-0.3,0.4,0.1,0.9,0.8,0.9h0.1
		c0.4,0,0.7-0.2,0.8-0.4l0.3-0.5C176,66.6,175.7,65.9,175.1,65.8z"/>
	<path d="M122.2,62.2c-0.3,0-0.7,0-1,0c-0.2,0.1-0.4,0.2-0.5,0.3l-3.3,4.6c-0.3,0.4,0.1,0.9,0.8,0.9h0.1c0.4,0,0.7-0.2,0.8-0.4
		l3.3-4.6C122.8,62.7,122.6,62.3,122.2,62.2z"/>
	<path d="M113.8,62C113.8,62,113.8,62,113.8,62c-0.3,0-0.6,0.3-0.8,0.6c-0.8,1.1-3.1,4.4-3.1,4.4c-0.3,0.4,0.1,1,0.8,1.1h0.1
		c0.4,0,0.7-0.2,0.8-0.4c0,0,1.7-2.5,2.7-4C114.9,63,114.5,62,113.8,62z"/>
	<path d="M105.8,63C105.8,63,105.8,63,105.8,63c-0.3,0-0.6,0.1-0.8,0.4l-2.7,3.7c-0.3,0.4,0.1,0.9,0.8,0.9h0.1
		c0.4,0,0.7-0.2,0.8-0.4c0,0,1.4-2,2.3-3.3C106.8,63.8,106.5,63,105.8,63z"/>
	<path d="M97.8,63.7C97.8,63.7,97.8,63.7,97.8,63.7c-0.3,0-0.7,0.1-0.8,0.4l-2.2,3C94.5,67.5,95,68,95.7,68h0.1
		c0.4,0,0.7-0.2,0.8-0.4l1.8-2.6C98.8,64.5,98.5,63.7,97.8,63.7z"/>
	<path d="M89.9,64.6C89.8,64.6,89.8,64.6,89.9,64.6c-0.3,0-0.7,0.1-0.9,0.4l-1.5,2.1c-0.3,0.4,0.1,0.9,0.8,0.9h0.1
		c0.4,0,0.7-0.2,0.8-0.4l1.2-1.6C90.8,65.4,90.5,64.7,89.9,64.6z"/>
	<path d="M81.9,65.8C81.9,65.8,81.9,65.7,81.9,65.8c-0.4-0.1-0.7,0.1-0.9,0.4l-0.7,1C80,67.5,80.4,68,81.1,68h0.1
		c0.4,0,0.7-0.2,0.8-0.4l0.3-0.5C82.8,66.6,82.5,65.9,81.9,65.8z"/>
	<path d="M206,104h-6v-8c0-2.7-24-12-72-12s-72,9.3-72,12v8h-6c-1.1,0-2,0.9-2,2s0.9,2,2,2h6h144h6c1.1,0,2-0.9,2-2
		S207.1,104,206,104z M60,104v-6.4c2.2-1.2,8-3.4,18.1-5.4c9.7-1.9,26.2-4.2,49.9-4.2s40.2,2.3,49.9,4.2c10.1,2,15.9,4.2,18.1,5.4
		v6.4H60z"/>
	<path d="M129.8,94c-0.1,0-0.1,0-0.2,0c-0.4,0-0.7,0.2-0.8,0.4l-3.3,4.7c-0.3,0.4,0.1,0.9,0.8,0.9h0.1c0.4,0,0.7-0.2,0.8-0.4
		l3.3-4.7C130.9,94.5,130.5,94.1,129.8,94z"/>
	<path d="M138.2,94.2c-0.3,0-0.7,0-1,0c-0.2,0.1-0.4,0.2-0.5,0.3l-3.3,4.6c-0.3,0.4,0.1,0.9,0.8,0.9h0.1c0.4,0,0.7-0.2,0.8-0.4
		l3.3-4.6C138.8,94.7,138.6,94.3,138.2,94.2z"/>
	<path d="M145.3,94C145.3,94,145.3,94,145.3,94c-0.3,0-0.6,0.3-0.8,0.6c-0.8,1.1-3.1,4.4-3.1,4.4c-0.3,0.4,0.1,1,0.8,1.1h0.1
		c0.4,0,0.7-0.2,0.8-0.4c0,0,1.7-2.5,2.7-4C146.4,95,146,94,145.3,94z"/>
	<path d="M153,95C153,95,152.9,95,153,95c-0.3,0-0.6,0.1-0.8,0.4l-2.7,3.7c-0.3,0.4,0.1,0.9,0.8,0.9h0.1c0.4,0,0.7-0.2,0.8-0.4
		c0,0,1.4-2,2.3-3.3C154,95.8,153.6,95,153,95z"/>
	<path d="M160.5,95.7C160.5,95.7,160.5,95.7,160.5,95.7c-0.3,0-0.7,0.1-0.8,0.4l-2.2,3c-0.3,0.4,0.1,0.9,0.8,0.9h0.1
		c0.4,0,0.7-0.2,0.8-0.4l1.8-2.6C161.5,96.5,161.2,95.7,160.5,95.7z"/>
	<path d="M167.9,96.6C167.9,96.6,167.8,96.6,167.9,96.6c-0.3,0-0.7,0.1-0.9,0.4l-1.5,2.1c-0.3,0.4,0.1,0.9,0.8,0.9h0.1
		c0.4,0,0.7-0.2,0.8-0.4l1.2-1.6C168.8,97.4,168.5,96.7,167.9,96.6z"/>
	<path d="M175.1,97.8C175.1,97.8,175.1,97.7,175.1,97.8c-0.4-0.1-0.7,0.1-0.9,0.4l-0.7,1c-0.3,0.4,0.1,0.9,0.8,0.9h0.1
		c0.4,0,0.7-0.2,0.8-0.4l0.3-0.5C176,98.6,175.7,97.9,175.1,97.8z"/>
	<path d="M122.2,94.2c-0.3,0-0.7,0-1,0c-0.2,0.1-0.4,0.2-0.5,0.3l-3.3,4.6c-0.3,0.4,0.1,0.9,0.8,0.9h0.1c0.4,0,0.7-0.2,0.8-0.4
		l3.3-4.6C122.8,94.7,122.6,94.3,122.2,94.2z"/>
	<path d="M113.8,94C113.8,94,113.8,94,113.8,94c-0.3,0-0.6,0.3-0.8,0.6c-0.8,1.1-3.1,4.4-3.1,4.4c-0.3,0.4,0.1,1,0.8,1.1h0.1
		c0.4,0,0.7-0.2,0.8-0.4c0,0,1.7-2.5,2.7-4C114.9,95,114.5,94,113.8,94z"/>
	<path d="M105.8,95C105.8,95,105.8,95,105.8,95c-0.3,0-0.6,0.1-0.8,0.4l-2.7,3.7c-0.3,0.4,0.1,0.9,0.8,0.9h0.1
		c0.4,0,0.7-0.2,0.8-0.4c0,0,1.4-2,2.3-3.3C106.8,95.8,106.5,95,105.8,95z"/>
	<path d="M97.8,95.7C97.8,95.7,97.8,95.7,97.8,95.7c-0.3,0-0.7,0.1-0.8,0.4l-2.2,3c-0.3,0.4,0.1,0.9,0.8,0.9h0.1
		c0.4,0,0.7-0.2,0.8-0.4l1.8-2.6C98.8,96.5,98.5,95.7,97.8,95.7z"/>
	<path d="M89.9,96.6C89.8,96.6,89.8,96.6,89.9,96.6c-0.3,0-0.7,0.1-0.9,0.4l-1.5,2.1c-0.3,0.4,0.1,0.9,0.8,0.9h0.1
		c0.4,0,0.7-0.2,0.8-0.4l1.2-1.6C90.8,97.4,90.5,96.7,89.9,96.6z"/>
	<path d="M81.9,97.8C81.9,97.8,81.9,97.7,81.9,97.8c-0.4-0.1-0.7,0.1-0.9,0.4l-0.7,1c-0.3,0.4,0.1,0.9,0.8,0.9h0.1
		c0.4,0,0.7-0.2,0.8-0.4l0.3-0.5C82.8,98.6,82.5,97.9,81.9,97.8z"/>
</g>
</svg>
