<?xml version="1.0" encoding="utf-8"?>
<!-- Generator: Adobe Illustrator 19.2.1, SVG Export Plug-In . SVG Version: 6.00 Build 0)  -->
<svg version="1.1" id="Ebene_1" xmlns="http://www.w3.org/2000/svg" xmlns:xlink="http://www.w3.org/1999/xlink" x="0px" y="0px"
	 viewBox="0 0 256 256" style="enable-background:new 0 0 256 256;" xml:space="preserve">
<style type="text/css">
	.st0{fill:none;stroke:#FF0000;stroke-miterlimit:10;}
	.st1{stroke:url(#SVGID_1_);stroke-miterlimit:10;}
</style>
<g>
	<path d="M128,56c4.4,0,8-3.6,8-8s-3.6-8-8-8s-8,3.6-8,8S123.6,56,128,56z M128,44c2.2,0,4,1.8,4,4s-1.8,4-4,4c-2.2,0-4-1.8-4-4
		S125.8,44,128,44z"/>
	<path d="M198,45h-58.4c0.2,1,0.4,2,0.4,3c0,1.8-0.4,3.5-1.1,5H198c2.2,0,4-1.8,4-4S200.2,45,198,45z"/>
	<path d="M203,25h-9.8c-2.6,0-4.5,2.4-3.9,5l2,8c0.4,1.8,2,3,3.9,3h5.8c1.8,0,3.4-1.2,3.9-3l2-8C207.5,27.4,205.6,25,203,25z"/>
	<path d="M169.7,143.6c1.3-0.6,2.3-2,2.3-3.6c0-1.9-1.3-3.5-3.1-3.9l0-0.2c1.8-0.4,3.1-2,3.1-3.9c0-2.2-1.8-4-4-4l0,0h0
		c2.2,0,4-1.8,4-4c0-2.2-1.8-4-4-4h-5.3l2.9-8.6c1.6-4.9,2.5-10,2.5-15.2V80c2.2,0,4-1.8,4-4c0-2.2-1.8-4-4-4v0h0h-36V59.3
		c-1.3,0.4-2.6,0.7-4,0.7s-2.7-0.3-4-0.7V72H88h0c-2.2,0-4,1.8-4,4c0,2.2,1.8,4,4,4h0v16.2c0,5.2,0.8,10.3,2.5,15.2l2.9,8.6H88
		c-2.2,0-4,1.8-4,4c0,2.2,1.8,4,4,4c-2.2,0-4,1.8-4,4c0,1.9,1.3,3.5,3.1,3.9l0,0.2c-1.8,0.4-3.1,2-3.1,3.9c0,1.6,0.9,2.9,2.3,3.6
		l-5.9,53.3c-0.2,2-0.1,4.1,0.3,6.1l4.2,20.9c1.9,9.4,10.1,16.1,19.6,16.1h47.2c3,0,5.8-0.7,8.4-1.8c1-0.5,2-1,2.9-1.7
		c1.9-1.3,3.5-2.9,4.8-4.7c1.7-2.3,2.9-4.9,3.5-7.9l4.2-20.9c0.4-2,0.5-4.1,0.3-6.1L169.7,143.6z M88.5,201.5
		c-0.2-1.2-0.3-2.4-0.2-3.7l6-53.8h67.5l6,53.8c0.1,1.2,0.1,2.5-0.2,3.7l-1.3,6.5H89.8L88.5,201.5z M98,108.9c-1.4-4.1-2-8.3-2-12.6
		V80h64v16.2c0,4.3-0.7,8.6-2.1,12.6l-3.7,11.1h-52.5L98,108.9z"/>
	<circle cx="110" cy="116" r="2"/>
	<circle cx="106" cy="116" r="2"/>
	<circle cx="114" cy="116" r="2"/>
	<circle cx="122" cy="116" r="2"/>
	<circle cx="118" cy="116" r="2"/>
	<circle cx="126" cy="116" r="2"/>
	<circle cx="134" cy="116" r="2"/>
	<circle cx="130" cy="116" r="2"/>
	<circle cx="138" cy="116" r="2"/>
	<circle cx="146" cy="116" r="2"/>
	<circle cx="142" cy="116" r="2"/>
	<circle cx="150" cy="116" r="2"/>
	<circle cx="112" cy="112" r="2"/>
	<circle cx="108" cy="112" r="2"/>
	<circle cx="104" cy="112" r="2"/>
	<circle cx="116" cy="112" r="2"/>
	<circle cx="124" cy="112" r="2"/>
	<circle cx="120" cy="112" r="2"/>
	<circle cx="128" cy="112" r="2"/>
	<circle cx="136" cy="112" r="2"/>
	<circle cx="132" cy="112" r="2"/>
	<circle cx="140" cy="112" r="2"/>
	<circle cx="148" cy="112" r="2"/>
	<circle cx="144" cy="112" r="2"/>
	<circle cx="152" cy="112" r="2"/>
	<circle cx="114" cy="108" r="2"/>
	<circle cx="110" cy="108" r="2"/>
	<circle cx="106" cy="108" r="2"/>
	<circle cx="102" cy="108" r="2"/>
	<circle cx="118" cy="108" r="2"/>
	<circle cx="126" cy="108" r="2"/>
	<circle cx="122" cy="108" r="2"/>
	<circle cx="130" cy="108" r="2"/>
	<circle cx="138" cy="108" r="2"/>
	<circle cx="134" cy="108" r="2"/>
	<circle cx="142" cy="108" r="2"/>
	<circle cx="150" cy="108" r="2"/>
	<circle cx="146" cy="108" r="2"/>
	<circle cx="154" cy="108" r="2"/>
	<circle cx="116" cy="104" r="2"/>
	<circle cx="112" cy="104" r="2"/>
	<circle cx="108" cy="104" r="2"/>
	<circle cx="104" cy="104" r="2"/>
	<circle cx="100" cy="104" r="2"/>
	<circle cx="120" cy="104" r="2"/>
	<circle cx="128" cy="104" r="2"/>
	<circle cx="124" cy="104" r="2"/>
	<circle cx="132" cy="104" r="2"/>
	<circle cx="140" cy="104" r="2"/>
	<circle cx="136" cy="104" r="2"/>
	<circle cx="144" cy="104" r="2"/>
	<circle cx="152" cy="104" r="2"/>
	<circle cx="148" cy="104" r="2"/>
	<circle cx="156" cy="104" r="2"/>
</g>
</svg>
