<?xml version="1.0" encoding="utf-8"?>
<!-- Generator: Adobe Illustrator 19.2.1, SVG Export Plug-In . SVG Version: 6.00 Build 0)  -->
<svg version="1.1" id="Ebene_1" xmlns="http://www.w3.org/2000/svg" xmlns:xlink="http://www.w3.org/1999/xlink" x="0px" y="0px"
	 viewBox="0 0 256 256" style="enable-background:new 0 0 256 256;" xml:space="preserve">
<style type="text/css">
	.st0{fill:none;stroke:#FF0000;stroke-miterlimit:10;}
	.st1{stroke:url(#SVGID_1_);stroke-miterlimit:10;}
</style>
<g>
	<path d="M183.8,168L183.8,168c-1.2-19.6-6.2-38.7-11.1-53.3c-0.5-1.6-2.1-2.7-3.8-2.7H87.1c-1.7,0-3.2,1.1-3.8,2.7
		c-4.9,14.6-9.8,33.7-11,53.3h0c-0.2,2.7-0.2,5.3-0.2,8c0,25,10,38.9,18.4,46.1c1.4,1.2,3.2,1.9,5.1,1.9h65c1.9,0,3.8-0.7,5.1-1.9
		C174,214.9,184,201,184,176C184,173.3,183.9,170.7,183.8,168z M74.4,167c1.4-20,6.6-38.9,10.8-51.4c0.3-0.8,1-1.6,1.9-1.6h81.8
		c0.9,0,1.6,0.8,1.9,1.6c4.2,12.5,9.4,31.4,10.8,51.4H74.4z"/>
	<path d="M179.6,88h4.4c2.2,0,4-1.8,4-4c0-2.2-1.8-4-4-4h-8H80h-8c-2.2,0-4,1.8-4,4c0,2.2,1.8,4,4,4h4.4C69.6,103.6,56,139.8,56,176
		c0,32.2,14.4,50,23.9,58.2c4.3,3.8,9.9,5.8,15.6,5.8h65c5.7,0,11.3-2,15.6-5.8c9.5-8.2,23.9-26,23.9-58.2
		C200,139.8,186.4,103.6,179.6,88z M170.9,228.2c-2.8,2.5-6.5,3.8-10.4,3.8h-65c-3.9,0-7.5-1.4-10.4-3.8C77.2,221.3,64,205.4,64,176
		c0-37.3,15.4-75.3,21.1-88h85.8c5.7,12.7,21.1,50.7,21.1,88C192,205.4,178.8,221.3,170.9,228.2z"/>
	<path d="M132.4,143.1c-0.5-0.2-1.1,0-1.3,0.5l-7.9,16c-0.2,0.5,0,1.1,0.5,1.3c0.1,0.1,0.3,0.1,0.4,0.1c0.4,0,0.7-0.2,0.9-0.6
		l7.9-16C133.1,143.9,132.9,143.3,132.4,143.1z"/>
	<path d="M128.4,143.1c-0.5-0.2-1.1,0-1.3,0.5l-7.9,16c-0.2,0.5,0,1.1,0.5,1.3c0.1,0.1,0.3,0.1,0.4,0.1c0.4,0,0.7-0.2,0.9-0.6
		l7.9-16C129.1,143.9,128.9,143.3,128.4,143.1z"/>
	<path d="M124.4,143.1c-0.5-0.2-1.1,0-1.3,0.5l-7.9,16c-0.2,0.5,0,1.1,0.5,1.3c0.1,0.1,0.3,0.1,0.4,0.1c0.4,0,0.7-0.2,0.9-0.6
		l7.9-16C125.1,143.9,124.9,143.3,124.4,143.1z"/>
	<path d="M120.4,143.1c-0.5-0.2-1.1,0-1.3,0.5l-7.9,16c-0.2,0.5,0,1.1,0.5,1.3c0.1,0.1,0.3,0.1,0.4,0.1c0.4,0,0.7-0.2,0.9-0.6
		l7.9-16C121.1,143.9,120.9,143.3,120.4,143.1z"/>
	<path d="M116.4,143.1c-0.5-0.2-1.1,0-1.3,0.5l-7.9,16c-0.2,0.5,0,1.1,0.5,1.3c0.1,0.1,0.3,0.1,0.4,0.1c0.4,0,0.7-0.2,0.9-0.6
		l7.9-16C117.1,143.9,116.9,143.3,116.4,143.1z"/>
	<path d="M112.4,143.1c-0.5-0.2-1.1,0-1.3,0.5l-7.9,16c-0.2,0.5,0,1.1,0.5,1.3c0.1,0.1,0.3,0.1,0.4,0.1c0.4,0,0.7-0.2,0.9-0.6
		l7.9-16C113.1,143.9,112.9,143.3,112.4,143.1z"/>
	<path d="M108.4,143.1c-0.5-0.2-1.1,0-1.3,0.5l-7.9,16c-0.2,0.5,0,1.1,0.5,1.3c0.1,0.1,0.3,0.1,0.4,0.1c0.4,0,0.7-0.2,0.9-0.6
		l7.9-16C109.1,143.9,108.9,143.3,108.4,143.1z"/>
	<path d="M104.4,143.1c-0.5-0.2-1.1,0-1.3,0.5l-7.9,16c-0.2,0.5,0,1.1,0.5,1.3c0.1,0.1,0.3,0.1,0.4,0.1c0.4,0,0.7-0.2,0.9-0.6
		l7.9-16C105.1,143.9,104.9,143.3,104.4,143.1z"/>
	<path d="M100.4,143.1c-0.5-0.2-1.1,0-1.3,0.5l-7.9,16c-0.2,0.5,0,1.1,0.5,1.3c0.1,0.1,0.3,0.1,0.4,0.1c0.4,0,0.7-0.2,0.9-0.6
		l7.9-16C101.1,143.9,100.9,143.3,100.4,143.1z"/>
	<path d="M96.4,143.1c-0.5-0.2-1.1,0-1.3,0.5l-7.9,16c-0.2,0.5,0,1.1,0.5,1.3c0.1,0.1,0.3,0.1,0.4,0.1c0.4,0,0.7-0.2,0.9-0.6l7.9-16
		C97.1,143.9,96.9,143.3,96.4,143.1z"/>
	<path d="M92.4,143.1c-0.5-0.2-1.1,0-1.3,0.5l-7.9,16c-0.2,0.5,0,1.1,0.5,1.3c0.1,0.1,0.3,0.1,0.4,0.1c0.4,0,0.7-0.2,0.9-0.6l7.9-16
		C93.1,143.9,92.9,143.3,92.4,143.1z"/>
	<path d="M88.4,143.1c-0.5-0.2-1.1,0-1.3,0.5l-7.9,16c-0.2,0.5,0,1.1,0.5,1.3c0.1,0.1,0.3,0.1,0.4,0.1c0.4,0,0.7-0.2,0.9-0.6l7.9-16
		C89.1,143.9,88.9,143.3,88.4,143.1z"/>
	<path d="M82.6,149l2.3-4.5c0.2-0.5,0-1.1-0.5-1.3c-0.5-0.2-1.1,0-1.3,0.5l-2.2,4.5c0,0.1-0.1,0.2-0.1,0.3c0,0,0,0,0,0.1
		C80.5,149.5,82.1,150,82.6,149z"/>
	<path d="M86.6,127l2.3-4.5c0.2-0.5,0-1.1-0.5-1.3c-0.5-0.2-1.1,0-1.3,0.5l-2.2,4.5c0,0.1-0.1,0.2-0.1,0.3c0,0,0,0,0,0.1
		C84.5,127.5,86.1,128,86.6,127z"/>
	<path d="M136.4,143.1c-0.5-0.2-1.1,0-1.3,0.5l-7.9,16c-0.2,0.5,0,1.1,0.5,1.3c0.1,0.1,0.3,0.1,0.4,0.1c0.4,0,0.7-0.2,0.9-0.6
		l7.9-16C137.1,143.9,136.9,143.3,136.4,143.1z"/>
	<path d="M140.4,143.1c-0.5-0.2-1.1,0-1.3,0.5l-7.9,16c-0.2,0.5,0,1.1,0.5,1.3c0.1,0.1,0.3,0.1,0.4,0.1c0.4,0,0.7-0.2,0.9-0.6
		l7.9-16C141.1,143.9,140.9,143.3,140.4,143.1z"/>
	<path d="M144.4,143.1c-0.5-0.2-1.1,0-1.3,0.5l-7.9,16c-0.2,0.5,0,1.1,0.5,1.3c0.1,0.1,0.3,0.1,0.4,0.1c0.4,0,0.7-0.2,0.9-0.6
		l7.9-16C145.1,143.9,144.9,143.3,144.4,143.1z"/>
	<path d="M148.4,143.1c-0.5-0.2-1.1,0-1.3,0.5l-7.9,16c-0.2,0.5,0,1.1,0.5,1.3c0.1,0.1,0.3,0.1,0.4,0.1c0.4,0,0.7-0.2,0.9-0.6
		l7.9-16C149.1,143.9,148.9,143.3,148.4,143.1z"/>
	<path d="M152.4,143.1c-0.5-0.2-1.1,0-1.3,0.5l-7.9,16c-0.2,0.5,0,1.1,0.5,1.3c0.1,0.1,0.3,0.1,0.4,0.1c0.4,0,0.7-0.2,0.9-0.6
		l7.9-16C153.1,143.9,152.9,143.3,152.4,143.1z"/>
	<path d="M156.4,143.1c-0.5-0.2-1.1,0-1.3,0.5l-7.9,16c-0.2,0.5,0,1.1,0.5,1.3c0.1,0.1,0.3,0.1,0.4,0.1c0.4,0,0.7-0.2,0.9-0.6
		l7.9-16C157.1,143.9,156.9,143.3,156.4,143.1z"/>
	<path d="M160.4,143.1c-0.5-0.2-1.1,0-1.3,0.5l-7.9,16c-0.2,0.5,0,1.1,0.5,1.3c0.1,0.1,0.3,0.1,0.4,0.1c0.4,0,0.7-0.2,0.9-0.6
		l7.9-16C161.1,143.9,160.9,143.3,160.4,143.1z"/>
	<path d="M164.4,143.1c-0.5-0.2-1.1,0-1.3,0.5l-7.9,16c-0.2,0.5,0,1.1,0.5,1.3c0.1,0.1,0.3,0.1,0.4,0.1c0.4,0,0.7-0.2,0.9-0.6
		l7.9-16C165.1,143.9,164.9,143.3,164.4,143.1z"/>
	<path d="M168.4,143.1c-0.5-0.2-1.1,0-1.3,0.5l-7.9,16c-0.2,0.5,0,1.1,0.5,1.3c0.1,0.1,0.3,0.1,0.4,0.1c0.4,0,0.7-0.2,0.9-0.6
		l7.9-16C169.1,143.9,168.9,143.3,168.4,143.1z"/>
	<path d="M171,143.6l-7.9,16c-0.2,0.5,0,1.1,0.5,1.3c0.1,0.1,0.3,0.1,0.4,0.1c0.4,0,0.7-0.2,0.9-0.6l7.9-16c0.2-0.5,0-1.1-0.5-1.3
		C171.9,142.9,171.3,143.1,171,143.6z"/>
	<path d="M167.6,160.9c0.1,0.1,0.3,0.1,0.4,0.1c0.4,0,0.7-0.2,0.9-0.6l6.1-12.4c0.1-0.2,0.1-0.4,0.1-0.6c0,0,0,0,0,0
		c-0.2-0.9-1.4-1.1-1.9-0.3l-6.1,12.4C166.9,160.1,167.1,160.7,167.6,160.9z"/>
	<path d="M174.3,153.2l-3.2,6.4c-0.2,0.5,0,1.1,0.5,1.3c0.1,0.1,0.3,0.1,0.4,0.1c0.4,0,0.7-0.2,0.9-0.6l3.2-6.4
		c0.1-0.2,0.1-0.4,0.1-0.6c0,0,0,0,0,0C176,152.5,174.7,152.3,174.3,153.2z"/>
	<path d="M123.6,138.9c0.1,0.1,0.3,0.1,0.4,0.1c0.4,0,0.7-0.2,0.9-0.6l7.9-16c0.2-0.5,0-1.1-0.5-1.3c-0.5-0.2-1.1,0-1.3,0.5l-7.9,16
		C122.9,138.1,123.1,138.7,123.6,138.9z"/>
	<path d="M119.6,138.9c0.1,0.1,0.3,0.1,0.4,0.1c0.4,0,0.7-0.2,0.9-0.6l7.9-16c0.2-0.5,0-1.1-0.5-1.3c-0.5-0.2-1.1,0-1.3,0.5l-7.9,16
		C118.9,138.1,119.1,138.7,119.6,138.9z"/>
	<path d="M115.6,138.9c0.1,0.1,0.3,0.1,0.4,0.1c0.4,0,0.7-0.2,0.9-0.6l7.9-16c0.2-0.5,0-1.1-0.5-1.3c-0.5-0.2-1.1,0-1.3,0.5l-7.9,16
		C114.9,138.1,115.1,138.7,115.6,138.9z"/>
	<path d="M111.6,138.9c0.1,0.1,0.3,0.1,0.4,0.1c0.4,0,0.7-0.2,0.9-0.6l7.9-16c0.2-0.5,0-1.1-0.5-1.3c-0.5-0.2-1.1,0-1.3,0.5l-7.9,16
		C110.9,138.1,111.1,138.7,111.6,138.9z"/>
	<path d="M107.6,138.9c0.1,0.1,0.3,0.1,0.4,0.1c0.4,0,0.7-0.2,0.9-0.6l7.9-16c0.2-0.5,0-1.1-0.5-1.3c-0.5-0.2-1.1,0-1.3,0.5l-7.9,16
		C106.9,138.1,107.1,138.7,107.6,138.9z"/>
	<path d="M103.6,138.9c0.1,0.1,0.3,0.1,0.4,0.1c0.4,0,0.7-0.2,0.9-0.6l7.9-16c0.2-0.5,0-1.1-0.5-1.3c-0.5-0.2-1.1,0-1.3,0.5l-7.9,16
		C102.9,138.1,103.1,138.7,103.6,138.9z"/>
	<path d="M99.6,138.9c0.1,0.1,0.3,0.1,0.4,0.1c0.4,0,0.7-0.2,0.9-0.6l7.9-16c0.2-0.5,0-1.1-0.5-1.3c-0.5-0.2-1.1,0-1.3,0.5l-7.9,16
		C98.9,138.1,99.1,138.7,99.6,138.9z"/>
	<path d="M95.6,138.9c0.1,0.1,0.3,0.1,0.4,0.1c0.4,0,0.7-0.2,0.9-0.6l7.9-16c0.2-0.5,0-1.1-0.5-1.3c-0.5-0.2-1.1,0-1.3,0.5l-7.9,16
		C94.9,138.1,95.1,138.7,95.6,138.9z"/>
	<path d="M91.6,138.9c0.1,0.1,0.3,0.1,0.4,0.1c0.4,0,0.7-0.2,0.9-0.6l7.9-16c0.2-0.5,0-1.1-0.5-1.3c-0.5-0.2-1.1,0-1.3,0.5l-7.9,16
		C90.9,138.1,91.1,138.7,91.6,138.9z"/>
	<path d="M87.6,138.9c0.1,0.1,0.3,0.1,0.4,0.1c0.4,0,0.7-0.2,0.9-0.6l7.9-16c0.2-0.5,0-1.1-0.5-1.3c-0.5-0.2-1.1,0-1.3,0.5l-7.9,16
		C86.9,138.1,87.1,138.7,87.6,138.9z"/>
	<path d="M83.6,138.9c0.1,0.1,0.3,0.1,0.4,0.1c0.4,0,0.7-0.2,0.9-0.6l7.9-16c0.2-0.5,0-1.1-0.5-1.3c-0.5-0.2-1.1,0-1.3,0.5l-7.9,16
		C82.9,138.1,83.1,138.7,83.6,138.9z"/>
	<path d="M127.6,138.9c0.1,0.1,0.3,0.1,0.4,0.1c0.4,0,0.7-0.2,0.9-0.6l7.9-16c0.2-0.5,0-1.1-0.5-1.3c-0.5-0.2-1.1,0-1.3,0.5l-7.9,16
		C126.9,138.1,127.1,138.7,127.6,138.9z"/>
	<path d="M131.6,138.9c0.1,0.1,0.3,0.1,0.4,0.1c0.4,0,0.7-0.2,0.9-0.6l7.9-16c0.2-0.5,0-1.1-0.5-1.3c-0.5-0.2-1.1,0-1.3,0.5l-7.9,16
		C130.9,138.1,131.1,138.7,131.6,138.9z"/>
	<path d="M135.6,138.9c0.1,0.1,0.3,0.1,0.4,0.1c0.4,0,0.7-0.2,0.9-0.6l7.9-16c0.2-0.5,0-1.1-0.5-1.3c-0.5-0.2-1.1,0-1.3,0.5l-7.9,16
		C134.9,138.1,135.1,138.7,135.6,138.9z"/>
	<path d="M139.6,138.9c0.1,0.1,0.3,0.1,0.4,0.1c0.4,0,0.7-0.2,0.9-0.6l7.9-16c0.2-0.5,0-1.1-0.5-1.3c-0.5-0.2-1.1,0-1.3,0.5l-7.9,16
		C138.9,138.1,139.1,138.7,139.6,138.9z"/>
	<path d="M143.6,138.9c0.1,0.1,0.3,0.1,0.4,0.1c0.4,0,0.7-0.2,0.9-0.6l7.9-16c0.2-0.5,0-1.1-0.5-1.3c-0.5-0.2-1.1,0-1.3,0.5l-7.9,16
		C142.9,138.1,143.1,138.7,143.6,138.9z"/>
	<path d="M147.6,138.9c0.1,0.1,0.3,0.1,0.4,0.1c0.4,0,0.7-0.2,0.9-0.6l7.9-16c0.2-0.5,0-1.1-0.5-1.3c-0.5-0.2-1.1,0-1.3,0.5l-7.9,16
		C146.9,138.1,147.1,138.7,147.6,138.9z"/>
	<path d="M151.6,138.9c0.1,0.1,0.3,0.1,0.4,0.1c0.4,0,0.7-0.2,0.9-0.6l7.9-16c0.2-0.5,0-1.1-0.5-1.3c-0.5-0.2-1.1,0-1.3,0.5l-7.9,16
		C150.9,138.1,151.1,138.7,151.6,138.9z"/>
	<path d="M155.6,138.9c0.1,0.1,0.3,0.1,0.4,0.1c0.4,0,0.7-0.2,0.9-0.6l7.9-16c0.2-0.5,0-1.1-0.5-1.3c-0.5-0.2-1.1,0-1.3,0.5l-7.9,16
		C154.9,138.1,155.1,138.7,155.6,138.9z"/>
	<path d="M159.6,138.9c0.1,0.1,0.3,0.1,0.4,0.1c0.4,0,0.7-0.2,0.9-0.6l7.9-16c0,0,0-0.1,0-0.1c0.2-0.4,0-0.9-0.4-1.2
		c0,0-0.1-0.1-0.1-0.1c-0.5-0.2-1.1,0-1.3,0.5l-7.9,16C158.9,138.1,159.1,138.7,159.6,138.9z"/>
	<path d="M168.4,126.9l-5.3,10.7c-0.2,0.5,0,1.1,0.5,1.3c0.1,0.1,0.3,0.1,0.4,0.1c0.4,0,0.7-0.2,0.9-0.6l5.3-10.7
		c0.1-0.2,0.1-0.5,0.1-0.7c0,0,0,0,0,0C170,126.2,168.8,126.1,168.4,126.9z"/>
	<path d="M169.8,132.1l-2.7,5.5c-0.2,0.5,0,1.1,0.5,1.3c0.1,0.1,0.3,0.1,0.4,0.1c0.4,0,0.7-0.2,0.9-0.6l2.7-5.5
		c0.1-0.2,0.1-0.5,0.1-0.7c0,0,0,0,0,0C171.4,131.4,170.2,131.2,169.8,132.1z"/>
	<path d="M116,62c0,0.2,0,0.5,0.1,0.7c0.1,0.5,0.1,1,0.2,1.5c0.2,0.9,0.4,1.7,0.6,2.5c0.5,1.5,1,2.7,1.4,3.5
		c0.2,0.4,0.4,0.7,0.5,0.9c0.1,0.2,0.2,0.3,0.2,0.3c0.2,0.3,0.6,0.6,1,0.5c0.5-0.1,0.9-0.6,0.8-1.2l0-0.1c0,0-0.1-0.5-0.2-1.3
		c-0.1-0.8-0.3-2-0.5-3.4c-0.1-0.7-0.2-1.4-0.2-2.2c0-0.4,0-0.8,0-1.1c0-0.2,0-0.4,0-0.7l0-0.2c0,0,0-0.1,0-0.1l0-0.2
		c0.1-0.6,0.3-1.1,0.7-1.7c0.4-0.6,1-1.2,1.7-2.2c0.3-0.5,0.7-1,1-1.7c0.1-0.3,0.2-0.6,0.3-1c0.1-0.3,0.2-0.7,0.2-1
		c0-0.2,0.1-0.4,0.1-0.5l0-0.4l0-0.4l0-0.1l0,0l0,0l0-0.1l0-0.2c0-0.5-0.1-1-0.2-1.5c-0.3-2-0.7-3.7-1.1-5.1
		c-0.4-1.5-0.9-2.6-1.2-3.5c-0.3-0.8-0.5-1.3-0.5-1.3l0,0c-0.2-0.4-0.6-0.6-1-0.6c-0.6,0.1-0.9,0.6-0.9,1.1c0,0,0.1,0.5,0.2,1.3
		c0.1,0.8,0.2,2.1,0.4,3.5c0.2,1.4,0.3,3.1,0.4,4.8c0,0.4,0,0.9,0,1.3c0,0.1-0.1,1-0.1,1.1c-0.1,0.2-0.2,0.5-0.3,0.8
		c-0.1,0.3-0.3,0.6-0.5,0.9c-0.5,0.6-1.2,1.4-1.9,2.4c-0.7,1.1-1.1,2.5-1.1,3.7l0,0.5c0,0.1,0,0.1,0,0.3L116,62z"/>
	<path d="M124,61.8l0,0.2c0,0.2,0,0.5,0.1,0.7c0.1,0.5,0.1,1,0.2,1.5c0.2,0.9,0.4,1.7,0.6,2.5c0.5,1.5,1,2.7,1.4,3.5
		c0.2,0.4,0.4,0.7,0.5,0.9c0.1,0.2,0.2,0.3,0.2,0.3c0.2,0.3,0.6,0.6,1,0.5c0.5-0.1,0.9-0.6,0.8-1.2l0-0.1c0,0-0.1-0.5-0.2-1.3
		c-0.1-0.8-0.3-2-0.5-3.4c-0.1-0.7-0.2-1.4-0.2-2.2c0-0.4,0-0.8,0-1.1c0-0.2,0-0.4,0-0.7l0-0.2c0,0,0-0.1,0-0.1l0-0.2
		c0.1-0.6,0.3-1.1,0.7-1.7c0.4-0.6,1-1.2,1.7-2.2c0.3-0.5,0.7-1,1-1.7c0.1-0.3,0.2-0.6,0.3-1c0.1-0.3,0.2-0.7,0.2-1
		c0-0.2,0.1-0.4,0.1-0.5l0-0.4l0-0.4l0-0.1l0,0l0,0l0-0.1l0-0.2c0-0.5-0.1-1-0.2-1.5c-0.3-2-0.7-3.7-1.1-5.1
		c-0.4-1.5-0.9-2.6-1.2-3.5c-0.3-0.8-0.5-1.3-0.5-1.3l0,0c-0.2-0.4-0.6-0.6-1-0.6c-0.6,0.1-0.9,0.6-0.9,1.1c0,0,0.1,0.5,0.2,1.3
		c0.1,0.8,0.2,2.1,0.4,3.5c0.2,1.4,0.3,3.1,0.4,4.8c0,0.4,0,0.9,0,1.3c0,0.1-0.1,1-0.1,1.1c-0.1,0.2-0.2,0.5-0.3,0.8
		c-0.1,0.3-0.3,0.6-0.5,0.9c-0.5,0.6-1.2,1.4-1.9,2.4c-0.7,1.1-1.1,2.5-1.1,3.7l0,0.5C124,61.7,124,61.7,124,61.8z"/>
	<path d="M132,61.8l0,0.2c0,0.2,0,0.5,0.1,0.7c0.1,0.5,0.1,1,0.2,1.5c0.2,0.9,0.4,1.7,0.6,2.5c0.5,1.5,1,2.7,1.4,3.5
		c0.2,0.4,0.4,0.7,0.5,0.9c0.1,0.2,0.2,0.3,0.2,0.3c0.2,0.3,0.6,0.6,1,0.5c0.5-0.1,0.9-0.6,0.8-1.2l0-0.1c0,0-0.1-0.5-0.2-1.3
		c-0.1-0.8-0.3-2-0.5-3.4c-0.1-0.7-0.2-1.4-0.2-2.2c0-0.4,0-0.8,0-1.1c0-0.2,0-0.4,0-0.7l0-0.2c0,0,0-0.1,0-0.1l0-0.2
		c0.1-0.6,0.3-1.1,0.7-1.7c0.4-0.6,1-1.2,1.7-2.2c0.3-0.5,0.7-1,1-1.7c0.1-0.3,0.2-0.6,0.3-1c0.1-0.3,0.2-0.7,0.2-1
		c0-0.2,0.1-0.4,0.1-0.5l0-0.4l0-0.4l0-0.1l0,0l0,0l0-0.1l0-0.2c0-0.5-0.1-1-0.2-1.5c-0.3-2-0.7-3.7-1.1-5.1
		c-0.4-1.5-0.9-2.6-1.2-3.5c-0.3-0.8-0.5-1.3-0.5-1.3l0,0c-0.2-0.4-0.6-0.6-1-0.6c-0.6,0.1-0.9,0.6-0.9,1.1c0,0,0.1,0.5,0.2,1.3
		c0.1,0.8,0.2,2.1,0.4,3.5c0.2,1.4,0.3,3.1,0.4,4.8c0,0.4,0,0.9,0,1.3c0,0.1-0.1,1-0.1,1.1c-0.1,0.2-0.2,0.5-0.3,0.8
		c-0.1,0.3-0.3,0.6-0.5,0.9c-0.5,0.6-1.2,1.4-1.9,2.4c-0.7,1.1-1.1,2.5-1.1,3.7l0,0.5C132,61.7,132,61.7,132,61.8z"/>
</g>
</svg>
