<?xml version="1.0" encoding="utf-8"?>
<!-- Generator: Adobe Illustrator 19.2.1, SVG Export Plug-In . SVG Version: 6.00 Build 0)  -->
<svg version="1.1" id="Ebene_1" xmlns="http://www.w3.org/2000/svg" xmlns:xlink="http://www.w3.org/1999/xlink" x="0px" y="0px"
	 viewBox="0 0 256 256" style="enable-background:new 0 0 256 256;" xml:space="preserve">
<style type="text/css">
	.st0{fill:none;stroke:#FF0000;stroke-miterlimit:10;}
	.st1{stroke:url(#SVGID_1_);stroke-miterlimit:10;}
</style>
<g>
	<path d="M179.6,88h4.4c2.2,0,4-1.8,4-4c0-2.2-1.8-4-4-4h-8H80h-8c-2.2,0-4,1.8-4,4c0,2.2,1.8,4,4,4h4.4C69.6,103.6,56,139.8,56,176
		c0,32.2,14.4,50,23.9,58.2c4.3,3.8,9.9,5.8,15.6,5.8h65c5.7,0,11.3-2,15.6-5.8c9.5-8.2,23.9-26,23.9-58.2
		C200,139.8,186.4,103.6,179.6,88z M170.9,228.2c-2.8,2.5-6.5,3.8-10.4,3.8h-65c-3.9,0-7.5-1.4-10.4-3.8C77.2,221.3,64,205.4,64,176
		c0-37.3,15.4-75.3,21.1-88h85.8c5.7,12.7,21.1,50.7,21.1,88C192,205.4,178.8,221.3,170.9,228.2z"/>
	<path d="M164.2,128.5c0,0-1-0.6-2.9-1.3c-1-0.4-2.1-0.8-3.5-1.2c-1.4-0.4-2.9-0.8-4.7-1.2c-0.9-0.2-1.8-0.3-2.7-0.5
		c-0.9-0.1-2-0.2-3-0.3c-2-0.2-4.2-0.1-6.4,0.1c-2.2,0.2-4.5,0.5-6.8,0.9c-2.3,0.5-4.5,1-6.9,1.7c-2,0.7-4.2,1.2-6.3,1.7
		c-2.1,0.5-4.2,0.9-6.3,1.1c-1,0.1-2,0.2-3,0.3c-0.5,0-1,0-1.5,0.1c-0.5,0-0.9,0-1.4,0c-1.9,0-3.7-0.1-5.4-0.2
		c-1.7-0.1-3.2-0.3-4.6-0.4c-1.4-0.1-2.6-0.3-3.5-0.4c-2-0.3-3.1-0.4-3.1-0.4c-0.2,0-0.4,0.1-0.5,0.3c-0.1,0.2,0,0.6,0.2,0.7
		c0,0,1,0.6,2.9,1.3c1,0.4,2.1,0.8,3.5,1.2c1.4,0.4,2.9,0.8,4.7,1.2c1.7,0.3,3.6,0.6,5.7,0.8c0.5,0,1,0.1,1.6,0.1c0.5,0,1,0,1.5,0
		c1.1,0,2.2-0.1,3.3-0.2c2.2-0.2,4.5-0.5,6.8-0.9c2.3-0.5,4.5-1,6.9-1.7c2-0.7,4.2-1.2,6.3-1.7c2.1-0.5,4.2-0.9,6.3-1.1
		c2.1-0.3,4-0.4,5.9-0.4c1,0,1.8,0,2.7,0.1c0.9,0,1.8,0.1,2.6,0.1c3.3,0.2,6.1,0.6,8.1,0.9c2,0.3,3.1,0.4,3.1,0.4
		c0.2,0,0.4-0.1,0.5-0.3C164.5,129,164.4,128.7,164.2,128.5z"/>
	<path d="M158.9,140.5c0,0-0.2-0.1-0.6-0.4c-0.4-0.2-1-0.6-1.8-0.9c-0.8-0.4-1.8-0.8-3-1.2c-1.2-0.4-2.5-0.8-4-1.2
		c-0.7-0.2-1.5-0.3-2.4-0.5c-0.8-0.1-1.7-0.2-2.6-0.3c-1.7-0.2-3.7-0.1-5.6,0.1c-1.9,0.2-3.9,0.5-5.9,1c-2,0.5-3.9,1-5.9,1.7
		c-1.7,0.6-3.5,1.2-5.3,1.7c-1.8,0.4-3.6,0.9-5.3,1.1c-0.4,0.1-0.9,0.1-1.3,0.2c-0.4,0-0.8,0.1-1.2,0.1c-0.4,0-0.9,0-1.3,0.1
		c-0.4,0-0.8,0-1.2,0c-1.6,0-3.1-0.1-4.5-0.2c-2.8-0.2-5.2-0.6-6.9-0.9c-1.7-0.3-2.7-0.4-2.7-0.4c-0.2,0-0.4,0.1-0.5,0.2
		c-0.2,0.2-0.1,0.6,0.2,0.7c0,0,0.9,0.6,2.5,1.3c0.8,0.4,1.8,0.8,3,1.2c1.2,0.4,2.5,0.8,4,1.2c1.5,0.4,3.1,0.6,4.9,0.8
		c0.5,0,0.9,0.1,1.4,0.1c0.4,0,0.9,0,1.3,0c0.5,0,1,0,1.5-0.1c0.5,0,1-0.1,1.4-0.1c1.9-0.2,3.9-0.5,5.9-1c2-0.5,3.9-1,5.9-1.7
		c1.6-0.6,3.5-1.2,5.3-1.7c1.8-0.4,3.6-0.9,5.3-1.1c1.7-0.3,3.4-0.4,5-0.4c0.8,0,1.5,0,2.3,0.1c0.8,0,1.5,0.1,2.2,0.1
		c2.8,0.2,5.2,0.6,6.9,0.9c1.7,0.3,2.7,0.4,2.7,0.4l0,0c0.2,0,0.4-0.1,0.5-0.2C159.3,141,159.2,140.7,158.9,140.5z"/>
	<path d="M153.2,152.2c-0.3-0.2-0.8-0.6-1.5-0.9c-0.7-0.4-1.5-0.8-2.4-1.2c-1-0.4-2.1-0.8-3.3-1.2c-0.6-0.2-1.3-0.3-2-0.5
		c-0.7-0.1-1.5-0.2-2.2-0.3c-1.5-0.2-3.2-0.1-4.8,0.1c-1.6,0.2-3.3,0.5-5,1c-1.7,0.5-3.2,1-5,1.8c-1.3,0.6-2.8,1.2-4.3,1.6
		c-1.5,0.5-2.9,0.9-4.3,1.1c-0.4,0.1-0.7,0.1-1,0.2c-0.3,0-0.7,0.1-1,0.1c-0.4,0-0.7,0-1.1,0.1c-0.3,0-0.6,0-0.9,0
		c-1.3,0-2.6-0.1-3.7-0.2c-2.3-0.2-4.3-0.6-5.7-0.9c-1.4-0.3-2.2-0.4-2.2-0.4c-0.2,0-0.4,0-0.5,0.2c-0.2,0.2-0.1,0.5,0.1,0.7
		c0,0,0.7,0.6,2,1.3c0.7,0.4,1.5,0.8,2.4,1.2c1,0.4,2.1,0.8,3.3,1.2c1.3,0.4,2.7,0.6,4.2,0.8c0.4,0,0.7,0.1,1.2,0.1
		c0.4,0,0.7,0,1.1,0c0.4,0,0.8,0,1.3-0.1c0.4,0,0.8-0.1,1.2-0.1c1.6-0.2,3.3-0.5,5-1c1.7-0.5,3.3-1,5-1.8c1.3-0.6,2.8-1.1,4.3-1.6
		c1.5-0.5,2.9-0.9,4.3-1.1c1.4-0.3,2.7-0.4,4.1-0.4c0.7,0,1.2,0,1.9,0.1c0.6,0,1.2,0.1,1.8,0.1c2.3,0.2,4.3,0.6,5.7,0.9
		c1.4,0.3,2.2,0.4,2.2,0.4l0,0c0.2,0,0.4,0,0.5-0.2c0.2-0.2,0.1-0.5-0.1-0.7C153.7,152.5,153.6,152.4,153.2,152.2z"/>
	<path d="M183.8,168L183.8,168c-1.2-19.6-6.2-38.7-11.1-53.3c-0.5-1.6-2.1-2.7-3.8-2.7H87.1c-1.7,0-3.2,1.1-3.8,2.7
		c-4.9,14.6-9.8,33.7-11,53.3h0c-0.2,2.7-0.2,5.3-0.2,8c0,25,10,38.9,18.4,46.1c1.4,1.2,3.2,1.9,5.1,1.9h65c1.9,0,3.8-0.7,5.1-1.9
		C174,214.9,184,201,184,176C184,173.3,183.9,170.7,183.8,168z M74.4,167c1.4-20,6.6-38.9,10.8-51.4c0.3-0.8,1-1.6,1.9-1.6h81.8
		c0.9,0,1.6,0.8,1.9,1.6c4.2,12.5,9.4,31.4,10.8,51.4H74.4z"/>
	<path d="M116,62c0,0.2,0,0.5,0.1,0.7c0.1,0.5,0.1,1,0.2,1.5c0.2,0.9,0.4,1.7,0.6,2.5c0.5,1.5,1,2.7,1.4,3.5
		c0.2,0.4,0.4,0.7,0.5,0.9c0.1,0.2,0.2,0.3,0.2,0.3c0.2,0.3,0.6,0.6,1,0.5c0.5-0.1,0.9-0.6,0.8-1.2l0-0.1c0,0-0.1-0.5-0.2-1.3
		c-0.1-0.8-0.3-2-0.5-3.4c-0.1-0.7-0.2-1.4-0.2-2.2c0-0.4,0-0.8,0-1.1c0-0.2,0-0.4,0-0.7l0-0.2c0,0,0-0.1,0-0.1l0-0.2
		c0.1-0.6,0.3-1.1,0.7-1.7c0.4-0.6,1-1.2,1.7-2.2c0.3-0.5,0.7-1,1-1.7c0.1-0.3,0.2-0.6,0.3-1c0.1-0.3,0.2-0.7,0.2-1
		c0-0.2,0.1-0.4,0.1-0.5l0-0.4l0-0.4l0-0.1l0,0l0,0l0-0.1l0-0.2c0-0.5-0.1-1-0.2-1.5c-0.3-2-0.7-3.7-1.1-5.1
		c-0.4-1.5-0.9-2.6-1.2-3.5c-0.3-0.8-0.5-1.3-0.5-1.3l0,0c-0.2-0.4-0.6-0.6-1-0.6c-0.6,0.1-0.9,0.6-0.9,1.1c0,0,0.1,0.5,0.2,1.3
		c0.1,0.8,0.2,2.1,0.4,3.5c0.2,1.4,0.3,3.1,0.4,4.8c0,0.4,0,0.9,0,1.3c0,0.1-0.1,1-0.1,1.1c-0.1,0.2-0.2,0.5-0.3,0.8
		c-0.1,0.3-0.3,0.6-0.5,0.9c-0.5,0.6-1.2,1.4-1.9,2.4c-0.7,1.1-1.1,2.5-1.1,3.7l0,0.5c0,0.1,0,0.1,0,0.3L116,62z"/>
	<path d="M124,61.8l0,0.2c0,0.2,0,0.5,0.1,0.7c0.1,0.5,0.1,1,0.2,1.5c0.2,0.9,0.4,1.7,0.6,2.5c0.5,1.5,1,2.7,1.4,3.5
		c0.2,0.4,0.4,0.7,0.5,0.9c0.1,0.2,0.2,0.3,0.2,0.3c0.2,0.3,0.6,0.6,1,0.5c0.5-0.1,0.9-0.6,0.8-1.2l0-0.1c0,0-0.1-0.5-0.2-1.3
		c-0.1-0.8-0.3-2-0.5-3.4c-0.1-0.7-0.2-1.4-0.2-2.2c0-0.4,0-0.8,0-1.1c0-0.2,0-0.4,0-0.7l0-0.2c0,0,0-0.1,0-0.1l0-0.2
		c0.1-0.6,0.3-1.1,0.7-1.7c0.4-0.6,1-1.2,1.7-2.2c0.3-0.5,0.7-1,1-1.7c0.1-0.3,0.2-0.6,0.3-1c0.1-0.3,0.2-0.7,0.2-1
		c0-0.2,0.1-0.4,0.1-0.5l0-0.4l0-0.4l0-0.1l0,0l0,0l0-0.1l0-0.2c0-0.5-0.1-1-0.2-1.5c-0.3-2-0.7-3.7-1.1-5.1
		c-0.4-1.5-0.9-2.6-1.2-3.5c-0.3-0.8-0.5-1.3-0.5-1.3l0,0c-0.2-0.4-0.6-0.6-1-0.6c-0.6,0.1-0.9,0.6-0.9,1.1c0,0,0.1,0.5,0.2,1.3
		c0.1,0.8,0.2,2.1,0.4,3.5c0.2,1.4,0.3,3.1,0.4,4.8c0,0.4,0,0.9,0,1.3c0,0.1-0.1,1-0.1,1.1c-0.1,0.2-0.2,0.5-0.3,0.8
		c-0.1,0.3-0.3,0.6-0.5,0.9c-0.5,0.6-1.2,1.4-1.9,2.4c-0.7,1.1-1.1,2.5-1.1,3.7l0,0.5C124,61.7,124,61.7,124,61.8z"/>
	<path d="M132,61.8l0,0.2c0,0.2,0,0.5,0.1,0.7c0.1,0.5,0.1,1,0.2,1.5c0.2,0.9,0.4,1.7,0.6,2.5c0.5,1.5,1,2.7,1.4,3.5
		c0.2,0.4,0.4,0.7,0.5,0.9c0.1,0.2,0.2,0.3,0.2,0.3c0.2,0.3,0.6,0.6,1,0.5c0.5-0.1,0.9-0.6,0.8-1.2l0-0.1c0,0-0.1-0.5-0.2-1.3
		c-0.1-0.8-0.3-2-0.5-3.4c-0.1-0.7-0.2-1.4-0.2-2.2c0-0.4,0-0.8,0-1.1c0-0.2,0-0.4,0-0.7l0-0.2c0,0,0-0.1,0-0.1l0-0.2
		c0.1-0.6,0.3-1.1,0.7-1.7c0.4-0.6,1-1.2,1.7-2.2c0.3-0.5,0.7-1,1-1.7c0.1-0.3,0.2-0.6,0.3-1c0.1-0.3,0.2-0.7,0.2-1
		c0-0.2,0.1-0.4,0.1-0.5l0-0.4l0-0.4l0-0.1l0,0l0,0l0-0.1l0-0.2c0-0.5-0.1-1-0.2-1.5c-0.3-2-0.7-3.7-1.1-5.1
		c-0.4-1.5-0.9-2.6-1.2-3.5c-0.3-0.8-0.5-1.3-0.5-1.3l0,0c-0.2-0.4-0.6-0.6-1-0.6c-0.6,0.1-0.9,0.6-0.9,1.1c0,0,0.1,0.5,0.2,1.3
		c0.1,0.8,0.2,2.1,0.4,3.5c0.2,1.4,0.3,3.1,0.4,4.8c0,0.4,0,0.9,0,1.3c0,0.1-0.1,1-0.1,1.1c-0.1,0.2-0.2,0.5-0.3,0.8
		c-0.1,0.3-0.3,0.6-0.5,0.9c-0.5,0.6-1.2,1.4-1.9,2.4c-0.7,1.1-1.1,2.5-1.1,3.7l0,0.5C132,61.7,132,61.7,132,61.8z"/>
</g>
</svg>
