<?xml version="1.0" encoding="utf-8"?>
<!-- Generator: Adobe Illustrator 19.2.1, SVG Export Plug-In . SVG Version: 6.00 Build 0)  -->
<svg version="1.1" id="Ebene_1" xmlns="http://www.w3.org/2000/svg" xmlns:xlink="http://www.w3.org/1999/xlink" x="0px" y="0px"
	 viewBox="0 0 256 256" style="enable-background:new 0 0 256 256;" xml:space="preserve">
<style type="text/css">
	.st0{fill:none;stroke:#FF0000;stroke-miterlimit:10;}
	.st1{stroke:url(#SVGID_1_);stroke-miterlimit:10;}
</style>
<g>
	<path d="M204,80h-4H56h-4c-2.2,0-4,1.8-4,4c0,2.2,1.8,4,4,4h4.8l13.8,137.6c0.8,8.2,7.7,14.4,15.9,14.4h83
		c8.2,0,15.1-6.2,15.9-14.4L199.2,88h4.8c2.2,0,4-1.8,4-4C208,81.8,206.2,80,204,80z M177.5,224.8c-0.4,4.1-3.8,7.2-8,7.2h-83
		c-4.1,0-7.5-3.1-8-7.2L64.8,88h126.3L177.5,224.8z"/>
	<path d="M77.7,136l3.4,34h0l5,50.4c0.2,2,1.9,3.6,4,3.6h75.8c2.1,0,3.8-1.6,4-3.6l5.2-52.4l3.2-32l2-19.6c0.2-2.4-1.6-4.4-4-4.4
		H79.7c-2.4,0-4.2,2-4,4.4L77.7,136z M78.2,114.7c0.4-0.4,0.9-0.7,1.5-0.7H176h0.2c0.6,0,1.2,0.2,1.6,0.7c0.4,0.4,0.6,1,0.5,1.5
		l-1.9,19.6l-3.2,32.2H82.9l-3.2-32.2l-2-19.6C77.7,115.6,77.8,115.1,78.2,114.7z"/>
	<path d="M132.4,143.1c-0.5-0.2-1.1,0-1.3,0.5l-7.9,16c-0.2,0.5,0,1.1,0.5,1.3c0.1,0.1,0.3,0.1,0.4,0.1c0.4,0,0.7-0.2,0.9-0.6
		l7.9-16C133.1,143.9,132.9,143.3,132.4,143.1z"/>
	<path d="M128.4,143.1c-0.5-0.2-1.1,0-1.3,0.5l-7.9,16c-0.2,0.5,0,1.1,0.5,1.3c0.1,0.1,0.3,0.1,0.4,0.1c0.4,0,0.7-0.2,0.9-0.6
		l7.9-16C129.1,143.9,128.9,143.3,128.4,143.1z"/>
	<path d="M124.4,143.1c-0.5-0.2-1.1,0-1.3,0.5l-7.9,16c-0.2,0.5,0,1.1,0.5,1.3c0.1,0.1,0.3,0.1,0.4,0.1c0.4,0,0.7-0.2,0.9-0.6
		l7.9-16C125.1,143.9,124.9,143.3,124.4,143.1z"/>
	<path d="M120.4,143.1c-0.5-0.2-1.1,0-1.3,0.5l-7.9,16c-0.2,0.5,0,1.1,0.5,1.3c0.1,0.1,0.3,0.1,0.4,0.1c0.4,0,0.7-0.2,0.9-0.6
		l7.9-16C121.1,143.9,120.9,143.3,120.4,143.1z"/>
	<path d="M116.4,143.1c-0.5-0.2-1.1,0-1.3,0.5l-7.9,16c-0.2,0.5,0,1.1,0.5,1.3c0.1,0.1,0.3,0.1,0.4,0.1c0.4,0,0.7-0.2,0.9-0.6
		l7.9-16C117.1,143.9,116.9,143.3,116.4,143.1z"/>
	<path d="M112.4,143.1c-0.5-0.2-1.1,0-1.3,0.5l-7.9,16c-0.2,0.5,0,1.1,0.5,1.3c0.1,0.1,0.3,0.1,0.4,0.1c0.4,0,0.7-0.2,0.9-0.6
		l7.9-16C113.1,143.9,112.9,143.3,112.4,143.1z"/>
	<path d="M108.4,143.1c-0.5-0.2-1.1,0-1.3,0.5l-7.9,16c-0.2,0.5,0,1.1,0.5,1.3c0.1,0.1,0.3,0.1,0.4,0.1c0.4,0,0.7-0.2,0.9-0.6
		l7.9-16C109.1,143.9,108.9,143.3,108.4,143.1z"/>
	<path d="M104.4,143.1c-0.5-0.2-1.1,0-1.3,0.5l-7.9,16c-0.2,0.5,0,1.1,0.5,1.3c0.1,0.1,0.3,0.1,0.4,0.1c0.4,0,0.7-0.2,0.9-0.6
		l7.9-16C105.1,143.9,104.9,143.3,104.4,143.1z"/>
	<path d="M100.4,143.1c-0.5-0.2-1.1,0-1.3,0.5l-7.9,16c-0.2,0.5,0,1.1,0.5,1.3c0.1,0.1,0.3,0.1,0.4,0.1c0.4,0,0.7-0.2,0.9-0.6
		l7.9-16C101.1,143.9,100.9,143.3,100.4,143.1z"/>
	<path d="M96.4,143.1c-0.5-0.2-1.1,0-1.3,0.5l-7.9,16c-0.2,0.5,0,1.1,0.5,1.3c0.1,0.1,0.3,0.1,0.4,0.1c0.4,0,0.7-0.2,0.9-0.6l7.9-16
		C97.1,143.9,96.9,143.3,96.4,143.1z"/>
	<path d="M87.5,155.2l5.3-10.8c0.2-0.5,0-1.1-0.5-1.3c-0.5-0.2-1.1,0-1.3,0.5l-5.3,10.8c-0.1,0.2-0.1,0.4-0.1,0.5
		C85.7,155.9,87,156.1,87.5,155.2z"/>
	<path d="M86.8,148.5l2-4.1c0.2-0.5,0-1.1-0.5-1.3c-0.5-0.2-1.1,0-1.3,0.5l-2,4.1c-0.1,0.2-0.1,0.4-0.1,0.5v0
		C85,149.2,86.4,149.4,86.8,148.5z"/>
	<path d="M136.4,143.1c-0.5-0.2-1.1,0-1.3,0.5l-7.9,16c-0.2,0.5,0,1.1,0.5,1.3c0.1,0.1,0.3,0.1,0.4,0.1c0.4,0,0.7-0.2,0.9-0.6
		l7.9-16C137.1,143.9,136.9,143.3,136.4,143.1z"/>
	<path d="M140.4,143.1c-0.5-0.2-1.1,0-1.3,0.5l-7.9,16c-0.2,0.5,0,1.1,0.5,1.3c0.1,0.1,0.3,0.1,0.4,0.1c0.4,0,0.7-0.2,0.9-0.6
		l7.9-16C141.1,143.9,140.9,143.3,140.4,143.1z"/>
	<path d="M144.4,143.1c-0.5-0.2-1.1,0-1.3,0.5l-7.9,16c-0.2,0.5,0,1.1,0.5,1.3c0.1,0.1,0.3,0.1,0.4,0.1c0.4,0,0.7-0.2,0.9-0.6
		l7.9-16C145.1,143.9,144.9,143.3,144.4,143.1z"/>
	<path d="M148.4,143.1c-0.5-0.2-1.1,0-1.3,0.5l-7.9,16c-0.2,0.5,0,1.1,0.5,1.3c0.1,0.1,0.3,0.1,0.4,0.1c0.4,0,0.7-0.2,0.9-0.6
		l7.9-16C149.1,143.9,148.9,143.3,148.4,143.1z"/>
	<path d="M152.4,143.1c-0.5-0.2-1.1,0-1.3,0.5l-7.9,16c-0.2,0.5,0,1.1,0.5,1.3c0.1,0.1,0.3,0.1,0.4,0.1c0.4,0,0.7-0.2,0.9-0.6
		l7.9-16C153.1,143.9,152.9,143.3,152.4,143.1z"/>
	<path d="M156.4,143.1c-0.5-0.2-1.1,0-1.3,0.5l-7.9,16c-0.2,0.5,0,1.1,0.5,1.3c0.1,0.1,0.3,0.1,0.4,0.1c0.4,0,0.7-0.2,0.9-0.6
		l7.9-16C157.1,143.9,156.9,143.3,156.4,143.1z"/>
	<path d="M160.4,143.1c-0.5-0.2-1.1,0-1.3,0.5l-7.9,16c-0.2,0.5,0,1.1,0.5,1.3c0.1,0.1,0.3,0.1,0.4,0.1c0.4,0,0.7-0.2,0.9-0.6
		l7.9-16C161.1,143.9,160.9,143.3,160.4,143.1z"/>
	<path d="M164.4,143.1c-0.5-0.2-1.1,0-1.3,0.5l-7.9,16c-0.2,0.5,0,1.1,0.5,1.3c0.1,0.1,0.3,0.1,0.4,0.1c0.4,0,0.7-0.2,0.9-0.6
		l7.9-16C165.1,143.9,164.9,143.3,164.4,143.1z"/>
	<path d="M168.4,143.1c-0.5-0.2-1.1,0-1.3,0.5l-7.9,16c-0.2,0.5,0,1.1,0.5,1.3c0.1,0.1,0.3,0.1,0.4,0.1c0.4,0,0.7-0.2,0.9-0.6
		l7.9-16C169.1,143.9,168.9,143.3,168.4,143.1z"/>
	<path d="M168.2,157.3l-1.1,2.2c-0.2,0.5,0,1.1,0.5,1.3c0.1,0.1,0.3,0.1,0.4,0.1c0.4,0,0.7-0.2,0.9-0.6l1.1-2.2
		c0.1-0.1,0.1-0.2,0.1-0.3C170.2,156.8,168.7,156.3,168.2,157.3z"/>
	<path d="M172.4,143.1c-0.5-0.2-1.1,0-1.3,0.5l-7.9,16c-0.2,0.5,0,1.1,0.5,1.3c0.1,0.1,0.3,0.1,0.4,0.1c0.4,0,0.7-0.2,0.9-0.6
		l7.9-16C173.1,143.9,172.9,143.3,172.4,143.1z"/>
	<path d="M123.6,138.9c0.1,0.1,0.3,0.1,0.4,0.1c0.4,0,0.7-0.2,0.9-0.6l7.9-16c0.2-0.5,0-1.1-0.5-1.3c-0.5-0.2-1.1,0-1.3,0.5l-7.9,16
		C122.9,138.1,123.1,138.7,123.6,138.9z"/>
	<path d="M119.6,138.9c0.1,0.1,0.3,0.1,0.4,0.1c0.4,0,0.7-0.2,0.9-0.6l7.9-16c0.2-0.5,0-1.1-0.5-1.3c-0.5-0.2-1.1,0-1.3,0.5l-7.9,16
		C118.9,138.1,119.1,138.7,119.6,138.9z"/>
	<path d="M115.6,138.9c0.1,0.1,0.3,0.1,0.4,0.1c0.4,0,0.7-0.2,0.9-0.6l7.9-16c0.2-0.5,0-1.1-0.5-1.3c-0.5-0.2-1.1,0-1.3,0.5l-7.9,16
		C114.9,138.1,115.1,138.7,115.6,138.9z"/>
	<path d="M111.6,138.9c0.1,0.1,0.3,0.1,0.4,0.1c0.4,0,0.7-0.2,0.9-0.6l7.9-16c0.2-0.5,0-1.1-0.5-1.3c-0.5-0.2-1.1,0-1.3,0.5l-7.9,16
		C110.9,138.1,111.1,138.7,111.6,138.9z"/>
	<path d="M107.6,138.9c0.1,0.1,0.3,0.1,0.4,0.1c0.4,0,0.7-0.2,0.9-0.6l7.9-16c0.2-0.5,0-1.1-0.5-1.3c-0.5-0.2-1.1,0-1.3,0.5l-7.9,16
		C106.9,138.1,107.1,138.7,107.6,138.9z"/>
	<path d="M103.6,138.9c0.1,0.1,0.3,0.1,0.4,0.1c0.4,0,0.7-0.2,0.9-0.6l7.9-16c0.2-0.5,0-1.1-0.5-1.3c-0.5-0.2-1.1,0-1.3,0.5l-7.9,16
		C102.9,138.1,103.1,138.7,103.6,138.9z"/>
	<path d="M99.6,138.9c0.1,0.1,0.3,0.1,0.4,0.1c0.4,0,0.7-0.2,0.9-0.6l7.9-16c0.2-0.5,0-1.1-0.5-1.3c-0.5-0.2-1.1,0-1.3,0.5l-7.9,16
		C98.9,138.1,99.1,138.7,99.6,138.9z"/>
	<path d="M95.6,138.9c0.1,0.1,0.3,0.1,0.4,0.1c0.4,0,0.7-0.2,0.9-0.6l7.9-16c0.2-0.5,0-1.1-0.5-1.3c-0.5-0.2-1.1,0-1.3,0.5l-7.9,16
		C94.9,138.1,95.1,138.7,95.6,138.9z"/>
	<path d="M91.6,138.9c0.1,0.1,0.3,0.1,0.4,0.1c0.4,0,0.7-0.2,0.9-0.6l7.9-16c0.2-0.5,0-1.1-0.5-1.3c-0.5-0.2-1.1,0-1.3,0.5l-7.9,16
		C90.9,138.1,91.1,138.7,91.6,138.9z"/>
	<path d="M87.6,138.9c0.1,0.1,0.3,0.1,0.4,0.1c0.4,0,0.7-0.2,0.9-0.6l7.9-16c0.2-0.5,0-1.1-0.5-1.3c-0.5-0.2-1.1,0-1.3,0.5l-7.9,16
		C86.9,138.1,87.1,138.7,87.6,138.9z"/>
	<path d="M85.6,132.9c0.1,1,1.4,1.2,1.9,0.3l5.3-10.8c0.2-0.5,0-1.1-0.5-1.3c-0.5-0.2-1.1,0-1.3,0.5l-5.3,10.8
		C85.6,132.5,85.6,132.7,85.6,132.9z"/>
	<path d="M86.8,126.5l2-4.1c0.2-0.5,0-1.1-0.5-1.3c-0.5-0.2-1.1,0-1.3,0.5l-2,4.1c-0.1,0.2-0.1,0.4-0.1,0.5v0
		C85,127.2,86.4,127.4,86.8,126.5z"/>
	<path d="M127.6,138.9c0.1,0.1,0.3,0.1,0.4,0.1c0.4,0,0.7-0.2,0.9-0.6l7.9-16c0.2-0.5,0-1.1-0.5-1.3c-0.5-0.2-1.1,0-1.3,0.5l-7.9,16
		C126.9,138.1,127.1,138.7,127.6,138.9z"/>
	<path d="M131.6,138.9c0.1,0.1,0.3,0.1,0.4,0.1c0.4,0,0.7-0.2,0.9-0.6l7.9-16c0.2-0.5,0-1.1-0.5-1.3c-0.5-0.2-1.1,0-1.3,0.5l-7.9,16
		C130.9,138.1,131.1,138.7,131.6,138.9z"/>
	<path d="M135.6,138.9c0.1,0.1,0.3,0.1,0.4,0.1c0.4,0,0.7-0.2,0.9-0.6l7.9-16c0.2-0.5,0-1.1-0.5-1.3c-0.5-0.2-1.1,0-1.3,0.5l-7.9,16
		C134.9,138.1,135.1,138.7,135.6,138.9z"/>
	<path d="M139.6,138.9c0.1,0.1,0.3,0.1,0.4,0.1c0.4,0,0.7-0.2,0.9-0.6l7.9-16c0.2-0.5,0-1.1-0.5-1.3c-0.5-0.2-1.1,0-1.3,0.5l-7.9,16
		C138.9,138.1,139.1,138.7,139.6,138.9z"/>
	<path d="M143.6,138.9c0.1,0.1,0.3,0.1,0.4,0.1c0.4,0,0.7-0.2,0.9-0.6l7.9-16c0.2-0.5,0-1.1-0.5-1.3c-0.5-0.2-1.1,0-1.3,0.5l-7.9,16
		C142.9,138.1,143.1,138.7,143.6,138.9z"/>
	<path d="M147.6,138.9c0.1,0.1,0.3,0.1,0.4,0.1c0.4,0,0.7-0.2,0.9-0.6l7.9-16c0.2-0.5,0-1.1-0.5-1.3c-0.5-0.2-1.1,0-1.3,0.5l-7.9,16
		C146.9,138.1,147.1,138.7,147.6,138.9z"/>
	<path d="M151.6,138.9c0.1,0.1,0.3,0.1,0.4,0.1c0.4,0,0.7-0.2,0.9-0.6l7.9-16c0.2-0.5,0-1.1-0.5-1.3c-0.5-0.2-1.1,0-1.3,0.5l-7.9,16
		C150.9,138.1,151.1,138.7,151.6,138.9z"/>
	<path d="M155.6,138.9c0.1,0.1,0.3,0.1,0.4,0.1c0.4,0,0.7-0.2,0.9-0.6l7.9-16c0.2-0.5,0-1.1-0.5-1.3c-0.5-0.2-1.1,0-1.3,0.5l-7.9,16
		C154.9,138.1,155.1,138.7,155.6,138.9z"/>
	<path d="M159.6,138.9c0.1,0.1,0.3,0.1,0.4,0.1c0.4,0,0.7-0.2,0.9-0.6l7.9-16c0.2-0.5,0-1.1-0.5-1.3c-0.5-0.2-1.1,0-1.3,0.5l-7.9,16
		C158.9,138.1,159.1,138.7,159.6,138.9z"/>
	<path d="M167.6,138.9c0.1,0.1,0.3,0.1,0.4,0.1c0.4,0,0.7-0.2,0.9-0.6l1.1-2.2c0.1-0.1,0.1-0.2,0.1-0.3c0.1-1.1-1.4-1.5-1.9-0.5
		l-1.1,2.2C166.9,138.1,167.1,138.7,167.6,138.9z"/>
	<path d="M163.6,138.9c0.1,0.1,0.3,0.1,0.4,0.1c0.4,0,0.7-0.2,0.9-0.6l7.9-16c0.2-0.5,0-1.1-0.5-1.3c-0.5-0.2-1.1,0-1.3,0.5l-7.9,16
		C162.9,138.1,163.1,138.7,163.6,138.9z"/>
	<path d="M116,62c0,0.2,0,0.5,0.1,0.7c0.1,0.5,0.1,1,0.2,1.5c0.2,0.9,0.4,1.7,0.6,2.5c0.5,1.5,1,2.7,1.4,3.5
		c0.2,0.4,0.4,0.7,0.5,0.9c0.1,0.2,0.2,0.3,0.2,0.3c0.2,0.3,0.6,0.6,1,0.5c0.5-0.1,0.9-0.6,0.8-1.2l0-0.1c0,0-0.1-0.5-0.2-1.3
		c-0.1-0.8-0.3-2-0.5-3.4c-0.1-0.7-0.2-1.4-0.2-2.2c0-0.4,0-0.8,0-1.1c0-0.2,0-0.4,0-0.7l0-0.2c0,0,0-0.1,0-0.1l0-0.2
		c0.1-0.6,0.3-1.1,0.7-1.7c0.4-0.6,1-1.2,1.7-2.2c0.3-0.5,0.7-1,1-1.7c0.1-0.3,0.2-0.6,0.3-1c0.1-0.3,0.2-0.7,0.2-1
		c0-0.2,0.1-0.4,0.1-0.5l0-0.4l0-0.4l0-0.1l0,0l0,0l0-0.1l0-0.2c0-0.5-0.1-1-0.2-1.5c-0.3-2-0.7-3.7-1.1-5.1
		c-0.4-1.5-0.9-2.6-1.2-3.5c-0.3-0.8-0.5-1.3-0.5-1.3l0,0c-0.2-0.4-0.6-0.6-1-0.6c-0.6,0.1-0.9,0.6-0.9,1.1c0,0,0.1,0.5,0.2,1.3
		c0.1,0.8,0.2,2.1,0.4,3.5c0.2,1.4,0.3,3.1,0.4,4.8c0,0.4,0,0.9,0,1.3c0,0.1-0.1,1-0.1,1.1c-0.1,0.2-0.2,0.5-0.3,0.8
		c-0.1,0.3-0.3,0.6-0.5,0.9c-0.5,0.6-1.2,1.4-1.9,2.4c-0.7,1.1-1.1,2.5-1.1,3.7l0,0.5c0,0.1,0,0.1,0,0.3L116,62z"/>
	<path d="M124,61.8l0,0.2c0,0.2,0,0.5,0.1,0.7c0.1,0.5,0.1,1,0.2,1.5c0.2,0.9,0.4,1.7,0.6,2.5c0.5,1.5,1,2.7,1.4,3.5
		c0.2,0.4,0.4,0.7,0.5,0.9c0.1,0.2,0.2,0.3,0.2,0.3c0.2,0.3,0.6,0.6,1,0.5c0.5-0.1,0.9-0.6,0.8-1.2l0-0.1c0,0-0.1-0.5-0.2-1.3
		c-0.1-0.8-0.3-2-0.5-3.4c-0.1-0.7-0.2-1.4-0.2-2.2c0-0.4,0-0.8,0-1.1c0-0.2,0-0.4,0-0.7l0-0.2c0,0,0-0.1,0-0.1l0-0.2
		c0.1-0.6,0.3-1.1,0.7-1.7c0.4-0.6,1-1.2,1.7-2.2c0.3-0.5,0.7-1,1-1.7c0.1-0.3,0.2-0.6,0.3-1c0.1-0.3,0.2-0.7,0.2-1
		c0-0.2,0.1-0.4,0.1-0.5l0-0.4l0-0.4l0-0.1l0,0l0,0l0-0.1l0-0.2c0-0.5-0.1-1-0.2-1.5c-0.3-2-0.7-3.7-1.1-5.1
		c-0.4-1.5-0.9-2.6-1.2-3.5c-0.3-0.8-0.5-1.3-0.5-1.3l0,0c-0.2-0.4-0.6-0.6-1-0.6c-0.6,0.1-0.9,0.6-0.9,1.1c0,0,0.1,0.5,0.2,1.3
		c0.1,0.8,0.2,2.1,0.4,3.5c0.2,1.4,0.3,3.1,0.4,4.8c0,0.4,0,0.9,0,1.3c0,0.1-0.1,1-0.1,1.1c-0.1,0.2-0.2,0.5-0.3,0.8
		c-0.1,0.3-0.3,0.6-0.5,0.9c-0.5,0.6-1.2,1.4-1.9,2.4c-0.7,1.1-1.1,2.5-1.1,3.7l0,0.5C124,61.7,124,61.7,124,61.8z"/>
	<path d="M132,61.8l0,0.2c0,0.2,0,0.5,0.1,0.7c0.1,0.5,0.1,1,0.2,1.5c0.2,0.9,0.4,1.7,0.6,2.5c0.5,1.5,1,2.7,1.4,3.5
		c0.2,0.4,0.4,0.7,0.5,0.9c0.1,0.2,0.2,0.3,0.2,0.3c0.2,0.3,0.6,0.6,1,0.5c0.5-0.1,0.9-0.6,0.8-1.2l0-0.1c0,0-0.1-0.5-0.2-1.3
		c-0.1-0.8-0.3-2-0.5-3.4c-0.1-0.7-0.2-1.4-0.2-2.2c0-0.4,0-0.8,0-1.1c0-0.2,0-0.4,0-0.7l0-0.2c0,0,0-0.1,0-0.1l0-0.2
		c0.1-0.6,0.3-1.1,0.7-1.7c0.4-0.6,1-1.2,1.7-2.2c0.3-0.5,0.7-1,1-1.7c0.1-0.3,0.2-0.6,0.3-1c0.1-0.3,0.2-0.7,0.2-1
		c0-0.2,0.1-0.4,0.1-0.5l0-0.4l0-0.4l0-0.1l0,0l0,0l0-0.1l0-0.2c0-0.5-0.1-1-0.2-1.5c-0.3-2-0.7-3.7-1.1-5.1
		c-0.4-1.5-0.9-2.6-1.2-3.5c-0.3-0.8-0.5-1.3-0.5-1.3l0,0c-0.2-0.4-0.6-0.6-1-0.6c-0.6,0.1-0.9,0.6-0.9,1.1c0,0,0.1,0.5,0.2,1.3
		c0.1,0.8,0.2,2.1,0.4,3.5c0.2,1.4,0.3,3.1,0.4,4.8c0,0.4,0,0.9,0,1.3c0,0.1-0.1,1-0.1,1.1c-0.1,0.2-0.2,0.5-0.3,0.8
		c-0.1,0.3-0.3,0.6-0.5,0.9c-0.5,0.6-1.2,1.4-1.9,2.4c-0.7,1.1-1.1,2.5-1.1,3.7l0,0.5C132,61.7,132,61.7,132,61.8z"/>
</g>
</svg>
