<svg xmlns="http://www.w3.org/2000/svg" xmlns:xlink="http://www.w3.org/1999/xlink" width="500" zoomAndPan="magnify" viewBox="0 0 375 374.999991" height="500" preserveAspectRatio="xMidYMid meet" version="1.0"><defs><clipPath id="915667cdc8"><path d="M 143 187.5 L 206 187.5 L 206 292.5 L 143 292.5 Z M 143 187.5 " clip-rule="nonzero"/></clipPath></defs><path fill="#000000" d="M 238.621094 104.550781 C 208.347656 43.535156 119.144531 58.117188 108.324219 123.773438 L 244.75 123.773438 C 243.636719 116.996094 241.546875 110.539062 238.621094 104.550781 Z M 240.988281 81.007812 L 246.515625 48.875 C 246.980469 46.089844 248.929688 43.953125 251.390625 43.070312 L 286.125 30.253906 C 295.320312 26.867188 300.472656 40.890625 291.234375 44.277344 L 260.492188 55.609375 L 252.878906 99.863281 C 256.316406 107.339844 258.683594 115.371094 259.84375 123.777344 C 277.351562 123.777344 273.914062 124.75 273.914062 163.152344 C 273.914062 171.835938 264.441406 170.625 259.472656 170.625 L 230.589844 339.046875 C 229.984375 342.667969 226.828125 345.222656 223.253906 345.222656 L 129.828125 345.269531 C 125.976562 345.269531 122.816406 342.34375 122.398438 338.628906 L 93.609375 170.625 C 75.734375 170.625 79.167969 170.066406 79.167969 131.25 C 79.167969 122.613281 88.457031 123.773438 93.238281 123.773438 C 102.988281 51.753906 193.953125 24.636719 240.992188 81.007812 Z M 258.960938 138.726562 L 94.117188 138.726562 L 94.117188 155.675781 L 258.960938 155.675781 Z M 244.332031 170.625 L 108.742188 170.625 L 136.09375 330.316406 L 216.9375 330.316406 Z M 244.332031 170.625 " fill-opacity="1" fill-rule="nonzero"/><g clip-path="url(#915667cdc8)"><path fill="#000000" d="M 202.308594 214.226562 L 204.421875 213.722656 L 203.507812 211.75 C 202.179688 208.882812 197.464844 203.878906 189.125 205.417969 C 188.523438 205.527344 187.941406 205.691406 187.375 205.890625 C 190.617188 200.554688 197.4375 196.425781 202.339844 195.160156 L 205.703125 194.292969 L 203.03125 192.074219 C 202.769531 191.851562 196.464844 186.679688 188.476562 187.613281 C 181.992188 188.363281 177.09375 191.132812 173.867188 195.828125 C 171.5 194.394531 168.515625 193.359375 164.75 192.953125 C 157.238281 192.148438 151.277344 196.675781 151.027344 196.867188 L 148.09375 199.140625 L 151.703125 200.003906 C 157.109375 201.300781 164.527344 205.769531 166.773438 211.242188 C 166.179688 211.050781 165.558594 210.875 164.886719 210.75 C 154.222656 208.777344 152.261719 215.292969 152.183594 215.570312 L 151.683594 217.351562 L 153.480469 217.785156 C 158.382812 218.957031 160.695312 220.898438 161.789062 222.449219 C 154.710938 223.957031 149.910156 227.09375 147.015625 232.03125 C 143.226562 238.484375 143.230469 247.261719 143.230469 256.550781 L 143.230469 256.945312 C 143.230469 276.550781 156.742188 292.5 173.355469 292.5 L 174.164062 292.5 C 190.773438 292.5 204.289062 276.550781 204.289062 256.945312 L 204.289062 256.550781 C 204.289062 250.671875 204.28125 245 203.324219 239.992188 L 203.378906 239.957031 L 203.28125 239.8125 C 202.722656 236.976562 201.863281 234.347656 200.503906 232.03125 C 197.875 227.550781 193.675781 224.550781 187.628906 222.910156 C 190.207031 220.0625 195.5625 215.84375 202.308594 214.226562 Z M 188.886719 191.144531 C 192.429688 190.738281 195.648438 191.871094 197.839844 192.984375 C 191.503906 195.722656 183.945312 201.558594 182.289062 208.972656 C 182.261719 208.996094 182.238281 209.023438 182.214844 209.046875 C 182.207031 209.007812 182.195312 208.972656 182.191406 208.933594 C 182.148438 208.695312 182.09375 208.453125 182.042969 208.207031 C 181.996094 207.96875 181.949219 207.730469 181.890625 207.488281 C 181.820312 207.1875 181.738281 206.890625 181.652344 206.585938 C 181.601562 206.40625 181.554688 206.230469 181.5 206.046875 C 181.390625 205.6875 181.265625 205.328125 181.136719 204.964844 C 181.09375 204.855469 181.058594 204.746094 181.015625 204.632812 C 180.855469 204.214844 180.675781 203.796875 180.488281 203.382812 C 180.46875 203.34375 180.449219 203.304688 180.433594 203.265625 C 179.558594 201.382812 178.347656 199.566406 176.679688 197.984375 C 179.316406 194.078125 183.414062 191.777344 188.886719 191.144531 Z M 156.453125 197.851562 C 158.480469 196.964844 161.285156 196.160156 164.371094 196.488281 C 168.402344 196.921875 171.351562 198.21875 173.519531 200 C 173.917969 200.328125 174.289062 200.667969 174.632812 201.027344 C 174.707031 201.101562 174.789062 201.171875 174.859375 201.246094 C 175.285156 201.710938 175.667969 202.199219 176.011719 202.699219 C 176.058594 202.765625 176.101562 202.832031 176.144531 202.898438 C 176.480469 203.402344 176.785156 203.917969 177.046875 204.445312 C 177.054688 204.457031 177.058594 204.464844 177.0625 204.472656 C 177.636719 205.621094 178.054688 206.8125 178.355469 207.996094 C 178.359375 208.015625 178.363281 208.03125 178.371094 208.050781 C 178.664062 209.210938 178.84375 210.363281 178.945312 211.453125 C 178.957031 211.546875 178.960938 211.644531 178.96875 211.742188 C 178.992188 212.011719 179.003906 212.269531 179.019531 212.535156 C 178.945312 212.632812 178.859375 212.734375 178.785156 212.832031 C 178.585938 213.042969 178.429688 213.273438 178.320312 213.46875 C 178.234375 213.589844 178.164062 213.710938 178.082031 213.832031 C 177.816406 214.214844 177.566406 214.59375 177.328125 214.972656 C 177.246094 215.101562 177.164062 215.230469 177.085938 215.359375 C 176.808594 215.808594 176.546875 216.25 176.304688 216.6875 C 176.269531 216.746094 176.234375 216.804688 176.203125 216.863281 C 175.636719 217.882812 175.15625 218.839844 174.769531 219.671875 C 174.203125 217.59375 173.050781 215.316406 170.980469 213.546875 C 170.386719 206.566406 163.171875 200.664062 156.453125 197.851562 Z M 165.542969 221.832031 C 164.519531 219.660156 162.175781 216.875 156.859375 215.058594 C 158.03125 214.226562 160.226562 213.503906 164.234375 214.246094 C 166.046875 214.582031 167.386719 215.265625 168.421875 216.089844 C 168.667969 216.285156 168.898438 216.488281 169.105469 216.699219 C 169.21875 216.816406 169.332031 216.929688 169.4375 217.046875 C 169.667969 217.3125 169.878906 217.582031 170.066406 217.859375 C 170.109375 217.925781 170.15625 217.988281 170.195312 218.054688 C 170.941406 219.234375 171.304688 220.457031 171.488281 221.410156 C 171.421875 221.410156 171.359375 221.414062 171.296875 221.417969 C 169.257812 221.46875 167.347656 221.609375 165.558594 221.828125 C 165.554688 221.832031 165.546875 221.832031 165.542969 221.832031 Z M 197.433594 233.828125 C 197.453125 233.867188 197.46875 233.910156 197.488281 233.945312 L 191.75 239.6875 L 194.261719 242.199219 L 198.0625 238.402344 L 199.949219 241.230469 C 200.398438 243.808594 200.589844 246.632812 200.667969 249.648438 L 198.339844 247.320312 L 191.75 253.910156 L 194.261719 256.425781 L 198.339844 252.347656 L 200.636719 254.648438 L 200.726562 254.558594 C 200.730469 255.222656 200.730469 255.875 200.730469 256.550781 L 200.730469 256.945312 C 200.730469 259.019531 200.554688 261.046875 200.238281 263.015625 L 197.988281 261.890625 L 191.75 268.132812 L 194.261719 270.644531 L 198.691406 266.21875 L 199.484375 266.613281 C 196.070312 279.546875 186.011719 288.945312 174.160156 288.945312 L 173.351562 288.945312 C 161.613281 288.945312 151.648438 279.722656 148.140625 266.988281 L 148.558594 266.570312 L 152.636719 270.644531 L 155.148438 268.132812 L 148.558594 261.539062 L 147.253906 262.847656 C 146.957031 260.929688 146.78125 258.960938 146.78125 256.945312 L 146.78125 256.550781 C 146.78125 255.726562 146.78125 254.925781 146.785156 254.121094 L 148.558594 252.347656 L 152.636719 256.421875 L 155.148438 253.910156 L 148.558594 247.320312 L 146.867188 249.007812 C 146.992188 245.15625 147.3125 241.617188 148.15625 238.523438 L 148.558594 238.125 L 152.636719 242.199219 L 155.148438 239.6875 L 149.820312 234.355469 C 149.910156 234.1875 149.980469 233.996094 150.078125 233.828125 C 152.171875 230.265625 155.605469 227.828125 160.570312 226.417969 L 154.414062 232.574219 L 156.929688 235.089844 L 161.003906 231.011719 L 165.082031 235.089844 L 167.59375 232.574219 L 161.25 226.230469 C 162.203125 225.984375 163.210938 225.78125 164.269531 225.605469 L 164.648438 225.546875 C 167.242188 225.148438 170.167969 224.945312 173.449219 224.945312 L 174.160156 224.945312 C 174.546875 224.945312 174.910156 224.957031 175.285156 224.960938 L 175.324219 224.964844 C 178.648438 225.015625 181.648438 225.292969 184.234375 225.789062 L 184.878906 225.910156 C 185.179688 225.976562 185.480469 226.039062 185.773438 226.105469 L 179.300781 232.578125 L 181.816406 235.089844 L 185.894531 231.015625 L 189.96875 235.089844 L 192.484375 232.578125 L 186.089844 226.183594 C 191.527344 227.546875 195.222656 230.0625 197.433594 233.828125 Z M 177.855469 221.488281 C 177.855469 221.488281 177.851562 221.488281 177.851562 221.488281 C 178.054688 221.039062 178.292969 220.539062 178.558594 220.011719 C 178.589844 219.945312 178.625 219.886719 178.65625 219.820312 C 178.761719 219.609375 178.878906 219.390625 178.992188 219.171875 C 179.125 218.929688 179.257812 218.683594 179.398438 218.433594 C 179.457031 218.328125 179.511719 218.222656 179.574219 218.117188 C 179.816406 217.695312 180.074219 217.261719 180.351562 216.824219 C 180.355469 216.816406 180.363281 216.808594 180.367188 216.800781 C 180.652344 216.347656 180.957031 215.890625 181.28125 215.4375 L 182.335938 214.058594 C 183.179688 213.023438 184.082031 212.097656 185.035156 211.308594 L 185.539062 210.894531 L 185.542969 210.871094 C 186.828125 209.914062 188.238281 209.203125 189.769531 208.917969 C 194.628906 208.015625 197.515625 209.921875 199 211.488281 C 191.683594 213.945312 185.988281 218.984375 183.71875 222.082031 C 181.910156 221.785156 179.949219 221.589844 177.855469 221.488281 Z M 177.855469 221.488281 " fill-opacity="1" fill-rule="nonzero"/></g><path fill="#000000" d="M 161.003906 268.652344 L 154.414062 275.242188 L 156.929688 277.757812 L 161.003906 273.679688 L 165.082031 277.757812 L 167.59375 275.242188 Z M 161.003906 268.652344 " fill-opacity="1" fill-rule="nonzero"/><path fill="#000000" d="M 166.859375 284.132812 L 169.375 286.644531 L 173.449219 282.570312 L 177.527344 286.644531 L 180.039062 284.132812 L 173.449219 277.542969 Z M 166.859375 284.132812 " fill-opacity="1" fill-rule="nonzero"/><path fill="#000000" d="M 179.304688 275.242188 L 181.816406 277.757812 L 185.894531 273.679688 L 189.972656 277.757812 L 192.484375 275.242188 L 185.894531 268.652344 Z M 179.304688 275.242188 " fill-opacity="1" fill-rule="nonzero"/><path fill="#000000" d="M 161.003906 259.457031 L 165.082031 263.535156 L 167.59375 261.019531 L 161.003906 254.429688 L 154.414062 261.019531 L 156.929688 263.535156 Z M 161.003906 259.457031 " fill-opacity="1" fill-rule="nonzero"/><path fill="#000000" d="M 166.859375 268.132812 L 169.375 270.644531 L 173.449219 266.570312 L 177.527344 270.644531 L 180.039062 268.132812 L 173.449219 261.539062 Z M 166.859375 268.132812 " fill-opacity="1" fill-rule="nonzero"/><path fill="#000000" d="M 179.304688 261.019531 L 181.816406 263.535156 L 185.894531 259.457031 L 189.972656 263.535156 L 192.484375 261.019531 L 185.894531 254.429688 Z M 179.304688 261.019531 " fill-opacity="1" fill-rule="nonzero"/><path fill="#000000" d="M 161.003906 245.234375 L 165.082031 249.3125 L 167.59375 246.796875 L 161.003906 240.207031 L 154.414062 246.796875 L 156.929688 249.3125 Z M 161.003906 245.234375 " fill-opacity="1" fill-rule="nonzero"/><path fill="#000000" d="M 173.449219 247.320312 L 166.859375 253.910156 L 169.375 256.421875 L 173.449219 252.347656 L 177.527344 256.421875 L 180.039062 253.910156 Z M 173.449219 247.320312 " fill-opacity="1" fill-rule="nonzero"/><path fill="#000000" d="M 179.304688 246.796875 L 181.816406 249.3125 L 185.894531 245.234375 L 189.972656 249.3125 L 192.484375 246.796875 L 185.894531 240.207031 Z M 179.304688 246.796875 " fill-opacity="1" fill-rule="nonzero"/><path fill="#000000" d="M 173.449219 238.125 L 177.527344 242.199219 L 180.039062 239.6875 L 173.449219 233.097656 L 166.859375 239.6875 L 169.375 242.199219 Z M 173.449219 238.125 " fill-opacity="1" fill-rule="nonzero"/></svg>