<?xml version="1.0" encoding="UTF-8"?>
<svg width="1200pt" height="1200pt" version="1.1" viewBox="0 0 1200 1200" xmlns="http://www.w3.org/2000/svg">
 <path d="m763.59 334.56c-96.883-195.25-382.33-148.59-416.95 61.516h436.56c-3.5625-21.691-10.25-42.348-19.613-61.516zm7.5781-75.336 17.684-102.82c1.4844-8.9141 7.7266-15.75 15.602-18.574l111.15-41.012c29.422-10.848 45.914 34.027 16.344 44.875l-98.367 36.258-24.367 141.61c10.996 23.922 18.574 49.629 22.289 76.523 56.02 0 45.023 3.1211 45.023 126 0 27.785-30.312 23.922-46.211 23.922l-92.426 538.94c-1.9336 11.59-12.035 19.762-23.477 19.762l-298.96 0.14844c-12.332 0-22.438-9.3594-23.773-21.25l-92.125-537.61c-57.207 0-46.211-1.7812-46.211-126 0-27.637 29.719-23.922 45.023-23.922 31.195-230.46 322.29-317.24 472.81-136.85zm57.508 184.7h-527.5v54.234h527.5zm-46.809 102.08h-433.89l87.52 511.01h258.7z"/>
</svg>
