<?xml version="1.0" encoding="utf-8"?>
<!-- Generator: Adobe Illustrator 19.2.1, SVG Export Plug-In . SVG Version: 6.00 Build 0)  -->
<svg version="1.1" id="Ebene_1" xmlns="http://www.w3.org/2000/svg" xmlns:xlink="http://www.w3.org/1999/xlink" x="0px" y="0px"
	 viewBox="0 0 256 256" style="enable-background:new 0 0 256 256;" xml:space="preserve">
<style type="text/css">
	.st0{fill:none;stroke:#FF0000;stroke-miterlimit:10;}
	.st1{stroke:url(#SVGID_1_);stroke-miterlimit:10;}
</style>
<g>
	<path d="M128,180c4.4,0,8-3.6,8-8s-8-12-8-12s-8,7.6-8,12S123.6,180,128,180z"/>
	<path d="M166.7,197.6l-13.2,2.2c-0.9,0.1-1.8,0.1-2.6,0L128,196l-22.7-3.8c-0.9-0.1-1.8-0.1-2.6,0l-16,2.7c-3.9,0.6-6.7,4-6.7,7.9
		v5.2c0,8.8,7.2,16,16,16h64c8.8,0,16-7.2,16-16v-2.5C176,200.5,171.6,196.7,166.7,197.6z"/>
	<path d="M202,124c0-1.2-0.9-2.3-2.1-2.5c-1.9-7-6.7-12-10.4-15.1c0.3-0.8,0.5-1.6,0.5-2.5c0-3.3-2.7-6-6-6c-2.1,0-4,1.1-5,2.7
		l4.9-27.2c0.8-4.5-1.9-8.6-5.7-9.4l3.9-14.7c0.9-4.9-2.9-9.4-7.9-9.4h-1.4l5.4-18.9c0.7-2.6-1.2-5.1-3.8-5.1l-90.5,9
		c-2.6,0-4.5,2.5-3.9,5l2.7,10h-1.3c-5,0-8.8,4.5-7.9,9.4l3.9,14.9c-3.5,1.1-5.9,5.1-5.1,9.3l5.1,28.4H77c-1.1,0-2,0.9-2,2
		s0.9,2,2,2h0.3l-5.1,28.4c-0.7,4,1.4,7.8,4.6,9.1h0L61,200c-5.2,20.3,6,40,27,40h79.7c20.8,0,32.1-19.6,27-39.8l-15.9-56.6
		c3.5-1.1,5.8-5.1,5-9.2l-4.9-27.2c1.1,1.6,2.9,2.7,5,2.7c1.4,0,2.6-0.5,3.6-1.2c1.4,2,2.9,4.9,3.6,9.1c-0.7,0.4-1.3,1.2-1.3,2.2
		c0,1.1,0.7,2,1.7,2.4c0,0.5,0,1.1,0,1.6c0,0.6,0.4,1,1,1s1-0.4,1-1c0-0.6,0-1.2,0-1.8c0.8-0.4,1.3-1.2,1.3-2.2c0-1.1-0.7-2-1.7-2.4
		c-0.5-2.7-1.2-5-2.1-6.9c2.7,2.8,5.5,6.6,6.8,11.3c-0.6,0.5-0.9,1.2-0.9,1.9c0,1.1,0.7,2,1.7,2.4c0,0.5,0.1,1.1,0.1,1.6
		c0,0.6,0.4,1,1,1s1-0.4,1-1c0-0.6,0-1.2-0.1-1.8C201.5,125.8,202,124.9,202,124z M177.5,64c-0.2,0-0.5,0-0.7,0
		C177,64,177.3,64,177.5,64z M174.1,48l-4.2,16h-4.1l4.6-16H174.1z M93.3,64l-4.4-16h77.3l-4.6,16H93.3z M83.7,29c0.1,0,0.3,0,0.4,0
		l90.1-9l-5.7,20H86.7L83.7,29z M84.7,48l4.4,16h-3.7l-4.2-16H84.7z M78.2,64.1C78.2,64.1,78.2,64.1,78.2,64.1
		C78.2,64.1,78.2,64.1,78.2,64.1z M85.2,101L80,72.2c0-0.1,0-0.1,0-0.2h14.4h66.1H176c0,0,0,0.1,0,0.2l-5.2,28.9
		c-0.1,0.3-0.1,0.7-0.1,1H85.3C85.3,101.7,85.3,101.3,85.2,101z M170.7,106c0,0.3,0.1,0.7,0.1,1l5.2,28.9c0,0.1,0,0.1,0,0.2H80
		c0,0,0-0.1,0-0.2l5.2-28.9c0.1-0.3,0.1-0.7,0.1-1H170.7z M77.4,143.7c-0.1,0-0.2-0.1-0.4-0.1C77.2,143.7,77.3,143.7,77.4,143.7z
		 M79.2,144c-0.3,0-0.5,0-0.8,0C78.7,144,78.9,144,79.2,144z M78.2,143.9c-0.1,0-0.3-0.1-0.4-0.1C77.9,143.9,78,143.9,78.2,143.9z
		 M183.2,224.8c-3.7,4.7-9,7.2-15.5,7.2H88c-6.5,0-11.9-2.5-15.5-7.3c-4.5-5.8-5.9-14.3-3.7-22.7l16.1-58h85.7l16.4,58.3
		C189.1,210.7,187.6,219.1,183.2,224.8z M177.8,143.9C177.8,143.9,177.9,143.9,177.8,143.9C177.9,143.9,177.8,143.9,177.8,143.9z"/>
</g>
</svg>
