<?xml version="1.0" encoding="utf-8"?>
<!-- Generator: Adobe Illustrator 19.2.1, SVG Export Plug-In . SVG Version: 6.00 Build 0)  -->
<svg version="1.1" id="Ebene_1" xmlns="http://www.w3.org/2000/svg" xmlns:xlink="http://www.w3.org/1999/xlink" x="0px" y="0px"
	 viewBox="0 0 256 256" style="enable-background:new 0 0 256 256;" xml:space="preserve">
<style type="text/css">
	.st0{fill:none;stroke:#FF0000;stroke-miterlimit:10;}
	.st1{stroke:url(#SVGID_1_);stroke-miterlimit:10;}
</style>
<g>
	<path d="M232.1,236c0-0.2,0-0.5-0.1-0.7V20.6c0-2.2-1.8-4-4-4c-0.2,0-0.3,0-0.5,0l-63,7.4H60.1c-2.4,0-4.3,2.1-4,4.5
		C58.2,44.3,74.6,96,88,96c17.6,0,30.4,0,48,0c6.6,0,14.1-12.6,20.2-27.2c44.2,37.1,39.1,109.6,32.9,147.2h-136c-0.2,0-0.4,0-0.6,0
		c-0.2,0-0.3,0-0.5,0c-2.2,0-4,1.8-4,4v16c0,2.2,1.8,4,4,4c0.2,0,0.3,0,0.5,0c0.2,0,0.4,0,0.6,0h136H227h1c1.6,0,3.1-1,3.7-2.4
		C231.9,237.1,232.1,236.6,232.1,236z M135.5,88h-47c-1.8-1.1-7.3-7.2-14.3-25.4c-4.4-11.3-7.8-23-9.4-30.6h94.8
		c-1.6,7.5-5.1,19.2-9.6,30.6C142.9,80.8,137.3,87,135.5,88z M186,232H56v-8h131.6C187,227.1,186.5,229.7,186,232z M194.1,232
		c3.2-14.7,8.2-43.5,6.8-74.4c-0.9-20-4.4-37.9-10.4-53.2c-7-17.9-17.4-32.5-31.1-43.4l9.9-29.6l54.7-6.4V232H194.1z"/>
	<path d="M60.3,111.7c0.2,0.1,0.4,0.2,0.7,0.2C54.6,120.3,48,135,48,160c0,32.3,3.7,42.9,6.1,46.3c0.7,1.1,2,1.7,3.3,1.7h108.5
		c1.7,0,3.3-1.1,3.8-2.7c1.5-4.4,2.4-15.8,2.4-45.3c0-23.8-6.4-38.3-12.9-46.9l8.3-7.7c1.3-1.3,0.4-3.4-1.4-3.4h-3h-5.4h-12.4H77
		c0,0-11.2-2.2-21-6c-4.4-1.7-6.5-3.5-7.4-4.9c-1-1.6-3.1-2.3-4.9-1.5C35,93.2,16,104,16,128c0,22.7,8.5,43.3,13.1,52.7
		c1.3,2.6,4.9,3,6.7,0.7l3.2-3.4c1.1-1.3,1.2-3.2,0.3-4.6C35.8,167.9,28,152.9,28,128C28,98.8,55.3,109.6,60.3,111.7z M162.6,200
		H59.8c-1.4-3.7-3.8-13.9-3.8-40c0-26.5,7.8-39.8,13.5-46h79.7c6.1,6,14.7,19.3,14.7,46C164,180.5,163.5,193.9,162.6,200z"/>
	<path d="M147.1,150.9l-12.6,1.6c-0.8,0.1-1.7,0.1-2.5,0l-21.9-2.7l-21.7-2.7c-0.8-0.1-1.7-0.1-2.5,0L70.4,149
		c-3.7,0.5-6.4,2.9-6.4,5.7c0,0,0,9.8,0,10c0.2,14.1,1.1,22.5,2,27.3h89.3c0.3-5.3,0.6-13.9,0.6-27.7c0,0,0-7.7,0-7.7
		C156,153.1,151.7,150.3,147.1,150.9z"/>
	<path d="M218,160c0-0.6-0.4-1-1-1h-6c0-0.6,0-1.2-0.1-1.9c-0.2-4.1-0.5-8.2-0.9-12.1h6c0.6,0,1-0.4,1-1s-0.4-1-1-1h-6.2
		c-0.5-4.8-1.2-9.5-2-14h6.3c0.6,0,1-0.4,1-1s-0.4-1-1-1h-6.6c-0.9-4.8-2.1-9.5-3.4-14h6c0.6,0,1-0.4,1-1s-0.4-1-1-1h-6.6
		c-1.5-4.9-3.2-9.5-5.1-14h5.7c0.6,0,1-0.4,1-1s-0.4-1-1-1h-6.5c-2.2-4.9-4.6-9.6-7.3-14h5.9c0.6,0,1-0.4,1-1s-0.4-1-1-1h-7.1
		c-3.2-5-6.8-9.7-10.7-14h5.8c0.6,0,1-0.4,1-1s-0.4-1-1-1h-7.7c-2-2.1-4.1-4.1-6.3-6.1c-0.8-0.7-2.1-0.7-2.8,0.2
		c-0.7,0.8-0.7,2.1,0.2,2.8c24.2,21.5,37.5,54.2,39.5,97.4c1.2,25.9-2,50.4-5,66.3c-0.2,1.1,0.5,2.1,1.6,2.3c0.1,0,0.2,0,0.4,0
		c0.9,0,1.8-0.7,2-1.6c0.8-4.5,1.7-9.7,2.4-15.4h5.7c0.6,0,1-0.4,1-1s-0.4-1-1-1h-5.4c0.6-4.4,1.1-9.1,1.5-14h5.9c0.6,0,1-0.4,1-1
		s-0.4-1-1-1h-5.7c0.4-4.5,0.6-9.2,0.8-14h6c0.6,0,1-0.4,1-1s-0.4-1-1-1h-5.9c0.1-4.6,0.1-9.3,0-14h6C217.6,161,218,160.6,218,160z"
		/>
</g>
</svg>
