<?xml version="1.0" encoding="utf-8"?>
<!-- Generator: Adobe Illustrator 19.2.1, SVG Export Plug-In . SVG Version: 6.00 Build 0)  -->
<svg version="1.1" id="Ebene_1" xmlns="http://www.w3.org/2000/svg" xmlns:xlink="http://www.w3.org/1999/xlink" x="0px" y="0px"
	 viewBox="0 0 256 256" style="enable-background:new 0 0 256 256;" xml:space="preserve">
<style type="text/css">
	.st0{fill:none;stroke:#FF0000;stroke-miterlimit:10;}
	.st1{stroke:url(#SVGID_1_);stroke-miterlimit:10;}
</style>
<g>
	<path d="M168.3,161.2c-0.2-0.8-0.5-1.5-1.1-2l-7.1-7.1h3.9c2.2,0,4-1.8,4-4v-12c0-2.2-1.8-4-4-4h3.1c0.6,0,1.2-0.1,1.8-0.4l5.2-2.6
		c1.2-0.6,2.1-1.8,2.2-3.2l7.4-74.4c0.2-2-1.1-3.8-3-4.3l-44.1-11c-0.3-0.1-0.6-0.1-1-0.1h-15.1c-0.3,0-0.7,0-1,0.1l-44.1,11
		c-1.9,0.5-3.2,2.3-3,4.3l7.4,74.4c0.1,1.4,1,2.6,2.2,3.2l5.2,2.6c0.6,0.3,1.2,0.4,1.8,0.4H92c-2.2,0-4,1.8-4,4v12c0,2.2,1.8,4,4,4
		h3.9l-7.1,7.1c-0.6,0.6-0.9,1.3-1.1,2l-14.8,74c-0.5,2.5,1.4,4.8,3.9,4.8h102.4c2.5,0,4.4-2.3,3.9-4.8L168.3,161.2z M168.5,122.8
		l-2.4,1.2H146l7.9-75.3l21.4,5.3L168.5,122.8z M120.9,44h14.2l14.9,3.7c0,0,0,0,0,0.1l-8,76c0,0.1,0,0.1,0,0.2h-28
		c0-0.1,0-0.1,0-0.2l-8-76c0,0,0,0,0-0.1L120.9,44z M89.9,124l-2.4-1.2L80.6,54l21.4-5.3L110,124H89.9z M92,148v-12h72v12H92z
		 M142,160.1l8,71.9c0,0,0,0,0,0h-44l8.7-71.9c0,0,0,0,0-0.1L142,160.1C142,160,142,160,142,160.1z M95.3,163.9l3.9-3.9h11.5
		l-8.7,72H81.7L95.3,163.9z M154,232c0-0.2,0-0.3,0-0.5l-8-71.5h10.7l3.9,3.9l13.6,68.1H154z"/>
	<polygon points="136,32 138,19.9 128,16 118,20 119.9,32 	"/>
	<path d="M45.2,66.1c1-1.2,2.8-1.3,4.8-0.8l20.9,10.8l-2.4-24.3c0,0,0,0,0,0C68.2,50.2,67,49,65.5,49H57c-0.5,0-1.2,0.4-1.7,0.2
		l-8.8-3.5c-1.5-0.6-3.1-0.2-4.3,0.9L18,70.2c-1,1.2-1,3.2-0.9,4.5l29.8,66.8c0.6,1.4,2.1,2.5,4.1,2.5h14c1.9-0.2,4.2-1.7,4-4v-5
		c-0.1-1.6-2-3.3-3.5-3.8l-6.7-2.2c-1.6-0.5-2.7-2.1-2.7-3.8v-7.8c0-0.8-0.2-1.6-0.7-2.2L48.6,105c-0.4-0.6-0.7-1.4-0.7-2.1L48,89
		c0-0.6-0.4-1.3-0.7-2L41,74c-0.3-1.8,0.2-3.1,1-4L45.2,66.1z"/>
	<path d="M213.6,58.3l-13.4-4.2c-0.4-0.1-0.8-0.2-1.2-0.2h-8c-2.1,0-3.8,1.6-4,3.6l-3.7,37.2l23.5-29.5c0.5-0.9,1.3-1.5,2.3-1.8
		l4.5-1.4C215.5,61.6,215.5,58.9,213.6,58.3z"/>
</g>
</svg>
