<?xml version="1.0" encoding="utf-8"?>
<!-- Generator: Adobe Illustrator 19.2.1, SVG Export Plug-In . SVG Version: 6.00 Build 0)  -->
<svg version="1.1" id="Ebene_1" xmlns="http://www.w3.org/2000/svg" xmlns:xlink="http://www.w3.org/1999/xlink" x="0px" y="0px"
	 viewBox="0 0 256 256" style="enable-background:new 0 0 256 256;" xml:space="preserve">
<style type="text/css">
	.st0{fill:none;stroke:#FF0000;stroke-miterlimit:10;}
	.st1{stroke:url(#SVGID_1_);stroke-miterlimit:10;}
</style>
<g>
	<path d="M216,104c0-8.8-7.2-16-16-16c-3.7,0-7.2,1.3-9.9,3.5c9.6,4.4,18.4,9.2,25.9,13.7C216,104.8,216,104.4,216,104z"/>
	<path d="M238.5,125.5c-0.4-0.3-0.8-0.6-1.3-1c-0.9-0.7-2-1.5-3.2-2.4c-0.6-0.4-1.2-0.9-1.9-1.4C213.6,107.3,170.2,80,128.1,80h0
		c0,0,0,0-0.1,0c-39.3,0-85.3,23.9-105.2,38c-7.5,5.3-9,17.4-3.4,23l77.4,93.2c1.5,1.8,3.7,2.8,6.1,2.8h50.5c1.2,0,2.4-0.6,3.1-1.5
		l82.6-104.4C240.5,129.4,240.2,126.9,238.5,125.5z M102.9,229l-77.3-93.1c-0.2-0.2-0.3-0.4-0.5-0.5c-0.8-0.8-1.2-2.5-1-4.4
		c0.2-2.7,1.5-5.1,3.4-6.4C48.2,109.9,92.1,88,128,88h0.1c19.3,0,41.2,6.1,65,18.2c17.4,8.8,31,18.5,37.3,23.1L151.5,229L102.9,229z
		"/>
	<path d="M125.1,216h-0.3c-0.3,0-0.6,0.1-0.7,0.4l-4.1,6.2c-0.4,0.6,0,1.4,0.7,1.4h0.3c0.3,0,0.6-0.1,0.7-0.4l4.1-6.2
		C126.2,216.8,125.8,216,125.1,216z"/>
	<path d="M130.1,216h-0.3c-0.3,0-0.6,0.1-0.7,0.4l-4.1,6.2c-0.4,0.6,0,1.4,0.7,1.4h0.3c0.3,0,0.6-0.1,0.7-0.4l4.1-6.2
		C131.2,216.8,130.8,216,130.1,216z"/>
	<path d="M135.1,216h-0.3c-0.3,0-0.6,0.1-0.7,0.4l-4.1,6.2c-0.4,0.6,0,1.4,0.7,1.4h0.3c0.3,0,0.6-0.1,0.7-0.4l4.1-6.2
		C136.2,216.8,135.8,216,135.1,216z"/>
	<path d="M140.1,216h-0.3c-0.3,0-0.6,0.1-0.7,0.4l-4.1,6.2c-0.4,0.6,0,1.4,0.7,1.4h0.3c0.3,0,0.6-0.1,0.7-0.4l4.1-6.2
		C141.2,216.8,140.8,216,140.1,216z"/>
	<path d="M107.3,214l-0.2-0.2c-0.4-0.5-1.1-0.4-1.4,0.1l-3.7,5.6c-0.2,0.3-0.2,0.8,0.1,1.1l0.2,0.2c0.4,0.5,1.1,0.4,1.4-0.1l3.7-5.6
		C107.6,214.7,107.6,214.3,107.3,214z"/>
	<path d="M115.1,216h-0.3c-0.3,0-0.6,0.1-0.7,0.4l-4.1,6.2c-0.4,0.6,0,1.4,0.7,1.4h0.3c0.3,0,0.6-0.1,0.7-0.4l4.1-6.2
		C116.2,216.8,115.8,216,115.1,216z"/>
	<path d="M110.1,216h-0.3c-0.3,0-0.6,0.1-0.7,0.4l-4.1,6.2c-0.4,0.6,0,1.4,0.7,1.4h0.3c0.3,0,0.6-0.1,0.7-0.4l4.1-6.2
		C111.2,216.8,110.8,216,110.1,216z"/>
	<path d="M120.1,216h-0.3c-0.3,0-0.6,0.1-0.7,0.4l-4.1,6.2c-0.4,0.6,0,1.4,0.7,1.4h0.3c0.3,0,0.6-0.1,0.7-0.4l4.1-6.2
		C121.2,216.8,120.8,216,120.1,216z"/>
	<path d="M145.1,216h-0.3c-0.3,0-0.6,0.1-0.7,0.4l-4.1,6.2c-0.4,0.6,0,1.4,0.7,1.4h0.3c0.3,0,0.6-0.1,0.7-0.4l4.1-6.2
		C146.2,216.8,145.8,216,145.1,216z"/>
	<path d="M104.5,210.7l-0.2-0.2c-0.4-0.5-1.1-0.4-1.4,0.1l-3.7,5.6c-0.2,0.3-0.2,0.8,0.1,1.1l0.2,0.2c0.4,0.5,1.1,0.4,1.4-0.1
		l3.7-5.6C104.8,211.4,104.8,211,104.5,210.7z"/>
	<path d="M85,187.2l-0.2-0.2c-0.4-0.5-1.1-0.4-1.4,0.1l-3.7,5.6c-0.2,0.3-0.2,0.8,0.1,1.1l0.2,0.2c0.4,0.5,1.1,0.4,1.4-0.1l3.7-5.6
		C85.3,187.9,85.3,187.5,85,187.2z"/>
	<path d="M87.8,190.5l-0.2-0.2c-0.4-0.5-1.1-0.4-1.4,0.1l-3.7,5.6c-0.2,0.3-0.2,0.8,0.1,1.1l0.2,0.2c0.4,0.5,1.1,0.4,1.4-0.1
		l3.7-5.6C88.1,191.3,88.1,190.8,87.8,190.5z"/>
	<path d="M90.6,193.9l-0.2-0.2c-0.4-0.5-1.1-0.4-1.4,0.1l-3.7,5.6c-0.2,0.3-0.2,0.8,0.1,1.1l0.2,0.2c0.4,0.5,1.1,0.4,1.4-0.1
		l3.7-5.6C90.9,194.6,90.9,194.2,90.6,193.9z"/>
	<path d="M93.4,197.2l-0.2-0.2c-0.4-0.5-1.1-0.4-1.4,0.1l-3.7,5.6c-0.2,0.3-0.2,0.8,0.1,1.1l0.2,0.2c0.4,0.5,1.1,0.4,1.4-0.1
		l3.7-5.6C93.7,198,93.6,197.5,93.4,197.2z"/>
	<path d="M73.9,173.8l-0.2-0.2c-0.4-0.5-1.1-0.4-1.4,0.1l-3.7,5.6c-0.2,0.3-0.2,0.8,0.1,1.1l0.2,0.2c0.4,0.5,1.1,0.4,1.4-0.1
		l3.7-5.6C74.2,174.5,74.1,174.1,73.9,173.8z"/>
	<path d="M76.7,177.1l-0.2-0.2c-0.4-0.5-1.1-0.4-1.4,0.1l-3.7,5.6c-0.2,0.3-0.2,0.8,0.1,1.1l0.2,0.2c0.4,0.5,1.1,0.4,1.4-0.1
		l3.7-5.6C76.9,177.8,76.9,177.4,76.7,177.1z"/>
	<path d="M79.5,180.5l-0.2-0.2c-0.4-0.5-1.1-0.4-1.4,0.1l-3.7,5.6c-0.2,0.3-0.2,0.8,0.1,1.1l0.2,0.2c0.4,0.5,1.1,0.4,1.4-0.1
		l3.7-5.6C79.7,181.2,79.7,180.8,79.5,180.5z"/>
	<path d="M82.2,183.8l-0.2-0.2c-0.4-0.5-1.1-0.4-1.4,0.1l-3.7,5.6c-0.2,0.3-0.2,0.8,0.1,1.1l0.2,0.2c0.4,0.5,1.1,0.4,1.4-0.1
		l3.7-5.6C82.5,184.5,82.5,184.1,82.2,183.8z"/>
	<path d="M96.2,200.6l-0.2-0.2c-0.4-0.5-1.1-0.4-1.4,0.1l-3.7,5.6c-0.2,0.3-0.2,0.8,0.1,1.1l0.2,0.2c0.4,0.5,1.1,0.4,1.4-0.1
		l3.7-5.6C96.4,201.3,96.4,200.9,96.2,200.6z"/>
	<path d="M99,203.9l-0.2-0.2c-0.4-0.5-1.1-0.4-1.4,0.1l-3.7,5.6c-0.2,0.3-0.2,0.8,0.1,1.1l0.2,0.2c0.4,0.5,1.1,0.4,1.4-0.1L99,205
		C99.2,204.7,99.2,204.2,99,203.9z"/>
	<path d="M101.7,207.3l-0.2-0.2c-0.4-0.5-1.1-0.4-1.4,0.1l-3.7,5.6c-0.2,0.3-0.2,0.8,0.1,1.1l0.2,0.2c0.4,0.5,1.1,0.4,1.4-0.1
		l3.7-5.6C102,208,102,207.6,101.7,207.3z"/>
	<path d="M71.1,170.4l-0.2-0.2c-0.4-0.5-1.1-0.4-1.4,0.1l-3.7,5.6c-0.2,0.3-0.2,0.8,0.1,1.1l0.2,0.2c0.4,0.5,1.1,0.4,1.4-0.1
		l3.7-5.6C71.4,171.1,71.4,170.7,71.1,170.4z"/>
	<path d="M65.5,163.7l-0.2-0.2c-0.4-0.5-1.1-0.4-1.4,0.1l-3.7,5.6c-0.2,0.3-0.2,0.8,0.1,1.1l0.2,0.2c0.4,0.5,1.1,0.4,1.4-0.1
		l3.7-5.6C65.8,164.4,65.8,164,65.5,163.7z"/>
	<path d="M68.3,167l-0.2-0.2c-0.4-0.5-1.1-0.4-1.4,0.1l-3.7,5.6c-0.2,0.3-0.2,0.8,0.1,1.1l0.2,0.2c0.4,0.5,1.1,0.4,1.4-0.1l3.7-5.6
		C68.6,167.8,68.6,167.3,68.3,167z"/>
	<path d="M62.7,160.3l-0.2-0.2c-0.4-0.5-1.1-0.4-1.4,0.1l-3.7,5.6c-0.2,0.3-0.2,0.8,0.1,1.1l0.2,0.2c0.4,0.5,1.1,0.4,1.4-0.1
		l3.7-5.6C63,161.1,63,160.6,62.7,160.3z"/>
	<path d="M43.2,136.9l-0.2-0.2c-0.4-0.5-1.1-0.4-1.4,0.1l-3.7,5.6c-0.2,0.3-0.2,0.8,0.1,1.1l0.2,0.2c0.4,0.5,1.1,0.4,1.4-0.1
		l3.7-5.6C43.5,137.6,43.5,137.2,43.2,136.9z"/>
	<path d="M46,140.2l-0.2-0.2c-0.4-0.5-1.1-0.4-1.4,0.1l-3.7,5.6c-0.2,0.3-0.2,0.8,0.1,1.1l0.2,0.2c0.4,0.5,1.1,0.4,1.4-0.1l3.7-5.6
		C46.3,140.9,46.3,140.5,46,140.2z"/>
	<path d="M48.8,143.6l-0.2-0.2c-0.4-0.5-1.1-0.4-1.4,0.1l-3.7,5.6c-0.2,0.3-0.2,0.8,0.1,1.1l0.2,0.2c0.4,0.5,1.1,0.4,1.4-0.1
		l3.7-5.6C49.1,144.3,49.1,143.9,48.8,143.6z"/>
	<path d="M51.6,146.9l-0.2-0.2c-0.4-0.5-1.1-0.4-1.4,0.1l-3.7,5.6c-0.2,0.3-0.2,0.8,0.1,1.1l0.2,0.2c0.4,0.5,1.1,0.4,1.4-0.1
		l3.7-5.6C51.9,147.6,51.9,147.2,51.6,146.9z"/>
	<path d="M40.5,133.5l-0.2-0.2c-0.4-0.5-1.1-0.4-1.4,0.1l-3.7,5.6c-0.2,0.3-0.2,0.8,0.1,1.1l0.2,0.2c0.4,0.5,1.1,0.4,1.4-0.1
		l3.7-5.6C40.7,134.2,40.7,133.8,40.5,133.5z"/>
	<path d="M54.4,150.3l-0.2-0.2c-0.4-0.5-1.1-0.4-1.4,0.1l-3.7,5.6c-0.2,0.3-0.2,0.8,0.1,1.1l0.2,0.2c0.4,0.5,1.1,0.4,1.4-0.1
		l3.7-5.6C54.7,151,54.6,150.6,54.4,150.3z"/>
	<path d="M57.2,153.6l-0.2-0.2c-0.4-0.5-1.1-0.4-1.4,0.1l-3.7,5.6c-0.2,0.3-0.2,0.8,0.1,1.1l0.2,0.2c0.4,0.5,1.1,0.4,1.4-0.1
		l3.7-5.6C57.4,154.4,57.4,153.9,57.2,153.6z"/>
	<path d="M60,157l-0.2-0.2c-0.4-0.5-1.1-0.4-1.4,0.1l-3.7,5.6c-0.2,0.3-0.2,0.8,0.1,1.1l0.2,0.2c0.4,0.5,1.1,0.4,1.4-0.1L60,158
		C60.2,157.7,60.2,157.3,60,157z"/>
	<path d="M150.1,216h-0.3c-0.3,0-0.6,0.1-0.7,0.4l-4.1,6.2c-0.4,0.6,0,1.4,0.7,1.4h0.3c0.3,0,0.6-0.1,0.7-0.4l4.1-6.2
		C151.2,216.8,150.8,216,150.1,216z"/>
	<path d="M37.6,130.2l-0.2-0.2c-0.4-0.5-1.1-0.4-1.4,0.1l-3.7,5.6c-0.2,0.3-0.2,0.8,0.1,1.1l0.2,0.2c0.4,0.5,1.1,0.4,1.4-0.1
		l3.7-5.6C37.9,131,37.9,130.5,37.6,130.2z"/>
</g>
</svg>
