<?xml version="1.0" encoding="utf-8"?>
<!-- Generator: Adobe Illustrator 19.2.1, SVG Export Plug-In . SVG Version: 6.00 Build 0)  -->
<svg version="1.1" id="Ebene_1" xmlns="http://www.w3.org/2000/svg" xmlns:xlink="http://www.w3.org/1999/xlink" x="0px" y="0px"
	 viewBox="0 0 256 256" style="enable-background:new 0 0 256 256;" xml:space="preserve">
<style type="text/css">
	.st0{fill:none;stroke:#FF0000;stroke-miterlimit:10;}
	.st1{stroke:url(#SVGID_1_);stroke-miterlimit:10;}
</style>
<g>
	<path d="M147,40L147,40l1,0c2.2,0,4-1.8,4-4c0-2.2-1.8-4-4-4h-1h-38h-1c-2.2,0-4,1.8-4,4c0,2.2,1.8,4,4,4h1v0c0,0-21,24.1-21,72
		c0,16,0,16,0,16v3.1c0,0.6,0.1,1.2,0.4,1.8l0.7,1.3c0.6,1.1,0.6,2.4,0,3.6l-0.7,1.4c-0.3,0.6-0.4,1.2-0.4,1.8v62
		c0,0.6,0.2,1.3,0.5,1.9l0.6,1.2c0.6,1.1,0.6,2.4,0.1,3.6l-0.7,1.5c-0.3,0.5-0.4,1.1-0.4,1.7v7.1c0,11,9,20,20,20h40
		c11,0,20-9,20-20v-7.1c0-0.6-0.1-1.2-0.4-1.8l-0.7-1.4c-0.6-1.1-0.6-2.4,0-3.6l0.7-1.4c0.3-0.6,0.4-1.2,0.4-1.8v-62.1
		c0-0.6-0.1-1.2-0.4-1.8l-0.7-1.4c-0.6-1.1-0.6-2.4,0-3.6l0.7-1.4c0.3-0.6,0.4-1.2,0.4-1.8v-3c0,0,0,0,0-16C168,64.1,147,40,147,40z
		 M160,128v2.1l-0.3,0.6c-1.7,3.4-1.7,7.4,0,10.7l0.3,0.5v60.2l-0.3,0.6c-1.6,3.3-1.6,7.3,0,10.7l0.3,0.5v6.1c0,6.6-5.4,12-12,12
		h-40c-6.6,0-12-5.4-12-12v-6.2l0.3-0.7c1.6-3.4,1.6-7.4-0.2-10.7L96,202v-60.1l0.3-0.6c1.7-3.4,1.7-7.4,0-10.7l-0.2-0.5V128v-16
		c0-43.9,18.9-66.6,19-66.8c1.3-1.5,2-3.3,2-5.3v0h22v0c0,1.9,0.7,3.8,2,5.3c0,0.1,4.6,5.4,9.2,16c4.5,10.3,9.8,27.4,9.8,50.8V128z"
		/>
	<path d="M148,20c0-2.2-1.8-4-4-4h-32c-2.2,0-4,1.8-4,4v10h40V20z M113,26c0,0.6-0.4,1-1,1s-1-0.4-1-1v-6c0-0.6,0.4-1,1-1s1,0.4,1,1
		V26z M117,26c0,0.6-0.4,1-1,1s-1-0.4-1-1v-6c0-0.6,0.4-1,1-1s1,0.4,1,1V26z M121,26c0,0.6-0.4,1-1,1s-1-0.4-1-1v-6c0-0.6,0.4-1,1-1
		s1,0.4,1,1V26z M125,26c0,0.6-0.4,1-1,1s-1-0.4-1-1v-6c0-0.6,0.4-1,1-1s1,0.4,1,1V26z M129,26c0,0.6-0.4,1-1,1s-1-0.4-1-1v-6
		c0-0.6,0.4-1,1-1s1,0.4,1,1V26z M133,26c0,0.6-0.4,1-1,1s-1-0.4-1-1v-6c0-0.6,0.4-1,1-1s1,0.4,1,1V26z M137,26c0,0.6-0.4,1-1,1
		s-1-0.4-1-1v-6c0-0.6,0.4-1,1-1s1,0.4,1,1V26z M141,26c0,0.6-0.4,1-1,1s-1-0.4-1-1v-6c0-0.6,0.4-1,1-1s1,0.4,1,1V26z M145,26
		c0,0.6-0.4,1-1,1s-1-0.4-1-1v-6c0-0.6,0.4-1,1-1s1,0.4,1,1V26z"/>
	<path d="M142.1,107.4c-0.4,0-0.8,0-1.3-0.1l-13.3-1.7l-13.2-1.7c-0.1,0-0.2,0-0.3,0s-0.2,0-0.3,0l-9.3,1.2c-0.2,0-0.3,0.1-0.4,0.1
		V220c0,2.2,1.8,4,4,4h40c2.2,0,4-1.8,4-4V106.5c-0.2-0.1-0.4-0.1-0.7-0.1c-0.1,0-0.2,0-0.3,0l-7.7,1
		C142.9,107.4,142.5,107.4,142.1,107.4z"/>
</g>
</svg>
