<?xml version="1.0" encoding="utf-8"?>
<!-- Generator: Adobe Illustrator 19.2.1, SVG Export Plug-In . SVG Version: 6.00 Build 0)  -->
<svg version="1.1" id="Ebene_1" xmlns="http://www.w3.org/2000/svg" xmlns:xlink="http://www.w3.org/1999/xlink" x="0px" y="0px"
	 viewBox="0 0 256 256" style="enable-background:new 0 0 256 256;" xml:space="preserve">
<style type="text/css">
	.st0{fill:none;stroke:#FF0000;stroke-miterlimit:10;}
	.st1{stroke:url(#SVGID_1_);stroke-miterlimit:10;}
</style>
<g>
	<path d="M128,56c4.4,0,8-3.6,8-8s-3.6-8-8-8s-8,3.6-8,8S123.6,56,128,56z M128,44c2.2,0,4,1.8,4,4s-1.8,4-4,4s-4-1.8-4-4
		S125.8,44,128,44z"/>
	<path d="M204.4,128c2,0,3.6-1.6,3.6-3.6v-0.8c0-2-1.6-3.6-3.6-3.6H196h-20.7C171.7,98.6,154,82,132,80.2V59.3
		c-1.3,0.4-2.6,0.7-4,0.7s-2.7-0.3-4-0.7v20.9C102,82,84.3,98.6,80.7,120H60h-8.4c-2,0-3.6,1.6-3.6,3.6v0.8c0,2,1.6,3.6,3.6,3.6H60
		v104h-8.4c-2,0-3.6,1.6-3.6,3.6v0.8c0,2,1.6,3.6,3.6,3.6H60h136h8.4c2,0,3.6-1.6,3.6-3.6v-0.8c0-2-1.6-3.6-3.6-3.6H196V128H204.4z
		 M128,88c19.3,0,35.5,13.8,39.2,32H88.8C92.5,101.8,108.7,88,128,88z M188,232H68V128h120V232z"/>
	<path d="M172,176H84c-2.2,0-4,1.8-4,4v40c0,2.2,1.8,4,4,4h88c2.2,0,4-1.8,4-4v-40C176,177.8,174.2,176,172,176z M168,216H88v-32h80
		V216z"/>
	<circle cx="128" cy="200" r="6"/>
	<path d="M198,53c2.2,0,4-1.8,4-4s-1.8-4-4-4h-58.4c0.2,1,0.4,2,0.4,3c0,1.8-0.4,3.5-1.1,5H198z"/>
	<path d="M191.4,38c0.4,1.8,2,3,3.9,3h5.8c1.8,0,3.4-1.2,3.9-3l2-8c0.6-2.5-1.3-5-3.9-5h-9.8c-2.6,0-4.5,2.4-3.9,5L191.4,38z"/>
</g>
</svg>
