<?xml version="1.0" encoding="utf-8"?>
<!-- Generator: Adobe Illustrator 19.2.1, SVG Export Plug-In . SVG Version: 6.00 Build 0)  -->
<svg version="1.1" id="Ebene_1" xmlns="http://www.w3.org/2000/svg" xmlns:xlink="http://www.w3.org/1999/xlink" x="0px" y="0px"
	 viewBox="0 0 256 256" style="enable-background:new 0 0 256 256;" xml:space="preserve">
<style type="text/css">
	.st0{fill:none;stroke:#FF0000;stroke-miterlimit:10;}
	.st1{stroke:url(#SVGID_1_);stroke-miterlimit:10;}
</style>
<g>
	<path d="M224,120h-8.8c0.2-2.8,0.4-5.4,0.5-7.6c0.3-4.6-3.4-8.4-8-8.4H48.3c-4.6,0-8.2,3.9-8,8.4C42,142.1,53.1,240,128,240
		c42.4,0,64.4-31.4,75.7-64H216c0,0,0,0,0,0c0.4,0,12.1-0.1,16-8c3.9-8.1,8-24.1,8-32S231.8,120,224,120z M167.9,218.1
		c-11.1,9.2-24.5,13.9-39.9,13.9s-28.8-4.7-39.9-13.9c-9.5-7.9-17.6-19.4-24-34c-11.7-26.6-14.9-56.6-15.7-72.1h159.4l0,0
		c-0.9,15.5-4.1,45.6-15.7,72.2C185.6,198.7,177.5,210.2,167.9,218.1z M224.8,164.5c-1.3,2.6-6.6,3.5-8.8,3.5c0,0,0,0,0,0h-6.9
		l9.3-40h5.6c3.4,0,8,4.6,8,8C232,142.6,228.2,157.5,224.8,164.5z"/>
	<path d="M194.7,120H61.3c-2.4,0-4.2,2.1-4,4.4c1.7,15,5.4,37,14,56.5c12.7,29,31.2,43.1,56.6,43.1s43.9-14.1,56.6-43.1
		c8.6-19.5,12.3-41.5,14-56.5C198.9,122.1,197,120,194.7,120z"/>
	<path d="M116,86c0,0.2,0,0.5,0.1,0.7c0.1,0.5,0.1,1,0.2,1.5c0.2,0.9,0.4,1.7,0.6,2.5c0.5,1.5,1,2.7,1.4,3.5
		c0.2,0.4,0.4,0.7,0.5,0.9c0.1,0.2,0.2,0.3,0.2,0.3c0.2,0.3,0.6,0.6,1,0.5c0.5-0.1,0.9-0.6,0.8-1.2l0-0.1c0,0-0.1-0.5-0.2-1.3
		c-0.1-0.8-0.3-2-0.5-3.4c-0.1-0.7-0.2-1.4-0.2-2.2c0-0.4,0-0.8,0-1.1c0-0.2,0-0.4,0-0.7l0-0.2c0,0,0-0.1,0-0.1l0-0.2
		c0.1-0.6,0.3-1.1,0.7-1.7c0.4-0.6,1-1.2,1.7-2.2c0.3-0.5,0.7-1,1-1.7c0.1-0.3,0.2-0.6,0.3-1c0.1-0.3,0.2-0.7,0.2-1
		c0-0.2,0.1-0.4,0.1-0.5l0-0.4l0-0.4l0-0.1l0,0l0,0l0-0.1l0-0.2c0-0.5-0.1-1-0.2-1.5c-0.3-2-0.7-3.7-1.1-5.1
		c-0.4-1.5-0.9-2.6-1.2-3.5c-0.3-0.8-0.5-1.3-0.5-1.3l0,0c-0.2-0.4-0.6-0.6-1-0.6c-0.6,0.1-0.9,0.6-0.9,1.1c0,0,0.1,0.5,0.2,1.3
		c0.1,0.8,0.2,2.1,0.4,3.5c0.2,1.4,0.3,3.1,0.4,4.8c0,0.4,0,0.9,0,1.3c0,0.1-0.1,1-0.1,1.1c-0.1,0.2-0.2,0.5-0.3,0.8
		c-0.1,0.3-0.3,0.6-0.5,0.9c-0.5,0.6-1.2,1.4-1.9,2.4c-0.7,1.1-1.1,2.5-1.1,3.7l0,0.5c0,0.1,0,0.1,0,0.3L116,86z"/>
	<path d="M124,85.8l0,0.2c0,0.2,0,0.5,0.1,0.7c0.1,0.5,0.1,1,0.2,1.5c0.2,0.9,0.4,1.7,0.6,2.5c0.5,1.5,1,2.7,1.4,3.5
		c0.2,0.4,0.4,0.7,0.5,0.9c0.1,0.2,0.2,0.3,0.2,0.3c0.2,0.3,0.6,0.6,1,0.5c0.5-0.1,0.9-0.6,0.8-1.2l0-0.1c0,0-0.1-0.5-0.2-1.3
		c-0.1-0.8-0.3-2-0.5-3.4c-0.1-0.7-0.2-1.4-0.2-2.2c0-0.4,0-0.8,0-1.1c0-0.2,0-0.4,0-0.7l0-0.2c0,0,0-0.1,0-0.1l0-0.2
		c0.1-0.6,0.3-1.1,0.7-1.7c0.4-0.6,1-1.2,1.7-2.2c0.3-0.5,0.7-1,1-1.7c0.1-0.3,0.2-0.6,0.3-1c0.1-0.3,0.2-0.7,0.2-1
		c0-0.2,0.1-0.4,0.1-0.5l0-0.4l0-0.4l0-0.1l0,0l0,0l0-0.1l0-0.2c0-0.5-0.1-1-0.2-1.5c-0.3-2-0.7-3.7-1.1-5.1
		c-0.4-1.5-0.9-2.6-1.2-3.5c-0.3-0.8-0.5-1.3-0.5-1.3l0,0c-0.2-0.4-0.6-0.6-1-0.6c-0.6,0.1-0.9,0.6-0.9,1.1c0,0,0.1,0.5,0.2,1.3
		c0.1,0.8,0.2,2.1,0.4,3.5c0.2,1.4,0.3,3.1,0.4,4.8c0,0.4,0,0.9,0,1.3c0,0.1-0.1,1-0.1,1.1c-0.1,0.2-0.2,0.5-0.3,0.8
		c-0.1,0.3-0.3,0.6-0.5,0.9c-0.5,0.6-1.2,1.4-1.9,2.4c-0.7,1.1-1.1,2.5-1.1,3.7l0,0.5C124,85.7,124,85.7,124,85.8z"/>
	<path d="M132,85.8l0,0.2c0,0.2,0,0.5,0.1,0.7c0.1,0.5,0.1,1,0.2,1.5c0.2,0.9,0.4,1.7,0.6,2.5c0.5,1.5,1,2.7,1.4,3.5
		c0.2,0.4,0.4,0.7,0.5,0.9c0.1,0.2,0.2,0.3,0.2,0.3c0.2,0.3,0.6,0.6,1,0.5c0.5-0.1,0.9-0.6,0.8-1.2l0-0.1c0,0-0.1-0.5-0.2-1.3
		c-0.1-0.8-0.3-2-0.5-3.4c-0.1-0.7-0.2-1.4-0.2-2.2c0-0.4,0-0.8,0-1.1c0-0.2,0-0.4,0-0.7l0-0.2c0,0,0-0.1,0-0.1l0-0.2
		c0.1-0.6,0.3-1.1,0.7-1.7c0.4-0.6,1-1.2,1.7-2.2c0.3-0.5,0.7-1,1-1.7c0.1-0.3,0.2-0.6,0.3-1c0.1-0.3,0.2-0.7,0.2-1
		c0-0.2,0.1-0.4,0.1-0.5l0-0.4l0-0.4l0-0.1l0,0l0,0l0-0.1l0-0.2c0-0.5-0.1-1-0.2-1.5c-0.3-2-0.7-3.7-1.1-5.1
		c-0.4-1.5-0.9-2.6-1.2-3.5c-0.3-0.8-0.5-1.3-0.5-1.3l0,0c-0.2-0.4-0.6-0.6-1-0.6c-0.6,0.1-0.9,0.6-0.9,1.1c0,0,0.1,0.5,0.2,1.3
		c0.1,0.8,0.2,2.1,0.4,3.5c0.2,1.4,0.3,3.1,0.4,4.8c0,0.4,0,0.9,0,1.3c0,0.1-0.1,1-0.1,1.1c-0.1,0.2-0.2,0.5-0.3,0.8
		c-0.1,0.3-0.3,0.6-0.5,0.9c-0.5,0.6-1.2,1.4-1.9,2.4c-0.7,1.1-1.1,2.5-1.1,3.7l0,0.5C132,85.7,132,85.7,132,85.8z"/>
</g>
</svg>
