<?xml version="1.0" encoding="utf-8"?>
<!-- Generator: Adobe Illustrator 19.2.1, SVG Export Plug-In . SVG Version: 6.00 Build 0)  -->
<svg version="1.1" id="Ebene_1" xmlns="http://www.w3.org/2000/svg" xmlns:xlink="http://www.w3.org/1999/xlink" x="0px" y="0px"
	 viewBox="0 0 256 256" style="enable-background:new 0 0 256 256;" xml:space="preserve">
<style type="text/css">
	.st0{fill:none;stroke:#FF0000;stroke-miterlimit:10;}
	.st1{stroke:url(#SVGID_1_);stroke-miterlimit:10;}
</style>
<g>
	<path d="M224,120h-8.8c0.2-2.8,0.4-5.4,0.5-7.6c0.3-4.6-3.4-8.4-8-8.4H48.3c-4.6,0-8.2,3.9-8,8.4C42,142.1,53.1,240,128,240
		c42.4,0,64.4-31.4,75.7-64H216c0,0,0,0,0,0c0.4,0,12.1-0.1,16-8c3.9-8.1,8-24.1,8-32S231.8,120,224,120z M167.9,218.1
		c-11.1,9.2-24.5,13.9-39.9,13.9s-28.8-4.7-39.9-13.9c-9.5-7.9-17.6-19.4-24-34c-11.7-26.6-14.9-56.6-15.7-72.1h159.4l0,0
		c-0.9,15.5-4.1,45.6-15.7,72.2C185.6,198.7,177.5,210.2,167.9,218.1z M224.8,164.5c-1.3,2.6-6.6,3.5-8.8,3.5c0,0,0,0,0,0h-6.9
		l9.3-40h5.6c3.4,0,8,4.6,8,8C232,142.6,228.2,157.5,224.8,164.5z"/>
	<path d="M194.7,120H61.3c-2.4,0-4.2,2.1-4,4.4c1.7,15,5.4,37,14,56.5c1.7,4,3.6,7.7,5.6,11.1c12.4,21.5,29.2,32,51.1,32
		s38.7-10.5,51.1-32c2-3.4,3.8-7.1,5.6-11.1c8.6-19.5,12.3-41.5,14-56.5C198.9,122.1,197,120,194.7,120z M196.7,124.2
		c-1.6,14.9-5.4,36.6-13.9,55.9c-1.5,3.5-3.2,6.8-4.9,9.9H78.1c-1.7-3.1-3.4-6.4-4.9-9.9c-8.5-19.3-12.2-41-13.8-55.9
		c-0.1-0.6,0.1-1.1,0.5-1.5c0.4-0.4,0.9-0.7,1.5-0.7h133.5c0.6,0,1,0.2,1.4,0.7C196.6,123.1,196.8,123.6,196.7,124.2z"/>
	<path d="M183.1,143.5c0,0-1.7-0.6-4.6-1.3c-1.5-0.4-3.3-0.8-5.4-1.2c-2.1-0.4-4.5-0.8-7.1-1.2c-2.6-0.3-5.5-0.6-8.5-0.7
		c-3-0.2-6.2-0.1-9.5,0.1c-3.3,0.2-6.7,0.5-10.1,0.9c-3.4,0.5-6.9,1-10.4,1.7c-3.3,0.7-6.7,1.3-10,1.7c-3.3,0.5-6.6,0.9-9.8,1.1
		c-1.6,0.1-3.1,0.2-4.7,0.3c-0.8,0-1.6,0-2.3,0.1c-0.7,0-1.5,0-2.2,0c-2.9,0-5.7-0.1-8.3-0.2c-2.6-0.1-4.9-0.3-7-0.4
		c-2.1-0.1-3.9-0.3-5.4-0.4c-3-0.3-4.7-0.4-4.7-0.4c-0.2,0-0.4,0.1-0.5,0.3c-0.1,0.3,0,0.5,0.3,0.6c0,0,1.7,0.6,4.6,1.3
		c1.5,0.4,3.3,0.8,5.4,1.2c2.1,0.4,4.5,0.8,7.1,1.2c2.6,0.3,5.5,0.6,8.5,0.7c0.8,0,1.5,0.1,2.3,0.1c0.8,0,1.5,0,2.3,0
		c1.6,0,3.2-0.1,4.9-0.2c3.3-0.2,6.7-0.4,10.1-0.9c3.4-0.5,6.9-1,10.4-1.7c3.3-0.7,6.7-1.3,10-1.7c3.3-0.5,6.6-0.9,9.8-1.1
		c3.2-0.3,6.2-0.4,9.2-0.4c2.9,0,5.7,0.1,8.2,0.2c2.6,0.1,4.9,0.3,7,0.4c2.1,0.1,3.9,0.3,5.4,0.4c3,0.3,4.7,0.4,4.7,0.4
		c0.2,0,0.4-0.1,0.5-0.3C183.5,143.9,183.4,143.6,183.1,143.5z"/>
	<path d="M175.1,155.5c0,0-1.4-0.6-3.9-1.3c-1.3-0.4-2.8-0.8-4.6-1.2c-1.8-0.4-3.8-0.8-6.1-1.2c-2.2-0.3-4.7-0.6-7.3-0.8
		c-2.6-0.2-5.4-0.1-8.2,0.1c-2.8,0.2-5.8,0.5-8.7,0.9c-3,0.5-5.9,1-8.9,1.7c-2.7,0.7-5.7,1.3-8.5,1.7c-2.8,0.5-5.6,0.9-8.3,1.1
		c-1.4,0.1-2.7,0.2-4,0.3c-0.7,0-1.3,0-2,0.1c-0.6,0-1.2,0-1.9,0c-2.5,0-4.9-0.1-7-0.2c-2.2-0.1-4.2-0.3-6-0.4
		c-1.8-0.1-3.3-0.3-4.6-0.4c-2.6-0.3-4-0.4-4-0.4c-0.2,0-0.4,0.1-0.5,0.3c-0.1,0.3,0,0.6,0.3,0.7c0,0,1.4,0.6,3.9,1.3
		c1.3,0.4,2.8,0.8,4.6,1.2c1.8,0.4,3.8,0.8,6.1,1.2c2.2,0.3,4.7,0.6,7.3,0.7c0.7,0,1.3,0.1,2,0.1c0.7,0,1.3,0,2,0
		c1.4,0,2.8-0.1,4.2-0.2c2.8-0.2,5.8-0.4,8.7-0.9c3-0.5,5.9-1,8.9-1.7c2.7-0.7,5.7-1.3,8.5-1.7c2.8-0.5,5.6-0.9,8.3-1.1
		c2.7-0.3,5.3-0.4,7.8-0.4c1.3,0,2.4,0,3.6,0.1c1.2,0,2.3,0.1,3.4,0.1c2.2,0.1,4.2,0.3,6,0.4c1.8,0.1,3.3,0.3,4.6,0.4
		c2.6,0.3,4,0.4,4,0.4c0.2,0,0.4-0.1,0.5-0.3C175.5,155.9,175.4,155.6,175.1,155.5z"/>
	<path d="M167.1,167.5c0,0-1.1-0.6-3.2-1.3c-1-0.4-2.3-0.8-3.8-1.2c-1.5-0.4-3.2-0.8-5-1.2c-1.9-0.3-3.9-0.6-6.1-0.8
		c-2.2-0.2-4.5-0.1-6.9,0.1c-2.4,0.2-4.8,0.5-7.3,0.9c-2.5,0.5-4.9,1-7.4,1.7c-2.2,0.7-4.6,1.2-6.9,1.7c-2.3,0.5-4.6,0.9-6.9,1.1
		c-1.1,0.1-2.2,0.2-3.2,0.3c-0.6,0-1.1,0-1.7,0.1c-0.5,0-1,0-1.5,0c-2,0-4-0.1-5.8-0.2c-1.8-0.1-3.5-0.3-5-0.4
		c-1.5-0.1-2.8-0.3-3.8-0.4c-2.1-0.3-3.4-0.4-3.4-0.4c-0.2,0-0.4,0.1-0.5,0.3c-0.1,0.3,0,0.6,0.2,0.7c0,0,1.1,0.6,3.2,1.3
		c1,0.4,2.3,0.8,3.8,1.2c1.5,0.4,3.2,0.8,5,1.2c1.9,0.3,3.9,0.6,6.1,0.8c0.6,0,1.1,0.1,1.7,0.1c0.5,0,1.1,0,1.7,0
		c1.2,0,2.4-0.1,3.6-0.2c2.4-0.2,4.8-0.5,7.3-0.9c2.5-0.5,4.9-1,7.4-1.7c2.2-0.7,4.6-1.2,6.9-1.7c2.3-0.5,4.6-0.9,6.9-1.1
		c2.2-0.3,4.4-0.4,6.4-0.4c1,0,2,0,3,0.1c1,0,1.9,0.1,2.8,0.1c3.6,0.2,6.7,0.6,8.8,0.9c2.1,0.3,3.4,0.4,3.4,0.4
		c0.2,0,0.4-0.1,0.5-0.3C167.5,167.9,167.4,167.6,167.1,167.5z"/>
	<path d="M116,86c0,0.2,0,0.5,0.1,0.7c0.1,0.5,0.1,1,0.2,1.5c0.2,0.9,0.4,1.7,0.6,2.5c0.5,1.5,1,2.7,1.4,3.5
		c0.2,0.4,0.4,0.7,0.5,0.9c0.1,0.2,0.2,0.3,0.2,0.3c0.2,0.3,0.6,0.6,1,0.5c0.5-0.1,0.9-0.6,0.8-1.2l0-0.1c0,0-0.1-0.5-0.2-1.3
		c-0.1-0.8-0.3-2-0.5-3.4c-0.1-0.7-0.2-1.4-0.2-2.2c0-0.4,0-0.8,0-1.1c0-0.2,0-0.4,0-0.7l0-0.2c0,0,0-0.1,0-0.1l0-0.2
		c0.1-0.6,0.3-1.1,0.7-1.7c0.4-0.6,1-1.2,1.7-2.2c0.3-0.5,0.7-1,1-1.7c0.1-0.3,0.2-0.6,0.3-1c0.1-0.3,0.2-0.7,0.2-1
		c0-0.2,0.1-0.4,0.1-0.5l0-0.4l0-0.4l0-0.1l0,0l0,0l0-0.1l0-0.2c0-0.5-0.1-1-0.2-1.5c-0.3-2-0.7-3.7-1.1-5.1
		c-0.4-1.5-0.9-2.6-1.2-3.5c-0.3-0.8-0.5-1.3-0.5-1.3l0,0c-0.2-0.4-0.6-0.6-1-0.6c-0.6,0.1-0.9,0.6-0.9,1.1c0,0,0.1,0.5,0.2,1.3
		c0.1,0.8,0.2,2.1,0.4,3.5c0.2,1.4,0.3,3.1,0.4,4.8c0,0.4,0,0.9,0,1.3c0,0.1-0.1,1-0.1,1.1c-0.1,0.2-0.2,0.5-0.3,0.8
		c-0.1,0.3-0.3,0.6-0.5,0.9c-0.5,0.6-1.2,1.4-1.9,2.4c-0.7,1.1-1.1,2.5-1.1,3.7l0,0.5c0,0.1,0,0.1,0,0.3L116,86z"/>
	<path d="M124,85.8l0,0.2c0,0.2,0,0.5,0.1,0.7c0.1,0.5,0.1,1,0.2,1.5c0.2,0.9,0.4,1.7,0.6,2.5c0.5,1.5,1,2.7,1.4,3.5
		c0.2,0.4,0.4,0.7,0.5,0.9c0.1,0.2,0.2,0.3,0.2,0.3c0.2,0.3,0.6,0.6,1,0.5c0.5-0.1,0.9-0.6,0.8-1.2l0-0.1c0,0-0.1-0.5-0.2-1.3
		c-0.1-0.8-0.3-2-0.5-3.4c-0.1-0.7-0.2-1.4-0.2-2.2c0-0.4,0-0.8,0-1.1c0-0.2,0-0.4,0-0.7l0-0.2c0,0,0-0.1,0-0.1l0-0.2
		c0.1-0.6,0.3-1.1,0.7-1.7c0.4-0.6,1-1.2,1.7-2.2c0.3-0.5,0.7-1,1-1.7c0.1-0.3,0.2-0.6,0.3-1c0.1-0.3,0.2-0.7,0.2-1
		c0-0.2,0.1-0.4,0.1-0.5l0-0.4l0-0.4l0-0.1l0,0l0,0l0-0.1l0-0.2c0-0.5-0.1-1-0.2-1.5c-0.3-2-0.7-3.7-1.1-5.1
		c-0.4-1.5-0.9-2.6-1.2-3.5c-0.3-0.8-0.5-1.3-0.5-1.3l0,0c-0.2-0.4-0.6-0.6-1-0.6c-0.6,0.1-0.9,0.6-0.9,1.1c0,0,0.1,0.5,0.2,1.3
		c0.1,0.8,0.2,2.1,0.4,3.5c0.2,1.4,0.3,3.1,0.4,4.8c0,0.4,0,0.9,0,1.3c0,0.1-0.1,1-0.1,1.1c-0.1,0.2-0.2,0.5-0.3,0.8
		c-0.1,0.3-0.3,0.6-0.5,0.9c-0.5,0.6-1.2,1.4-1.9,2.4c-0.7,1.1-1.1,2.5-1.1,3.7l0,0.5C124,85.7,124,85.7,124,85.8z"/>
	<path d="M132,85.8l0,0.2c0,0.2,0,0.5,0.1,0.7c0.1,0.5,0.1,1,0.2,1.5c0.2,0.9,0.4,1.7,0.6,2.5c0.5,1.5,1,2.7,1.4,3.5
		c0.2,0.4,0.4,0.7,0.5,0.9c0.1,0.2,0.2,0.3,0.2,0.3c0.2,0.3,0.6,0.6,1,0.5c0.5-0.1,0.9-0.6,0.8-1.2l0-0.1c0,0-0.1-0.5-0.2-1.3
		c-0.1-0.8-0.3-2-0.5-3.4c-0.1-0.7-0.2-1.4-0.2-2.2c0-0.4,0-0.8,0-1.1c0-0.2,0-0.4,0-0.7l0-0.2c0,0,0-0.1,0-0.1l0-0.2
		c0.1-0.6,0.3-1.1,0.7-1.7c0.4-0.6,1-1.2,1.7-2.2c0.3-0.5,0.7-1,1-1.7c0.1-0.3,0.2-0.6,0.3-1c0.1-0.3,0.2-0.7,0.2-1
		c0-0.2,0.1-0.4,0.1-0.5l0-0.4l0-0.4l0-0.1l0,0l0,0l0-0.1l0-0.2c0-0.5-0.1-1-0.2-1.5c-0.3-2-0.7-3.7-1.1-5.1
		c-0.4-1.5-0.9-2.6-1.2-3.5c-0.3-0.8-0.5-1.3-0.5-1.3l0,0c-0.2-0.4-0.6-0.6-1-0.6c-0.6,0.1-0.9,0.6-0.9,1.1c0,0,0.1,0.5,0.2,1.3
		c0.1,0.8,0.2,2.1,0.4,3.5c0.2,1.4,0.3,3.1,0.4,4.8c0,0.4,0,0.9,0,1.3c0,0.1-0.1,1-0.1,1.1c-0.1,0.2-0.2,0.5-0.3,0.8
		c-0.1,0.3-0.3,0.6-0.5,0.9c-0.5,0.6-1.2,1.4-1.9,2.4c-0.7,1.1-1.1,2.5-1.1,3.7l0,0.5C132,85.7,132,85.7,132,85.8z"/>
</g>
</svg>
