<?xml version="1.0" encoding="utf-8"?>
<!-- Generator: Adobe Illustrator 19.2.1, SVG Export Plug-In . SVG Version: 6.00 Build 0)  -->
<svg version="1.1" id="Ebene_1" xmlns="http://www.w3.org/2000/svg" xmlns:xlink="http://www.w3.org/1999/xlink" x="0px" y="0px"
	 viewBox="0 0 256 256" style="enable-background:new 0 0 256 256;" xml:space="preserve">
<style type="text/css">
	.st0{fill:none;stroke:#FF0000;stroke-miterlimit:10;}
	.st1{stroke:url(#SVGID_1_);stroke-miterlimit:10;}
</style>
<g>
	<path d="M176,88h-24v-4h20c2.2,0,4-1.8,4-4V20c0-2.2-1.8-4-4-4H84c-2.2,0-4,1.8-4,4v60c0,2.2,1.8,4,4,4h20v12.5
		c0,1.9,1.6,3.5,3.5,3.5h2.5v0.9c0,1.5-0.9,3-2.3,3.6c-16.9,7.9-28.4,25.3-27.7,45.3c0.9,24.9,21.1,45.2,46.1,46.2
		c0.6,0,1.3,0,1.9,0c26.5,0,48-21.5,48-48c0-19.3-11.3-35.8-27.7-43.5c-1.4-0.7-2.3-2.1-2.3-3.6V100h2.5c1.9,0,3.5-1.6,3.5-3.5V96
		h24c17.6,0,32,14.4,32,32v28c0,32-19.9,59.6-48,70.8v-7.5c0-1.8-1.5-3.3-3.3-3.3H99.3c-1.8,0-3.3,1.5-3.3,3.3v9.5
		c0,1.8,1.5,3.3,3.3,3.3H84c-2.2,0-4,1.8-4,4c0,2.2,1.8,4,4,4h44h4h40c2.2,0,4-1.8,4-4c0-2.2-1.8-4-4-4h-4.2
		c28.5-13.4,48.2-42.4,48.2-76v-28C216,105.9,198.1,88,176,88z M88,24h80v52h-19.5h-41.1H88V24z M144.9,111.8
		c14,6.6,23.1,20.8,23.1,36.2c0,22.1-17.9,40-40,40c-0.5,0-1.1,0-1.6,0c-20.8-0.8-37.6-17.7-38.4-38.5c-0.6-16.1,8.5-30.9,23.1-37.7
		c4.2-2,6.9-6.2,6.9-10.9V100h20v0.9C138,105.5,140.7,109.8,144.9,111.8z"/>
	<path d="M160,60v-5.3c0-2.5-3-4.4-6.3-4l-8.8,1.1c-0.6,0.1-1.2,0.1-1.8,0L127.9,50l-15.1-1.9c-0.6-0.1-1.2-0.1-1.8,0l-10.6,1.3
		c-2.6,0.3-4.4,2-4.4,4V60c0,4.4,4.6,8,10.5,8h42.7C155.1,68,160,64.4,160,60z"/>
	<path d="M112.9,138.1c-0.6-0.1-1.2-0.1-1.8,0l-10.7,1.3c-2.6,0.3-4.5,2-4.5,4v2.6c0,0.2,0,0.4,0,0.6c0,0.9-0.1,1.7,0,2.6
		c0.6,16.6,14.1,30.1,30.7,30.8c0.4,0,0.9,0,1.3,0c0,0,0,0,0,0c8.5,0,16.6-3.3,22.6-9.4c6-6,9.4-14.1,9.4-22.6c0-0.4,0-0.9,0-1.3
		c0-0.2,0-0.5,0-0.7v-1.3c0-2.5-3-4.4-6.2-4l-8.8,1.1c-0.6,0.1-1.2,0.1-1.8,0L128,140L112.9,138.1z"/>
	<path d="M128,128c4.4,0,8-3.6,8-8s-8-12-8-12s-8,7.6-8,12S123.6,128,128,128z"/>
	<path d="M124,210c0,2.2,1.8,4,4,4s4-1.8,4-4c0-4.3-6-8-6-8s1.7,3.5-0.1,5.1C124.9,208.1,124,209.2,124,210z"/>
</g>
</svg>
