<?xml version="1.0" encoding="utf-8"?>
<!-- Generator: Adobe Illustrator 19.2.1, SVG Export Plug-In . SVG Version: 6.00 Build 0)  -->
<svg version="1.1" id="Ebene_1" xmlns="http://www.w3.org/2000/svg" xmlns:xlink="http://www.w3.org/1999/xlink" x="0px" y="0px"
	 viewBox="0 0 256 256" style="enable-background:new 0 0 256 256;" xml:space="preserve">
<style type="text/css">
	.st0{fill:none;stroke:#FF0000;stroke-miterlimit:10;}
	.st1{stroke:url(#SVGID_1_);stroke-miterlimit:10;}
</style>
<g>
	<path d="M204,80h-4H56h-4c-2.2,0-4,1.8-4,4c0,2.2,1.8,4,4,4h4.8l13.8,137.6c0.8,8.2,7.7,14.4,15.9,14.4h83
		c8.2,0,15.1-6.2,15.9-14.4L199.2,88h4.8c2.2,0,4-1.8,4-4C208,81.8,206.2,80,204,80z M177.5,224.8c-0.4,4.1-3.8,7.2-8,7.2h-83
		c-4.1,0-7.5-3.1-8-7.2L64.8,88h126.3L177.5,224.8z"/>
	<path d="M77.7,136l3.4,34h0l5,50.4c0.2,2,1.9,3.6,4,3.6h75.8c2.1,0,3.8-1.6,4-3.6l5.2-52.4l3.2-32l2-19.6c0.2-2.4-1.6-4.4-4-4.4
		H79.7c-2.4,0-4.2,2-4,4.4L77.7,136z M78.2,114.7c0.4-0.4,0.9-0.7,1.5-0.7H176h0.2c0.6,0,1.2,0.2,1.6,0.7c0.4,0.4,0.6,1,0.5,1.5
		l-1.9,19.6l-3.2,32.2H82.9l-3.2-32.2l-2-19.6C77.7,115.6,77.8,115.1,78.2,114.7z"/>
	<path d="M90.1,164h75.7c2.1,0,3.8-1.6,4-3.6l3.8-38c0.2-2.4-1.6-4.4-4-4.4H86.3c-2.4,0-4.2,2-4,4.4l3.8,38
		C86.4,162.4,88.1,164,90.1,164z M153.7,151.1c-0.1,0.1-0.2,0.1-0.3,0.1c0,0-0.8-0.3-2.2-0.6c-1.4-0.4-3.4-0.9-5.7-1.2
		c-1.2-0.2-2.5-0.3-3.8-0.3c-1.4,0-2.8,0.1-4.3,0.3c-1.5,0.2-3,0.6-4.5,1.1c-1.5,0.5-3.1,1-4.5,1.6c-1.6,0.7-3.2,1.3-4.8,1.7
		c-1.6,0.5-3.2,0.8-4.8,1c-0.8,0.1-1.6,0.2-2.4,0.2c-0.4,0-0.7,0-1.1,0c-0.4,0-0.8,0-1.1-0.1c-1.5-0.1-2.8-0.3-4.1-0.6
		c-1.2-0.3-2.3-0.7-3.3-1c-1-0.3-1.8-0.7-2.4-1c-1.3-0.6-2-1.1-2-1.1c-0.1-0.1-0.2-0.2-0.1-0.3c0.1-0.1,0.2-0.1,0.3-0.1
		c0,0,0.8,0.3,2.2,0.6c1.4,0.4,3.4,0.9,5.7,1.2c1.2,0.2,2.5,0.3,3.8,0.3c0.3,0,0.7,0,1,0c0.4,0,0.7,0,1.1-0.1
		c0.7-0.1,1.4-0.1,2.1-0.3c1.5-0.2,3-0.6,4.5-1.1c1.5-0.5,3-1,4.4-1.7c1.6-0.7,3.2-1.2,4.8-1.7c1.6-0.5,3.2-0.8,4.8-1
		c1.6-0.2,3.2-0.3,4.6-0.2c1.5,0.1,2.9,0.3,4.1,0.6c1.2,0.3,2.3,0.7,3.3,1c1,0.3,1.8,0.7,2.4,1c1.3,0.6,2,1.1,2,1.1
		C153.8,150.8,153.8,151,153.7,151.1z M159,141.1c-0.1,0.1-0.2,0.2-0.3,0.1c0,0-0.9-0.3-2.6-0.6c-0.8-0.2-1.8-0.4-3-0.6
		c-1.2-0.2-2.5-0.4-3.9-0.6c-1.4-0.2-3-0.3-4.6-0.3c-1.7,0-3.4,0.1-5.2,0.3c-1.8,0.2-3.6,0.6-5.5,1.1c-1.8,0.5-3.7,1-5.5,1.7
		c-1.9,0.7-3.8,1.3-5.8,1.7c-1.9,0.5-3.8,0.8-5.7,1c-0.9,0.1-1.9,0.2-2.8,0.2c-0.4,0-0.9,0-1.3,0c-0.5,0-0.9,0-1.3-0.1
		c-1.7-0.1-3.4-0.3-4.8-0.6c-1.5-0.3-2.8-0.7-4-1c-1.2-0.3-2.2-0.7-3-1c-1.6-0.6-2.5-1.1-2.5-1.1c-0.1-0.1-0.2-0.2-0.1-0.3
		c0.1-0.1,0.2-0.2,0.3-0.1c0,0,0.9,0.3,2.6,0.7c0.8,0.2,1.8,0.4,3,0.6c1.2,0.2,2.5,0.4,3.9,0.6c1.4,0.2,3,0.3,4.6,0.3
		c0.4,0,0.8,0,1.2,0c0.4,0,0.9,0,1.3,0c0.8-0.1,1.7-0.1,2.6-0.3c1.8-0.2,3.6-0.6,5.5-1.1c1.8-0.5,3.7-1,5.5-1.7
		c1.9-0.7,3.8-1.2,5.8-1.7c1.9-0.5,3.8-0.8,5.7-1c1.9-0.2,3.7-0.3,5.5-0.2c1.8,0.1,3.4,0.3,4.9,0.6c1.5,0.3,2.8,0.7,4,1
		c1.2,0.3,2.2,0.7,3,1c1.6,0.6,2.5,1.1,2.5,1.1C159,140.8,159,141,159,141.1z M91.8,130.9c0-0.1,0.2-0.2,0.3-0.1
		c0,0,1.1,0.3,3.1,0.7c1,0.2,2.2,0.4,3.5,0.6c1.4,0.2,2.9,0.4,4.6,0.6c1.7,0.2,3.5,0.3,5.4,0.3c0.5,0,1,0,1.4,0c0.5,0,1,0,1.5,0
		c1-0.1,2-0.1,3.1-0.3c2.1-0.2,4.2-0.6,6.4-1.1c2.2-0.5,4.4-1,6.5-1.7c2.3-0.7,4.5-1.2,6.7-1.7c2.2-0.5,4.5-0.8,6.7-1
		c2.2-0.2,4.3-0.3,6.3-0.2c2,0.1,3.9,0.3,5.6,0.6c1.7,0.3,3.3,0.7,4.6,1c1.4,0.3,2.5,0.7,3.5,1c1.9,0.6,3,1.1,3,1.1
		c0.1,0.1,0.2,0.2,0.1,0.3c0,0.1-0.2,0.2-0.3,0.1c0,0-1.1-0.3-3.1-0.6c-2-0.4-4.8-0.9-8.1-1.2c-1.7-0.2-3.5-0.3-5.4-0.3
		c-1.9,0-4,0.1-6,0.3c-2.1,0.2-4.2,0.6-6.4,1.1c-2.2,0.5-4.4,1-6.5,1.7c-2.3,0.7-4.5,1.3-6.7,1.7c-2.2,0.5-4.5,0.8-6.7,1
		c-1.1,0.1-2.2,0.2-3.2,0.2c-0.5,0-1,0-1.5,0c-0.5,0-1,0-1.5-0.1c-2-0.1-3.9-0.3-5.6-0.6c-1.7-0.3-3.3-0.7-4.6-1
		c-1.4-0.3-2.5-0.7-3.5-1c-1.9-0.6-3-1.1-3-1.1C91.8,131.2,91.7,131,91.8,130.9z"/>
	<path d="M116,62c0,0.2,0,0.5,0.1,0.7c0.1,0.5,0.1,1,0.2,1.5c0.2,0.9,0.4,1.7,0.6,2.5c0.5,1.5,1,2.7,1.4,3.5
		c0.2,0.4,0.4,0.7,0.5,0.9c0.1,0.2,0.2,0.3,0.2,0.3c0.2,0.3,0.6,0.6,1,0.5c0.5-0.1,0.9-0.6,0.8-1.2l0-0.1c0,0-0.1-0.5-0.2-1.3
		c-0.1-0.8-0.3-2-0.5-3.4c-0.1-0.7-0.2-1.4-0.2-2.2c0-0.4,0-0.8,0-1.1c0-0.2,0-0.4,0-0.7l0-0.2c0,0,0-0.1,0-0.1l0-0.2
		c0.1-0.6,0.3-1.1,0.7-1.7c0.4-0.6,1-1.2,1.7-2.2c0.3-0.5,0.7-1,1-1.7c0.1-0.3,0.2-0.6,0.3-1c0.1-0.3,0.2-0.7,0.2-1
		c0-0.2,0.1-0.4,0.1-0.5l0-0.4l0-0.4l0-0.1l0,0l0,0l0-0.1l0-0.2c0-0.5-0.1-1-0.2-1.5c-0.3-2-0.7-3.7-1.1-5.1
		c-0.4-1.5-0.9-2.6-1.2-3.5c-0.3-0.8-0.5-1.3-0.5-1.3l0,0c-0.2-0.4-0.6-0.6-1-0.6c-0.6,0.1-0.9,0.6-0.9,1.1c0,0,0.1,0.5,0.2,1.3
		c0.1,0.8,0.2,2.1,0.4,3.5c0.2,1.4,0.3,3.1,0.4,4.8c0,0.4,0,0.9,0,1.3c0,0.1-0.1,1-0.1,1.1c-0.1,0.2-0.2,0.5-0.3,0.8
		c-0.1,0.3-0.3,0.6-0.5,0.9c-0.5,0.6-1.2,1.4-1.9,2.4c-0.7,1.1-1.1,2.5-1.1,3.7l0,0.5c0,0.1,0,0.1,0,0.3L116,62z"/>
	<path d="M124,61.8l0,0.2c0,0.2,0,0.5,0.1,0.7c0.1,0.5,0.1,1,0.2,1.5c0.2,0.9,0.4,1.7,0.6,2.5c0.5,1.5,1,2.7,1.4,3.5
		c0.2,0.4,0.4,0.7,0.5,0.9c0.1,0.2,0.2,0.3,0.2,0.3c0.2,0.3,0.6,0.6,1,0.5c0.5-0.1,0.9-0.6,0.8-1.2l0-0.1c0,0-0.1-0.5-0.2-1.3
		c-0.1-0.8-0.3-2-0.5-3.4c-0.1-0.7-0.2-1.4-0.2-2.2c0-0.4,0-0.8,0-1.1c0-0.2,0-0.4,0-0.7l0-0.2c0,0,0-0.1,0-0.1l0-0.2
		c0.1-0.6,0.3-1.1,0.7-1.7c0.4-0.6,1-1.2,1.7-2.2c0.3-0.5,0.7-1,1-1.7c0.1-0.3,0.2-0.6,0.3-1c0.1-0.3,0.2-0.7,0.2-1
		c0-0.2,0.1-0.4,0.1-0.5l0-0.4l0-0.4l0-0.1l0,0l0,0l0-0.1l0-0.2c0-0.5-0.1-1-0.2-1.5c-0.3-2-0.7-3.7-1.1-5.1
		c-0.4-1.5-0.9-2.6-1.2-3.5c-0.3-0.8-0.5-1.3-0.5-1.3l0,0c-0.2-0.4-0.6-0.6-1-0.6c-0.6,0.1-0.9,0.6-0.9,1.1c0,0,0.1,0.5,0.2,1.3
		c0.1,0.8,0.2,2.1,0.4,3.5c0.2,1.4,0.3,3.1,0.4,4.8c0,0.4,0,0.9,0,1.3c0,0.1-0.1,1-0.1,1.1c-0.1,0.2-0.2,0.5-0.3,0.8
		c-0.1,0.3-0.3,0.6-0.5,0.9c-0.5,0.6-1.2,1.4-1.9,2.4c-0.7,1.1-1.1,2.5-1.1,3.7l0,0.5C124,61.7,124,61.7,124,61.8z"/>
	<path d="M132,61.8l0,0.2c0,0.2,0,0.5,0.1,0.7c0.1,0.5,0.1,1,0.2,1.5c0.2,0.9,0.4,1.7,0.6,2.5c0.5,1.5,1,2.7,1.4,3.5
		c0.2,0.4,0.4,0.7,0.5,0.9c0.1,0.2,0.2,0.3,0.2,0.3c0.2,0.3,0.6,0.6,1,0.5c0.5-0.1,0.9-0.6,0.8-1.2l0-0.1c0,0-0.1-0.5-0.2-1.3
		c-0.1-0.8-0.3-2-0.5-3.4c-0.1-0.7-0.2-1.4-0.2-2.2c0-0.4,0-0.8,0-1.1c0-0.2,0-0.4,0-0.7l0-0.2c0,0,0-0.1,0-0.1l0-0.2
		c0.1-0.6,0.3-1.1,0.7-1.7c0.4-0.6,1-1.2,1.7-2.2c0.3-0.5,0.7-1,1-1.7c0.1-0.3,0.2-0.6,0.3-1c0.1-0.3,0.2-0.7,0.2-1
		c0-0.2,0.1-0.4,0.1-0.5l0-0.4l0-0.4l0-0.1l0,0l0,0l0-0.1l0-0.2c0-0.5-0.1-1-0.2-1.5c-0.3-2-0.7-3.7-1.1-5.1
		c-0.4-1.5-0.9-2.6-1.2-3.5c-0.3-0.8-0.5-1.3-0.5-1.3l0,0c-0.2-0.4-0.6-0.6-1-0.6c-0.6,0.1-0.9,0.6-0.9,1.1c0,0,0.1,0.5,0.2,1.3
		c0.1,0.8,0.2,2.1,0.4,3.5c0.2,1.4,0.3,3.1,0.4,4.8c0,0.4,0,0.9,0,1.3c0,0.1-0.1,1-0.1,1.1c-0.1,0.2-0.2,0.5-0.3,0.8
		c-0.1,0.3-0.3,0.6-0.5,0.9c-0.5,0.6-1.2,1.4-1.9,2.4c-0.7,1.1-1.1,2.5-1.1,3.7l0,0.5C132,61.7,132,61.7,132,61.8z"/>
</g>
</svg>
