<?xml version="1.0" encoding="utf-8"?>
<!-- Generator: Adobe Illustrator 19.2.1, SVG Export Plug-In . SVG Version: 6.00 Build 0)  -->
<svg version="1.1" id="Ebene_1" xmlns="http://www.w3.org/2000/svg" xmlns:xlink="http://www.w3.org/1999/xlink" x="0px" y="0px"
	 viewBox="0 0 256 256" style="enable-background:new 0 0 256 256;" xml:space="preserve">
<style type="text/css">
	.st0{fill:none;stroke:#FF0000;stroke-miterlimit:10;}
	.st1{stroke:url(#SVGID_1_);stroke-miterlimit:10;}
</style>
<g>
	<path d="M224,120h-8.8c0.2-2.8,0.4-5.4,0.5-7.6c0.3-4.6-3.4-8.4-8-8.4H48.3c-4.6,0-8.2,3.9-8,8.4C42,142.1,53.1,240,128,240
		c42.4,0,64.4-31.4,75.7-64H216c0,0,0,0,0,0c0.4,0,12.1-0.1,16-8c3.9-8.1,8-24.1,8-32S231.8,120,224,120z M167.9,218.1
		c-11.1,9.2-24.5,13.9-39.9,13.9s-28.8-4.7-39.9-13.9c-9.5-7.9-17.6-19.4-24-34c-11.7-26.6-14.9-56.6-15.7-72.1h159.4l0,0
		c-0.9,15.5-4.1,45.6-15.7,72.2C185.6,198.7,177.5,210.2,167.9,218.1z M224.8,164.5c-1.3,2.6-6.6,3.5-8.8,3.5c0,0,0,0,0,0h-6.9
		l9.3-40h5.6c3.4,0,8,4.6,8,8C232,142.6,228.2,157.5,224.8,164.5z"/>
	<path d="M120.7,183.9c0.1,0,0.2,0.1,0.3,0.1c0.4,0,0.8-0.2,0.9-0.7l14-38c0.2-0.5-0.1-1.1-0.6-1.3c-0.5-0.2-1.1,0.1-1.3,0.6l-14,38
		C119.9,183.2,120.1,183.7,120.7,183.9z"/>
	<path d="M125.7,183.9c0.1,0,0.2,0.1,0.3,0.1c0.4,0,0.8-0.2,0.9-0.7l14-38c0.2-0.5-0.1-1.1-0.6-1.3c-0.5-0.2-1.1,0.1-1.3,0.6l-14,38
		C124.9,183.2,125.1,183.7,125.7,183.9z"/>
	<path d="M130.7,183.9c0.1,0,0.2,0.1,0.3,0.1c0.4,0,0.8-0.2,0.9-0.7l14-38c0.2-0.5-0.1-1.1-0.6-1.3c-0.5-0.2-1.1,0.1-1.3,0.6l-14,38
		C129.9,183.2,130.1,183.7,130.7,183.9z"/>
	<path d="M135.7,183.9c0.1,0,0.2,0.1,0.3,0.1c0.4,0,0.8-0.2,0.9-0.7l14-38c0.2-0.5-0.1-1.1-0.6-1.3c-0.5-0.2-1.1,0.1-1.3,0.6l-14,38
		C134.9,183.2,135.1,183.7,135.7,183.9z"/>
	<path d="M140.7,183.9c0.1,0,0.2,0.1,0.3,0.1c0.4,0,0.8-0.2,0.9-0.7l14-38c0.2-0.5-0.1-1.1-0.6-1.3c-0.5-0.2-1.1,0.1-1.3,0.6l-14,38
		C139.9,183.2,140.1,183.7,140.7,183.9z"/>
	<path d="M145.7,183.9c0.1,0,0.2,0.1,0.3,0.1c0.4,0,0.8-0.2,0.9-0.7l14-38c0.2-0.5-0.1-1.1-0.6-1.3c-0.5-0.2-1.1,0.1-1.3,0.6l-14,38
		C144.9,183.2,145.1,183.7,145.7,183.9z"/>
	<path d="M90.7,183.9c0.1,0,0.2,0.1,0.3,0.1c0.4,0,0.8-0.2,0.9-0.7l14-38c0.2-0.5-0.1-1.1-0.6-1.3c-0.5-0.2-1.1,0.1-1.3,0.6l-14,38
		C89.9,183.2,90.1,183.7,90.7,183.9z"/>
	<path d="M95.7,183.9c0.1,0,0.2,0.1,0.3,0.1c0.4,0,0.8-0.2,0.9-0.7l14-38c0.2-0.5-0.1-1.1-0.6-1.3c-0.5-0.2-1.1,0.1-1.3,0.6l-14,38
		C94.9,183.2,95.1,183.7,95.7,183.9z"/>
	<path d="M100.7,183.9c0.1,0,0.2,0.1,0.3,0.1c0.4,0,0.8-0.2,0.9-0.7l14-38c0.2-0.5-0.1-1.1-0.6-1.3c-0.5-0.2-1.1,0.1-1.3,0.6l-14,38
		C99.9,183.2,100.1,183.7,100.7,183.9z"/>
	<path d="M105.7,183.9c0.1,0,0.2,0.1,0.3,0.1c0.4,0,0.8-0.2,0.9-0.7l14-38c0.2-0.5-0.1-1.1-0.6-1.3c-0.5-0.2-1.1,0.1-1.3,0.6l-14,38
		C104.9,183.2,105.1,183.7,105.7,183.9z"/>
	<path d="M110.7,183.9c0.1,0,0.2,0.1,0.3,0.1c0.4,0,0.8-0.2,0.9-0.7l14-38c0.2-0.5-0.1-1.1-0.6-1.3c-0.5-0.2-1.1,0.1-1.3,0.6l-14,38
		C109.9,183.2,110.1,183.7,110.7,183.9z"/>
	<path d="M115.7,183.9c0.1,0,0.2,0.1,0.3,0.1c0.4,0,0.8-0.2,0.9-0.7l14-38c0.2-0.5-0.1-1.1-0.6-1.3c-0.5-0.2-1.1,0.1-1.3,0.6l-14,38
		C114.9,183.2,115.1,183.7,115.7,183.9z"/>
	<path d="M71.6,157.2l4.4-11.9c0.2-0.5-0.1-1.1-0.6-1.3c-0.5-0.2-1.1,0.1-1.3,0.6l-3.4,9.2C71,155,71.3,156.1,71.6,157.2z"/>
	<path d="M69.5,149.1l1.4-3.8c0.2-0.5-0.1-1.1-0.6-1.3c-0.5-0.2-1.1,0.1-1.3,0.6l-0.3,0.8C69,146.7,69.3,147.9,69.5,149.1z"/>
	<path d="M73.8,164.7l7.1-19.4c0.2-0.5-0.1-1.1-0.6-1.3c-0.5-0.2-1.1,0.1-1.3,0.6l-6.2,17C73.1,162.7,73.5,163.7,73.8,164.7z"/>
	<path d="M76.2,171.7l9.7-26.3c0.2-0.5-0.1-1.1-0.6-1.3c-0.5-0.2-1.1,0.1-1.3,0.6l-8.9,24.1C75.5,169.8,75.9,170.7,76.2,171.7z"/>
	<path d="M78.7,177.7c0.1,0.1,0.1,0.3,0.2,0.4l12.1-32.8c0.2-0.5-0.1-1.1-0.6-1.3c-0.5-0.2-1.1,0.1-1.3,0.6l-11.3,30.8
		C78,176.2,78.4,177,78.7,177.7z"/>
	<path d="M81.6,183.8c0.2-0.1,0.3-0.3,0.4-0.5l14-38c0.2-0.5-0.1-1.1-0.6-1.3c-0.5-0.2-1.1,0.1-1.3,0.6l-13.6,36.9
		C80.8,182.3,81.2,183.1,81.6,183.8z"/>
	<path d="M85.7,183.9c0.1,0,0.2,0.1,0.3,0.1c0.4,0,0.8-0.2,0.9-0.7l14-38c0.2-0.5-0.1-1.1-0.6-1.3c-0.5-0.2-1.1,0.1-1.3,0.6l-14,38
		C84.9,183.2,85.1,183.7,85.7,183.9z"/>
	<path d="M150.7,183.9c0.1,0,0.2,0.1,0.3,0.1c0.4,0,0.8-0.2,0.9-0.7l14-38c0.2-0.5-0.1-1.1-0.6-1.3c-0.5-0.2-1.1,0.1-1.3,0.6l-14,38
		C149.9,183.2,150.1,183.7,150.7,183.9z"/>
	<path d="M155.7,183.9c0.1,0,0.2,0.1,0.3,0.1c0.4,0,0.8-0.2,0.9-0.7l14-38c0.2-0.5-0.1-1.1-0.6-1.3c-0.5-0.2-1.1,0.1-1.3,0.6l-14,38
		C154.9,183.2,155.1,183.7,155.7,183.9z"/>
	<path d="M160.7,183.9c0.1,0,0.2,0.1,0.3,0.1c0.4,0,0.8-0.2,0.9-0.7l14-38c0.2-0.5-0.1-1.1-0.6-1.3c-0.5-0.2-1.1,0.1-1.3,0.6l-14,38
		C159.9,183.2,160.1,183.7,160.7,183.9z"/>
	<path d="M165.7,183.9c0.1,0,0.2,0.1,0.3,0.1c0.4,0,0.8-0.2,0.9-0.7l14-38c0.2-0.5-0.1-1.1-0.6-1.3c-0.5-0.2-1.1,0.1-1.3,0.6l-14,38
		C164.9,183.2,165.1,183.7,165.7,183.9z"/>
	<path d="M170.7,183.9c0.1,0,0.2,0.1,0.3,0.1c0.4,0,0.8-0.2,0.9-0.7l14-38c0.2-0.5-0.1-1.1-0.6-1.3c-0.5-0.2-1.1,0.1-1.3,0.6l-14,38
		C169.9,183.2,170.1,183.7,170.7,183.9z"/>
	<path d="M194.7,120H61.3c-2.4,0-4.2,2.1-4,4.4c0.4,3.5,0.9,7.4,1.6,11.6h0c0.1,0.6,0.2,1.2,0.3,1.8c0,0.1,0,0.2,0,0.2h0
		c2.2,13.2,5.9,28.7,12.1,42.9c1.7,4,3.6,7.7,5.6,11.1c12.4,21.5,29.2,32,51.1,32s38.7-10.5,51.1-32c2-3.4,3.8-7.1,5.6-11.1
		c6.2-14.2,9.9-29.7,12.1-42.9h0c0-0.1,0-0.2,0-0.2c0.1-0.6,0.2-1.2,0.3-1.8h0c0.7-4.2,1.2-8.1,1.6-11.6
		C198.9,122.1,197,120,194.7,120z M182.9,180.1c-1.5,3.5-3.2,6.8-5,9.9H78.1c-1.7-3.1-3.4-6.4-4.9-9.9c-5.2-11.9-9.2-26.1-11.9-42.1
		h133.6C192.2,154,188.1,168.2,182.9,180.1z M184,136h-16h-16h-16h-16h-16H88H72H60.9c-0.6-3.9-1.2-7.9-1.6-11.8
		c-0.1-0.6,0.1-1.1,0.5-1.5c0.4-0.4,0.9-0.7,1.5-0.7H64h8h8h8h8h8h8h8h8h8h8h8h8h8h8h8h8h2.8c0.6,0,1,0.2,1.4,0.7
		c0.4,0.4,0.5,1,0.5,1.5c-0.4,3.9-1,7.9-1.6,11.8H184z"/>
	<path d="M60,126c0,2.2,1.8,4,4,4s4-1.8,4-4s-1.8-4-4-4S60,123.8,60,126z M64,124c1.1,0,2,0.9,2,2s-0.9,2-2,2s-2-0.9-2-2
		S62.9,124,64,124z"/>
	<path d="M76,126c0,2.2,1.8,4,4,4s4-1.8,4-4s-1.8-4-4-4S76,123.8,76,126z M80,124c1.1,0,2,0.9,2,2s-0.9,2-2,2s-2-0.9-2-2
		S78.9,124,80,124z"/>
	<circle cx="72" cy="124" r="2"/>
	<circle cx="88" cy="124" r="2"/>
	<circle cx="104" cy="124" r="2"/>
	<circle cx="120" cy="124" r="2"/>
	<circle cx="136" cy="124" r="2"/>
	<circle cx="152" cy="124" r="2"/>
	<circle cx="168" cy="124" r="2"/>
	<circle cx="184" cy="124" r="2"/>
	<circle cx="176" cy="133" r="2"/>
	<circle cx="192" cy="133" r="2"/>
	<circle cx="144" cy="133" r="2"/>
	<circle cx="160" cy="133" r="2"/>
	<circle cx="112" cy="133" r="2"/>
	<circle cx="128" cy="133" r="2"/>
	<circle cx="80" cy="133" r="2"/>
	<circle cx="64" cy="133" r="2"/>
	<circle cx="96" cy="133" r="2"/>
	<path d="M92,126c0,2.2,1.8,4,4,4s4-1.8,4-4s-1.8-4-4-4S92,123.8,92,126z M96,124c1.1,0,2,0.9,2,2s-0.9,2-2,2s-2-0.9-2-2
		S94.9,124,96,124z"/>
	<path d="M108,126c0,2.2,1.8,4,4,4s4-1.8,4-4s-1.8-4-4-4S108,123.8,108,126z M112,124c1.1,0,2,0.9,2,2s-0.9,2-2,2s-2-0.9-2-2
		S110.9,124,112,124z"/>
	<path d="M124,126c0,2.2,1.8,4,4,4s4-1.8,4-4s-1.8-4-4-4S124,123.8,124,126z M128,124c1.1,0,2,0.9,2,2s-0.9,2-2,2s-2-0.9-2-2
		S126.9,124,128,124z"/>
	<path d="M140,126c0,2.2,1.8,4,4,4s4-1.8,4-4s-1.8-4-4-4S140,123.8,140,126z M144,124c1.1,0,2,0.9,2,2s-0.9,2-2,2s-2-0.9-2-2
		S142.9,124,144,124z"/>
	<path d="M156,126c0,2.2,1.8,4,4,4c2.2,0,4-1.8,4-4s-1.8-4-4-4C157.8,122,156,123.8,156,126z M160,124c1.1,0,2,0.9,2,2s-0.9,2-2,2
		s-2-0.9-2-2S158.9,124,160,124z"/>
	<path d="M172,126c0,2.2,1.8,4,4,4s4-1.8,4-4s-1.8-4-4-4S172,123.8,172,126z M176,124c1.1,0,2,0.9,2,2s-0.9,2-2,2s-2-0.9-2-2
		S174.9,124,176,124z"/>
	<path d="M76,132c0-2.2-1.8-4-4-4s-4,1.8-4,4s1.8,4,4,4S76,134.2,76,132z M72,134c-1.1,0-2-0.9-2-2s0.9-2,2-2s2,0.9,2,2
		S73.1,134,72,134z"/>
	<path d="M92,132c0-2.2-1.8-4-4-4s-4,1.8-4,4s1.8,4,4,4S92,134.2,92,132z M88,134c-1.1,0-2-0.9-2-2s0.9-2,2-2s2,0.9,2,2
		S89.1,134,88,134z"/>
	<path d="M108,132c0-2.2-1.8-4-4-4s-4,1.8-4,4s1.8,4,4,4S108,134.2,108,132z M104,134c-1.1,0-2-0.9-2-2s0.9-2,2-2s2,0.9,2,2
		S105.1,134,104,134z"/>
	<path d="M124,132c0-2.2-1.8-4-4-4s-4,1.8-4,4s1.8,4,4,4S124,134.2,124,132z M120,134c-1.1,0-2-0.9-2-2s0.9-2,2-2s2,0.9,2,2
		S121.1,134,120,134z"/>
	<path d="M140,132c0-2.2-1.8-4-4-4s-4,1.8-4,4s1.8,4,4,4S140,134.2,140,132z M136,134c-1.1,0-2-0.9-2-2s0.9-2,2-2s2,0.9,2,2
		S137.1,134,136,134z"/>
	<path d="M156,132c0-2.2-1.8-4-4-4s-4,1.8-4,4s1.8,4,4,4S156,134.2,156,132z M152,134c-1.1,0-2-0.9-2-2s0.9-2,2-2s2,0.9,2,2
		S153.1,134,152,134z"/>
	<path d="M172,132c0-2.2-1.8-4-4-4s-4,1.8-4,4s1.8,4,4,4S172,134.2,172,132z M168,134c-1.1,0-2-0.9-2-2s0.9-2,2-2s2,0.9,2,2
		S169.1,134,168,134z"/>
	<path d="M188,132c0-2.2-1.8-4-4-4s-4,1.8-4,4s1.8,4,4,4S188,134.2,188,132z M184,134c-1.1,0-2-0.9-2-2s0.9-2,2-2s2,0.9,2,2
		S185.1,134,184,134z"/>
	<path d="M188,126c0,2.2,1.8,4,4,4s4-1.8,4-4s-1.8-4-4-4S188,123.8,188,126z M192,124c1.1,0,2,0.9,2,2s-0.9,2-2,2s-2-0.9-2-2
		S190.9,124,192,124z"/>
	<path d="M116,86c0,0.2,0,0.5,0.1,0.7c0.1,0.5,0.1,1,0.2,1.5c0.2,0.9,0.4,1.7,0.6,2.5c0.5,1.5,1,2.7,1.4,3.5
		c0.2,0.4,0.4,0.7,0.5,0.9c0.1,0.2,0.2,0.3,0.2,0.3c0.2,0.3,0.6,0.6,1,0.5c0.5-0.1,0.9-0.6,0.8-1.2l0-0.1c0,0-0.1-0.5-0.2-1.3
		c-0.1-0.8-0.3-2-0.5-3.4c-0.1-0.7-0.2-1.4-0.2-2.2c0-0.4,0-0.8,0-1.1c0-0.2,0-0.4,0-0.7l0-0.2c0,0,0-0.1,0-0.1l0-0.2
		c0.1-0.6,0.3-1.1,0.7-1.7c0.4-0.6,1-1.2,1.7-2.2c0.3-0.5,0.7-1,1-1.7c0.1-0.3,0.2-0.6,0.3-1c0.1-0.3,0.2-0.7,0.2-1
		c0-0.2,0.1-0.4,0.1-0.5l0-0.4l0-0.4l0-0.1l0,0l0,0l0-0.1l0-0.2c0-0.5-0.1-1-0.2-1.5c-0.3-2-0.7-3.7-1.1-5.1
		c-0.4-1.5-0.9-2.6-1.2-3.5c-0.3-0.8-0.5-1.3-0.5-1.3l0,0c-0.2-0.4-0.6-0.6-1-0.6c-0.6,0.1-0.9,0.6-0.9,1.1c0,0,0.1,0.5,0.2,1.3
		c0.1,0.8,0.2,2.1,0.4,3.5c0.2,1.4,0.3,3.1,0.4,4.8c0,0.4,0,0.9,0,1.3c0,0.1-0.1,1-0.1,1.1c-0.1,0.2-0.2,0.5-0.3,0.8
		c-0.1,0.3-0.3,0.6-0.5,0.9c-0.5,0.6-1.2,1.4-1.9,2.4c-0.7,1.1-1.1,2.5-1.1,3.7l0,0.5c0,0.1,0,0.1,0,0.3L116,86z"/>
	<path d="M124,85.8l0,0.2c0,0.2,0,0.5,0.1,0.7c0.1,0.5,0.1,1,0.2,1.5c0.2,0.9,0.4,1.7,0.6,2.5c0.5,1.5,1,2.7,1.4,3.5
		c0.2,0.4,0.4,0.7,0.5,0.9c0.1,0.2,0.2,0.3,0.2,0.3c0.2,0.3,0.6,0.6,1,0.5c0.5-0.1,0.9-0.6,0.8-1.2l0-0.1c0,0-0.1-0.5-0.2-1.3
		c-0.1-0.8-0.3-2-0.5-3.4c-0.1-0.7-0.2-1.4-0.2-2.2c0-0.4,0-0.8,0-1.1c0-0.2,0-0.4,0-0.7l0-0.2c0,0,0-0.1,0-0.1l0-0.2
		c0.1-0.6,0.3-1.1,0.7-1.7c0.4-0.6,1-1.2,1.7-2.2c0.3-0.5,0.7-1,1-1.7c0.1-0.3,0.2-0.6,0.3-1c0.1-0.3,0.2-0.7,0.2-1
		c0-0.2,0.1-0.4,0.1-0.5l0-0.4l0-0.4l0-0.1l0,0l0,0l0-0.1l0-0.2c0-0.5-0.1-1-0.2-1.5c-0.3-2-0.7-3.7-1.1-5.1
		c-0.4-1.5-0.9-2.6-1.2-3.5c-0.3-0.8-0.5-1.3-0.5-1.3l0,0c-0.2-0.4-0.6-0.6-1-0.6c-0.6,0.1-0.9,0.6-0.9,1.1c0,0,0.1,0.5,0.2,1.3
		c0.1,0.8,0.2,2.1,0.4,3.5c0.2,1.4,0.3,3.1,0.4,4.8c0,0.4,0,0.9,0,1.3c0,0.1-0.1,1-0.1,1.1c-0.1,0.2-0.2,0.5-0.3,0.8
		c-0.1,0.3-0.3,0.6-0.5,0.9c-0.5,0.6-1.2,1.4-1.9,2.4c-0.7,1.1-1.1,2.5-1.1,3.7l0,0.5C124,85.7,124,85.7,124,85.8z"/>
	<path d="M132,85.8l0,0.2c0,0.2,0,0.5,0.1,0.7c0.1,0.5,0.1,1,0.2,1.5c0.2,0.9,0.4,1.7,0.6,2.5c0.5,1.5,1,2.7,1.4,3.5
		c0.2,0.4,0.4,0.7,0.5,0.9c0.1,0.2,0.2,0.3,0.2,0.3c0.2,0.3,0.6,0.6,1,0.5c0.5-0.1,0.9-0.6,0.8-1.2l0-0.1c0,0-0.1-0.5-0.2-1.3
		c-0.1-0.8-0.3-2-0.5-3.4c-0.1-0.7-0.2-1.4-0.2-2.2c0-0.4,0-0.8,0-1.1c0-0.2,0-0.4,0-0.7l0-0.2c0,0,0-0.1,0-0.1l0-0.2
		c0.1-0.6,0.3-1.1,0.7-1.7c0.4-0.6,1-1.2,1.7-2.2c0.3-0.5,0.7-1,1-1.7c0.1-0.3,0.2-0.6,0.3-1c0.1-0.3,0.2-0.7,0.2-1
		c0-0.2,0.1-0.4,0.1-0.5l0-0.4l0-0.4l0-0.1l0,0l0,0l0-0.1l0-0.2c0-0.5-0.1-1-0.2-1.5c-0.3-2-0.7-3.7-1.1-5.1
		c-0.4-1.5-0.9-2.6-1.2-3.5c-0.3-0.8-0.5-1.3-0.5-1.3l0,0c-0.2-0.4-0.6-0.6-1-0.6c-0.6,0.1-0.9,0.6-0.9,1.1c0,0,0.1,0.5,0.2,1.3
		c0.1,0.8,0.2,2.1,0.4,3.5c0.2,1.4,0.3,3.1,0.4,4.8c0,0.4,0,0.9,0,1.3c0,0.1-0.1,1-0.1,1.1c-0.1,0.2-0.2,0.5-0.3,0.8
		c-0.1,0.3-0.3,0.6-0.5,0.9c-0.5,0.6-1.2,1.4-1.9,2.4c-0.7,1.1-1.1,2.5-1.1,3.7l0,0.5C132,85.7,132,85.7,132,85.8z"/>
</g>
</svg>
