<?xml version="1.0" encoding="utf-8"?>
<!-- Generator: Adobe Illustrator 19.2.1, SVG Export Plug-In . SVG Version: 6.00 Build 0)  -->
<svg version="1.1" id="Ebene_1" xmlns="http://www.w3.org/2000/svg" xmlns:xlink="http://www.w3.org/1999/xlink" x="0px" y="0px"
	 viewBox="0 0 256 256" style="enable-background:new 0 0 256 256;" xml:space="preserve">
<style type="text/css">
	.st0{fill:none;stroke:#FF0000;stroke-miterlimit:10;}
	.st1{stroke:url(#SVGID_1_);stroke-miterlimit:10;}
</style>
<g>
	<path d="M200,70.6c0.1-1-0.1-2-0.7-2.9l-15-21c-0.1-0.1-0.2-0.2-0.3-0.3V34c0-8.8-7.2-16-16-16h-50c-8.8,0-16,7.2-16,16v12.9
		c-0.2,0.2-0.4,0.5-0.6,0.8L80.6,80.9c-0.5,0.8-0.7,1.7-0.6,2.6c0,0.2-0.1,0.3-0.1,0.5v152c0,2.2,1.8,4,4,4h88
		c0.8,0,1.5-0.2,2.1-0.6l0,0l23.8-14.2c1.2-0.7,2-2,2-3.5V71C200,70.9,200,70.7,200,70.6z M183,58.7l7.5,10.5L178.4,75L183,58.7z
		 M110,34c0-4.4,3.6-8,8-8h50c4.4,0,8,3.6,8,8v10h-66V34z M168,232H88V88h80V232z M168.7,80H90.6l17.6-28h68.4c0,0,0,0.1,0,0.1
		L168.7,80z M192,219.4l-16,9.5V85l16-7.6V219.4z"/>
	<path d="M179,223.5c0.1,0,0.2,0,0.3-0.1l10-6c0.2-0.1,0.3-0.4,0.2-0.7c-0.1-0.2-0.4-0.3-0.7-0.2l-10,6c-0.2,0.1-0.3,0.4-0.2,0.7
		C178.7,223.4,178.8,223.5,179,223.5z"/>
	<path d="M179,220.5c0.1,0,0.2,0,0.3-0.1l10-6c0.2-0.1,0.3-0.4,0.2-0.7c-0.1-0.2-0.4-0.3-0.7-0.2l-10,6c-0.2,0.1-0.3,0.4-0.2,0.7
		C178.7,220.4,178.8,220.5,179,220.5z"/>
	<path d="M179,218c0.1,0,0.2,0,0.3-0.1l10-6c0.2-0.1,0.3-0.4,0.2-0.7c-0.1-0.2-0.4-0.3-0.7-0.2l-10,6c-0.2,0.1-0.3,0.4-0.2,0.7
		C178.7,217.9,178.8,218,179,218z"/>
	<path d="M179,215.5c0.1,0,0.2,0,0.3-0.1l10-6c0.2-0.1,0.3-0.4,0.2-0.7c-0.1-0.2-0.4-0.3-0.7-0.2l-10,6c-0.2,0.1-0.3,0.4-0.2,0.7
		C178.7,215.4,178.8,215.5,179,215.5z"/>
	<path d="M179,213c0.1,0,0.2,0,0.3-0.1l10-6c0.2-0.1,0.3-0.4,0.2-0.7c-0.1-0.2-0.4-0.3-0.7-0.2l-10,6c-0.2,0.1-0.3,0.4-0.2,0.7
		C178.7,212.9,178.8,213,179,213z"/>
	<path d="M179,200.5c0.1,0,0.2,0,0.3-0.1l10-6c0.2-0.1,0.3-0.4,0.2-0.7c-0.1-0.2-0.4-0.3-0.7-0.2l-10,6c-0.2,0.1-0.3,0.4-0.2,0.7
		C178.7,200.4,178.8,200.5,179,200.5z"/>
	<path d="M179,203.5c0.1,0,0.2,0,0.3-0.1l10-6c0.2-0.1,0.3-0.4,0.2-0.7c-0.1-0.2-0.4-0.3-0.7-0.2l-10,6c-0.2,0.1-0.3,0.4-0.2,0.7
		C178.7,203.4,178.8,203.5,179,203.5z"/>
	<path d="M179,206c0.1,0,0.2,0,0.3-0.1l10-6c0.2-0.1,0.3-0.4,0.2-0.7c-0.1-0.2-0.4-0.3-0.7-0.2l-10,6c-0.2,0.1-0.3,0.4-0.2,0.7
		C178.7,205.9,178.8,206,179,206z"/>
	<path d="M179,208.5c0.1,0,0.2,0,0.3-0.1l10-6c0.2-0.1,0.3-0.4,0.2-0.7c-0.1-0.2-0.4-0.3-0.7-0.2l-10,6c-0.2,0.1-0.3,0.4-0.2,0.7
		C178.7,208.4,178.8,208.5,179,208.5z"/>
	<path d="M179,211c0.1,0,0.2,0,0.3-0.1l10-6c0.2-0.1,0.3-0.4,0.2-0.7c-0.1-0.2-0.4-0.3-0.7-0.2l-10,6c-0.2,0.1-0.3,0.4-0.2,0.7
		C178.7,210.9,178.8,211,179,211z"/>
	<path d="M128,168c8.8,0,16-7.2,16-16s-16-24-16-24s-16,15.2-16,24S119.2,168,128,168z"/>
	<path d="M135,54c-6.6,0-12,3.6-12,8v8c0.4,4,5.6,8,12,8s11.6-4,12-8v-8C147,57.6,141.6,54,135,54z M135,58c4.9,0,8,2.4,8,4
		s-3.1,4-8,4s-8-2.4-8-4S130.1,58,135,58z M130,72.8c-1.8-0.9-2.8-2.2-3-3.1V68c0.9,0,1.9,0.9,3,1.3V72.8z M138,69.7v3.9
		c-0.6,0.2-1.3,0.3-2,0.4v-4h-1h-1v4c-0.7-0.1-1.4-0.2-2-0.4v-3.9l0,0c1,0.2,2,0.3,3,0.3S137,69.9,138,69.7L138,69.7z M140,72.8
		v-3.5c1.1-0.3,2.1-1.3,3-1.3v1.8C142.8,70.6,141.8,71.9,140,72.8z"/>
</g>
</svg>
