<?xml version="1.0" encoding="utf-8"?>
<!-- Generator: Adobe Illustrator 19.2.1, SVG Export Plug-In . SVG Version: 6.00 Build 0)  -->
<svg version="1.1" id="Ebene_1" xmlns="http://www.w3.org/2000/svg" xmlns:xlink="http://www.w3.org/1999/xlink" x="0px" y="0px"
	 viewBox="0 0 256 256" style="enable-background:new 0 0 256 256;" xml:space="preserve">
<style type="text/css">
	.st0{fill:none;stroke:#FF0000;stroke-miterlimit:10;}
	.st1{stroke:url(#SVGID_1_);stroke-miterlimit:10;}
</style>
<path d="M182.2,108.8C174.8,98.7,161.8,92,147,92c-4,0-7.9,0.5-11.6,1.4c0.7-1.5,0.5-3.3-0.7-4.5c-1.4-1.5-3.6-1.6-5.2-0.5
	c1.3-1.5,1.3-3.8-0.1-5.3c-1.5-1.6-4.1-1.7-5.7-0.2c-1.6,1.5-1.7,4.1-0.2,5.7c1.4,1.5,3.6,1.6,5.2,0.5c-0.8,0.9-1.1,2.1-0.9,3.2
	c-0.2-0.6-0.5-1.1-0.9-1.6c-1.5-1.6-4.1-1.7-5.7-0.2c-1.6,1.5-1.7,4.1-0.2,5.7c1.1,1.2,2.7,1.5,4.1,1c-3,1.6-5.8,3.5-8.2,5.7
	c0.2-0.7,0.4-1.4,0.6-2.1c6-22,13.8-39,13.9-39.2c0.1-0.3,0.2-0.7,0.3-1c1.6,0.3,3.2,0.4,4.8,0.4c7.3,0,15-2.6,21.6-7.9
	c8.7-7,13.2-17.1,12.8-26.6c0-0.9-0.7-1.7-1.5-1.9c-2.3-0.6-4.6-0.9-7.1-0.9c-7.3,0-15,2.6-21.6,7.9c-5,4-8.5,9-10.6,14.4
	c-0.4-4.3-1.8-8.8-4.3-12.9c-4.9-8.3-12.9-13.4-21-14.4c-0.1,0-0.2,0-0.2,0c-0.8,0-1.6,0.5-1.9,1.3c-3,7.6-2.4,17.1,2.5,25.4
	c4.4,7.4,11.3,12.3,18.4,13.9c-1,2.3-3.6,8.3-6.6,16.5c0.2-1.2-0.1-2.5-1-3.5c-1.5-1.6-4.1-1.7-5.7-0.2c-0.9,0.9-1.3,2-1.2,3.2
	c-0.2-0.5-0.5-1-0.9-1.5c-1.5-1.6-4.1-1.7-5.7-0.2c-0.6,0.6-1,1.4-1.2,2.2c-1.1-1.4-2.4-2.8-3.7-4.1c-8.9-8.7-20.1-13.2-30.8-13.2
	c-2.1,0-4.1,0.2-6.1,0.5c-0.8,0.1-1.5,0.8-1.6,1.6c-1.9,12.4,2.7,26.3,13.3,36.7c8.9,8.7,20.1,13.2,30.8,13.2c1.2,0,2.4-0.1,3.5-0.2
	c-1.9,8.4-3.2,16.4-3.8,23.8c-0.2-2-1.9-3.5-3.9-3.5c-2.2,0-4,1.8-4,4c0,2,1.5,3.7,3.4,3.9c-2.1,0.1-3.8,1.8-3.8,4c0,2.2,1.8,4,4,4
	c1.8,0,3.3-1.2,3.8-2.8c-0.1,2.9,0,5.8,0.1,8.6c-2.6-3.6-6-6.8-10.1-9.3c-0.6-0.4-1.2-0.7-1.8-1c0.4,0.1,0.8,0.2,1.3,0.2
	c2.2,0,4-1.8,4-4c0-2.2-1.8-4-4-4c-2.2,0-4,1.8-4,4c0,1.3,0.6,2.5,1.6,3.2c-5.1-2.6-10.6-3.9-15.8-3.9c-3.9,0-7.6,0.7-11,2
	c-0.8,0.3-1.4,1.2-1.3,2.1c0.8,9.6,6.6,19.2,16.3,25.2c6,3.7,12.5,5.5,18.8,5.5c3.1,0,6.1-0.4,9-1.3c0.2,0.8,0.4,1.6,0.7,2.4
	c14,45.2,41.5,62.5,42.7,63.2c0.7,0.4,1.4,0.6,2.1,0.6c1.3,0,2.6-0.7,3.4-1.9c1.2-1.9,0.6-4.3-1.3-5.5c-0.1,0-6.6-4.2-14.7-13.4
	c-7.2-8.2-16.9-22.2-23.7-42.9c3.8,1.5,7.9,2.3,12.2,2.3c4.3,0,8.9-0.8,13.3-2.5c10.6-4.1,18-12.5,20.6-21.8
	c0.2-0.9-0.1-1.8-0.9-2.3c-4.8-3-10.6-4.6-16.7-4.6c-4.3,0-8.9,0.8-13.3,2.5c-1.6,0.6-3.1,1.3-4.5,2.1c0.3-1.3,0-2.7-1-3.8
	c-1.5-1.6-4.1-1.7-5.7-0.2c-0.2,0.1-0.3,0.3-0.4,0.5c0.5-1.4,0.3-3-0.8-4.2c-1.5-1.6-4.1-1.7-5.7-0.2c-1.6,1.5-1.7,4.1-0.2,5.7
	c0.7,0.7,1.6,1.1,2.5,1.2c-0.8,0.1-1.7,0.4-2.3,1.1c-0.8,0.7-1.2,1.7-1.2,2.7c-0.6-11.2,0.7-24,3.7-38.2
	c7.6,8.3,19.4,13.7,32.6,13.7c14.8,0,27.8-6.7,35.2-16.8C182.7,110.5,182.7,109.5,182.2,108.8z M155.8,50.1c-5.6,4.5-12.4,7-19.1,7
	c-1.1,0-2.2-0.1-3.2-0.2l7-5.6l6.3,2c0.1,0,0.2,0,0.3,0c0.4,0,0.8-0.3,1-0.7c0.2-0.5-0.1-1.1-0.6-1.3l-5-1.6l4.4-3.5l6.3,2.1
	c0.1,0,0.2,0,0.3,0c0.4,0,0.8-0.3,0.9-0.7c0.2-0.5-0.1-1.1-0.6-1.3l-5-1.7l4.3-3.5l6.4,2c0.1,0,0.2,0,0.3,0c0.4,0,0.8-0.3,1-0.7
	c0.2-0.5-0.1-1.1-0.6-1.3l-5.1-1.6l12.3-9.9C166.4,37.4,162.3,44.8,155.8,50.1z M143.5,34.9c5.6-4.5,12.4-7,19.1-7
	c1.2,0,2.3,0.1,3.5,0.3l-12.4,10l-0.5-5.3c0-0.5-0.5-1-1.1-0.9c-0.6,0-1,0.5-0.9,1.1l0.6,6.6l-4.4,3.6l-0.4-5.4c0-0.6-0.5-1-1.1-0.9
	c-0.6,0-1,0.5-0.9,1.1l0.5,6.7l-4.3,3.5l-0.5-5.4c0-0.5-0.5-1-1.1-0.9c-0.6,0-1,0.5-0.9,1.1l0.6,6.7l-7,5.6
	C132.8,47.7,136.9,40.2,143.5,34.9z M122.6,35.3c3.5,6,4.7,12.9,3.2,19l-4.8-8.1l2.3-4.9c0.2-0.5,0-1.1-0.5-1.3
	c-0.5-0.2-1.1,0-1.3,0.5l-1.8,3.7l-2-3.4l2.3-4.8c0.2-0.5,0-1.1-0.5-1.3c-0.5-0.2-1.1,0-1.3,0.5l-1.8,3.6l-2-3.4l2.3-4.8
	c0.2-0.5,0-1.1-0.5-1.3c-0.5-0.2-1.1,0-1.3,0.5l-1.7,3.6l-5.7-9.7C113.7,25.1,119.1,29.3,122.6,35.3z M108.9,43.4
	c-3.6-6.1-4.7-13.1-3.1-19.3l5.8,9.9l-3.7-0.2c-0.5,0-1,0.4-1,1c0,0.6,0.4,1,1,1l5,0.2l2,3.4l-3.6-0.2c-0.5,0-1,0.4-1.1,0.9
	c0,0.6,0.4,1,0.9,1.1l5,0.3l1.9,3.3l-3.6-0.2c-0.5,0-1,0.4-1,1s0.4,1,1,1l4.9,0.2l5,8.5C118,53.8,112.5,49.5,108.9,43.4z
	 M126.9,96.4c1-0.9,1.4-2.3,1.2-3.5c0.2,0.6,0.5,1.1,0.9,1.6c0.3,0.3,0.7,0.6,1,0.8c-1.2,0.5-2.4,1-3.5,1.5
	C126.6,96.6,126.7,96.5,126.9,96.4z M147,96c12,0,23.1,4.8,30.2,13h-15.3l3-4.4c0.3-0.5,0.2-1.1-0.3-1.4c-0.5-0.3-1.1-0.2-1.4,0.3
	l-3.7,5.6h-5.5l2.9-4.5c0.3-0.5,0.2-1.1-0.3-1.4c-0.5-0.3-1.1-0.2-1.4,0.3l-3.6,5.5h-5.7l3-4.4c0.3-0.5,0.2-1.1-0.3-1.4
	c-0.5-0.3-1.1-0.2-1.4,0.3l-3.7,5.6h-5.7l3-4.4c0.3-0.5,0.2-1.1-0.3-1.4c-0.5-0.3-1.1-0.2-1.4,0.3l-3.8,5.6h-5.5l3-4.4
	c0.3-0.5,0.2-1.1-0.3-1.4c-0.5-0.3-1.1-0.2-1.4,0.3l-3.7,5.6h-10.7C123.9,100.8,135,96,147,96z M116.1,78.1c0.3-0.3,0.6-0.7,0.8-1.1
	c-0.7,2-1.4,4.1-2.2,6.3c0.2-1.2-0.1-2.4-1-3.4c-0.3-0.4-0.7-0.6-1.2-0.8C113.7,79.3,115.1,79,116.1,78.1z M110.4,77.9
	c0.3,0.4,0.7,0.6,1.2,0.8c-1-0.2-2-0.1-2.9,0.5c0.7-0.8,0.9-1.8,0.9-2.8C109.7,77,110,77.5,110.4,77.9z M107.7,80.2
	c-1.2,1.5-1.2,3.8,0.2,5.2c1.5,1.6,4.1,1.7,5.7,0.2c0.3-0.3,0.6-0.7,0.8-1c-1.1,3.4-2.3,7.1-3.4,11c-1-5.1-3-10.2-5.9-14.9
	C105.9,80.8,106.8,80.7,107.7,80.2z M67.1,62.7c10,0,20.2,4.4,28,12c8.7,8.5,13.2,19.8,12.4,30.7l-7.7-7.6l1.3-6.7
	c0.1-0.5-0.3-1.1-0.8-1.2c-0.5-0.1-1.1,0.3-1.2,0.8l-1,5.4l-4-4l1.3-6.6c0.1-0.5-0.2-1.1-0.8-1.2c-0.5-0.1-1.1,0.2-1.2,0.8l-1.1,5.3
	l-3.9-3.9l1.3-6.6c0.1-0.5-0.3-1.1-0.8-1.2c-0.5-0.1-1.1,0.3-1.2,0.8l-1,5.3L82.8,81l1.2-6.7c0.1-0.5-0.3-1.1-0.8-1.2
	c-0.5-0.1-1.1,0.3-1.2,0.8l-1,5.3l-4-4l1.2-6.6c0.1-0.5-0.3-1.1-0.8-1.2c-0.5-0.1-1.1,0.3-1.2,0.8l-1,5.2L64.5,62.9
	C65.3,62.8,66.2,62.7,67.1,62.7z M75.5,94.7C67,86.3,62.4,75.1,63.1,64.4L73.9,75l-5.2,1.1c-0.5,0.1-0.9,0.6-0.8,1.2
	c0.1,0.5,0.5,0.8,1,0.8c0.1,0,0.1,0,0.2,0l6.5-1.4l3.9,3.9l-5.2,1.1c-0.5,0.1-0.9,0.7-0.8,1.2c0.1,0.5,0.5,0.8,1,0.8
	c0.1,0,0.1,0,0.2,0l6.4-1.4l4,4l-5.2,1.1c-0.5,0.1-0.9,0.6-0.8,1.2c0.1,0.5,0.5,0.8,1,0.8c0.1,0,0.1,0,0.2,0l6.5-1.4l4,4l-5.2,1
	c-0.5,0.1-0.9,0.6-0.8,1.2c0.1,0.5,0.5,0.8,1,0.8c0.1,0,0.1,0,0.2,0l6.5-1.3l3.9,3.9l-5.1,1.1c-0.5,0.1-0.9,0.6-0.8,1.2
	c0.1,0.5,0.5,0.8,1,0.8c0.1,0,0.1,0,0.2,0l6.4-1.3l7.6,7.5c-0.8,0.1-1.6,0.1-2.4,0.1C93.5,106.8,83.3,102.4,75.5,94.7z M99.4,138.9
	c1.7-0.1,3.1-1.2,3.6-2.8c-0.2,1.9-0.3,3.9-0.3,5.7C102.3,140.3,101,139.1,99.4,138.9z M73.9,141.8c5.7,0,11.5,1.7,16.7,4.9
	c6.6,4.1,11.3,10.1,13.4,16.8c0.1,0.8,0.3,1.7,0.4,2.5l-7.8-4.9l-0.2-6.7c0-0.6-0.5-1-1-1c-0.6,0-1,0.5-1,1l0.1,5.4l-4.7-2.9
	l-0.2-6.8c0-0.6-0.5-1-1-1c-0.6,0-1,0.5-1,1l0.2,5.4l-4.8-3l-0.2-6.8c0-0.6-0.5-1-1-1c-0.6,0-1,0.5-1,1l0.1,5.5l-14-8.7
	C69.1,142.1,71.4,141.8,73.9,141.8z M79.9,163.7c-7.3-4.6-12.4-11.6-14-19.2l13.7,8.5l-4.8,2.1c-0.5,0.2-0.7,0.8-0.5,1.3
	c0.2,0.4,0.5,0.6,0.9,0.6c0.1,0,0.3,0,0.4-0.1l6-2.7l4.7,2.9l-4.8,2.2c-0.5,0.2-0.7,0.8-0.5,1.3c0.2,0.4,0.5,0.6,0.9,0.6
	c0.1,0,0.3,0,0.4-0.1l6-2.7l4.8,3l-4.9,2.2c-0.5,0.2-0.7,0.8-0.5,1.3c0.2,0.4,0.5,0.6,0.9,0.6c0.1,0,0.3,0,0.4-0.1l6.1-2.7l7.9,4.9
	c-2.2,0.6-4.4,0.8-6.7,0.8C90.8,168.6,85.1,166.9,79.9,163.7z M138.7,169.9c-3.8,1.5-7.8,2.3-11.8,2.3c-4.1,0-8.1-0.8-11.6-2.4
	l8.7-3.5l5.2,3.9c0.2,0.1,0.4,0.2,0.6,0.2c0.3,0,0.6-0.1,0.8-0.4c0.3-0.4,0.2-1.1-0.2-1.4l-4.2-3.1l5-2l5.5,4
	c0.2,0.1,0.4,0.2,0.6,0.2c0.3,0,0.6-0.1,0.8-0.4c0.3-0.4,0.2-1.1-0.2-1.4l-4.5-3.3l5.2-2.1l5.7,4.2c0.2,0.1,0.4,0.2,0.6,0.2
	c0.3,0,0.6-0.1,0.8-0.4c0.3-0.4,0.2-1.1-0.2-1.4l-4.7-3.5l15.2-6.1C153,160.8,146.8,166.7,138.7,169.9z M131.4,151.3
	c3.8-1.5,7.8-2.3,11.8-2.3c4.3,0,8.5,0.9,12.1,2.6l-14.8,5.9l1.1-4.7c0.1-0.5-0.2-1.1-0.7-1.2c-0.5-0.1-1.1,0.2-1.2,0.7l-1.5,6.1
	l-5.3,2.1l1.2-5c0.1-0.5-0.2-1.1-0.7-1.2c-0.5-0.1-1.1,0.2-1.2,0.7l-1.5,6.3l-5.4,2.1l1.3-5.3c0.1-0.5-0.2-1.1-0.7-1.2
	c-0.5-0.1-1.1,0.2-1.2,0.7l-1.6,6.7l-9.1,3.6C116.8,160.7,123.2,154.5,131.4,151.3z M117.9,147.3c-0.4,1.1-0.3,2.3,0.2,3.3
	c-0.1-0.2-0.3-0.4-0.5-0.6c-0.7-0.7-1.6-1.1-2.5-1.2c0.8-0.1,1.7-0.4,2.3-1.1C117.6,147.6,117.7,147.4,117.9,147.3z M111.8,155.5
	c1.5,1.6,4.1,1.7,5.7,0.2c1.3-1.3,1.6-3.3,0.7-4.8c0.1,0.2,0.3,0.4,0.5,0.6c0.6,0.7,1.4,1,2.3,1.2c-3.8,2.9-6.9,6.5-9,10.5
	c-0.5-3-0.9-6.3-1.1-9.6C110.9,154.2,111.3,154.9,111.8,155.5z M147,124c-12,0-23.1-4.8-30.2-13h10.7l3.7,5.6
	c0.2,0.3,0.5,0.4,0.8,0.4c0.2,0,0.4-0.1,0.6-0.2c0.5-0.3,0.6-0.9,0.3-1.4l-3-4.4h5.7l3.6,5.5c0.2,0.3,0.5,0.5,0.8,0.5
	c0.2,0,0.4-0.1,0.5-0.2c0.5-0.3,0.6-0.9,0.3-1.4l-2.9-4.5h5.5l3.7,5.6c0.2,0.3,0.5,0.4,0.8,0.4c0.2,0,0.4-0.1,0.6-0.2
	c0.5-0.3,0.6-0.9,0.3-1.4l-3-4.4h5.5l3.8,5.6c0.2,0.3,0.5,0.4,0.8,0.4c0.2,0,0.4-0.1,0.6-0.2c0.5-0.3,0.6-0.9,0.3-1.4l-3-4.4h5.7
	l3.7,5.6c0.2,0.3,0.5,0.4,0.8,0.4c0.2,0,0.4-0.1,0.6-0.2c0.5-0.3,0.6-0.9,0.3-1.4l-3-4.4h15.3C170.1,119.2,159,124,147,124z"/>
</svg>
