<?xml version="1.0" encoding="utf-8"?>
<!-- Generator: Adobe Illustrator 19.2.1, SVG Export Plug-In . SVG Version: 6.00 Build 0)  -->
<svg version="1.1" id="Ebene_1" xmlns="http://www.w3.org/2000/svg" xmlns:xlink="http://www.w3.org/1999/xlink" x="0px" y="0px"
	 viewBox="0 0 256 256" style="enable-background:new 0 0 256 256;" xml:space="preserve">
<style type="text/css">
	.st0{fill:none;stroke:#FF0000;stroke-miterlimit:10;}
	.st1{stroke:url(#SVGID_1_);stroke-miterlimit:10;}
</style>
<g>
	<path d="M128,56c4.4,0,8-3.6,8-8s-3.6-8-8-8s-8,3.6-8,8S123.6,56,128,56z M128,44c2.2,0,4,1.8,4,4s-1.8,4-4,4c-2.2,0-4-1.8-4-4
		S125.8,44,128,44z"/>
	<path d="M204.4,128c2,0,3.6-1.6,3.6-3.6v-0.8c0-2-1.6-3.6-3.6-3.6H196h-41.5c10.8-7.2,18.6-18.7,20.8-32h5.7c1.7,0,3-1.4,3-3v-2
		c0-1.7-1.4-3-3-3h-49V59.3c-1.3,0.4-2.6,0.7-4,0.7s-2.7-0.3-4-0.7V80H80h-5c-1.7,0-3,1.4-3,3v2c0,1.7,1.4,3,3,3h5.7
		c2.2,13.3,10,24.8,20.8,32H60h-8.4c-2,0-3.6,1.6-3.6,3.6v0.8c0,2,1.6,3.6,3.6,3.6H60v104h-8.4c-2,0-3.6,1.6-3.6,3.6v0.8
		c0,2,1.6,3.6,3.6,3.6H60h136h8.4c2,0,3.6-1.6,3.6-3.6v-0.8c0-2-1.6-3.6-3.6-3.6H196V128H204.4z M88.8,88h78.4
		c-3.7,18.2-19.9,32-39.2,32C108.7,120,92.5,106.2,88.8,88z M188,232H68V128h120V232z"/>
	<path d="M80,208v12c0,2.2,1.8,4,4,4h88c2.2,0,4-1.8,4-4v-12c0-17.7-14.3-32-32-32h-32C94.3,176,80,190.3,80,208z M168,208v8H88v-8
		c0-13.2,10.8-24,24-24h32C157.2,184,168,194.8,168,208z"/>
	<circle cx="128" cy="200" r="6"/>
	<path d="M58,45c-2.2,0-4,1.8-4,4s1.8,4,4,4h59.1c-0.7-1.5-1.1-3.2-1.1-5c0-1,0.1-2,0.4-3H58z"/>
	<path d="M51.1,38c0.4,1.8,2,3,3.9,3h5.8c1.8,0,3.4-1.2,3.9-3l2-8c0.6-2.5-1.3-5-3.9-5H53c-2.6,0-4.5,2.4-3.9,5L51.1,38z"/>
</g>
</svg>
