<?xml version="1.0" encoding="utf-8"?>
<!-- Generator: Adobe Illustrator 19.2.1, SVG Export Plug-In . SVG Version: 6.00 Build 0)  -->
<svg version="1.1" id="Ebene_1" xmlns="http://www.w3.org/2000/svg" xmlns:xlink="http://www.w3.org/1999/xlink" x="0px" y="0px"
	 viewBox="0 0 256 256" style="enable-background:new 0 0 256 256;" xml:space="preserve">
<style type="text/css">
	.st0{fill:none;stroke:#FF0000;stroke-miterlimit:10;}
	.st1{stroke:url(#SVGID_1_);stroke-miterlimit:10;}
</style>
<g>
	<path d="M224,120h-8.8c0.2-2.8,0.4-5.4,0.5-7.6c0.3-4.6-3.4-8.4-8-8.4H48.3c-4.6,0-8.2,3.9-8,8.4C42,142.1,53.1,240,128,240
		c42.4,0,64.4-31.4,75.7-64H216c0,0,0,0,0,0c0.4,0,12.1-0.1,16-8c3.9-8.1,8-24.1,8-32S231.8,120,224,120z M167.9,218.1
		c-11.1,9.2-24.5,13.9-39.9,13.9s-28.8-4.7-39.9-13.9c-9.5-7.9-17.6-19.4-24-34c-11.7-26.6-14.9-56.6-15.7-72.1h159.4l0,0
		c-0.9,15.5-4.1,45.6-15.7,72.2C185.6,198.7,177.5,210.2,167.9,218.1z M224.8,164.5c-1.3,2.6-6.6,3.5-8.8,3.5c0,0,0,0,0,0h-6.9
		l9.3-40h5.6c3.4,0,8,4.6,8,8C232,142.6,228.2,157.5,224.8,164.5z"/>
	<path d="M188.9,152H67.1c-2.6,0-4.5,2.5-3.9,5c2.1,8,4.7,16.2,8.1,23.9c1.7,4,3.6,7.7,5.6,11.1c12.4,21.5,29.2,32,51.1,32
		s38.7-10.5,51.1-32c2-3.4,3.8-7.1,5.6-11.1c3.4-7.8,6.1-16,8.1-23.9C193.4,154.5,191.5,152,188.9,152z M190.8,156.5
		c-2.2,8.6-4.9,16.6-8,23.6c-1.5,3.5-3.2,6.8-4.9,9.9H78.1c-1.7-3.1-3.4-6.4-4.9-9.9c-3.1-7.1-5.8-15-8-23.6c-0.2-0.6,0-1.2,0.4-1.7
		c0.4-0.5,1-0.8,1.6-0.8h121.8c0.6,0,1.2,0.3,1.6,0.8C190.9,155.3,191,155.9,190.8,156.5z"/>
	<path d="M140.5,160.2c-0.5-0.3-1.1-0.2-1.4,0.3l-14,22c-0.3,0.5-0.2,1.1,0.3,1.4c0.2,0.1,0.4,0.2,0.5,0.2c0.3,0,0.7-0.2,0.8-0.5
		l14-22C141.1,161.1,141,160.5,140.5,160.2z"/>
	<path d="M145.5,160.2c-0.5-0.3-1.1-0.2-1.4,0.3l-14,22c-0.3,0.5-0.2,1.1,0.3,1.4c0.2,0.1,0.4,0.2,0.5,0.2c0.3,0,0.7-0.2,0.8-0.5
		l14-22C146.1,161.1,146,160.5,145.5,160.2z"/>
	<path d="M130.5,160.2c-0.5-0.3-1.1-0.2-1.4,0.3l-14,22c-0.3,0.5-0.2,1.1,0.3,1.4c0.2,0.1,0.4,0.2,0.5,0.2c0.3,0,0.7-0.2,0.8-0.5
		l14-22C131.1,161.1,131,160.5,130.5,160.2z"/>
	<path d="M135.5,160.2c-0.5-0.3-1.1-0.2-1.4,0.3l-14,22c-0.3,0.5-0.2,1.1,0.3,1.4c0.2,0.1,0.4,0.2,0.5,0.2c0.3,0,0.7-0.2,0.8-0.5
		l14-22C136.1,161.1,136,160.5,135.5,160.2z"/>
	<path d="M120.5,160.2c-0.5-0.3-1.1-0.2-1.4,0.3l-14,22c-0.3,0.5-0.2,1.1,0.3,1.4c0.2,0.1,0.4,0.2,0.5,0.2c0.3,0,0.7-0.2,0.8-0.5
		l14-22C121.1,161.1,121,160.5,120.5,160.2z"/>
	<path d="M125.5,160.2c-0.5-0.3-1.1-0.2-1.4,0.3l-14,22c-0.3,0.5-0.2,1.1,0.3,1.4c0.2,0.1,0.4,0.2,0.5,0.2c0.3,0,0.7-0.2,0.8-0.5
		l14-22C126.1,161.1,126,160.5,125.5,160.2z"/>
	<path d="M110.5,160.2c-0.5-0.3-1.1-0.2-1.4,0.3l-14,22c-0.3,0.5-0.2,1.1,0.3,1.4c0.2,0.1,0.4,0.2,0.5,0.2c0.3,0,0.7-0.2,0.8-0.5
		l14-22C111.1,161.1,111,160.5,110.5,160.2z"/>
	<path d="M115.5,160.2c-0.5-0.3-1.1-0.2-1.4,0.3l-14,22c-0.3,0.5-0.2,1.1,0.3,1.4c0.2,0.1,0.4,0.2,0.5,0.2c0.3,0,0.7-0.2,0.8-0.5
		l14-22C116.1,161.1,116,160.5,115.5,160.2z"/>
	<path d="M105.5,160.2c-0.5-0.3-1.1-0.2-1.4,0.3l-14,22c-0.3,0.5-0.2,1.1,0.3,1.4c0.2,0.1,0.4,0.2,0.5,0.2c0.3,0,0.7-0.2,0.8-0.5
		l14-22C106.1,161.1,106,160.5,105.5,160.2z"/>
	<path d="M95.5,160.2c-0.5-0.3-1.1-0.2-1.4,0.3l-13.6,21.3c0.3,0.7,0.7,1.4,1,2c0.1-0.1,0.2-0.2,0.3-0.3l14-22
		C96.1,161.1,96,160.5,95.5,160.2z"/>
	<path d="M100.5,160.2c-0.5-0.3-1.1-0.2-1.4,0.3l-14,22c-0.3,0.5-0.2,1.1,0.3,1.4c0.2,0.1,0.4,0.2,0.5,0.2c0.3,0,0.7-0.2,0.8-0.5
		l14-22C101.1,161.1,101,160.5,100.5,160.2z"/>
	<path d="M90.5,160.2c-0.5-0.3-1.1-0.2-1.4,0.3l-10.7,16.8c0.1,0.2,0.1,0.3,0.2,0.5c0.3,0.6,0.5,1.1,0.8,1.7l11.4-17.9
		C91.1,161.1,91,160.5,90.5,160.2z"/>
	<path d="M80.5,160.2c-0.5-0.3-1.1-0.2-1.4,0.3l-4.4,7c0.3,0.8,0.6,1.6,0.8,2.4l5.3-8.3C81.1,161.1,81,160.5,80.5,160.2z"/>
	<path d="M75.5,160.2c-0.5-0.3-1.1-0.2-1.4,0.3l-1.1,1.8c0.3,0.8,0.5,1.7,0.8,2.5l2-3.2C76.1,161.1,76,160.5,75.5,160.2z"/>
	<path d="M85.5,160.2c-0.5-0.3-1.1-0.2-1.4,0.3l-7.6,12c0.3,0.8,0.6,1.5,0.9,2.3l8.4-13.2C86.1,161.1,86,160.5,85.5,160.2z"/>
	<path d="M150.5,160.2c-0.5-0.3-1.1-0.2-1.4,0.3l-14,22c-0.3,0.5-0.2,1.1,0.3,1.4c0.2,0.1,0.4,0.2,0.5,0.2c0.3,0,0.7-0.2,0.8-0.5
		l14-22C151.1,161.1,151,160.5,150.5,160.2z"/>
	<path d="M155.5,160.2c-0.5-0.3-1.1-0.2-1.4,0.3l-14,22c-0.3,0.5-0.2,1.1,0.3,1.4c0.2,0.1,0.4,0.2,0.5,0.2c0.3,0,0.7-0.2,0.8-0.5
		l14-22C156.1,161.1,156,160.5,155.5,160.2z"/>
	<path d="M160.5,160.2c-0.5-0.3-1.1-0.2-1.4,0.3l-14,22c-0.3,0.5-0.2,1.1,0.3,1.4c0.2,0.1,0.4,0.2,0.5,0.2c0.3,0,0.7-0.2,0.8-0.5
		l14-22C161.1,161.1,161,160.5,160.5,160.2z"/>
	<path d="M165.5,160.2c-0.5-0.3-1.1-0.2-1.4,0.3l-14,22c-0.3,0.5-0.2,1.1,0.3,1.4c0.2,0.1,0.4,0.2,0.5,0.2c0.3,0,0.7-0.2,0.8-0.5
		l14-22C166.1,161.1,166,160.5,165.5,160.2z"/>
	<path d="M170.5,160.2c-0.5-0.3-1.1-0.2-1.4,0.3l-14,22c-0.3,0.5-0.2,1.1,0.3,1.4c0.2,0.1,0.4,0.2,0.5,0.2c0.3,0,0.7-0.2,0.8-0.5
		l14-22C171.1,161.1,171,160.5,170.5,160.2z"/>
	<path d="M175.5,160.2c-0.5-0.3-1.1-0.2-1.4,0.3l-14,22c-0.3,0.5-0.2,1.1,0.3,1.4c0.2,0.1,0.4,0.2,0.5,0.2c0.3,0,0.7-0.2,0.8-0.5
		l14-22C176.1,161.1,176,160.5,175.5,160.2z"/>
	<path d="M180.5,160.2c-0.5-0.3-1.1-0.2-1.4,0.3l-14,22c-0.3,0.5-0.2,1.1,0.3,1.4c0.2,0.1,0.4,0.2,0.5,0.2c0.3,0,0.7-0.2,0.8-0.5
		l14-22C181.1,161.1,181,160.5,180.5,160.2z"/>
	<path d="M185.5,160.2c-0.5-0.3-1.1-0.2-1.4,0.3l-14,22c-0.3,0.5-0.2,1.1,0.3,1.4c0.2,0.1,0.4,0.2,0.5,0.2c0.3,0,0.7-0.2,0.8-0.5
		l14-22C186.1,161.1,186,160.5,185.5,160.2z"/>
	<path d="M116,86c0,0.2,0,0.5,0.1,0.7c0.1,0.5,0.1,1,0.2,1.5c0.2,0.9,0.4,1.7,0.6,2.5c0.5,1.5,1,2.7,1.4,3.5
		c0.2,0.4,0.4,0.7,0.5,0.9c0.1,0.2,0.2,0.3,0.2,0.3c0.2,0.3,0.6,0.6,1,0.5c0.5-0.1,0.9-0.6,0.8-1.2l0-0.1c0,0-0.1-0.5-0.2-1.3
		c-0.1-0.8-0.3-2-0.5-3.4c-0.1-0.7-0.2-1.4-0.2-2.2c0-0.4,0-0.8,0-1.1c0-0.2,0-0.4,0-0.7l0-0.2c0,0,0-0.1,0-0.1l0-0.2
		c0.1-0.6,0.3-1.1,0.7-1.7c0.4-0.6,1-1.2,1.7-2.2c0.3-0.5,0.7-1,1-1.7c0.1-0.3,0.2-0.6,0.3-1c0.1-0.3,0.2-0.7,0.2-1
		c0-0.2,0.1-0.4,0.1-0.5l0-0.4l0-0.4l0-0.1l0,0l0,0l0-0.1l0-0.2c0-0.5-0.1-1-0.2-1.5c-0.3-2-0.7-3.7-1.1-5.1
		c-0.4-1.5-0.9-2.6-1.2-3.5c-0.3-0.8-0.5-1.3-0.5-1.3l0,0c-0.2-0.4-0.6-0.6-1-0.6c-0.6,0.1-0.9,0.6-0.9,1.1c0,0,0.1,0.5,0.2,1.3
		c0.1,0.8,0.2,2.1,0.4,3.5c0.2,1.4,0.3,3.1,0.4,4.8c0,0.4,0,0.9,0,1.3c0,0.1-0.1,1-0.1,1.1c-0.1,0.2-0.2,0.5-0.3,0.8
		c-0.1,0.3-0.3,0.6-0.5,0.9c-0.5,0.6-1.2,1.4-1.9,2.4c-0.7,1.1-1.1,2.5-1.1,3.7l0,0.5c0,0.1,0,0.1,0,0.3L116,86z"/>
	<path d="M124,85.8l0,0.2c0,0.2,0,0.5,0.1,0.7c0.1,0.5,0.1,1,0.2,1.5c0.2,0.9,0.4,1.7,0.6,2.5c0.5,1.5,1,2.7,1.4,3.5
		c0.2,0.4,0.4,0.7,0.5,0.9c0.1,0.2,0.2,0.3,0.2,0.3c0.2,0.3,0.6,0.6,1,0.5c0.5-0.1,0.9-0.6,0.8-1.2l0-0.1c0,0-0.1-0.5-0.2-1.3
		c-0.1-0.8-0.3-2-0.5-3.4c-0.1-0.7-0.2-1.4-0.2-2.2c0-0.4,0-0.8,0-1.1c0-0.2,0-0.4,0-0.7l0-0.2c0,0,0-0.1,0-0.1l0-0.2
		c0.1-0.6,0.3-1.1,0.7-1.7c0.4-0.6,1-1.2,1.7-2.2c0.3-0.5,0.7-1,1-1.7c0.1-0.3,0.2-0.6,0.3-1c0.1-0.3,0.2-0.7,0.2-1
		c0-0.2,0.1-0.4,0.1-0.5l0-0.4l0-0.4l0-0.1l0,0l0,0l0-0.1l0-0.2c0-0.5-0.1-1-0.2-1.5c-0.3-2-0.7-3.7-1.1-5.1
		c-0.4-1.5-0.9-2.6-1.2-3.5c-0.3-0.8-0.5-1.3-0.5-1.3l0,0c-0.2-0.4-0.6-0.6-1-0.6c-0.6,0.1-0.9,0.6-0.9,1.1c0,0,0.1,0.5,0.2,1.3
		c0.1,0.8,0.2,2.1,0.4,3.5c0.2,1.4,0.3,3.1,0.4,4.8c0,0.4,0,0.9,0,1.3c0,0.1-0.1,1-0.1,1.1c-0.1,0.2-0.2,0.5-0.3,0.8
		c-0.1,0.3-0.3,0.6-0.5,0.9c-0.5,0.6-1.2,1.4-1.9,2.4c-0.7,1.1-1.1,2.5-1.1,3.7l0,0.5C124,85.7,124,85.7,124,85.8z"/>
	<path d="M132,85.8l0,0.2c0,0.2,0,0.5,0.1,0.7c0.1,0.5,0.1,1,0.2,1.5c0.2,0.9,0.4,1.7,0.6,2.5c0.5,1.5,1,2.7,1.4,3.5
		c0.2,0.4,0.4,0.7,0.5,0.9c0.1,0.2,0.2,0.3,0.2,0.3c0.2,0.3,0.6,0.6,1,0.5c0.5-0.1,0.9-0.6,0.8-1.2l0-0.1c0,0-0.1-0.5-0.2-1.3
		c-0.1-0.8-0.3-2-0.5-3.4c-0.1-0.7-0.2-1.4-0.2-2.2c0-0.4,0-0.8,0-1.1c0-0.2,0-0.4,0-0.7l0-0.2c0,0,0-0.1,0-0.1l0-0.2
		c0.1-0.6,0.3-1.1,0.7-1.7c0.4-0.6,1-1.2,1.7-2.2c0.3-0.5,0.7-1,1-1.7c0.1-0.3,0.2-0.6,0.3-1c0.1-0.3,0.2-0.7,0.2-1
		c0-0.2,0.1-0.4,0.1-0.5l0-0.4l0-0.4l0-0.1l0,0l0,0l0-0.1l0-0.2c0-0.5-0.1-1-0.2-1.5c-0.3-2-0.7-3.7-1.1-5.1
		c-0.4-1.5-0.9-2.6-1.2-3.5c-0.3-0.8-0.5-1.3-0.5-1.3l0,0c-0.2-0.4-0.6-0.6-1-0.6c-0.6,0.1-0.9,0.6-0.9,1.1c0,0,0.1,0.5,0.2,1.3
		c0.1,0.8,0.2,2.1,0.4,3.5c0.2,1.4,0.3,3.1,0.4,4.8c0,0.4,0,0.9,0,1.3c0,0.1-0.1,1-0.1,1.1c-0.1,0.2-0.2,0.5-0.3,0.8
		c-0.1,0.3-0.3,0.6-0.5,0.9c-0.5,0.6-1.2,1.4-1.9,2.4c-0.7,1.1-1.1,2.5-1.1,3.7l0,0.5C132,85.7,132,85.7,132,85.8z"/>
</g>
</svg>
