<?xml version="1.0" encoding="utf-8"?>
<!-- Generator: Adobe Illustrator 19.2.1, SVG Export Plug-In . SVG Version: 6.00 Build 0)  -->
<svg version="1.1" id="Ebene_1" xmlns="http://www.w3.org/2000/svg" xmlns:xlink="http://www.w3.org/1999/xlink" x="0px" y="0px"
	 viewBox="0 0 256 256" style="enable-background:new 0 0 256 256;" xml:space="preserve">
<g>
	<path d="M190.5,168h-7.4c0.5-4.2,0.8-7.8,0.9-10.5c0.2-3-2.2-5.5-5.1-5.5h9.1c2.2,0,4-1.8,4-4s-1.8-4-4-4h-28V68c0-4.4-3.6-8-8-8
		V24h12.8c1.7,0,3.2-1.4,3.2-3.2V20c0-2.2-1.8-4-4-4h-12h-48H91.2c-1.7,0-3.2,1.4-3.2,3.2v1.7c0,1.7,1.4,3.2,3.2,3.2H104v36
		c-4.4,0-8,3.6-8,8v76H68c-2.2,0-4,1.8-4,4s1.8,4,4,4h9.1c-2.9,0-5.3,2.5-5.1,5.5c1.1,19.2,8.2,82.5,56,82.5
		c26.5,0,40.5-19.4,47.9-40h9.9l0,0c0.2,0,7.1,0,9.4-4.6c2.3-4.6,4.7-13.8,4.7-18.3S195,168,190.5,168z M112,24h32v36h-32V24z
		 M104,68h48v76h-48V68z M128,232c-17.2,0-29.7-9.6-38.2-29.2c-6.7-15.6-8.9-33.4-9.6-42.8h95.6c-0.7,9.3-2.9,27.2-9.6,42.8
		C157.7,222.4,145.2,232,128,232z M188.2,191.5c-0.5,0.3-1.6,0.5-2.4,0.5H179l3.8-16h7.6c0.5,0.1,1.3,0.8,1.5,1.3
		C191.8,180.3,190,187.6,188.2,191.5z"/>
	<path d="M164.5,182.5v-0.8l0,0l0,0c0-1.6-1.9-2.9-4.1-3.5c-0.2-0.1-0.5-0.1-0.7-0.2c-1.2-0.3-2.4-0.4-3.5-0.2l-9.6,1.1
		c-0.6,0.1-1.3,0.1-1.9,0L128,177l-16.5-1.9c-0.6-0.1-1.3-0.1-1.9,0l-11.7,1.3c-2.8,0.3-6.6,2-6.6,4l0,0h-0.1c1.4,6.3,3.3,13,6,19.2
		c9.5,21.9,22.1,24.4,30.8,24.4s21.4-2.1,30.8-24C161.3,194.2,163.2,188.5,164.5,182.5L164.5,182.5z"/>
</g>
</svg>
