<!-- Bar by BirVa Mehta from Noun Project -->
<?xml version="1.0" encoding="UTF-8"?>
<svg width="100pt" height="100pt" version="1.1" viewBox="0 0 100 100" xmlns="http://www.w3.org/2000/svg">
 <path d="m50.527 95c-9.2383 0-20.914-7.1523-27.051-11.418-1.5469-1.0742-3.3633-1.6445-5.2422-1.6445h-10.398c-0.82813 0-1.5-0.67188-1.5-1.5v-14.25c0-0.53125 0.28125-1.0234 0.73828-1.293l4.4141-2.5977-4.3555-2.3047c-0.49219-0.26172-0.79687-0.76953-0.79687-1.3242v-11.48c0-0.39844 0.15625-0.77734 0.4375-1.0625l3.4922-3.4922-3.0938-3.0938c-0.28125-0.28125-0.4375-0.66406-0.4375-1.0625l-0.003906-16.621c0-0.82812 0.67188-1.5 1.5-1.5h13.02v-8.4805h-13.414c-0.82813 0-1.5-0.67188-1.5-1.5s0.67187-1.5 1.5-1.5h13.418v-3.043c0-0.82812 0.67188-1.5 1.5-1.5s1.5 0.67188 1.5 1.5v3.043h54.719v-3.043c0-0.82812 0.67188-1.5 1.5-1.5s1.5 0.67188 1.5 1.5v3.043h11.363c0.82812 0 1.5 0.67188 1.5 1.5s-0.67188 1.5-1.5 1.5h-11.363v8.4805h11.363c0.82812 0 1.5 0.67188 1.5 1.5v32.062c0 0.45703-0.21094 0.89062-0.57031 1.1758l-3.5039 2.7734 3.6953 4.1562c0.24219 0.27344 0.37891 0.62891 0.37891 0.99609v18.605c0 0.82812-0.67188 1.5-1.5 1.5h-11.008c-1.7656 0-3.4805 0.50391-4.9609 1.457-6.0586 3.8906-17.598 10.418-26.84 10.418zm-41.191-16.062h8.8984c2.4961 0 4.9023 0.75391 6.957 2.1797 4.707 3.2734 16.605 10.883 25.336 10.883 8.7891 0 20.562-6.9531 25.215-9.9414 1.9688-1.2656 4.2422-1.9336 6.582-1.9336h9.5078l0.003907-16.535-3.9258-4.4141h-3.1602c-0.82812 0-1.5-0.67188-1.5-1.5s0.67188-1.5 1.5-1.5h3.3125l3.7734-2.9844v-29.836h-9.8633v5.4375c0 0.82812-0.67188 1.5-1.5 1.5s-1.5-0.67188-1.5-1.5v-5.4375h-54.719v5.4375c0 0.82812-0.67188 1.5-1.5 1.5s-1.5-0.67188-1.5-1.5v-5.4375h-11.523v14.504l3.2773 3.2773h2.7422c0.82812 0 1.5 0.67188 1.5 1.5s-0.67188 1.5-1.5 1.5h-2.7422l-3.6719 3.6719v9.9531l5.6016 2.9648h7.8164c0.82812 0 1.5 0.67188 1.5 1.5 0 0.82813-0.67188 1.5-1.5 1.5h-7.7773l-5.6367 3.3164zm14.918-58.582h54.719v-8.4805h-54.719zm34.156 56.477h-15.781c-1.7891 0-3.2461-1.457-3.2461-3.2461v-26.02c-1.3477-0.58203-2.2891-1.9219-2.2891-3.4805 0-1.6875 1.1094-3.1211 2.6406-3.6133 0.38281-1.7305 1.8945-3.0195 3.8164-3.1211 0.51562-0.046874 1.0352 0.011719 1.543 0.16797 0.89453-1.4219 2.6758-2.2461 5.043-2.2461 1.8086 0 3.4844 0.90234 4.5039 2.3398 0.24219-0.035156 0.48828-0.050781 0.73438-0.050781 3.1133 0 6.2812 2.2422 6.3125 6.5273l0.003906 0.17969c0.019532 1.3398 0.007813 1.9023-0.03125 2.2188v3.7891h3.0625c1.7891 0 3.2461 1.457 3.2461 3.2461v10.035c0 1.7891-1.457 3.2461-3.2461 3.2461h-3.0625v6.7852c-0.003906 1.7891-1.4609 3.2422-3.25 3.2422zm-16.027-4.1094v0.86719c0 0.13672 0.10938 0.24609 0.24609 0.24609h15.781c0.13672 0 0.24609-0.10938 0.24609-0.24609v-0.86719zm0-3h16.273v-21.848h-0.99219v2.4258c0 1.9844-1.6133 3.6016-3.6016 3.6016-1.9844 0-3.6016-1.6133-3.6016-3.6016v-2.4219h-8.082zm19.273-5.918h3.0625c0.13672 0 0.24609-0.10938 0.24609-0.24609v-10.035c0-0.13672-0.10938-0.24609-0.24609-0.24609h-3.0625zm-20.773-18.93h11.082c0.82812 0 1.5 0.67188 1.5 1.5v3.9219c0 0.33203 0.26953 0.60156 0.60156 0.60156 0.33203 0 0.60156-0.26953 0.60156-0.60156v-3.9219c0-0.82812 0.67188-1.5 1.5-1.5h2.5273c0-0.16797-0.003906-0.35547-0.007812-0.56641l-0.003906-0.19922c-0.027344-3.5117-3.1797-3.5547-3.3125-3.5547-0.30469 0-0.60156 0.0625-0.875 0.18359-0.37891 0.16797-0.80859 0.17188-1.1875 0.011719-0.38281-0.16016-0.67969-0.46875-0.82422-0.85547-0.36719-0.97266-1.3125-1.6289-2.3516-1.6289-0.97656 0-2.6289 0.19922-2.6875 1.5234-0.027343 0.58203-0.39062 1.0977-0.92969 1.3164-0.53906 0.22266-1.1562 0.10938-1.5859-0.28516-0.26563-0.24609-0.68359-0.52734-1.1328-0.48828-0.60156 0.035157-1.1562 0.35547-1.1562 1 0 0.070313 0.007813 0.13672 0.019531 0.20312 0.097656 0.47656-0.042968 0.96875-0.375 1.3242-0.33203 0.35547-0.8125 0.52734-1.2969 0.46484-0.058593-0.007813-0.11719-0.019531-0.17969-0.03125-0.40234 0.039062-0.71484 0.375-0.71484 0.78906-0.003906 0.44141 0.35156 0.79297 0.78906 0.79297zm14.492 22.09c-0.82812 0-1.5-0.67188-1.5-1.5v-8.957c0-0.82812 0.67188-1.5 1.5-1.5s1.5 0.67188 1.5 1.5v8.957c0 0.82812-0.67188 1.5-1.5 1.5zm-4.4961 0c-0.82812 0-1.5-0.67188-1.5-1.5v-8.957c0-0.82812 0.67188-1.5 1.5-1.5s1.5 0.67188 1.5 1.5v8.957c0 0.82812-0.67188 1.5-1.5 1.5zm-4.4961 0c-0.82812 0-1.5-0.67188-1.5-1.5v-8.957c0-0.82812 0.67188-1.5 1.5-1.5 0.82813 0 1.5 0.67188 1.5 1.5v8.957c0 0.82812-0.66797 1.5-1.5 1.5zm-15.379-3.2344h-2.5c-0.82812 0-1.5-0.67188-1.5-1.5s0.67188-1.5 1.5-1.5h2.5c0.82812 0 1.5 0.67188 1.5 1.5s-0.67188 1.5-1.5 1.5zm55.484-20.148h-11.516c-0.82812 0-1.5-0.67188-1.5-1.5s0.67188-1.5 1.5-1.5h11.516c0.82812 0 1.5 0.67188 1.5 1.5s-0.67188 1.5-1.5 1.5z"/>
</svg>
