<svg width="701" height="212" viewBox="0 0 701 212" fill="none" xmlns="http://www.w3.org/2000/svg">
<path d="M79.4071 152.905C90.63 152.905 99.7883 143.789 99.7883 132.5C99.7883 121.211 90.6829 112.095 79.4071 112.095C68.1313 112.095 59.0259 121.211 59.0259 132.5C59.0259 143.789 68.1313 152.905 79.4071 152.905ZM79.4071 99.905C90.63 99.905 99.7883 90.789 99.7883 79.5C99.7883 68.211 90.6829 59.095 79.4071 59.095C68.1313 59.095 59.0259 68.211 59.0259 79.5C59.0259 90.789 68.1313 99.905 79.4071 99.905ZM132.345 152.905C143.568 152.905 152.726 143.789 152.726 132.5C152.726 121.211 143.621 112.095 132.345 112.095C121.069 112.095 111.964 121.211 111.964 132.5C111.964 143.789 121.069 152.905 132.345 152.905ZM132.345 99.905C143.568 99.905 152.726 90.789 152.726 79.5C152.726 68.211 143.621 59.095 132.345 59.095C121.069 59.095 111.964 68.211 111.964 79.5C111.964 90.789 121.069 99.905 132.345 99.905ZM105.876 0C163.208 0 211.752 48.601 211.752 106C211.752 163.399 163.208 212 105.876 212C48.5442 212 0 163.399 0 106C0 48.601 48.5442 0 105.876 0ZM105.876 28.514C63.261 28.514 28.4807 62.116 28.4807 104.569C28.4807 147.022 63.261 183.433 105.876 183.433C148.491 183.433 183.272 146.969 183.272 104.569C183.272 62.169 148.491 28.514 105.876 28.514ZM331.816 169.176H365.061C366.278 169.176 366.755 168.646 367.125 167.48L378.137 126.776L388.83 167.48C389.148 168.699 389.677 169.176 390.895 169.176H424.14C425.516 169.176 426.363 168.646 426.681 167.48L449.921 81.143V167.162C449.921 168.381 450.768 169.229 451.985 169.229H488.565C489.783 169.229 490.63 168.381 490.63 167.162V77.486C490.63 76.267 489.783 75.419 488.565 75.419H417.258C416.04 75.419 415.352 75.949 415.034 77.327L406.935 118.773L398.782 77.327C398.624 76.108 397.777 75.419 396.559 75.419H360.349C359.132 75.419 358.285 76.108 358.126 77.327L350.185 118.773L342.298 77.327C341.98 75.949 341.292 75.419 340.074 75.419H286.024V44.891C286.024 43.354 284.966 42.665 283.272 43.195L249.285 54.166C248.068 54.484 247.38 55.544 247.38 56.71V71.126C247.38 74.73 245.474 76.267 241.874 76.267H233.086C231.869 76.267 231.022 77.115 231.022 78.334V103.986C231.022 105.205 231.869 106.053 233.086 106.053H246.215V137.217C246.215 159.318 254.897 171.773 281.419 171.773C291.689 171.773 300.053 170.448 304.5 168.381C305.876 167.692 306.353 166.844 306.353 165.466V141.192C306.353 139.814 305.029 139.125 303.282 139.973C301.059 140.98 298.465 141.192 295.924 141.192C289.095 141.192 286.924 138.648 286.924 130.062V106H302.859C304.076 106 304.87 105.205 304.87 103.986V81.09L329.169 167.427C329.487 168.646 330.386 169.123 331.71 169.123L331.816 169.176ZM449.974 65.19C449.974 66.409 450.821 67.257 452.038 67.257H488.618C489.836 67.257 490.683 66.409 490.683 65.19V44.838C490.683 43.619 489.836 42.771 488.618 42.771H452.038C450.821 42.771 449.974 43.619 449.974 44.838V65.19ZM498.835 167.109C498.835 168.328 499.682 169.176 500.9 169.176H537.533C538.751 169.176 539.598 168.328 539.598 167.109V44.891C539.598 43.672 538.751 42.824 537.533 42.824H500.9C499.682 42.824 498.835 43.672 498.835 44.891V167.162V167.109ZM547.75 167.109C547.75 168.328 548.597 169.176 549.815 169.176H586.342C587.56 169.176 588.407 168.328 588.407 167.109V77.486C588.407 76.267 587.507 75.419 586.342 75.419H549.815C548.597 75.419 547.75 76.267 547.75 77.486V167.162V167.109ZM547.75 65.19C547.75 66.409 548.597 67.257 549.815 67.257H586.395C587.613 67.257 588.46 66.409 588.46 65.19V44.838C588.46 43.619 587.56 42.771 586.395 42.771H549.868C548.65 42.771 547.803 43.619 547.803 44.838V65.19H547.75ZM594.812 123.119C594.812 151.05 616.199 172.038 647.538 172.038C678.878 172.038 700.053 151.05 700.053 123.119V120.893C700.053 92.962 678.825 72.557 647.538 72.557C616.252 72.557 594.812 92.962 594.812 120.893V123.119ZM634.092 123.172V121.476C634.092 108.65 640.021 103.615 647.538 103.615C655.056 103.615 660.985 108.65 660.985 121.476V123.172C660.985 135.839 655.056 141.139 647.538 141.139C640.021 141.139 634.092 135.839 634.092 123.172Z" fill="white"/>
</svg>
