<?xml version="1.0" encoding="UTF-8"?>
<svg width="100pt" height="100pt" version="1.1" viewBox="0 0 100 100" xmlns="http://www.w3.org/2000/svg">
 <g>
  <path d="m62.5 45.898c-0.60156-1.5-1.1992-2.8984-1.8984-4.3008-1.6992-3.6992-3.3008-7.1992-3.6016-11.102l-1.1016-21.195c0.39844 0 0.80078-0.19922 1-0.5 0.30078-0.30078 0.39844-0.80078 0.39844-1.1992l-0.69922-5.3008c-0.10156-0.69922-0.69922-1.3008-1.5-1.3008h-10c-0.69922 0-1.3984 0.60156-1.5 1.3008l-0.69922 5.3008c-0.10156 0.39844 0.10156 0.89844 0.39844 1.1992 0.19922 0.30078 0.5 0.39844 0.89844 0.5l-1.1953 21.199c-0.19922 3.8984-1.8008 7.3984-3.6016 11.102-0.60156 1.3984-1.3008 2.8008-1.8984 4.3008-0.69922 1.6016-1 3.3984-1 5.1992v42.398c0 3 2.3984 5.3984 5.3984 5.3984h16.102c3 0 5.3984-2.3984 5.3984-5.3984v-42.398c0.10156-1.8008-0.29688-3.6016-0.89844-5.2031zm-23 46.602v-9h15.5v4.8984c0 0.60156 0.39844 1 1 1s1-0.39844 1-1v-4.8984h3.5v9zm21-11h-3.5v-2.5c0-0.60156-0.39844-1-1-1s-1 0.39844-1 1v2.5h-15.5v-16.199h20.898v16.199zm-7.6016-73.199l0.5 8.6992h-6.6016l0.5-8.6992zm1 19.898c-1.1016-0.89844-2.3984-1.3984-3.8984-1.3984s-2.8008 0.5-3.8984 1.3984l0.5-9.1992h6.8008zm-3.8984 0.60156c2.3008 0 4.1992 1.8984 4.1992 4.1992s-1.8984 4.1992-4.1992 4.1992-4.1992-1.8984-4.1992-4.1992 1.8984-4.1992 4.1992-4.1992zm3.8008-24.699l0.30078 2.3008h-8l0.30078-2.3008zm-13.5 42.898c0.60156-1.3984 1.1992-2.8008 1.8008-4.1016 1-2.1016 1.8984-4.1992 2.6992-6.3984 1.1016 1.6992 3 2.8008 5.1992 2.8008s4.1016-1.1016 5.1992-2.8008c0.69922 2.1992 1.6992 4.3008 2.6992 6.3984 0.60156 1.3008 1.3008 2.6992 1.8008 4.1016 0.5 1.3008 0.80078 2.6016 0.80078 4.1016v12.199h-21v-12.199c0-1.4023 0.30078-2.8008 0.80078-4.1016zm17.699 48.898h-16c-1 0-1.8008-0.60156-2.1992-1.3984h20.5c-0.40234 0.80078-1.3008 1.3984-2.3008 1.3984z"/>
  <path d="m55 48.5v8.1992c0 0.60156 0.39844 1 1 1s1-0.39844 1-1v-8.1992c0-1.5-0.30078-2.8984-0.80078-4.3008-0.19922-0.5-0.80078-0.80078-1.3008-0.60156-0.5 0.19922-0.80078 0.80078-0.60156 1.3008 0.50391 1.2031 0.70312 2.4023 0.70312 3.6016z"/>
 </g>
</svg>
