<svg xmlns="http://www.w3.org/2000/svg" xmlns:xlink="http://www.w3.org/1999/xlink" version="1.1" x="0px" y="0px" viewBox="0 0 100 100" enable-background="new 0 0 100 100" xml:space="preserve"><g><path d="M72.211,36.609c4.194-10.125,0.673-23.146-3.497-27.316C68.526,9.105,68.271,9,68.007,9h-36   c-0.265,0-0.52,0.105-0.707,0.293c-2.218,2.218-4.109,6.645-4.934,11.553c-0.948,5.641-0.438,11.239,1.437,15.764   c1.476,3.562,4.031,7.54,9.177,10.085c1.565,0.765,9.02,6.973,9.02,15.39V76c0,4.009-4.234,5.371-8.156,6.572   c-3.134,0.96-5.734,1.789-5.734,4.053C32.109,90,38.898,90,50.059,90c12.262,0,18.183-0.144,18.183-3.375   c0-2.258-2.842-3.089-5.9-4.05C58.524,81.375,54,80.015,54,76V62.084c0-9.412,9.644-15.936,9.644-15.936   C68.132,43.603,70.837,39.927,72.211,36.609z M61.755,84.482c1.916,0.603,4.407,1.353,4.407,2.146C65.658,88,56.291,88,50.059,88   c-5.556,0-15.87,0-15.87-1.375c0-0.784,2.255-1.536,4.227-2.14C42.544,83.221,48,81.488,48,76V62.084   c0-2.963-0.606-5.623-1.793-7.921c1.157,0.109,2.459,0.171,3.694,0.171c1.528,0,2.845-0.088,4.249-0.256   C52.976,56.396,52,59.084,52,62.084V76C52,81.482,57.728,83.217,61.755,84.482z M55.701,51.875   c-1.762,0.305-3.677,0.459-5.694,0.459c-1.709,0-3.34-0.117-4.872-0.337c-0.899-1.337-1.889-2.511-2.847-3.509   c2.251,0.53,4.797,0.846,7.719,0.846c3.297,0,6.125-0.395,8.576-1.058C57.62,49.288,56.615,50.492,55.701,51.875z M50.007,47.334   c-4.639,0-8.874-0.905-11.874-2.432s-6.855-5.13-8.482-9.058c-3.66-8.836-0.914-20.71,2.787-24.845h35.139   c3.701,4.135,6.447,16.009,2.787,24.845C67.25,43.361,60.211,47.334,50.007,47.334z"></path></g></svg>