<svg id="Rounder_Expanded_White" data-name="Rounder Expanded White" xmlns="http://www.w3.org/2000/svg" viewBox="0 0 32 32"><defs><style>.cls-1{fill:#fff;}</style></defs><title>programmable-sms-white</title><path class="cls-1" d="M7.77,28.09A1.76,1.76,0,0,1,7,27.93a1.74,1.74,0,0,1-1-1.6L6,22H2.5A2.5,2.5,0,0,1,0,19.5V4.5A2.5,2.5,0,0,1,2.5,2h27A2.5,2.5,0,0,1,32,4.5v15A2.5,2.5,0,0,1,29.5,22H15.38L8.91,27.66A1.76,1.76,0,0,1,7.77,28.09ZM2.5,4a.5.5,0,0,0-.5.5v15a.5.5,0,0,0,.5.5H7a1,1,0,0,1,.71.29A1,1,0,0,1,8,21l0,4.77,6.33-5.53A1,1,0,0,1,15,20H29.5a.5.5,0,0,0,.5-.5V4.5a.5.5,0,0,0-.5-.5Z"/></svg>