<svg id="Rounder_Expanded_White" data-name="Rounder Expanded White" xmlns="http://www.w3.org/2000/svg" viewBox="0 0 32 32"><defs><style>.cls-1{fill:#fff;}</style></defs><title>whatsapp-api-white</title><path class="cls-1" d="M16,26.64a11.86,11.86,0,0,1-1.78-.14A10.69,10.69,0,0,1,5.5,17.8a10.8,10.8,0,0,1,.7-6A3.59,3.59,0,0,1,8.83,9.73a3.73,3.73,0,0,1,3.33,1,3.65,3.65,0,0,1,.82,4,3.4,3.4,0,0,0-.23,1.82,3.34,3.34,0,0,0,2.72,2.72A3.4,3.4,0,0,0,17.29,19a3.61,3.61,0,0,1,4,.82,3.7,3.7,0,0,1,1,3.32,3.58,3.58,0,0,1-2.07,2.61A10.67,10.67,0,0,1,16,26.64Zm-6.45-15a1.24,1.24,0,0,0-.33,0A1.56,1.56,0,0,0,8,12.62a8.8,8.8,0,0,0-.56,4.85,8.63,8.63,0,0,0,7,7.05,8.74,8.74,0,0,0,4.91-.59,1.49,1.49,0,0,0,.9-1.14,1.62,1.62,0,0,0-.45-1.48,1.65,1.65,0,0,0-1.82-.45,5.31,5.31,0,0,1-2.9.36h0a5.28,5.28,0,0,1-4-7.29,1.65,1.65,0,0,0-.39-1.77A1.72,1.72,0,0,0,9.54,11.66Z"/><path class="cls-1" d="M16,32a16.12,16.12,0,0,1-8.62-2.5L4.05,30.69a2.07,2.07,0,0,1-2.67-2.58L2.51,24.6A16,16,0,0,1,15,0h0a16,16,0,0,1,2.71,31.88A15.2,15.2,0,0,1,16,32ZM7.55,27.39a1,1,0,0,1,.56.17,13.86,13.86,0,0,0,9.37,2.36A14,14,0,0,0,15.1,2h0a14.07,14.07,0,0,0-13,12.49,13.84,13.84,0,0,0,2.36,9.37,1,1,0,0,1,.12.87l-1.27,4,.09.09,3.83-1.36A1,1,0,0,1,7.55,27.39ZM15,1h0Z"/></svg>