<?xml version="1.0" encoding="UTF-8"?>
<svg width="1200pt" height="1200pt" version="1.1" viewBox="0 0 1200 1200" xmlns="http://www.w3.org/2000/svg">
 <path d="m763.59 334.56c-96.883-195.25-382.33-148.59-416.95 61.516h436.56c-3.5625-21.691-10.25-42.348-19.613-61.516zm7.5781-75.336 17.684-102.82c1.4844-8.9141 7.7266-15.75 15.602-18.574l111.15-41.012c29.422-10.848 45.914 34.027 16.344 44.875l-98.367 36.258-24.367 141.61c10.996 23.922 18.574 49.629 22.289 76.523 56.02 0 45.023 3.1211 45.023 126 0 27.785-30.312 23.922-46.211 23.922l-92.426 538.94c-1.9336 11.59-12.035 19.762-23.477 19.762l-298.96 0.14844c-12.332 0-22.438-9.3594-23.773-21.25l-92.125-537.61c-57.207 0-46.211-1.7812-46.211-126 0-27.637 29.719-23.922 45.023-23.922 31.195-230.46 322.29-317.24 472.81-136.85zm57.508 184.7h-527.5v54.234h527.5zm-46.809 102.08h-433.89l87.52 511.01h258.7z"/>
 <path d="m811.82 311.26c7.7734-6.8477 14.691-14.609 20.602-23.121 46.699-69.129 10.172-162.02 8.5898-165.94-1.8359-4.5586-4.8789-8.5312-8.8047-11.488-3.9258-2.957-8.5859-4.7891-13.473-5.293-40.648-2.6523-81.031 8.207-114.87 30.891-20.941-62.086-85.723-105.66-88.992-107.82-4.4219-2.9219-9.6055-4.4805-14.906-4.4805-5.3008 0-10.484 1.5586-14.906 4.4805-3.2695 2.168-68.062 45.738-89.016 107.84-33.824-22.684-74.199-33.547-114.84-30.902-4.8906 0.50391-9.5508 2.332-13.477 5.2891-3.9258 2.9609-6.9727 6.9336-8.8047 11.492-1.5703 3.9023-37.934 96.352 8.7422 165.45h-0.003906c6.0195 8.6836 13.09 16.59 21.047 23.543-137.53 19.617-247.71 79.336-247.71 261.63 0 153.67 75.316 339.98 187.41 463.64 82.758 91.277 176.67 139.54 271.59 139.54 261.9 0 459-365.91 459-603.18 0-182.06-109.9-241.88-247.18-261.56zm-276.41-9.7383c-61.723 0-103.07-14.777-122.88-43.934-21.34-31.395-14.824-74.531-8.7891-98.121 28.395 1.9102 55.234 13.676 75.879 33.27 5.9648 5.9805 11.527 12.348 16.648 19.062 4.8047 6.1875 12.055 9.9844 19.875 10.406 7.8242 0.42188 15.441-2.5742 20.883-8.2109 5.4375-5.6367 8.1641-13.355 7.4648-21.156-0.62109-6.8672-0.91406-12.926-0.91406-18.516 0-34.969 33.059-70.137 56.391-89.531 23.344 19.406 56.379 54.562 56.355 89.531 0 5.7617-0.29297 11.824-0.89062 18.516-0.69922 7.8008 2.0273 15.523 7.4648 21.16 5.4414 5.6328 13.059 8.6289 20.883 8.207 7.8203-0.42188 15.074-4.2188 19.875-10.406 5.1523-6.75 10.746-13.152 16.746-19.16 20.613-19.547 47.406-31.285 75.75-33.188 6.0469 23.707 12.656 67.172-8.4844 98.449-19.559 28.969-60.422 43.652-121.44 43.652-0.89062 0-1.7344 0.17578-2.6016 0.25781-21.316-0.23828-42.602-0.25781-63.621-0.25781-20.449 0-41.168 0-61.898 0.23828-0.89062-0.13672-1.793-0.22656-2.6953-0.26953zm64.594 820.48c-100.14 0-181.21-66.238-231.59-121.8-102.11-112.64-173.41-288.38-173.41-427.38 0-202.64 153.01-217.27 405-217.27s405 14.625 405 217.27c0 216.87-181.44 549.18-405 549.18zm-224.19-609.08v66.832c0 9.6445-5.1445 18.559-13.5 23.383-8.3555 4.8242-18.645 4.8242-27 0-8.3555-4.8242-13.5-13.738-13.5-23.383v-66.832c0-9.6484 5.1445-18.559 13.5-23.383 8.3555-4.8242 18.645-4.8242 27 0 8.3555 4.8242 13.5 13.734 13.5 23.383zm167.48 0v66.832c0 9.6445-5.1445 18.559-13.5 23.383-8.3555 4.8242-18.645 4.8242-27 0-8.3555-4.8242-13.5-13.738-13.5-23.383v-66.832c0-9.6484 5.1445-18.559 13.5-23.383 8.3555-4.8242 18.645-4.8242 27 0 8.3555 4.8242 13.5 13.734 13.5 23.383zm167.44 0v66.832c0 9.6445-5.1484 18.559-13.5 23.383-8.3555 4.8242-18.648 4.8242-27 0-8.3555-4.8242-13.5-13.738-13.5-23.383v-66.832c0-9.6484 5.1445-18.559 13.5-23.383 8.3516-4.8242 18.645-4.8242 27 0 8.3516 4.8242 13.5 13.734 13.5 23.383zm167.46 0v66.832c0 9.6445-5.1445 18.559-13.5 23.383-8.3555 4.8242-18.645 4.8242-27 0-8.3555-4.8242-13.5-13.738-13.5-23.383v-66.832c0-9.6484 5.1445-18.559 13.5-23.383 8.3555-4.8242 18.645-4.8242 27 0 8.3555 4.8242 13.5 13.734 13.5 23.383zm-334.9 382.61v66.832c0 9.6445-5.1445 18.559-13.5 23.383s-18.645 4.8242-27 0-13.5-13.738-13.5-23.383v-66.832c0-9.6484 5.1445-18.559 13.5-23.383s18.645-4.8242 27 0 13.5 13.734 13.5 23.383zm167.44 0v66.832c0 9.6445-5.1484 18.559-13.5 23.383-8.3555 4.8242-18.648 4.8242-27 0-8.3555-4.8242-13.5-13.738-13.5-23.383v-66.832c0-9.6484 5.1445-18.559 13.5-23.383 8.3516-4.8242 18.645-4.8242 27 0 8.3516 4.8242 13.5 13.734 13.5 23.383zm-251.18-191.32v66.867c0 9.6445-5.1445 18.559-13.5 23.383-8.3555 4.8203-18.645 4.8203-27 0-8.3555-4.8242-13.5-13.738-13.5-23.383v-66.867c0-9.6445 5.1445-18.559 13.5-23.383 8.3555-4.8242 18.645-4.8242 27 0 8.3555 4.8242 13.5 13.738 13.5 23.383zm167.47 0v66.867c0 9.6445-5.1445 18.559-13.5 23.383-8.3516 4.8203-18.645 4.8203-27 0-8.3516-4.8242-13.5-13.738-13.5-23.383v-66.867c0-9.6445 5.1484-18.559 13.5-23.383 8.3555-4.8242 18.648-4.8242 27 0 8.3555 4.8242 13.5 13.738 13.5 23.383zm167.46 0v66.867c0 9.6445-5.1484 18.559-13.5 23.383-8.3555 4.8203-18.648 4.8203-27 0-8.3555-4.8242-13.5-13.738-13.5-23.383v-66.867c0-9.6445 5.1445-18.559 13.5-23.383 8.3516-4.8242 18.645-4.8242 27 0 8.3516 4.8242 13.5 13.738 13.5 23.383z" transform="scale(0.28) translate(1425, 2200)"/>
</svg>
