<?xml version="1.0" encoding="UTF-8"?>
<svg width="1200pt" height="1200pt" version="1.1" viewBox="0 0 1200 1200" xmlns="http://www.w3.org/2000/svg">
 <path d="m763.59 334.56c-96.883-195.25-382.33-148.59-416.95 61.516h436.56c-3.5625-21.691-10.25-42.348-19.613-61.516zm7.5781-75.336 17.684-102.82c1.4844-8.9141 7.7266-15.75 15.602-18.574l111.15-41.012c29.422-10.848 45.914 34.027 16.344 44.875l-98.367 36.258-24.367 141.61c10.996 23.922 18.574 49.629 22.289 76.523 56.02 0 45.023 3.1211 45.023 126 0 27.785-30.312 23.922-46.211 23.922l-92.426 538.94c-1.9336 11.59-12.035 19.762-23.477 19.762l-298.96 0.14844c-12.332 0-22.438-9.3594-23.773-21.25l-92.125-537.61c-57.207 0-46.211-1.7812-46.211-126 0-27.637 29.719-23.922 45.023-23.922 31.195-230.46 322.29-317.24 472.81-136.85zm57.508 184.7h-527.5v54.234h527.5zm-46.809 102.08h-433.89l87.52 511.01h258.7z"/>
 <path d="m1175.9 532.08c-0.074219-84.344-24.098-166.94-69.277-238.16-45.18-71.227-109.66-128.16-185.93-164.17-76.273-36.012-161.21-49.625-244.91-39.254-83.707 10.371-162.75 44.301-227.92 97.84-65.18 53.535-113.81 124.48-140.25 204.58-26.43 80.098-29.57 166.05-9.0586 247.87h-247.37c-7.1602 0-14.027 2.8477-19.09 7.9102s-7.9102 11.93-7.9102 19.09c-0.0625 89.27 26.715 176.5 76.855 250.36s121.32 130.94 204.32 163.83c82.988 32.891 173.95 40.07 261.07 20.609 87.121-19.461 166.38-64.664 227.49-129.74 106.04-15.238 203.03-68.188 273.19-149.14s108.79-184.48 108.8-291.61zm-706.21 527.2c-99.125-0.12109-194.52-37.789-267-105.42-72.469-67.629-116.63-160.2-123.59-259.08h253.24c1.1016 0.0625 2.2031 0.0625 3.3047 0h68.848l-155.92 155.91c-5.1836 5.0352-8.1328 11.941-8.1836 19.172-0.054687 7.2266 2.7969 14.172 7.9062 19.285 5.1133 5.1094 12.059 7.957 19.289 7.9062 7.2266-0.050781 14.133-3 19.168-8.1836l155.92-155.91v220.5c0 9.6445 5.1445 18.559 13.5 23.383 8.3555 4.8203 18.645 4.8203 27 0 8.3555-4.8242 13.5-13.738 13.5-23.383v-220.5l155.89 155.92c5.0469 5.1406 11.938 8.0508 19.141 8.082 7.2031 0.035156 14.121-2.8125 19.215-7.9062s7.9414-12.012 7.9102-19.215-2.9414-14.094-8.082-19.141l-155.9-155.92h325.39c-6.957 98.879-51.109 191.45-123.58 259.08-72.465 67.633-167.86 105.3-266.98 105.42zm376.05-153.11c45.41-71.215 69.504-153.93 69.434-238.39-0.003906-7.1602-2.8477-14.027-7.9102-19.09s-11.93-7.9102-19.09-7.9102h-533.39c-28.676-99.309-16.883-205.93 32.801-296.57 49.684-90.645 133.22-157.94 232.36-187.2 99.141-29.254 205.83-18.082 296.76 31.074 90.93 49.152 158.71 132.3 188.54 231.27 29.832 98.969 19.281 205.72-29.344 296.94-48.625 91.215-131.37 159.48-230.16 189.89zm48.281-566.04c5.6289 4.5195 9.2188 11.105 9.957 18.289 0.73828 7.1836-1.4297 14.363-6.0195 19.934-4.5938 5.5742-11.227 9.0742-18.418 9.7227-7.1914 0.64844-14.344-1.6133-19.855-6.2734l-31.102-25.629c-5.6406-4.5195-9.2383-11.109-9.9805-18.297-0.74609-7.1875 1.4219-14.375 6.0156-19.953 4.5977-5.5742 11.238-9.0781 18.434-9.7227 7.1992-0.64453 14.355 1.625 19.867 6.3008z" transform="scale(0.27) translate(1490, 2300)"/>
</svg>
