<?xml version="1.0" encoding="UTF-8"?>
<svg x="20" y="20" width="500" height="500pt" version="1.1" viewBox="0 0 1200 1200" xmlns="http://www.w3.org/2000/svg">
 <g transform="translate(30,10)">
  <path d="m712.5 900h-18.75v-56.25c0-10.367-8.3828-18.75-18.75-18.75s-18.75 8.3828-18.75 18.75v56.25h-225v-56.25c0-10.367-8.3828-18.75-18.75-18.75s-18.75 8.3828-18.75 18.75v56.25h-18.75c-72.355 0-131.25 58.895-131.25 131.25v112.5c0 31.012 25.238 56.25 56.25 56.25h487.5c31.012 0 56.25-25.238 56.25-56.25v-112.5c0-72.355-58.895-131.25-131.25-131.25zm93.75 243.75c0 10.352-8.3984 18.75-18.75 18.75h-487.5c-10.352 0-18.75-8.3984-18.75-18.75v-112.5c0-51.695 42.055-93.75 93.75-93.75h337.5c51.695 0 93.75 42.055 93.75 93.75z"/>
  <path d="m776.16 141.62-7.4062-14.793c-16.012-31.969-48.113-51.824-83.852-51.824h-122.4v-56.25c0-10.367-8.3828-18.75-18.75-18.75s-18.75 8.3828-18.75 18.75v56.25h-131.25c-35.738 0-67.855 19.855-83.867 51.844l-7.3867 14.793c-4.6328 9.2617-0.86328 20.531 8.3984 25.145 9.3203 4.7266 20.531 0.84375 25.145-8.3984l7.3867-14.773c9.6016-19.164 28.875-31.086 50.324-31.086h291.15c21.43 0 40.707 11.926 50.305 31.086l7.4062 14.793c3.3008 6.582 9.8984 10.367 16.801 10.367 2.8125 0 5.6797-0.63672 8.3633-1.9688 9.2617-4.6328 13.012-15.898 8.3828-25.164z"/>
  <path d="m663.15 806.25h-238.8c-48.523 0-88.648-36.414-93.32-84.711l-34.949-361.27-51.281-147.88c-1.9883-5.7578-1.0859-12.094 2.4375-17.023s9.207-7.875 15.262-7.875h525c5.2891 0 10.332 2.2305 13.875 6.1484 3.543 3.918 5.2891 9.1328 4.7812 14.418l-7.0859 73.18h82.18c41.363 0 75 33.637 75 75v262.5c0 41.363-33.637 75-75 75h-122.1l-2.6992 27.789c-4.668 48.281-44.793 84.711-93.32 84.711zm-374.3-581.25 43.367 125.1c0.48828 1.4062 0.80469 2.8672 0.95703 4.332l35.176 363.49c2.793 28.988 26.887 50.832 55.988 50.832h238.8c29.117 0 53.195-21.844 55.988-50.832l4.332-44.738c0.9375-9.6172 9-16.93 18.656-16.93h139.11c20.68 0 37.5-16.82 37.5-37.5v-262.5c0-20.68-16.82-37.5-37.5-37.5h-102.82c-5.2891 0-10.332-2.2305-13.875-6.1484s-5.2891-9.1328-4.7812-14.418l7.0859-73.18zm554.91 375h-92.551c-5.2891 0-10.332-2.2305-13.875-6.1484-3.543-3.8984-5.2891-9.1328-4.7812-14.418l18.148-187.5c0.9375-9.6172 9-16.93 18.656-16.93h74.398c10.367 0 18.75 8.3828 18.75 18.75v187.5c0 10.367-8.3828 18.75-18.75 18.75zm-71.887-37.5h53.137v-150h-38.625z"/>
  <path d="m543.75 693.75c-10.367 0-18.75-8.3828-18.75-18.75v-356.25c0-10.367 8.3828-18.75 18.75-18.75s18.75 8.3828 18.75 18.75v356.25c0 10.367-8.3828 18.75-18.75 18.75z"/>
  <path d="m543.75 1125c-41.363 0-75-33.637-75-75s33.637-75 75-75 75 33.637 75 75-33.637 75-75 75zm0-112.5c-20.68 0-37.5 16.82-37.5 37.5s16.82 37.5 37.5 37.5 37.5-16.82 37.5-37.5-16.82-37.5-37.5-37.5z"/>
 </g>
</svg>
